<?xml version="1.0" encoding="UTF-8" standalone="no"?><!DOCTYPE svg PUBLIC "-//W3C//DTD SVG 1.1//EN" "http://www.w3.org/Graphics/SVG/1.1/DTD/svg11.dtd"><svg fill="#a2a2a2" stroke="#fff" fill-rule="nonzero" stroke-width="20.83px" width="100%" height="100%" viewBox="0 0 3986 3881" version="1.1" xmlns="http://www.w3.org/2000/svg" xmlns:xlink="http://www.w3.org/1999/xlink" xml:space="preserve" xmlnsSerif="http://www.serif.com/" style="fill-rule:evenodd;clip-rule:evenodd;stroke-linejoin:round;"><path id="un1803" d="M3062.65,3281.11l-21.35,47.984l-4.2,12.641l-9.717,6.492l-13.917,19.133l-11.983,5.2l-9.383,21.725l-2.892,31.442l-13.6,13.3l6.175,15.55l-7.108,23.017l-14.259,3.9l5.2,11.983l-2.908,10.375l8.442,16.833l-12.309,11.034l149.075,-8.234l152.642,-9.208l0.025,0.033l336.075,-24.85l-4.842,24.309l22.059,24.608l16.866,12.625l-4.525,18.475l5.2,11.983l4.217,8.417l-11.333,14.592l-14.575,9.733l-1.617,8.1l-32.075,8.775l1.933,-13.942l-22.375,-18.775l-6.491,-9.716l4.2,-12.642l-7.15,-19.117l-16.525,2.609l-5.475,35.983l0.016,21.067l-40.516,-8.067l-4.859,3.242l0.017,-0.05l-10.033,12.325l-16.209,-3.225l-28.191,1.966l-16.867,-12.625l-13.942,-1.933l-12.308,11.033l-50.25,19.492l-11.008,8.758l-4.2,12.642l-12.959,1.633l-0.041,-0.075l-29.492,4.242l-8.758,-11.008l-31.442,-2.892l-16.542,-18.458l-25.608,-2.567l-27.517,32.433l-3.225,16.209l14.592,11.333l28.85,7.433l20.092,-3.583l15.866,-12.008l6.475,-11.35l15.892,9.058l-5.817,20.75l25.942,17.8l9.4,-0.658l5.817,-20.75l23,-13.959l0.991,24.634l17.184,6.791l-12.625,16.867l-7.784,-7.45l-26.866,41.833l-11.984,5.2l9.734,14.575l20.75,5.817l3.9,14.258l12.958,-1.633l15.892,9.058l22.358,-2.291l14.275,17.166l16.542,18.459l-24.609,22.058l-19.775,-2.25l-11.35,-6.475l-18.5,-25.592l-19.775,-2.25l-3.241,-4.858l-21.725,-9.383l-4.217,-8.417l-21.4,-15.217l-10.692,2.925l-18.158,-10.358l10.075,29.808l-9.058,15.892l3.583,20.092l-22.025,17.516l-9.733,-14.575l3.225,-16.208l-23.017,-7.108l-28.192,1.966l-19.416,34.05l-21.725,-9.383l-16.525,2.608l-22.042,-3.55l-25.283,-8.416l-15.892,-9.059l15.217,-21.4l-9.417,-20.408l-6.15,5.517l-35.983,-5.475l-5.85,-21.384l-12.967,1.634l3.225,-16.209l-10.375,-2.908l-30.467,0.675l5.5,-14.917l-22.358,2.292l-2.592,4.542l-20.408,9.416l-2.908,10.375l7.466,13.284l-3.883,6.808l-21.708,11.683l-44.084,-7.091l-22.041,-3.542l-56.092,-22.958l-26.583,-6.134l-39.867,1.334l-46.017,6.85l-15.55,6.175l-8.441,-16.834l14.575,-9.733l4.525,-18.475l-5.517,-6.15l12.625,-16.867l-1.333,-39.866l-4.875,-17.825l6.475,-11.35l-5.85,-21.384l6.15,-5.516l17.466,-41.175l7.109,-23.017l-8.759,-11.008l9.717,-6.492l-25.325,-50.5l2.908,-10.375l-27.258,-36.6l1.275,-23.333l-14.617,-32.4l-22.375,-18.775l-0.841,-56.638l2.291,-6.67c-32.716,-18.442 -66.05,-35.804 -100,-52.083c-19.991,-16.1 -39.437,-32.767 -58.333,-50c-14.535,-3.789 -28.617,-8.413 -42.246,-13.873c-35.019,-13.961 -69.626,-34.474 -103.587,-65.294c-109.275,-50.179 -224.554,-76.567 -345.834,-79.167c-28.412,-9.862 -56.191,-20.975 -83.333,-33.333c-29.233,-2.088 -58.4,-4.867 -87.5,-8.333c-20.433,-2.413 -39.875,-7.967 -58.333,-16.667c-35.242,1.683 -68.575,-5.263 -100,-20.833c-14.963,-15.83 -31.629,-29.721 -50,-41.667c-57.309,-23.788 -111.475,-52.954 -162.5,-87.5c-26.417,-2.504 -52.809,-5.279 -79.167,-8.333c-44.233,-28.359 -90.067,-53.359 -137.5,-75c-11.112,-1.388 -22.221,-2.78 -33.333,-4.167c-38.475,-15.738 -71.809,-38.654 -100,-68.75c-44.871,-17.871 -70.567,-51.204 -77.084,-100c-11.016,-7.542 -21.433,-15.875 -31.25,-25c-4.641,-5.096 -5.337,-10.65 -2.083,-16.667c11.938,-11.583 23.05,-24.083 33.333,-37.5c2.013,-3.95 2.705,-8.116 2.084,-12.5c11.233,-8.783 12.5,-12.5 12.5,-12.5c-4.159,-30.529 -8.325,-61.083 -12.5,-91.666c0.029,-12.884 2.112,-25.384 6.25,-37.5c22.487,-27.321 28.046,-57.875 16.666,-91.667c-14.112,-6.717 -27.308,-15.05 -39.583,-25c-5.812,-28.792 -18.312,-54.488 -37.5,-77.083c-25.025,-11.809 -50.025,-23.613 -75,-35.417c-7.396,-20.596 -15.729,-40.733 -25,-60.417c4.871,-11.029 10.425,-21.446 16.667,-31.25c-1.388,-4.166 -2.779,-8.333 -4.167,-12.5c-11.75,-3.066 -20.083,-10.008 -25,-20.833c5.925,-17.929 15.65,-33.204 29.167,-45.833c18.021,-3.617 36.079,-4.313 54.166,-2.084c9.859,-9.479 20.275,-18.504 31.25,-27.083c2.009,-14.196 2.009,-28.083 0,-41.667c11.796,-1.908 21.517,-7.466 29.167,-16.666c4.588,-33.25 5.979,-66.584 4.167,-100c-4.7,-11.28 -10.95,-21.696 -18.75,-31.25c-15.5,-5.8 -23.834,-0.938 -25,14.583c-22.717,-0.313 -44.942,-3.788 -66.667,-10.417c-8.333,-5.554 -15.279,-12.5 -20.833,-20.833c1.737,-22.996 5.208,-45.913 10.416,-68.75c-4.97,-8.771 -11.916,-15.717 -20.833,-20.833c-9.992,-22.7 -19.717,-44.925 -29.167,-66.667c-3.783,-8.079 -10.033,-12.246 -18.75,-12.5c0.996,-8.196 -0.391,-15.838 -4.166,-22.917c-26.567,-6.504 -52.959,-13.45 -79.167,-20.833c-11.583,-15.496 -24.775,-17.579 -39.583,-6.25c-8.5,-9.483 -18.917,-16.429 -31.25,-20.833c-8.925,-25.58 -26.979,-38.08 -54.167,-37.5c-0.583,-6.767 2.196,-11.625 8.333,-14.584l-4.281,-0.198l2.825,-5.511c0,0 6.155,-30.779 10.417,-45.833c-2.493,-5.396 -4.577,-10.95 -6.25,-16.667c-11.22,-8.637 -21.637,-17.666 -31.25,-27.083c10.244,-11.446 13.716,-24.642 10.416,-39.583c-12.477,-13.834 -22.893,-29.113 -31.25,-45.834l-0.289,-4.49l-12.838,-14.26c-9.783,-14.175 -12.558,-29.45 -8.333,-45.833c-8.954,-4.85 -17.979,-9.708 -27.083,-14.583c-4.209,-16.363 -9.067,-32.338 -14.584,-47.917c3.659,-7.413 3.659,-14.354 0,-20.833c7.875,-7.934 17.6,-12.792 29.167,-14.584c4.642,-5.096 5.338,-10.65 2.083,-16.666c-10.712,-3.755 -20.433,-9.309 -29.166,-16.667c-6.879,-22.058 -15.909,-42.892 -27.084,-62.5c-16.395,-3.2 -26.812,-12.921 -31.25,-29.167c-7.27,6.067 -14.908,11.621 -22.916,16.667c-12.629,-19.746 -27.213,-37.8 -43.75,-54.167c-2.779,-8.333 -5.554,-16.666 -8.334,-25c-10.325,-4.583 -17.962,-1.112 -22.916,10.417c6.437,7.658 5.046,12.521 -4.167,14.583c-13.425,-5.025 -26.617,-5.025 -39.583,0c-3.471,-3.471 -6.946,-6.946 -10.417,-10.416c-18.117,4.508 -34.783,1.033 -50,-10.417c-5.554,5.554 -11.112,11.112 -16.667,16.667c-13.558,-6.371 -27.445,-11.925 -41.666,-16.667c-9.4,3.837 -13.567,10.783 -12.5,20.833c-4.384,0.621 -8.55,-0.071 -12.5,-2.083c-3.471,-6.25 -8.334,-11.113 -14.584,-14.583c-4.55,-21.184 -7.329,-42.017 -8.333,-62.5c-6.212,-6.267 -13.85,-9.738 -22.917,-10.417c-16.17,-13.55 -18.95,-28.829 -8.333,-45.833c-17.329,-31.15 -27.05,-64.484 -29.167,-100c0.605,-3.217 1.992,-5.996 4.167,-8.334c-16.437,-12.487 -17.825,-24.987 -4.167,-37.5c15.621,-2.95 30.9,-7.116 45.834,-12.5c4.142,-4.115 15.677,-12.495 15.677,-12.495l4.701,-3.244c-0,0 45.856,-11.331 71.288,3.239c2.296,5.825 3.684,11.384 4.167,16.667c16.779,8.983 32.058,18.704 45.833,29.167c2.655,-9.346 4.042,-19.067 4.167,-29.167c-0.404,-16.813 -2.487,-32.783 -6.25,-47.917c1.938,-5.962 5.413,-10.821 10.417,-14.583c9.95,-1.263 18.979,-4.738 27.083,-10.417c4,-13.054 7.471,-26.25 10.417,-39.583c-9.429,-6.942 -17.763,-15.275 -25,-25c4.05,-8.796 7.521,-17.825 10.416,-27.083c10.025,-4.438 19.055,-9.992 27.084,-16.667c-19.692,-24.567 -41.913,-47.483 -66.667,-68.75c2.888,-11.254 -1.279,-20.283 -12.5,-27.083c-3.133,-14.963 -4.521,-29.546 -4.167,-43.75c13.284,-8.059 19.534,-19.867 18.75,-35.417c7.417,-4.557 15.059,-8.724 22.917,-12.5c-2.146,-7.188 -4.925,-14.132 -8.333,-20.833c-9.388,-3.138 -17.029,-8.694 -22.917,-16.667c-0.954,-12.323 -5.817,-22.74 -14.583,-31.25c2.779,-2.778 5.554,-5.555 8.333,-8.333c-9.65,-9.605 -15.208,-21.41 -16.667,-35.417l6.25,-8.922c7.032,-11.357 13.282,-23.163 18.75,-35.416c20.912,-11.844 40.357,-25.733 58.334,-41.667c13.288,-5.044 26.482,-9.905 39.583,-14.583c11.111,2.777 22.222,5.555 33.333,8.333c11.222,0.582 20.25,-3.584 27.084,-12.5c13.193,19.479 30.554,33.368 52.083,41.667c21.97,-22.871 42.109,-20.788 60.417,6.25c20.408,6.769 41.241,9.547 62.5,8.333c3.817,-1.559 7.29,-3.643 10.416,-6.25c4.802,-12.251 8.969,-24.751 12.5,-37.5c7.965,-19.767 22.548,-30.878 43.75,-33.333c14.738,10.213 31.405,15.769 50,16.666c29.417,-6.229 58.584,-5.535 87.5,2.084c16.621,14.435 31.896,29.713 45.834,45.833c14.546,4.67 26.35,1.197 35.416,-10.417c21.063,9.258 43.288,14.813 66.667,16.667c17.6,23.155 37.738,43.294 60.417,60.417c9.271,4.71 18.991,8.183 29.166,10.416c18.725,-10.919 37.475,-10.919 56.25,0c8.467,-1.493 16.109,-4.965 22.917,-10.416c11.375,-3.035 22.488,-2.341 33.333,2.083c15.088,-8.489 30.367,-7.795 45.834,2.083c11.966,24.506 28.633,28.672 50,12.5c16.929,-0.16 32.904,-3.632 47.916,-10.416c3.875,8.551 10.125,14.801 18.75,18.75c17.438,3.158 34.105,8.713 50,16.666c12.5,12.5 25,25 37.5,37.5c-5.708,6.006 -9.875,12.95 -12.5,20.834c9.042,6.609 18.767,12.165 29.167,16.666c8.675,21.299 23.954,29.633 45.833,25c13.788,-14.298 26.288,-12.909 37.5,4.167c34.563,8.249 67.896,20.055 100,35.417c31.155,39.53 61.709,79.113 91.667,118.75c11.113,1.387 22.221,2.779 33.333,4.166c8.988,7.967 18.713,14.913 29.167,20.834c19.346,29.05 41.571,55.437 66.667,79.166c6.566,1.617 12.121,-0.466 16.666,-6.25c4.863,-15.279 9.721,-30.554 14.584,-45.833c17.704,-17.192 39.233,-25.525 64.583,-25c29.183,10.442 56.958,22.942 83.333,37.5c-8.941,18.833 -9.637,38.279 -2.083,58.333c9.833,16.767 23.725,29.267 41.667,37.5c5.196,23.475 10.058,47.084 14.583,70.834c8.279,7.612 18.004,11.779 29.167,12.5c-4.084,17.358 -6.859,34.025 -8.334,50c9.559,29.8 15.117,60.354 16.667,91.666c4.854,4.517 10.408,7.988 16.667,10.417c19.346,4.158 38.791,5.55 58.333,4.167c7.1,-11.488 16.825,-17.042 29.167,-16.667c4.333,30.762 22.387,47.429 54.166,50c6.571,12.833 16.292,21.862 29.167,27.083l4.167,0c19.887,-13.479 39.333,-28.062 58.333,-43.75c2.446,-10.937 3.833,-22.05 4.167,-33.333c-2.909,-20.25 -4.992,-40.388 -6.25,-60.417c4.808,-5.179 10.366,-9.346 16.666,-12.5c8.95,20.846 24.23,26.404 45.834,16.667c4.679,-14.4 1.208,-26.208 -10.417,-35.417c12.717,-9.162 21.05,-20.966 25,-35.416c-10.392,-33.038 -12.475,-66.371 -6.25,-100c16.571,-18.655 23.517,-40.875 20.833,-66.667c1.725,-1.904 3.809,-3.296 6.25,-4.167c5.146,3.5 9.313,7.667 12.5,12.5l8.875,4.755c35.151,-9.289 70.567,-9.289 106.25,0c11.39,-4.552 22.501,-4.552 33.333,0c2.507,12.928 10.146,21.261 22.917,25c7.142,-4.618 9.92,-1.841 8.333,8.334c8.197,0.997 15.836,-0.392 22.917,-4.167c3.126,2.607 6.599,4.691 10.416,6.25c11.104,13.703 22.215,27.592 33.334,41.667c-4.947,4.248 -9.114,9.108 -12.5,14.583c5.99,10.765 4.601,20.487 -4.167,29.167c-16.541,6.833 -29.041,17.943 -37.5,33.333c-3.942,-2.029 -8.109,-3.417 -12.5,-4.167c-8.856,5.359 -18.579,8.829 -29.167,10.417c-10.487,18.867 -24.377,34.842 -41.666,47.917c-5.947,12.637 -4.559,24.441 4.166,35.416c-4.706,16.996 -5.4,34.354 -2.083,52.084c4.811,5.179 10.366,9.345 16.667,12.5c-0.519,23.47 7.119,43.608 22.916,60.416c22.698,11.596 46.31,21.321 70.834,29.167c7.639,7.637 15.278,15.279 22.916,22.917c1.868,24.791 15.063,37.291 39.584,37.5c-0.676,8.445 0.019,16.779 2.083,25c8.118,2.537 15.757,5.316 22.917,8.333c4.166,-0 4.375,1.692 8.542,1.692l30.167,26.225l24.308,4.841l16.542,18.459l24.308,4.841l20.108,17.484l14.934,26.566l24.65,20.075l15.233,-0.333l15.892,9.058l17.841,16.192l7.8,28.517l1.984,49.258l0.05,0.017l8.125,22.683l12.641,4.2l2.925,10.692l-10.675,23.991l8.142,43.75l12.342,31.1l11.35,6.475l35.983,5.475l9.417,20.409l-0.317,5.833l0,-0.025l-2.592,4.542l28.217,19.1l8.125,22.683l32.75,21.683l6.175,15.55l-6.775,38.25l-13.6,13.3l-3.867,27.875l-12.308,11.034l-21.383,5.85l-13.6,13.3l-38.884,4.891l-8.741,10.059l-3.55,22.041l1.633,12.959l13.617,7.766l5.2,11.984l0.991,24.633l-17.483,20.108l-2.567,25.609l-7.45,7.783l-27.541,11.367l2.625,37.591l-7.125,1.95l-0.067,0.067l-7.767,13.617l-2.566,25.608l5.533,27.217l5.2,11.983l0.333,15.233l14.934,26.567l36.975,30.108l9.733,14.575l32.75,21.684l13.958,23l6.192,36.616l5.2,11.984l11.35,6.475l20.725,-15.25l35.658,11.308l8.759,11.008l-9.059,15.892l1.317,18.8l-6.792,17.183l-16.491,44.742l8.441,16.833l34.384,34.65l14.916,5.5l12.642,4.2l12.325,10.034l17.183,6.791l12.984,19.434l12.641,4.2l6.825,24.95l11.684,21.708l-1.934,13.942l-6.791,17.183l31.475,45.025l9.716,-6.492l12.325,10.034l8.1,1.616l-3.55,22.042l3.584,20.092l-8.417,25.283l-6.15,5.517l-15.892,-9.059l-8.416,25.284l-18.8,1.316l5.85,21.384l-12.309,11.033l5.2,11.983l-16.525,2.609l14.275,17.166l-7.45,7.784l-8.083,19.45l0.1,-0.025l9.733,14.575l-12.958,1.633l7.467,13.283l-8.742,10.059l-23.975,10.391l6.175,15.55l-5.175,9.084l6.492,9.716l-15.55,6.175l-0.642,11.667l-10.033,12.325l-2.25,19.775l6.175,15.55l-1.934,13.942l-10.375,-2.909l-6.791,17.184l-11.009,8.758l-0.058,-0.017l156.208,-10.183l159.75,-11.158l-0.916,-3.575l99.816,-6.242l116.342,-8.85l165.925,-16.667l0.042,0.05l11.708,42.767l24.7,83.275l27.308,99.8l39.334,136.733l8.125,22.684l5.516,6.15l11.367,27.541l14.275,17.167l6.175,15.55l1.514,8.492l-280.023,22.65l-154.772,14.121l-181.214,11.752l-88.729,7.583l-108.613,7.231l-86.09,6.126l-31.508,3.663l18.402,12.44Zm-114.267,527.392l12.625,-16.867l-33.417,-10.016l-15.55,6.175l0.659,9.4l28.533,13.266l7.125,-1.95l0.025,-0.008Z"/></svg>