<?xml version="1.0" encoding="UTF-8" standalone="no"?><!DOCTYPE svg PUBLIC "-//W3C//DTD SVG 1.1//EN" "http://www.w3.org/Graphics/SVG/1.1/DTD/svg11.dtd"><svg fill="#a2a2a2" stroke="#fff" fill-rule="nonzero" stroke-width="20.83px" width="100%" height="100%" viewBox="0 0 991 555" version="1.1" xmlns="http://www.w3.org/2000/svg" xmlns:xlink="http://www.w3.org/1999/xlink" xml:space="preserve" xmlnsSerif="http://www.serif.com/" style="fill-rule:evenodd;clip-rule:evenodd;stroke-linejoin:round;"><path id="un1802" d="M49.24,543.752l31.508,-3.664l86.09,-6.125l108.613,-7.232l88.729,-7.583l181.214,-11.751l154.772,-14.121l280.023,-22.651l-1.514,-8.492l-6.175,-15.55l-14.275,-17.166l-11.367,-27.542l-5.516,-6.15l-8.125,-22.683l-39.334,-136.734l-27.308,-99.8l-24.7,-83.275l-11.708,-42.766l-0.042,-0.05l-165.925,16.666l-116.342,8.85l-99.816,6.242l0.916,3.575l-159.75,11.158l-156.208,10.184l7.467,13.283l-12.309,11.033l-16.833,8.442l1.633,12.958l-14.258,3.9l-4.525,18.475l2.925,10.692l-1.592,29.167l-33.033,26.283l-5.5,14.917l-12.308,11.033l10.058,8.742l-2.908,10.375l-26.242,9.1l8.758,11.008l-5.175,9.075l5.2,11.983l-21.05,21.084l7.467,13.283l-10.358,18.158l14.591,11.334l-0.958,17.5l-6.475,11.35l12.325,10.033l1.317,18.8l-9.717,6.492l1.317,18.8l14.275,17.166l-6.475,11.35l-3.225,16.209l9.083,5.175l-10.033,12.325l0.658,9.4l11.033,12.308l1.317,18.8l9.79,6.627Z"/></svg>