<?xml version="1.0" encoding="UTF-8" standalone="no"?><!DOCTYPE svg PUBLIC "-//W3C//DTD SVG 1.1//EN" "http://www.w3.org/Graphics/SVG/1.1/DTD/svg11.dtd"><svg fill="#a2a2a2" stroke="#fff" fill-rule="nonzero" stroke-width="20.83px" width="100%" height="100%" viewBox="0 0 4408 3302" version="1.1" xmlns="http://www.w3.org/2000/svg" xmlns:xlink="http://www.w3.org/1999/xlink" xml:space="preserve" xmlnsSerif="http://www.serif.com/" style="fill-rule:evenodd;clip-rule:evenodd;stroke-linejoin:round;"><path id="un1846" d="M40.517,1180.84c518.066,166.559 1045.84,296.421 1583.33,389.583c181.904,32.638 363.85,63.888 545.833,93.75c0,0 32.448,1.508 43.559,1.508c43.389,5.159 87.139,10.714 131.25,16.667c-7.857,97.375 -16.95,194.663 -27.279,291.864c-0,-0 -23.835,206.641 -24.804,214.386c11.629,32.325 22.74,64.963 33.333,97.917c-0.925,6.479 -3.703,12.037 -8.333,16.666c4.782,6.871 10.337,13.121 16.666,18.75c11.851,9.088 23.657,18.113 35.417,27.084c12.955,-6.129 26.149,-11.688 39.583,-16.667c18.545,10.25 37.99,19.279 58.334,27.083c7.521,10.013 17.241,16.959 29.166,20.834c37.25,-0.417 70.584,10.696 100,33.333c8.334,1.388 16.667,2.779 25,4.167c13.15,6.966 25.65,14.604 37.5,22.916c11.73,-3.104 23.538,-5.883 35.417,-8.333c38.854,2.625 78.438,4.708 118.75,6.25c51.013,10.5 100.317,26.471 147.917,47.917c12.479,-3.234 24.283,-8.096 35.416,-14.584c6.946,-2.779 13.888,-2.779 20.834,0c25.791,9.517 50.791,20.625 75,33.334c28.525,7.854 56.304,14.104 83.333,18.75l0,141.666c0,29.813 -2.083,87.5 -0.057,90.344l-4.652,196.306l-1.754,37.217l3.906,1.381l-9.468,116.652l17.5,0.959l28.55,34.333l20.091,-3.583l23.017,7.108l1.933,-13.942l18.159,10.359l9.733,14.575l-0.958,17.5l26.583,6.133l9.4,-0.658l11.35,6.475l23.017,7.108l22.358,-2.292l12.008,15.867l12.959,-1.633l10.033,-12.325l20.75,5.816l16.525,-2.608l0.017,21.067l18.135,7.833l4.319,0.898l-0.729,0.652l-1.934,13.942l11.35,6.475l11.984,-5.2l18.458,-16.542l13.942,1.933l3.9,14.259l13.941,1.933l2.925,10.692l11.667,0.641l25.25,-12.658l5.517,6.15l-5.5,14.917l6.491,9.716l9.4,-0.658l4.2,-12.642l23.634,-25.625l9.733,14.575l24.308,4.842l6.475,-11.35l11.034,12.308l12.325,10.034l11.666,0.641l12.009,15.867l6.475,-11.35l15.233,-0.333l6.475,-11.35l16.525,-2.609l16.833,-8.441l11.35,6.475l12.959,-1.634l26.566,-14.933l8.759,11.008l27.875,3.867l13.283,-7.467l6.475,-11.35l27.242,15.534l10.375,2.908l16.541,18.458l18.475,4.525l33.075,15.85l5.834,0.317l0.9,-80.7l2.783,-157.842l-0.392,-78.433l-11.083,-75.5l-17.608,-127.358l-0.009,-0.017l0.242,-90.1l0.008,-0.067l-4.033,-161.725l-0.733,-93.666l-1.084,-129.959l-29.508,-16.833l-11.367,-27.542l-26.6,-27.2l8.417,-25.283l11.333,-14.592l8.1,1.617l3.225,-16.208l-19.133,-13.917l-9.717,6.492l-15.891,-9.059l-17.842,-16.191l0,0.108l-13.617,-7.767l0.642,-11.666l-30.5,-41.459l-8.775,-32.075l-9.733,-14.575l0.641,-11.666l-14.591,-11.334l4.2,-12.641l-1.65,-34.025l-3.242,-4.859l-0.675,-30.466l-5.517,-6.15l5.817,-20.75l-10.375,-2.909l3.55,-22.041l-21.4,-15.217l-1.317,-18.8l3.867,-27.875l-8.758,-11.008l-2.292,-22.359l-13.3,-13.6l-2.925,-10.691l-9.733,-14.575l0.958,-17.5l-7.467,-13.284l1.275,-23.333l-12.641,-4.2l0.025,-0.083l-4.559,-23.659l-16.541,-18.458l10.358,-18.158l9.383,-21.725l-1.633,-12.959l7.767,-13.616l-3.584,-20.092l-11.666,-0.642l3.866,-27.875l-5.85,-21.383l17.5,0.958l-0.125,-0.016l87.834,-1.05l126.4,-0.109l129.958,-1.083l257.967,-9.3l85.558,-2.342l-1.983,-49.258l-7.8,-28.517l-17.842,-16.191l-15.892,-9.059l-15.233,0.334l-24.65,-20.075l-14.933,-26.567l-20.109,-17.483l-24.308,-4.842l-16.542,-18.458l-24.308,-4.842l-30.167,-26.225c-4.166,-0 -4.375,-1.692 -8.542,-1.692c-7.16,-3.016 -14.799,-5.796 -22.917,-8.333c-2.064,-8.221 -2.758,-16.554 -2.083,-25c-24.521,-0.208 -37.715,-12.708 -39.583,-37.5c-7.639,-7.638 -15.278,-15.279 -22.917,-22.917c-24.524,-7.846 -48.135,-17.571 -70.833,-29.166c-15.797,-16.809 -23.436,-36.946 -22.917,-60.417c-6.301,-3.154 -11.856,-7.321 -16.667,-12.5c-3.317,-17.729 -2.622,-35.088 2.084,-52.083c-8.725,-10.975 -10.114,-22.78 -4.167,-35.417c17.29,-13.075 31.179,-29.05 41.667,-47.917c10.588,-1.587 20.31,-5.058 29.166,-10.416c4.392,0.749 8.558,2.137 12.5,4.166c8.459,-15.389 20.959,-26.5 37.5,-33.333c8.769,-8.68 10.158,-18.402 4.167,-29.167c3.387,-5.474 7.553,-10.335 12.5,-14.583c-11.118,-14.075 -22.229,-27.963 -33.333,-41.667c-3.818,-1.559 -7.29,-3.642 -10.417,-6.25c-7.081,3.776 -14.72,5.164 -22.917,4.167c1.587,-10.174 -1.191,-12.952 -8.333,-8.333c-12.771,-3.74 -20.41,-12.073 -22.917,-25c-10.831,-4.553 -21.942,-4.553 -33.333,-0c-35.682,-9.29 -71.099,-9.29 -106.25,-0l0,-220.834c0,-26.924 -0.076,-14.424 -1.633,-55.275l-80.7,-0.9l-167.25,-2.125l0.042,0.025l-98.2,-1.858l-79.408,-3.175l-133.209,-3.775l-105.008,-5.742l-83.917,-5.758l-75.841,-4.15l-105.992,-9.308l-140.992,-11.217l-0.058,0.008l0.042,0l-96.592,-9.966l-80.383,-6.734l-132.567,-15.441l-77.792,-11.275l-106.966,-12.875l-103.4,-13.85l-116.042,-18.05l-94.975,-18.067l-104.375,-17.408l-155.267,-28.384l-129.658,-25.816l-4.517,-1.534c-118.198,-23.482 -235.747,-49.537 -352.982,-76.84l-137.109,-35.301l-128.05,-33.917l-153.334,-42.325l-78.45,-20.675l-100.166,-30.05l-63.217,-21.008l-0.05,0.05l-8.083,19.45l9.1,26.241l12.641,4.2l0.359,36.3l-9.717,6.492l-11.967,26.258l12.009,15.867l-4.184,33.708l12.659,25.25l-19.117,7.15l-17.8,25.942l-0.642,11.667l-7.766,13.616l-5.475,35.984l1.633,12.958l-20.725,15.25l-9.083,-5.175l-8.742,10.058l-24.292,16.225l-3.9,-14.258l-15.233,0.333l-5.2,-11.983l11.333,-14.592l11.984,-5.2l-1.275,23.334l19.433,-12.984l14.258,-3.9l16.834,-29.508l-6.175,-15.55l2.25,-19.775l23.658,-4.558l0.3,-26.9l-6.808,-3.884l-25.909,24.334l-8.741,10.058l-24.95,6.825l22.658,-29.192l12.642,4.2l12.308,-11.033l1.933,-13.942l-4.241,-29.491l2.908,-10.375l-28.192,1.966l-9.733,-14.575l-18.8,1.317l-36.633,-14.875l-12.325,-10.033l-38.909,-16.175l-17.516,-22.025l-18.159,-10.359l-15.25,-20.725l-14.258,3.9l-16.508,23.675l0.333,15.234l-4.183,33.708l12.658,25.25l3.9,14.258l-3.208,37.275l-6.45,32.417l5.533,27.217l-7.75,34.683l17.183,6.792l-1.616,8.1l13.3,13.6l-22.359,2.291l-10.033,12.325l-2.908,10.375l20.425,11.65l-13.242,49.6l-26.242,9.1l11.684,21.709l-9.742,6.491l-1.275,23.334l-4.525,18.475l-10.692,2.925l0.334,15.233l-10.359,18.158l3.584,20.092l-10.034,12.325l-8.083,19.45l4.217,8.417l-12.309,11.033l0.659,9.4l-8.417,25.283l-24.592,43.125l-5.175,9.084l-12.608,37.933l-52.4,123.525l-10.358,18.158l-31.067,54.475l-6.475,11.35l-11.667,-0.641l-26.208,51.233l-21.367,26.917l-2.25,19.775l8.442,16.833l-4.525,18.475l-6.475,11.35l-9.7,27.558l0.017,21.067l-4.525,18.475l12.658,25.25l-0.033,0.017l17.475,8.725Z"/></svg>