<?xml version="1.0" encoding="UTF-8" standalone="no"?><!DOCTYPE svg PUBLIC "-//W3C//DTD SVG 1.1//EN" "http://www.w3.org/Graphics/SVG/1.1/DTD/svg11.dtd"><svg fill="#a2a2a2" stroke="#fff" fill-rule="nonzero" stroke-width="20.83px" width="100%" height="100%" viewBox="0 0 698 198" version="1.1" xmlns="http://www.w3.org/2000/svg" xmlns:xlink="http://www.w3.org/1999/xlink" xml:space="preserve" xmlnsSerif="http://www.serif.com/" style="fill-rule:evenodd;clip-rule:evenodd;stroke-linejoin:round;"><path id="un1812" d="M354.417,182.692l12.958,-1.634l4.2,-12.641l11.008,-8.759l50.25,-19.491l12.309,-11.034l13.941,1.934l16.867,12.625l28.192,-1.967l16.208,3.225l10.033,-12.325l-0.016,0.05l4.858,-3.242l40.517,8.067l-0.017,-21.067l5.475,-35.983l16.525,-2.608l7.15,19.116l-4.2,12.642l6.492,9.717l22.375,18.775l-1.934,13.941l32.075,-8.775l1.617,-8.1l14.575,-9.733l11.333,-14.592l-4.216,-8.416l-5.2,-11.984l4.525,-18.475l-16.867,-12.625l-22.058,-24.608l4.841,-24.308l-336.075,24.85l-0.025,-0.034l-152.641,9.209l-149.075,8.233l11.326,8.824c19.442,4.1 23.609,13.822 12.5,29.167c10.53,2.973 20.946,5.751 31.25,8.333c6.293,17.768 15.32,33.74 27.083,47.917c-0.355,4.614 -1.744,8.78 -4.167,12.5c18.962,5.061 38.407,7.839 58.334,8.333c10.375,8.094 22.18,12.955 35.416,14.583c11.572,-4.652 23.589,-8.129 36.05,-10.433c4.59,-0.848 8.563,-1.388 8.563,-1.388l15.761,-18.578l25.609,2.567l16.541,18.458l31.442,2.892l8.758,11.008l29.492,-4.241l0.042,0.075Z"/></svg>