<?xml version="1.0" encoding="UTF-8" standalone="no"?><!DOCTYPE svg PUBLIC "-//W3C//DTD SVG 1.1//EN" "http://www.w3.org/Graphics/SVG/1.1/DTD/svg11.dtd"><svg fill="#a2a2a2" stroke="#fff" fill-rule="nonzero" stroke-width="20.83px" width="100%" height="100%" viewBox="0 0 2523 3040" version="1.1" xmlns="http://www.w3.org/2000/svg" xmlns:xlink="http://www.w3.org/1999/xlink" xml:space="preserve" xmlnsSerif="http://www.serif.com/" style="fill-rule:evenodd;clip-rule:evenodd;stroke-linejoin:round;"><path id="un1850" d="M2378.3,1875.33l-13.617,-7.767l0.642,-11.666l-30.5,-41.459l-8.775,-32.075l-9.734,-14.575l0.642,-11.666l-14.592,-11.334l4.2,-12.641l-1.65,-34.025l-3.241,-4.859l-0.675,-30.466l-5.517,-6.15l5.817,-20.75l-10.375,-2.909l3.55,-22.041l-21.4,-15.217l-1.317,-18.8l3.867,-27.875l-8.759,-11.008l-2.291,-22.359l-13.3,-13.6l-2.925,-10.691l-9.734,-14.575l0.959,-17.5l-7.467,-13.284l1.275,-23.333l-12.642,-4.2l-0.025,-0.05l-16.208,-3.225l-12.008,-15.867l-0.659,-9.4l-13.941,-1.933l-6.492,-9.717l-35.658,-11.308l-23.675,-16.508l-25.925,3.266l-21.067,0.017l-25.608,-2.567l-11.334,14.592l-9.4,0.658l5.769,-8.258c-16.746,-10.954 -34.8,-19.979 -54.167,-27.083c-5.441,-10.721 -12.387,-20.442 -20.833,-29.167c-12.158,-7.387 -24.658,-13.637 -37.5,-18.75c0.621,-4.383 -0.071,-8.55 -2.083,-12.5c-8.146,-3.971 -15.092,-9.529 -20.834,-16.667c-3.291,-15.116 -12.32,-23.45 -27.083,-25c0.879,-17 -4.679,-31.583 -16.667,-43.75c21.05,-25.595 18.967,-49.9 -6.25,-72.916c0.225,-11.213 -4.637,-18.85 -14.583,-22.917c-10.671,3.15 -21.783,6.621 -33.333,10.417c1.65,-10.6 -1.129,-19.629 -8.334,-27.084c-14.712,-6.691 -29.991,-11.55 -45.833,-14.583c-3.433,-13.621 -11.767,-22.646 -25,-27.083c1.388,-1.388 2.779,-2.779 4.167,-4.167c-11.192,-10.608 -15.359,-23.804 -12.5,-39.583c11.358,0.983 21.079,-2.488 29.166,-10.417c5.555,-6.946 5.555,-13.887 0,-20.833c7.909,-3.75 14.85,-8.609 20.834,-14.584c-0.284,-27.462 -0.975,-55.241 -2.084,-83.333c-5.408,-4.417 -10.27,-9.275 -14.583,-14.583c7.413,-8.767 12.967,-18.492 16.667,-29.167c-1.754,-9.104 -3.838,-18.129 -6.25,-27.083c-9.809,-13.834 -17.446,-28.417 -22.917,-43.75c5.079,-14.021 9.246,-28.604 12.5,-43.75c-5.554,-11.113 -5.554,-22.221 0,-33.334c-6.6,-14.241 -15.625,-26.741 -27.083,-37.5c-2.913,-15.345 -7.771,-29.928 -14.584,-43.75c2.78,-4.166 5.555,-8.333 8.334,-12.5c-8.171,-13.395 -13.029,-27.978 -14.584,-43.75c-12.245,-9.636 -25.437,-11.025 -39.583,-4.166c-6.154,-17.449 -8.929,-34.81 -8.333,-52.084c-13.888,-2.778 -27.779,-2.778 -41.667,0c-13.021,7.492 -24.133,4.715 -33.333,-8.333c-8.054,-1.046 -15.692,-3.13 -22.917,-6.25c-0.908,-12.192 -2.992,-23.998 -6.25,-35.417c-5.829,-2.477 -11.383,-1.783 -16.667,2.084c-6.495,-2.39 -12.745,-5.168 -18.75,-8.334c0.517,-9.763 2.6,-19.485 6.25,-29.166c-5.554,-12.5 -11.112,-25 -16.666,-37.5c0.391,-20.527 1.087,-41.36 2.083,-62.5c-1.037,-4.684 -3.121,-8.85 -6.25,-12.5c-11.279,-4.494 -22.392,-8.661 -33.333,-12.5c0.166,-19.553 1.554,-38.997 4.166,-58.334l2.132,-4.541l-140.992,-11.217l-0.058,0.008l0.041,0l-96.591,-9.966l-80.384,-6.734l-132.566,-15.441l-77.792,-11.275l-106.967,-12.875l-103.4,-13.85l-116.041,-18.05l-94.975,-18.067l-104.375,-17.408l-155.267,-28.384l-129.658,-25.816l-5.4,12.366c3.775,7.082 5.162,14.72 4.166,22.917c9.55,-1.068 18.58,0.32 27.084,4.167c0.896,13.982 0.896,27.871 -0,41.666c6.466,6.109 14.108,10.276 22.916,12.5c1.459,14.007 7.017,25.812 16.667,35.417c-2.779,2.778 -5.554,5.555 -8.333,8.333c8.766,8.51 13.629,18.927 14.583,31.25c5.888,7.974 13.529,13.529 22.917,16.667c3.408,6.701 6.187,13.645 8.333,20.833c-7.858,3.777 -15.5,7.943 -22.917,12.5c0.784,15.55 -5.466,27.359 -18.75,35.417c-0.354,14.204 1.034,28.788 4.167,43.75c11.221,6.8 15.388,15.829 12.5,27.083c24.754,21.267 46.975,44.184 66.667,68.75c-8.029,6.675 -17.059,12.23 -27.084,16.667c-2.895,9.258 -6.366,18.288 -10.416,27.083c7.237,9.725 15.571,18.059 25,25c-2.946,13.334 -6.417,26.53 -10.417,39.584c-8.104,5.679 -17.133,9.154 -27.083,10.416c-5.004,3.763 -8.479,8.621 -10.417,14.584c3.763,15.133 5.846,31.104 6.25,47.916c-0.125,10.1 -1.512,19.821 -4.167,29.167c-13.775,-10.462 -29.054,-20.183 -45.833,-29.167c-0.483,-5.283 -1.871,-10.841 -4.167,-16.666c-33.441,-19.159 -63.995,-14.992 -91.666,12.5c-14.934,5.383 -30.213,9.55 -45.834,12.5c-13.658,12.512 -12.27,25.012 4.167,37.5c-2.175,2.337 -3.562,5.116 -4.167,8.333c2.117,35.517 11.838,68.85 29.167,100c-10.617,17.004 -7.837,32.283 8.333,45.833c9.067,0.68 16.705,4.15 22.917,10.417c1.004,20.483 3.783,41.317 8.333,62.5c6.25,3.471 11.113,8.333 14.584,14.583c3.95,2.013 8.116,2.705 12.5,2.084c-1.067,-10.05 3.1,-16.996 12.5,-20.834c14.221,4.742 28.108,10.296 41.666,16.667c5.555,-5.554 11.113,-11.112 16.667,-16.667c15.217,11.45 31.883,14.925 50,10.417c3.471,3.471 6.946,6.946 10.417,10.417c12.966,-5.025 26.158,-5.025 39.583,-0c9.213,-2.063 10.604,-6.925 4.167,-14.584c4.954,-11.529 12.591,-15 22.916,-10.416c2.78,8.333 5.555,16.666 8.334,25c16.537,16.366 31.121,34.421 43.75,54.166c8.008,-5.045 15.646,-10.6 22.916,-16.666c4.438,16.246 14.855,25.966 31.25,29.166c11.175,19.609 20.205,40.442 27.084,62.5c8.733,7.359 18.454,12.913 29.166,16.667c3.255,6.017 2.559,11.571 -2.083,16.667c-11.567,1.791 -21.292,6.65 -29.167,14.583c3.659,6.479 3.659,13.421 0,20.833c5.517,15.58 10.375,31.555 14.584,47.917c9.104,4.875 18.129,9.733 27.083,14.583c-4.225,16.384 -1.45,31.659 8.333,45.834c-3.179,3.933 -7.345,6.016 -12.5,6.25l25.338,8.009l0.289,4.491c8.357,16.721 18.773,32 31.25,45.833c3.3,14.942 -0.172,28.138 -10.416,39.583c9.613,9.417 20.03,18.446 31.25,27.084c1.673,5.716 3.757,11.271 6.25,16.666c-4.262,15.055 -7.734,30.33 -10.417,45.834c-12.525,8.416 -20.164,19.529 -22.917,33.333c21.014,-4.454 36.986,2.487 47.917,20.833c2.051,4.371 1.357,8.538 -2.083,12.5c15.907,7.259 31.184,15.592 45.833,25c16.829,-13.15 29.329,-9.675 37.5,10.417c24.912,4.704 49.912,8.871 75,12.5c8.445,5.817 9.834,12.758 4.167,20.833c6.627,4.359 12.877,9.221 18.75,14.584c11.861,23.72 23.666,47.333 35.416,70.833l3.248,2.133l-5.55,10.533c2.201,5.086 4.979,9.947 8.333,14.583c-5.555,12.5 -11.111,25 -16.667,37.5c5.957,14.122 10.817,28.705 14.584,43.75c15.13,4.573 29.019,11.517 41.666,20.833c14.007,-0.347 28.591,-1.042 43.75,-2.083c10.448,-0.387 19.476,-3.859 27.084,-10.417c12.926,20.383 17.093,34.272 12.5,58.334c-5.185,13.075 7.428,46.347 6.25,25l-14.584,25c-12.183,5.143 -23.293,12.088 -33.333,20.833c-2.778,4.167 -2.778,8.333 -0,12.5c13.834,6.98 15.917,15.313 6.25,25c-19.378,21.03 -42.988,26.585 -70.833,16.667c-8.07,3.168 -15.708,7.335 -22.917,12.5c-7.323,17.719 -13.573,35.774 -18.75,54.166c2.727,14.569 11.06,24.986 25,31.25c-3.631,11.17 -7.798,22.281 -12.5,33.334c5.54,16.458 11.095,33.125 16.667,50c-0.604,3.216 -1.992,5.995 -4.167,8.333c-9.722,1.387 -19.445,2.779 -29.167,4.167c-3.153,6.3 -7.319,11.858 -12.5,16.666c-10.417,8.279 -21.528,15.921 -33.333,22.917c-3.69,3.437 -5.079,7.604 -4.167,12.5l14.584,8.333c177.856,24.8 364.662,48.413 543.75,62.5c-4.659,55.804 -6.046,107.192 -12.5,162.5l0.3,1.251l0.05,0.025l-7.375,92.084l173.725,11.841l153.959,9.592l103.685,4.552l4.198,2.383l0.054,14.498l-2.204,56.909l-6.7,122.516l-1.754,37.217l3.905,1.381l-9.468,116.652l17.5,0.959l28.55,34.333l20.092,-3.583l23.017,7.108l1.933,-13.942l18.158,10.359l9.734,14.575l-0.959,17.5l26.584,6.133l9.4,-0.658l11.35,6.475l23.016,7.108l22.359,-2.292l12.008,15.867l12.958,-1.633l10.034,-12.325l20.75,5.816l16.525,-2.608l0.016,21.067l18.136,7.833l4.319,0.898l-0.73,0.652l-1.933,13.942l11.35,6.475l11.983,-5.2l18.459,-16.542l13.941,1.933l3.9,14.259l13.942,1.933l2.925,10.692l11.667,0.641l25.25,-12.658l5.516,6.15l-5.5,14.917l6.492,9.716l9.4,-0.658l4.2,-12.642l23.633,-25.625l9.734,14.575l24.308,4.842l6.475,-11.35l11.033,12.308l12.325,10.034l11.667,0.641l12.008,15.867l6.475,-11.35l15.234,-0.333l6.475,-11.35l16.525,-2.609l16.833,-8.441l11.35,6.475l12.958,-1.634l26.567,-14.933l8.758,11.008l27.875,3.867l13.284,-7.467l6.475,-11.35l27.241,15.534l10.375,2.908l16.542,18.458l18.475,4.525l33.075,15.85l5.833,0.317l0.9,-80.7l2.784,-157.842l-0.392,-78.433l-11.083,-75.5l-17.609,-127.358l-0.008,-0.017l0.242,-90.1l0.008,-0.067l-4.033,-161.725l-0.734,-93.666l-1.083,-129.959l-29.508,-16.833l-11.367,-27.542l-26.6,-27.2l8.417,-25.283l11.333,-14.592l8.1,1.617l3.225,-16.208l-19.133,-13.917l-9.717,6.492l-15.892,-9.059l-17.841,-16.191l-0,0.108Z"/></svg>