<?xml version="1.0" encoding="UTF-8" standalone="no"?><!DOCTYPE svg PUBLIC "-//W3C//DTD SVG 1.1//EN" "http://www.w3.org/Graphics/SVG/1.1/DTD/svg11.dtd"><svg fill="#a2a2a2" stroke="#fff" fill-rule="nonzero" stroke-width="20.83px" width="100%" height="100%" viewBox="0 0 3289 3309" version="1.1" xmlns="http://www.w3.org/2000/svg" xmlns:xlink="http://www.w3.org/1999/xlink" xml:space="preserve" xmlnsSerif="http://www.serif.com/" style="fill-rule:evenodd;clip-rule:evenodd;stroke-linejoin:round;stroke-miterlimit:2;"><path id="un1812" d="M978.049,2468.8c-0,0 -1.267,3.717 -12.5,12.5c0.621,4.384 -0.071,8.55 -2.084,12.5c-10.283,13.417 -21.395,25.917 -33.333,37.5c-3.254,6.017 -2.558,11.571 2.083,16.667c9.817,9.125 20.234,17.458 31.25,25c6.517,48.796 32.213,82.129 77.084,100c28.191,30.096 61.525,53.012 100,68.75c11.112,1.387 22.221,2.779 33.333,4.167c47.433,21.641 93.267,46.641 137.5,75c26.358,3.054 52.75,5.829 79.167,8.333c51.025,34.546 105.191,63.712 162.5,87.5c18.371,11.946 35.037,25.837 50,41.667c31.425,15.57 64.758,22.516 100,20.833c18.458,8.7 37.9,14.254 58.333,16.667c29.1,3.466 58.267,6.245 87.5,8.333c27.142,12.358 54.921,23.471 83.333,33.333c121.28,2.6 236.559,28.988 345.834,79.167c42.1,38.408 90.708,64.8 145.833,79.167c18.896,17.233 38.342,33.9 58.333,50c33.95,16.279 67.284,33.641 100,52.083c-1.287,-37.708 -4.406,-88.038 -4.116,-121.726l137.091,-3.033l107.917,-4.633l83.292,-3.634l111.483,-5.608l-1.317,-18.8l9.717,-6.492l-1.317,-18.8l-12.325,-10.033l6.475,-11.35l0.959,-17.5l-14.592,-11.333l10.358,-18.159l-7.466,-13.283l21.05,-21.083l-5.2,-11.984l5.175,-9.075l-8.759,-11.008l26.242,-9.1l2.908,-10.375l-10.058,-8.742l12.308,-11.033l5.5,-14.917l33.034,-26.283l1.591,-29.167l-2.925,-10.691l4.525,-18.475l14.259,-3.9l-1.634,-12.959l16.834,-8.441l12.308,-11.034l-7.467,-13.283l11.009,-8.758l6.791,-17.184l10.375,2.909l1.934,-13.942l-6.175,-15.55l2.25,-19.775l10.033,-12.325l0.642,-11.667l15.55,-6.175l-6.492,-9.716l5.175,-9.084l-6.175,-15.55l23.975,-10.391l8.742,-10.059l-7.467,-13.283l12.958,-1.633l-9.733,-14.575l-0.1,0.025l8.083,-19.45l7.45,-7.784l-14.275,-17.166l16.525,-2.609l-5.2,-11.983l12.309,-11.033l-5.85,-21.384l18.8,-1.316l8.416,-25.284l15.892,9.059l6.15,-5.517l8.417,-25.283l-3.584,-20.092l3.55,-22.042l-8.1,-1.616l-12.325,-10.034l-9.716,6.492l-31.475,-45.025l6.791,-17.183l1.934,-13.942l-11.684,-21.708l-6.825,-24.95l-12.641,-4.2l-12.984,-19.434l-17.183,-6.791l-12.325,-10.034l-12.642,-4.2l-14.916,-5.5l-34.384,-34.65l-8.441,-16.833l16.491,-44.742l6.792,-17.183l-1.317,-18.8l9.059,-15.892l-8.759,-11.008l-35.658,-11.308l-20.725,15.25l-11.35,-6.475l-5.2,-11.984l-6.192,-36.616l-13.958,-23l-32.75,-21.684l-9.733,-14.575l-36.975,-30.108l-14.934,-26.567l-0.333,-15.233l-5.2,-11.983l-5.533,-27.217l2.566,-25.608l7.767,-13.617l0.067,-0.067l7.125,-1.95l-2.625,-37.591l27.541,-11.367l7.45,-7.783l2.567,-25.609l17.483,-20.108l-0.991,-24.633l-5.2,-11.984l-13.617,-7.766l-1.633,-12.959l3.55,-22.041l8.741,-10.059l38.884,-4.891l13.6,-13.3l21.383,-5.85l12.308,-11.034l3.867,-27.875l13.6,-13.3l6.775,-38.25l-6.175,-15.55l-32.75,-21.683l-8.125,-22.683l-28.217,-19.1l2.592,-4.542l0,0.025l0.317,-5.833l-9.417,-20.409l-35.983,-5.475l-11.35,-6.475l-12.342,-31.1l-8.142,-43.75l10.675,-23.991l-2.925,-10.692l-12.641,-4.2l-8.125,-22.683l-0.05,-0.017l-1.984,-49.258l-7.8,-28.517l-17.841,-16.192l-15.892,-9.058l-15.233,0.333l-24.65,-20.075l-14.934,-26.566l-20.108,-17.484l-24.308,-4.841l-16.542,-18.459l-24.308,-4.841l-30.167,-26.225c-4.167,-0 -4.376,-1.692 -8.542,-1.692c-7.16,-3.017 -14.799,-5.796 -22.917,-8.333c-2.064,-8.221 -2.759,-16.555 -2.083,-25c-24.521,-0.209 -37.716,-12.709 -39.584,-37.5c-7.638,-7.638 -15.277,-15.28 -22.916,-22.917c-24.524,-7.846 -48.136,-17.571 -70.834,-29.167c-15.797,-16.808 -23.435,-36.946 -22.916,-60.416c-6.301,-3.155 -11.856,-7.321 -16.667,-12.5c-3.317,-17.73 -2.623,-35.088 2.083,-52.084c-8.725,-10.975 -10.113,-22.779 -4.166,-35.416c17.289,-13.075 31.179,-29.05 41.666,-47.917c10.588,-1.588 20.311,-5.058 29.167,-10.417c4.391,0.75 8.558,2.138 12.5,4.167c8.459,-15.39 20.959,-26.5 37.5,-33.333c8.768,-8.68 10.157,-18.402 4.167,-29.167c3.386,-5.475 7.553,-10.335 12.5,-14.583c-11.119,-14.075 -22.23,-27.964 -33.334,-41.667c-3.817,-1.559 -7.29,-3.643 -10.416,-6.25c-7.081,3.775 -14.72,5.164 -22.917,4.167c1.587,-10.175 -1.191,-12.952 -8.333,-8.334c-12.771,-3.739 -20.41,-12.072 -22.917,-25c-10.832,-4.552 -21.943,-4.552 -33.333,0c-35.683,-9.289 -71.099,-9.289 -106.25,0l-8.875,-4.755c-3.187,-4.833 -7.354,-9 -12.5,-12.5c-2.441,0.871 -4.525,2.263 -6.25,4.167c2.684,25.792 -4.262,48.012 -20.833,66.667c-6.225,33.629 -4.142,66.962 6.25,100c-3.95,14.45 -12.283,26.254 -25,35.416c11.625,9.209 15.096,21.017 10.417,35.417c-21.604,9.737 -36.884,4.179 -45.834,-16.667c-6.3,3.154 -11.858,7.321 -16.666,12.5c1.258,20.029 3.341,40.167 6.25,60.417c-0.334,11.283 -1.721,22.396 -4.167,33.333c-19,15.688 -38.446,30.271 -58.333,43.75l-4.167,0c-12.875,-5.221 -22.596,-14.25 -29.167,-27.083c-31.779,-2.571 -49.833,-19.238 -54.166,-50c-12.342,-0.375 -22.067,5.179 -29.167,16.667c-19.542,1.383 -38.987,-0.009 -58.333,-4.167c-6.259,-2.429 -11.813,-5.9 -16.667,-10.417c-1.55,-31.312 -7.108,-61.866 -16.667,-91.666c1.475,-15.975 4.25,-32.642 8.334,-50c-11.163,-0.721 -20.888,-4.888 -29.167,-12.5c-4.525,-23.75 -9.387,-47.359 -14.583,-70.834c-17.942,-8.233 -31.834,-20.733 -41.667,-37.5c-7.554,-20.054 -6.858,-39.5 2.083,-58.333c-26.375,-14.558 -54.15,-27.058 -83.333,-37.5c-25.35,-0.525 -46.879,7.808 -64.583,25c-4.863,15.279 -9.721,30.554 -14.584,45.833c-4.545,5.784 -10.1,7.867 -16.666,6.25c-25.096,-23.729 -47.321,-50.116 -66.667,-79.166c-10.454,-5.921 -20.179,-12.867 -29.167,-20.834c-11.112,-1.387 -22.22,-2.779 -33.333,-4.166c-29.958,-39.637 -60.512,-79.22 -91.667,-118.75c-32.104,-15.362 -65.437,-27.168 -100,-35.417c-11.212,-17.076 -23.712,-18.465 -37.5,-4.167c-21.879,4.633 -37.158,-3.701 -45.833,-25c-10.4,-4.501 -20.125,-10.057 -29.167,-16.666c2.625,-7.884 6.792,-14.828 12.5,-20.834c-12.5,-12.5 -25,-25 -37.5,-37.5c-15.895,-7.953 -32.562,-13.508 -50,-16.666c-8.625,-3.949 -14.875,-10.199 -18.75,-18.75c-15.012,6.784 -30.987,10.256 -47.916,10.416c-21.367,16.172 -38.034,12.006 -50,-12.5c-15.467,-9.878 -30.746,-10.572 -45.834,-2.083c-10.845,-4.424 -21.958,-5.118 -33.333,-2.083c-6.808,5.451 -14.45,8.923 -22.917,10.416c-18.775,-10.919 -37.525,-10.919 -56.25,0c-10.175,-2.233 -19.895,-5.706 -29.166,-10.416c-22.679,-17.123 -42.817,-37.262 -60.417,-60.417c-23.379,-1.854 -45.604,-7.409 -66.667,-16.667c-9.066,11.614 -20.87,15.087 -35.416,10.417c-13.938,-16.12 -29.213,-31.398 -45.834,-45.833c-28.916,-7.619 -58.083,-8.313 -87.5,-2.084c-18.595,-0.897 -35.262,-6.453 -50,-16.666c-21.202,2.455 -35.785,13.566 -43.75,33.333c-3.531,12.749 -7.698,25.249 -12.5,37.5c-3.126,2.607 -6.599,4.691 -10.416,6.25c-21.259,1.214 -42.092,-1.564 -62.5,-8.333c-18.308,-27.038 -38.447,-29.121 -60.417,-6.25c-21.529,-8.299 -38.89,-22.188 -52.083,-41.667c-6.834,8.916 -15.862,13.082 -27.084,12.5c-11.111,-2.778 -22.222,-5.556 -33.333,-8.333c-13.101,4.678 -26.295,9.539 -39.583,14.583c-17.977,15.934 -37.422,29.823 -58.334,41.667c-5.468,12.253 -11.718,24.059 -18.75,35.416l-6.25,8.922c1.459,14.007 7.017,25.812 16.667,35.417c-2.779,2.778 -5.554,5.555 -8.333,8.333c8.766,8.51 13.629,18.927 14.583,31.25c5.888,7.973 13.529,13.529 22.917,16.667c3.408,6.701 6.187,13.645 8.333,20.833c-7.858,3.776 -15.5,7.943 -22.917,12.5c0.784,15.55 -5.466,27.358 -18.75,35.417c-0.354,14.204 1.034,28.787 4.167,43.75c11.221,6.8 15.388,15.829 12.5,27.083c24.754,21.267 46.975,44.183 66.667,68.75c-8.029,6.675 -17.059,12.229 -27.084,16.667c-2.895,9.258 -6.366,18.287 -10.416,27.083c7.237,9.725 15.571,18.058 25,25c-2.946,13.333 -6.417,26.529 -10.417,39.583c-8.104,5.679 -17.133,9.154 -27.083,10.417c-5.004,3.762 -8.479,8.621 -10.417,14.583c3.763,15.134 5.846,31.104 6.25,47.917c-0.125,10.1 -1.512,19.821 -4.167,29.167c-13.775,-10.463 -29.054,-20.184 -45.833,-29.167c-0.483,-5.283 -1.871,-10.842 -4.167,-16.667c-25.432,-14.57 -71.288,-3.239 -71.288,-3.239l-4.701,3.244c0,0 -11.535,8.38 -15.677,12.495c-14.934,5.384 -30.213,9.55 -45.834,12.5c-13.658,12.513 -12.27,25.013 4.167,37.5c-2.175,2.338 -3.562,5.117 -4.167,8.334c2.117,35.516 11.838,68.85 29.167,100c-10.617,17.004 -7.837,32.283 8.333,45.833c9.067,0.679 16.705,4.15 22.917,10.417c1.004,20.483 3.783,41.316 8.333,62.5c6.25,3.47 11.113,8.333 14.584,14.583c3.95,2.012 8.116,2.704 12.5,2.083c-1.067,-10.05 3.1,-16.996 12.5,-20.833c14.221,4.742 28.108,10.296 41.666,16.667c5.555,-5.555 11.113,-11.113 16.667,-16.667c15.217,11.45 31.883,14.925 50,10.417c3.471,3.47 6.946,6.945 10.417,10.416c12.966,-5.025 26.158,-5.025 39.583,0c9.213,-2.062 10.604,-6.925 4.167,-14.583c4.954,-11.529 12.591,-15 22.916,-10.417c2.78,8.334 5.555,16.667 8.334,25c16.537,16.367 31.121,34.421 43.75,54.167c8.008,-5.046 15.646,-10.6 22.916,-16.667c4.438,16.246 14.855,25.967 31.25,29.167c11.175,19.608 20.205,40.442 27.084,62.5c8.733,7.358 18.454,12.912 29.166,16.667c3.255,6.016 2.559,11.57 -2.083,16.666c-11.567,1.792 -21.292,6.65 -29.167,14.584c3.659,6.479 3.659,13.42 0,20.833c5.517,15.579 10.375,31.554 14.584,47.917c9.104,4.875 18.129,9.733 27.083,14.583c-4.225,16.383 -1.45,31.658 8.333,45.833l12.838,14.26l0.289,4.49c8.357,16.721 18.773,32 31.25,45.834c3.3,14.941 -0.172,28.137 -10.416,39.583c9.613,9.417 20.03,18.446 31.25,27.083c1.673,5.717 3.757,11.271 6.25,16.667c-4.262,15.054 -10.417,45.833 -10.417,45.833l-2.825,5.511l4.281,0.198c-6.137,2.959 -8.916,7.817 -8.333,14.584c27.188,-0.58 45.242,11.92 54.167,37.5c12.333,4.404 22.75,11.35 31.25,20.833c14.808,-11.329 28,-9.246 39.583,6.25c26.208,7.383 52.6,14.329 79.167,20.833c3.775,7.079 5.162,14.721 4.166,22.917c8.717,0.254 14.967,4.421 18.75,12.5c9.45,21.742 19.175,43.967 29.167,66.667c8.917,5.116 15.863,12.062 20.833,20.833c-5.208,22.837 -8.679,45.754 -10.416,68.75c5.554,8.333 12.5,15.279 20.833,20.833c21.725,6.629 43.95,10.104 66.667,10.417c1.166,-15.521 9.5,-20.383 25,-14.583c7.8,9.554 14.05,19.97 18.75,31.25c1.812,33.416 0.421,66.75 -4.167,100c-7.65,9.2 -17.371,14.758 -29.167,16.666c2.009,13.584 2.009,27.471 0,41.667c-10.975,8.579 -21.391,17.604 -31.25,27.083c-18.087,-2.229 -36.145,-1.533 -54.166,2.084c-13.517,12.629 -23.242,27.904 -29.167,45.833c4.917,10.825 13.25,17.767 25,20.833c1.388,4.167 2.779,8.334 4.167,12.5c-6.242,9.804 -11.796,20.221 -16.667,31.25c9.271,19.684 17.604,39.821 25,60.417c24.975,11.804 49.975,23.608 75,35.417c19.188,22.595 31.688,48.291 37.5,77.083c12.275,9.95 25.471,18.283 39.583,25c11.38,33.792 5.821,64.346 -16.666,91.667c-4.138,12.116 -6.221,24.616 -6.25,37.5c4.175,30.583 8.341,61.137 12.5,91.666Z"/></svg>