<?xml version="1.0" encoding="UTF-8" standalone="no"?><!DOCTYPE svg PUBLIC "-//W3C//DTD SVG 1.1//EN" "http://www.w3.org/Graphics/SVG/1.1/DTD/svg11.dtd"><svg fill="#a2a2a2" stroke="#fff" fill-rule="nonzero" stroke-width="20.83px" width="100%" height="100%" viewBox="0 0 2523 3042" version="1.1" xmlns="http://www.w3.org/2000/svg" xmlns:xlink="http://www.w3.org/1999/xlink" xml:space="preserve" xmlnsSerif="http://www.serif.com/" style="fill-rule:evenodd;clip-rule:evenodd;stroke-linejoin:round;"><path id="un1837" d="M116.432,10.417l-0.883,13.9c3.775,7.081 5.162,14.72 4.166,22.916c9.55,-1.068 18.58,0.321 27.084,4.167c0.896,13.982 0.896,27.871 -0,41.667c6.466,6.108 14.108,10.275 22.916,12.5c1.459,14.006 7.017,25.812 16.667,35.416c-2.779,2.778 -5.554,5.556 -8.333,8.334c8.766,8.51 13.629,18.926 14.583,31.25c5.888,7.973 13.529,13.528 22.917,16.666c3.408,6.702 6.187,13.646 8.333,20.834c-7.858,3.776 -15.5,7.943 -22.917,12.5c0.784,15.55 -5.466,27.358 -18.75,35.416c-0.354,14.205 1.034,28.788 4.167,43.75c11.221,6.8 15.388,15.83 12.5,27.084c24.754,21.266 46.975,44.183 66.667,68.75c-8.029,6.675 -17.059,12.229 -27.084,16.666c-2.895,9.259 -6.366,18.288 -10.416,27.084c7.237,9.725 15.571,18.058 25,25c-2.946,13.333 -6.417,26.529 -10.417,39.583c-8.104,5.679 -17.133,9.154 -27.083,10.417c-5.004,3.762 -8.479,8.621 -10.417,14.583c3.763,15.133 5.846,31.104 6.25,47.917c-0.125,10.1 -1.512,19.821 -4.167,29.166c-13.775,-10.462 -29.054,-20.183 -45.833,-29.166c-0.483,-5.284 -1.871,-10.842 -4.167,-16.667c-25.432,-14.57 -71.288,-3.239 -71.288,-3.239l-4.701,3.244c0,-0 -11.535,8.38 -15.677,12.495c-14.934,5.383 -30.213,9.55 -45.834,12.5c-13.658,12.513 -12.27,25.013 4.167,37.5c-2.175,2.338 -3.562,5.117 -4.167,8.333c2.117,35.517 11.838,68.85 29.167,100c-10.617,17.005 -7.837,32.284 8.333,45.834c9.067,0.679 16.705,4.15 22.917,10.416c1.004,20.484 3.783,41.317 8.333,62.5c6.25,3.471 11.113,8.334 14.584,14.584c3.95,2.012 8.116,2.704 12.5,2.083c-1.067,-10.05 3.1,-16.996 12.5,-20.833c14.221,4.741 28.108,10.296 41.666,16.666c5.555,-5.554 11.113,-11.112 16.667,-16.666c15.217,11.45 31.883,14.925 50,10.416c3.471,3.471 6.946,6.946 10.417,10.417c12.966,-5.025 26.158,-5.025 39.583,0c9.213,-2.062 10.604,-6.925 4.167,-14.583c4.954,-11.529 12.591,-15 22.916,-10.417c2.78,8.333 5.555,16.667 8.334,25c16.537,16.367 31.121,34.421 43.75,54.167c8.008,-5.046 15.646,-10.6 22.916,-16.667c4.438,16.246 14.855,25.967 31.25,29.167c11.175,19.608 20.205,40.441 27.084,62.5c8.733,7.358 18.454,12.912 29.166,16.666c3.255,6.017 2.559,11.571 -2.083,16.667c-11.567,1.792 -21.292,6.65 -29.167,14.583c3.659,6.48 3.659,13.421 0,20.834c5.517,15.579 10.375,31.554 14.584,47.916c9.104,4.875 18.129,9.734 27.083,14.584c-4.225,16.383 -1.45,31.658 8.333,45.833l12.838,14.26l0.289,4.49c8.357,16.721 18.773,32 31.25,45.833c3.3,14.942 -0.172,28.138 -10.416,39.584c9.613,9.416 20.03,18.445 31.25,27.083c1.673,5.717 3.757,11.271 6.25,16.667c-4.262,15.054 -10.417,45.833 -10.417,45.833l-2.825,5.511c-0,-0 88.963,14.848 133.448,22.148c0,-0 32.448,1.508 43.559,1.508c43.389,5.158 87.139,10.714 131.25,16.666c-7.857,97.375 -16.95,194.663 -27.28,291.864c0,-0 -23.834,206.641 -24.803,214.386c11.629,32.325 22.74,64.963 33.333,97.917c-0.925,6.479 -3.703,12.038 -8.333,16.667c4.782,6.87 10.337,13.12 16.666,18.75c11.851,9.087 23.657,18.112 35.417,27.083c12.954,-6.129 26.149,-11.688 39.583,-16.667c18.545,10.25 37.989,19.279 58.334,27.084c7.52,10.012 17.241,16.958 29.166,20.833c37.25,-0.417 70.584,10.696 100,33.333c8.334,1.388 16.667,2.78 25,4.167c13.15,6.967 25.65,14.604 37.5,22.917c11.729,-3.104 23.538,-5.884 35.417,-8.334c38.854,2.625 78.437,4.709 118.75,6.25c51.012,10.5 100.317,26.471 147.917,47.917c12.479,-3.233 24.283,-8.096 35.416,-14.583c6.946,-2.78 13.888,-2.78 20.834,-0c25.791,9.516 50.791,20.625 75,33.333c28.525,7.854 56.304,14.104 83.333,18.75l-0,141.667c-0,29.812 -2.083,87.5 -0.057,90.343l-4.652,196.307l-1.754,37.217l3.905,1.38l-9.468,116.653l17.5,0.958l28.55,34.333l20.092,-3.583l23.017,7.108l1.933,-13.941l18.158,10.358l9.734,14.575l-0.959,17.5l26.584,6.133l9.4,-0.658l11.35,6.475l23.016,7.108l22.359,-2.291l12.008,15.866l12.958,-1.633l10.034,-12.325l20.75,5.817l16.525,-2.609l0.016,21.067l18.136,7.833l4.319,0.898l-0.73,0.652l-1.933,13.942l11.35,6.475l11.983,-5.2l18.459,-16.542l13.941,1.934l3.9,14.258l13.942,1.933l2.925,10.692l11.667,0.642l25.25,-12.659l5.516,6.15l-5.5,14.917l6.492,9.717l9.4,-0.659l4.2,-12.641l23.633,-25.625l9.734,14.575l24.308,4.841l6.475,-11.35l11.033,12.309l12.325,10.033l11.667,0.642l12.008,15.866l6.475,-11.35l15.234,-0.333l6.475,-11.35l16.525,-2.608l16.833,-8.442l11.35,6.475l12.958,-1.633l26.567,-14.934l8.758,11.009l27.875,3.866l13.284,-7.466l6.475,-11.35l27.241,15.533l10.375,2.908l16.542,18.459l18.475,4.525l33.075,15.85l5.833,0.316l0.9,-80.7l2.784,-157.841l-0.392,-78.434l-11.083,-75.5l-17.609,-127.358l-0.008,-0.017l0.242,-90.1l0.008,-0.066l-4.033,-161.725l-0.734,-93.667l-1.083,-129.958l-29.508,-16.834l-11.367,-27.541l-26.6,-27.2l8.417,-25.284l11.333,-14.591l8.1,1.616l3.225,-16.208l-19.133,-13.917l-9.717,6.492l-15.892,-9.058l-17.841,-16.192l-0,0.108l-13.617,-7.766l0.642,-11.667l-30.5,-41.458l-8.775,-32.075l-9.734,-14.575l0.642,-11.667l-14.592,-11.333l4.2,-12.642l-1.65,-34.025l-3.241,-4.858l-0.675,-30.467l-5.517,-6.15l5.817,-20.75l-10.375,-2.908l3.55,-22.042l-21.4,-15.217l-1.317,-18.8l3.867,-27.875l-8.759,-11.008l-2.291,-22.358l-13.3,-13.6l-2.925,-10.692l-9.734,-14.575l0.959,-17.5l-7.467,-13.283l1.275,-23.334c0,0 -12.642,-4.2 -12.617,-4.283l-16.208,-3.225l-12.008,-15.867l-0.659,-9.4l-13.941,-1.933l-6.492,-9.717l-35.658,-11.308l-23.675,-16.508l-25.925,3.266l-21.067,0.017l-25.608,-2.567l-11.334,14.592l-3.681,-7.567c-16.746,-10.954 -34.8,-19.979 -54.167,-27.083c-5.441,-10.721 -12.387,-20.442 -20.833,-29.167c-12.158,-7.387 -24.658,-13.637 -37.5,-18.75c0.621,-4.383 -0.071,-8.55 -2.083,-12.5c-8.146,-3.97 -15.092,-9.529 -20.834,-16.666c-3.291,-15.117 -12.32,-23.45 -27.083,-25c0.879,-17 -4.679,-31.584 -16.667,-43.75c21.05,-25.596 18.967,-49.9 -6.25,-72.917c0.225,-11.212 -4.637,-18.85 -14.583,-22.917c-10.671,3.15 -21.783,6.621 -33.333,10.417c1.65,-10.6 -1.129,-19.629 -8.334,-27.083c-14.712,-6.692 -29.991,-11.55 -45.833,-14.584c-3.433,-13.62 -11.767,-22.645 -25,-27.083c1.388,-1.387 2.779,-2.779 4.167,-4.167c-11.192,-10.608 -15.359,-23.804 -12.5,-39.583c11.358,0.983 21.079,-2.487 29.166,-10.417c5.555,-6.945 5.555,-13.887 0,-20.833c7.909,-3.75 14.85,-8.608 20.834,-14.583c-0.284,-27.463 -0.975,-55.242 -2.084,-83.334c-5.408,-4.416 -10.27,-9.275 -14.583,-14.583c7.413,-8.767 12.967,-18.492 16.667,-29.167c-1.754,-9.104 -3.838,-18.129 -6.25,-27.083c-9.809,-13.833 -17.446,-28.417 -22.917,-43.75c5.079,-14.021 9.246,-28.604 12.5,-43.75c-5.554,-11.112 -5.554,-22.221 0,-33.333c-6.6,-14.242 -15.625,-26.742 -27.083,-37.5c-2.913,-15.345 -7.771,-29.929 -14.584,-43.75c2.78,-4.167 5.555,-8.334 8.334,-12.5c-8.171,-13.395 -13.029,-27.979 -14.584,-43.75c-12.245,-9.637 -25.437,-11.026 -39.583,-4.167c-6.154,-17.448 -8.929,-34.81 -8.333,-52.083c-13.888,-2.778 -27.779,-2.778 -41.667,-0c-13.021,7.492 -24.133,4.714 -33.333,-8.334c-8.054,-1.046 -15.692,-3.129 -22.917,-6.25c-0.908,-12.192 -2.992,-23.998 -6.25,-35.416c-5.829,-2.478 -11.383,-1.783 -16.667,2.083c-6.495,-2.39 -12.745,-5.167 -18.75,-8.333c0.517,-9.764 2.6,-19.486 6.25,-29.167c-5.554,-12.5 -11.112,-25 -16.666,-37.5c0.391,-20.527 1.087,-41.36 2.083,-62.5c-1.037,-4.683 -3.121,-8.85 -6.25,-12.5c-11.279,-4.494 -22.392,-8.66 -33.333,-12.5c0.166,-19.552 1.554,-38.997 4.166,-58.333l2.132,-4.542l-140.992,-11.217l-0.058,0.009l0.041,-0l-96.591,-9.967l-80.384,-6.733l-132.566,-15.442l-77.792,-11.275l-106.967,-12.875l-103.4,-13.85l-116.041,-18.05l-94.975,-18.067l-104.375,-17.408l-155.267,-28.383l-129.658,-25.817l-4.517,-1.533Z"/></svg>