<?xml version="1.0" encoding="UTF-8" standalone="no"?><!DOCTYPE svg PUBLIC "-//W3C//DTD SVG 1.1//EN" "http://www.w3.org/Graphics/SVG/1.1/DTD/svg11.dtd"><svg fill="#a2a2a2" stroke="#fff" fill-rule="nonzero" stroke-width="20.83px" width="100%" height="100%" viewBox="0 0 2026 715" version="1.1" xmlns="http://www.w3.org/2000/svg" xmlns:xlink="http://www.w3.org/1999/xlink" xml:space="preserve" xmlnsSerif="http://www.serif.com/" style="fill-rule:evenodd;clip-rule:evenodd;stroke-linejoin:round;"><path id="ne1861" d="M1652.88,195.767c0,0 0.948,7.883 -1.834,12.077c-1.951,1.27 -4.136,1.999 -6.555,2.185c-12.409,-4.389 -24.792,-8.759 -37.147,-13.111c-15.558,2.191 -30.489,-0.359 -44.794,-7.647c-5.828,-0.729 -11.654,-1.457 -17.481,-2.186c-15.497,-5.922 -30.793,-12.478 -45.887,-19.665c-10.849,0.913 -21.775,0.913 -32.777,-0c-23.116,-6.27 -39.56,-8.242 -61.602,-17.268c-1.743,-0.999 -2.471,-2.456 -2.185,-4.371l-2.353,-0.721l-69.712,-4.535l-134.167,-7.342l-92.083,-7.375l-113.117,-7.358l-133.882,-10.321c-282.537,-23.834 -539.821,-62.141 -799.376,-97.712l-24.075,155.333l-13.792,111.825l-9.641,86.592c270.449,41.766 538.708,77.603 816.257,106.566l94.501,7.884l97.883,7.691l73.575,2.85l-13.45,181.834l92.084,7.375l87.508,4.783l172.75,8.275l147.142,5.708l86.533,1.225l117.975,4.109l86.533,1.225l145.192,-1.425l-13.617,-7.767l0.642,-11.667l-30.5,-41.458l-8.775,-32.075l-9.733,-14.575l0.641,-11.667l-14.591,-11.333l4.2,-12.642l-1.65,-34.025l-3.242,-4.858l-0.675,-30.467l-5.517,-6.15l5.817,-20.75l-10.375,-2.908l3.55,-22.042l-21.4,-15.216l-1.317,-18.8l3.867,-27.875l-8.758,-11.009l-2.292,-22.358l-13.3,-13.6l-2.925,-10.692l-9.733,-14.575l0.958,-17.5l-7.467,-13.283l1.275,-23.333l-12.641,-4.2l-0.025,-0.05l-16.209,-3.225l-12.008,-15.867l-0.658,-9.4l-13.942,-1.933l-6.492,-9.717l-35.658,-11.308l-23.675,-16.509l-25.925,3.267l-21.067,0.017l-25.608,-2.567l-11.333,14.592l-9.4,0.658l-2.465,2.367Z"/></svg>