<?xml version="1.0" encoding="UTF-8" standalone="no"?><!DOCTYPE svg PUBLIC "-//W3C//DTD SVG 1.1//EN" "http://www.w3.org/Graphics/SVG/1.1/DTD/svg11.dtd"><svg fill="#a2a2a2" stroke="#fff" fill-rule="nonzero" stroke-width="20.83px" width="100%" height="100%" viewBox="0 0 997 873" version="1.1" xmlns="http://www.w3.org/2000/svg" xmlns:xlink="http://www.w3.org/1999/xlink" xml:space="preserve" xmlnsSerif="http://www.serif.com/" style="fill-rule:evenodd;clip-rule:evenodd;stroke-linejoin:round;"><path id="mo1839" d="M14.617,12.332l-4.2,12.642l14.591,11.333l-0.641,11.667l-0.034,0.033l9.734,14.575l1.599,5.846l9.183,0.322l66.667,-0c162.467,-3.611 324.967,-6.389 487.5,-8.333l8.734,-1.585l-21.4,-15.216l-5.2,-11.984l-11.301,-21.215l-550,-0l-5.232,1.915Zm584.399,48.085c-162.533,1.944 -325.033,4.722 -487.5,8.333l-66.667,-0l-8.197,3.284l6.19,22.623l30.5,41.459l-0.642,11.666l13.617,7.767l17.841,16.192l15.892,9.058l9.717,-6.492l19.133,13.917l-3.225,16.208l-8.1,-1.616l-11.333,14.591l-8.417,25.284l26.6,27.2l11.367,27.541l29.508,16.834l1.083,129.958l0.734,93.667l4.033,161.725l-0.242,90.1l120.567,-0.425l119.592,-3.992l159.416,-5.325l120.884,-6.267l130.283,-6.916l13.958,23l0.334,15.233l-7.767,13.617l-11.983,5.2l-16.509,23.675l-5.5,14.916l95.275,-8.833l8.084,-19.45l7.45,-7.783l-14.275,-17.167l16.525,-2.608l-5.2,-11.984l12.308,-11.033l-5.85,-21.383l18.8,-1.317l8.417,-25.283l15.891,9.058l6.15,-5.517l8.417,-25.283l-3.583,-20.092l3.55,-22.041l-8.1,-1.617l-12.325,-10.033l-9.717,6.491l-31.475,-45.025l6.792,-17.183l1.933,-13.942l-11.683,-21.708l-6.825,-24.95l-12.642,-4.2l-12.983,-19.433l-17.184,-6.792l-12.325,-10.033l-12.641,-4.2l-14.917,-5.5l-34.383,-34.65l-8.442,-16.834l16.492,-44.741l6.791,-17.184l-1.316,-18.8l9.058,-15.891l-8.758,-11.009l-35.659,-11.308l-20.725,15.25l-11.35,-6.475l-5.2,-11.983l-6.191,-36.617l-13.959,-23l-32.75,-21.683l-9.733,-14.575l-36.975,-30.109l-14.933,-26.566l-0.334,-15.234l-5.2,-11.983l-5.533,-27.217l2.567,-25.608l7.766,-13.617l0.034,-0.033l-13.59,-13l-10.711,-0.307Z"/></svg>