<?xml version="1.0" encoding="UTF-8" standalone="no"?><!DOCTYPE svg PUBLIC "-//W3C//DTD SVG 1.1//EN" "http://www.w3.org/Graphics/SVG/1.1/DTD/svg11.dtd"><svg fill="#a2a2a2" stroke="#fff" fill-rule="nonzero" stroke-width="20.83px" width="100%" height="100%" viewBox="0 0 4006 3302" version="1.1" xmlns="http://www.w3.org/2000/svg" xmlns:xlink="http://www.w3.org/1999/xlink" xml:space="preserve" xmlnsSerif="http://www.serif.com/" style="fill-rule:evenodd;clip-rule:evenodd;stroke-linejoin:round;"><path id="un1846" d="M3704.07,1680.07l-16.209,-3.225l-12.008,-15.867l-0.658,-9.4l-13.942,-1.933l-6.492,-9.717l-35.658,-11.308l-23.675,-16.509l-25.925,3.267l-21.067,0.017l-25.608,-2.567l-11.333,14.592l-3.682,-7.567c-16.745,-10.954 -34.8,-19.979 -54.166,-27.083c-5.442,-10.721 -12.388,-20.442 -20.834,-29.167c-12.158,-7.387 -24.658,-13.637 -37.5,-18.75c0.621,-4.383 -0.07,-8.55 -2.083,-12.5c-8.146,-3.971 -15.092,-9.529 -20.833,-16.667c-3.292,-15.116 -12.321,-23.45 -27.084,-25c0.88,-17 -4.679,-31.583 -16.666,-43.75c21.05,-25.595 18.966,-49.9 -6.25,-72.916c0.225,-11.213 -4.638,-18.85 -14.584,-22.917c-10.67,3.15 -21.783,6.621 -33.333,10.417c1.65,-10.6 -1.129,-19.629 -8.333,-27.084c-14.713,-6.691 -29.992,-11.55 -45.834,-14.583c-3.433,-13.621 -11.766,-22.646 -25,-27.083c1.388,-1.388 2.78,-2.779 4.167,-4.167c-11.192,-10.608 -15.358,-23.804 -12.5,-39.583c11.358,0.983 21.079,-2.488 29.167,-10.417c5.554,-6.946 5.554,-13.887 -0,-20.833c7.908,-3.75 14.85,-8.609 20.833,-14.584c-0.283,-27.462 -0.975,-55.241 -2.083,-83.333c-5.409,-4.417 -10.271,-9.275 -14.584,-14.583c7.413,-8.767 12.967,-18.492 16.667,-29.167c-1.754,-9.104 -3.837,-18.129 -6.25,-27.083c-9.808,-13.834 -17.446,-28.417 -22.917,-43.75c5.08,-14.021 9.246,-28.604 12.5,-43.75c-5.554,-11.113 -5.554,-22.221 0,-33.334c-6.6,-14.241 -15.625,-26.741 -27.083,-37.5c-2.912,-15.345 -7.771,-29.928 -14.583,-43.75c2.779,-4.166 5.554,-8.333 8.333,-12.5c-8.171,-13.395 -13.029,-27.978 -14.583,-43.75c-12.246,-9.636 -25.438,-11.025 -39.584,-4.166c-6.154,-17.449 -8.929,-34.81 -8.333,-52.084c-13.887,-2.778 -27.779,-2.778 -41.667,0c-13.02,7.492 -24.133,4.715 -33.333,-8.333c-8.054,-1.046 -15.692,-3.13 -22.917,-6.25c-0.908,-12.192 -2.991,-23.998 -6.25,-35.417c-5.829,-2.477 -11.383,-1.783 -16.666,2.084c-6.496,-2.39 -12.746,-5.168 -18.75,-8.334c0.516,-9.763 2.6,-19.485 6.25,-29.166c-5.554,-12.5 -11.113,-25 -16.667,-37.5c0.392,-20.527 1.088,-41.36 2.083,-62.5c-1.037,-4.684 -3.12,-8.85 -6.25,-12.5c-11.279,-4.494 -22.391,-8.661 -33.333,-12.5c0.167,-19.553 1.554,-38.997 4.167,-58.334l2.131,-4.541l-140.992,-11.217l-0.058,0.008l0.042,0l-96.592,-9.966l-80.383,-6.734l-132.567,-15.441l-77.792,-11.275l-106.966,-12.875l-103.4,-13.85l-116.042,-18.05l-94.975,-18.067l-104.375,-17.408l-155.267,-28.384l-129.658,-25.816l-4.517,-1.534c-118.198,-23.482 -235.747,-49.537 -352.982,-76.84l-137.109,-35.301l-128.05,-33.917l-153.334,-42.325l-78.45,-20.675l-100.166,-30.05l-63.217,-21.008l-0.05,0.05l-8.083,19.45l9.1,26.241l12.641,4.2l0.359,36.3l-9.717,6.492l-11.967,26.258l12.009,15.867l-4.184,33.708l12.659,25.25l-19.117,7.15l-17.8,25.942l-0.642,11.667l-7.766,13.616l-5.475,35.984l1.633,12.958l-20.725,15.25l-9.083,-5.175l-8.742,10.058l-24.292,16.225l-3.9,-14.258l-15.233,0.333l-5.2,-11.983l11.333,-14.592l11.984,-5.2l-1.275,23.334l19.433,-12.984l14.258,-3.9l16.834,-29.508l-6.175,-15.55l2.25,-19.775l23.658,-4.558l0.3,-26.9l-6.808,-3.884l-25.909,24.334l-8.741,10.058l-24.95,6.825l22.658,-29.192l12.642,4.2l12.308,-11.033l1.933,-13.942l-4.241,-29.491l2.908,-10.375l-28.192,1.966l-9.733,-14.575l-18.8,1.317l-36.633,-14.875l-12.325,-10.033l-38.909,-16.175l-17.516,-22.025l-18.159,-10.359l-15.25,-20.725l-14.258,3.9l-16.508,23.675l0.333,15.234l-4.183,33.708l12.658,25.25l3.9,14.258l-3.208,37.275l-6.45,32.417l5.533,27.217l-7.75,34.683l17.183,6.792l-1.616,8.1l13.3,13.6l-22.359,2.291l-10.033,12.325l-2.908,10.375l20.425,11.65l-13.242,49.6l-26.242,9.1l11.684,21.709l-9.742,6.491l-1.275,23.334l-4.525,18.475l-10.692,2.925l0.334,15.233l-10.359,18.158l3.584,20.092l-10.034,12.325l-8.083,19.45l4.217,8.417l-12.309,11.033l0.659,9.4l-8.417,25.283l-24.592,43.125l-5.175,9.084l-12.608,37.933l-52.4,123.525l-10.358,18.158l-31.067,54.475l-6.475,11.35l-11.667,-0.641l-26.208,51.233l-21.367,26.917l-2.25,19.775l8.442,16.833l-4.525,18.475l-6.475,11.35l-9.7,27.558l0.017,21.067l-4.525,18.475l12.658,25.25l-0.033,0.017l17.475,8.725c518.066,166.559 1045.84,296.421 1583.33,389.583c181.904,32.638 363.85,63.888 545.833,93.75c0,0 32.448,1.508 43.559,1.508c43.389,5.159 87.139,10.714 131.25,16.667c-7.857,97.375 -16.95,194.663 -27.279,291.864c-0,-0 -23.835,206.641 -24.804,214.386c11.629,32.325 22.74,64.963 33.333,97.917c-0.925,6.479 -3.703,12.037 -8.333,16.666c4.782,6.871 10.337,13.121 16.666,18.75c11.851,9.088 23.657,18.113 35.417,27.084c12.955,-6.129 26.149,-11.688 39.583,-16.667c18.545,10.25 37.99,19.279 58.334,27.083c7.521,10.013 17.241,16.959 29.166,20.834c37.25,-0.417 70.584,10.696 100,33.333c8.334,1.388 16.667,2.779 25,4.167c13.15,6.966 25.65,14.604 37.5,22.916c11.73,-3.104 23.538,-5.883 35.417,-8.333c38.854,2.625 78.438,4.708 118.75,6.25c51.013,10.5 100.317,26.471 147.917,47.917c12.479,-3.234 24.283,-8.096 35.416,-14.584c6.946,-2.779 13.888,-2.779 20.834,0c25.791,9.517 50.791,20.625 75,33.334c28.525,7.854 56.304,14.104 83.333,18.75l0,141.666c0,29.813 -2.083,87.5 -0.057,90.344l-4.652,196.306l-1.754,37.217l3.906,1.381l-9.468,116.652l17.5,0.959l28.55,34.333l20.091,-3.583l23.017,7.108l1.933,-13.942l18.159,10.359l9.733,14.575l-0.958,17.5l26.583,6.133l9.4,-0.658l11.35,6.475l23.017,7.108l22.358,-2.292l12.008,15.867l12.959,-1.633l10.033,-12.325l20.75,5.816l16.525,-2.608l0.017,21.067l18.135,7.833l4.319,0.898l-0.729,0.652l-1.934,13.942l11.35,6.475l11.984,-5.2l18.458,-16.542l13.942,1.933l3.9,14.259l13.941,1.933l2.925,10.692l11.667,0.641l25.25,-12.658l5.517,6.15l-5.5,14.917l6.491,9.716l9.4,-0.658l4.2,-12.642l23.634,-25.625l9.733,14.575l24.308,4.842l6.475,-11.35l11.034,12.308l12.325,10.034l11.666,0.641l12.009,15.867l6.475,-11.35l15.233,-0.333l6.475,-11.35l16.525,-2.609l16.833,-8.441l11.35,6.475l12.959,-1.634l26.566,-14.933l8.759,11.008l27.875,3.867l13.283,-7.467l6.475,-11.35l27.242,15.534l10.375,2.908l16.541,18.458l18.475,4.525l33.075,15.85l5.834,0.317l0.9,-80.7l2.783,-157.842l-0.392,-78.433l-11.083,-75.5l-17.608,-127.358l-0.009,-0.017l0.242,-90.1l0.008,-0.067l-4.033,-161.725l-0.733,-93.666l-1.084,-129.959l-29.508,-16.833l-11.367,-27.542l-26.6,-27.2l8.417,-25.283l11.333,-14.592l8.1,1.617l3.225,-16.208l-19.133,-13.917l-9.717,6.492l-15.891,-9.059l-17.842,-16.191l0,0.108l-13.617,-7.767l0.642,-11.666l-30.5,-41.459l-8.775,-32.075l-9.733,-14.575l0.641,-11.666l-14.591,-11.334l4.2,-12.641l-1.65,-34.025l-3.242,-4.859l-0.675,-30.466l-5.517,-6.15l5.817,-20.75l-10.375,-2.909l3.55,-22.041l-21.4,-15.217l-1.317,-18.8l3.867,-27.875l-8.758,-11.008l-2.292,-22.359l-13.3,-13.6l-2.925,-10.691l-9.733,-14.575l0.958,-17.5l-7.467,-13.284l1.275,-23.333c0,-0 -12.641,-4.2 -12.616,-4.283Z"/></svg>