<?xml version="1.0" encoding="UTF-8" standalone="no"?><!DOCTYPE svg PUBLIC "-//W3C//DTD SVG 1.1//EN" "http://www.w3.org/Graphics/SVG/1.1/DTD/svg11.dtd"><svg fill="#a2a2a2" stroke="#fff" fill-rule="nonzero" stroke-width="20.83px" width="100%" height="100%" viewBox="0 0 4512 3247" version="1.1" xmlns="http://www.w3.org/2000/svg" xmlns:xlink="http://www.w3.org/1999/xlink" xml:space="preserve" xmlnsSerif="http://www.serif.com/" style="fill-rule:evenodd;clip-rule:evenodd;stroke-linejoin:round;"><path id="un1848" d="M448.292,2699.87l6.191,36.616l8.759,11.009l10.691,-2.925l-12.983,-19.434l-12.658,-25.25l-0,-0.016Zm29.75,-73.275l2.925,10.691l-0.959,17.5l25.609,2.567l-7.467,-13.283l-20.108,-17.484l-0,0.009Zm-196.217,-157.017l-24.308,-4.842l1.316,18.8l7.784,7.45l17.825,-4.875l-2.609,-16.525l-0.008,-0.008Zm32.733,0.617l-11.008,8.758l4.217,8.417l19.45,8.083l13.283,-7.467l-25.942,-17.8l0,0.009Zm2732.83,-2270.7l-140.991,-11.217l-0.059,0.008l0.042,0l-96.592,-9.966l-80.383,-6.734l-132.567,-15.441l-77.791,-11.275l-106.967,-12.875l-103.4,-13.85l-116.042,-18.05l-94.975,-18.067l-104.375,-17.408l-155.266,-28.384l-129.659,-25.816l-5.4,12.366c3.775,7.082 5.163,14.72 4.167,22.917c9.55,-1.068 18.579,0.32 27.083,4.167c0.896,13.982 0.896,27.871 0,41.666c6.467,6.109 14.109,10.276 22.917,12.5c1.458,14.007 7.017,25.812 16.667,35.417c-2.779,2.778 -5.554,5.555 -8.334,8.333c8.767,8.51 13.63,18.927 14.584,31.25c5.887,7.974 13.529,13.529 22.916,16.667c3.409,6.701 6.188,13.645 8.334,20.833c-7.859,3.777 -15.5,7.943 -22.917,12.5c0.783,15.55 -5.467,27.359 -18.75,35.417c-0.354,14.204 1.033,28.788 4.167,43.75c11.221,6.8 15.387,15.829 12.5,27.083c24.754,21.267 46.975,44.184 66.666,68.75c-8.029,6.675 -17.058,12.23 -27.083,16.667c-2.896,9.258 -6.367,18.288 -10.417,27.083c7.238,9.725 15.571,18.059 25,25c-2.945,13.334 -6.416,26.53 -10.416,39.584c-8.104,5.679 -17.134,9.154 -27.084,10.416c-5.004,3.763 -8.479,8.621 -10.416,14.584c3.762,15.133 5.846,31.104 6.25,47.916c-0.125,10.1 -1.513,19.821 -4.167,29.167c-13.775,-10.462 -29.054,-20.183 -45.833,-29.167c-0.484,-5.283 -1.871,-10.841 -4.167,-16.666c-33.442,-19.159 -63.996,-14.992 -91.667,12.5c-14.933,5.383 -30.212,9.55 -45.833,12.5c-13.658,12.512 -12.271,25.012 4.167,37.5c-2.175,2.337 -3.563,5.116 -4.167,8.333c2.117,35.517 11.838,68.85 29.167,100c-10.617,17.004 -7.838,32.283 8.333,45.833c9.067,0.68 16.704,4.15 22.917,10.417c1.004,20.483 3.783,41.317 8.333,62.5c6.25,3.471 11.113,8.333 14.583,14.583c3.95,2.013 8.117,2.705 12.5,2.084c-1.066,-10.05 3.1,-16.996 12.5,-20.834c14.221,4.742 28.109,10.296 41.667,16.667c5.554,-5.554 11.113,-11.112 16.667,-16.667c15.216,11.45 31.883,14.925 50,10.417c3.471,3.471 6.946,6.946 10.416,10.417c12.967,-5.025 26.159,-5.025 39.584,-0c9.212,-2.063 10.604,-6.925 4.166,-14.584c4.955,-11.529 12.592,-15 22.917,-10.416c2.779,8.333 5.554,16.666 8.333,25c16.538,16.366 31.121,34.421 43.75,54.166c8.009,-5.045 15.646,-10.6 22.917,-16.666c4.438,16.246 14.854,25.966 31.25,29.166c11.175,19.609 20.204,40.442 27.083,62.5c8.734,7.359 18.455,12.913 29.167,16.667c3.254,6.017 2.558,11.571 -2.083,16.667c-11.567,1.791 -21.292,6.65 -29.167,14.583c3.658,6.479 3.658,13.421 0,20.833c5.517,15.58 10.375,31.555 14.583,47.917c9.105,4.875 18.13,9.733 27.084,14.583c-4.225,16.384 -1.45,31.659 8.333,45.834c-3.179,3.933 -7.346,6.016 -12.5,6.25l25.338,8.009l0.289,4.491c8.356,16.721 18.773,32 31.25,45.833c3.3,14.942 -0.172,28.138 -10.417,39.583c9.614,9.417 20.031,18.446 31.25,27.084c1.674,5.716 3.757,11.271 6.25,16.666c-4.261,15.055 -7.734,30.33 -10.416,45.834l-10.915,9.335l-147.762,-26.227l-640.934,-119.283l-159.341,-35.4l-0.084,-0.009l-6.475,-1.166l-72.933,-14.525l-42.967,-11.842l-121.241,-30.033l-96.925,-25.167l-99.2,-26.492l-72.617,-20.358l-0.033,-0.033l-101.467,-27.784l-68.075,-17.766l-102.442,-31.35l-66.75,-20.034l-102.441,-31.35l-103.417,-34.916l-9.7,27.558l-8.742,10.058l11.034,12.309l0.991,24.633l-5.158,30.142l-21.033,42.15l-8.417,4.216l0.992,24.634l-32.042,50.908l-6.808,-3.883l-33.667,37.95l0.992,24.633l-5.175,9.083l23.691,37.575l20.15,59.617l-0.3,26.9l-6.133,26.583l-11.333,14.592l-6.792,17.183l1.35,60.925l-8.742,10.059l5.85,21.383l17.859,37.258l16.566,39.525l12.009,15.867l12.025,36.933l-3.55,22.042l-16.509,23.675l14.259,-3.9l11.033,12.308l9.417,20.409l8.1,1.616l15.25,20.725l13.283,-7.466l-6.492,-9.717l12.292,-32.1l14.258,-3.9l12.984,19.433l21.725,9.384l12.308,-11.034l7.467,13.284l-25.925,3.266l-8.759,-11.008l-28.516,7.8l7.8,28.517l-7.45,7.783l8.758,11.008l8.442,16.834l-3.225,16.208l-8.742,10.058l-7.467,-13.283l-12.325,-10.033l4.5,-39.542l-16.525,2.608l-2.25,19.775l-12.941,22.7l7.783,7.45l-0.3,26.9l-7.425,28.85l23.05,49.242l11.35,6.475l17.5,0.958l8.758,11.009l3.267,25.925l-8.083,19.45l-12.309,11.033l-7.783,-7.45l-8.417,25.283l-2.891,31.442l3.9,14.258l13.3,13.6l10.708,18.142l3.583,20.092l10.059,8.741l-2.25,19.775l11.683,21.709l4.558,23.658l12.325,10.033l15.592,35.959l11.35,6.475l4.217,8.416l-11.967,26.259l12.008,15.866l19.134,13.917l-0.642,11.667l-15.533,27.241l5.2,11.984l-6.792,17.183l2.925,10.692l-13.917,19.133l17.842,16.192l1.633,12.958l50.892,10.975l17.183,6.792l15.567,14.891l20.75,5.817l17.5,0.958l21.4,15.217l20.767,26.883l2.291,22.359l38.267,27.841l20.425,11.65l35.983,5.475l10.709,18.142l2.291,22.358l-6.791,17.184l13.616,7.766l9.717,-6.491l22.7,12.941l12.983,19.434l24.334,25.908l31.475,45.025l18.516,46.65l0.034,42.133l-7.45,7.784l-1.275,23.333l12.325,10.033l-0.3,26.9l91.75,13.209l111.5,15.458l164.008,18.333l8.417,-4.216l20.75,5.816l5.175,-9.083l6.216,0.205c14.145,0.546 25.95,7.491 35.417,20.834c12.322,-7.135 24.822,-8.524 37.5,-4.167c52.183,-8.456 103.572,-19.566 154.167,-33.333c15.99,7.665 31.962,14.61 47.916,20.833c-2.852,-16.891 -2.852,-33.557 0,-50c14.464,-2.489 28.353,-5.267 41.667,-8.333l12.5,-0c7.406,4.585 15.739,8.057 25,10.416c11.818,20.189 28.485,34.078 50,41.667c18.383,13.707 37.133,26.901 56.25,39.583c23.538,-8.281 47.842,-10.365 72.917,-6.25c10.841,8.424 21.258,17.452 31.25,27.084c45.033,-40.988 87.396,-38.21 127.083,8.333c4.863,9.722 9.721,19.444 14.583,29.167c10.95,6.772 20.671,15.106 29.167,25c-4.504,50.95 -12.142,101.645 -22.917,152.083c0.355,4.614 1.746,8.781 4.167,12.5c130.504,18.445 261.058,36.5 391.667,54.167c18.857,1.922 54.607,11.768 54.607,11.768l1.143,-9.024l0.308,-2.366c-4.972,-16.871 -13.305,-32.15 -25,-45.834c4.103,-6.658 4.798,-13.604 2.084,-20.833c-6.945,-13.887 -13.889,-27.779 -20.834,-41.667c-14.093,-10.67 -27.288,-21.779 -39.583,-33.333l0,-25c4.791,-13.437 9.652,-27.325 14.583,-41.667c4.167,-2.779 8.334,-5.554 12.5,-8.333c0.128,-17.783 4.294,-34.45 12.5,-50c15.666,-21.596 32.333,-42.429 50,-62.5c-4.643,-47.954 5.079,-92.4 29.167,-133.333c10.641,-32.509 18.974,-65.842 25,-100c11.037,-23.442 27.009,-42.888 47.917,-58.334c9.01,-23.687 22.899,-43.829 41.666,-60.416c6.59,-23.321 17.701,-44.154 33.334,-62.5c14.469,-1.329 26.275,-7.579 35.416,-18.75c5.286,-26.284 10.147,-52.675 14.584,-79.167c-1.442,-16.383 -4.22,-32.354 -8.334,-47.917c10.124,-21.041 12.207,-42.566 6.25,-64.583c-20.571,-25.271 -46.266,-44.021 -77.083,-56.25c-12.5,-1.387 -25,-2.779 -37.5,-4.167c-9.299,-11.395 -20.411,-20.425 -33.333,-27.083c-3.207,7.383 -8.763,11.55 -16.667,12.5c-28.006,-1.875 -54.395,-8.125 -79.167,-18.75l-9.847,-2.883l-6.22,-11.535l7.734,-25.165c26.295,-216.686 77.681,-649.778 77.681,-649.778l0.717,-6.094c3.04,-25.822 6.074,-51.643 9.102,-77.462l33.333,0c43.39,5.159 87.14,10.714 131.25,16.667c-7.857,97.375 -16.95,194.663 -27.279,291.864c0,-0 -23.835,206.641 -24.804,214.386c11.63,32.325 22.741,64.963 33.333,97.917c-0.925,6.479 -3.702,12.037 -8.333,16.666c4.782,6.871 10.338,13.121 16.667,18.75c11.851,9.088 23.656,18.113 35.416,27.084c12.955,-6.129 26.149,-11.688 39.584,-16.667c18.544,10.25 37.989,19.279 58.333,27.083c7.521,10.013 17.242,16.959 29.167,20.834c37.25,-0.417 70.583,10.696 100,33.333c8.333,1.388 16.666,2.779 25,4.167c13.15,6.966 25.65,14.604 37.5,22.916c11.729,-3.104 23.537,-5.883 35.416,-8.333c38.855,2.625 78.438,4.708 118.75,6.25c51.013,10.5 100.317,26.471 147.917,47.917c12.479,-3.234 24.283,-8.096 35.417,-14.584c6.946,-2.779 13.887,-2.779 20.833,0c25.792,9.517 50.792,20.625 75,33.334c28.525,7.854 56.304,14.104 83.333,18.75l0,141.666c0,29.813 -2.083,87.5 -0.057,90.344l-4.651,196.306l-1.754,37.217l3.905,1.381l-9.468,116.652l17.5,0.959l28.55,34.333l20.092,-3.583l23.016,7.108l1.934,-13.942l18.158,10.359l9.733,14.575l-0.958,17.5l26.583,6.133l9.4,-0.658l11.35,6.475l23.017,7.108l22.358,-2.292l12.009,15.867l12.958,-1.633l10.033,-12.325l20.75,5.816l16.525,-2.608l0.017,21.067l18.135,7.833l4.32,0.898l-0.73,0.652l-1.933,13.942l11.35,6.475l11.983,-5.2l18.458,-16.542l13.942,1.933l3.9,14.259l13.942,1.933l2.925,10.692l11.666,0.641l25.25,-12.658l5.517,6.15l-5.5,14.917l6.492,9.716l9.4,-0.658l4.2,-12.642l23.633,-25.625l9.733,14.575l24.309,4.842l6.475,-11.35l11.033,12.308l12.325,10.034l11.667,0.641l12.008,15.867l6.475,-11.35l15.233,-0.333l6.475,-11.35l16.525,-2.609l16.834,-8.441l11.35,6.475l12.958,-1.634l26.567,-14.933l8.758,11.008l27.875,3.867l13.283,-7.467l6.475,-11.35l27.242,15.534l10.375,2.908l16.542,18.458l18.475,4.525l33.075,15.85l5.833,0.317l0.9,-80.7l2.783,-157.842l-0.391,-78.433l-11.084,-75.5l-17.608,-127.358l-0.008,-0.017l0.241,-90.1l0.009,-0.067l-4.034,-161.725l-0.733,-93.666l-1.083,-129.959l-29.509,-16.833l-11.366,-27.542l-26.6,-27.2l8.416,-25.283l11.334,-14.592l8.1,1.617l3.225,-16.208l-19.134,-13.917l-9.716,6.492l-15.892,-9.059l-17.842,-16.191l0,0.108l-13.616,-7.767l0.641,-11.666l-30.5,-41.459l-8.775,-32.075l-9.733,-14.575l0.642,-11.666l-14.592,-11.334l4.2,-12.641l-1.65,-34.025l-3.242,-4.859l-0.675,-30.466l-5.516,-6.15l5.816,-20.75l-10.375,-2.909l3.55,-22.041l-21.4,-15.217l-1.316,-18.8l3.866,-27.875l-8.758,-11.008l-2.292,-22.359l-13.3,-13.6l-2.925,-10.691l-9.733,-14.575l0.958,-17.5l-7.466,-13.284l1.275,-23.333l-12.642,-4.2l0.025,-0.083l-4.558,-23.659l-16.542,-18.458l10.358,-18.158l9.384,-21.725l-1.634,-12.959l7.767,-13.616l-3.583,-20.092l-11.667,-0.642l3.867,-27.875l-5.85,-21.383l17.5,0.958l-0.125,-0.016l87.833,-1.05l126.4,-0.109l129.958,-1.083l257.967,-9.3l85.558,-2.342l-1.983,-49.258l-7.8,-28.517l-17.842,-16.191l-15.891,-9.059l-15.234,0.334l-24.65,-20.075l-14.933,-26.567l-20.108,-17.483l-24.309,-4.842l-16.541,-18.458l-24.309,-4.842l-30.166,-26.225c-4.167,0 -4.376,-1.692 -8.543,-1.692c-7.16,-3.016 -14.798,-5.795 -22.916,-8.333c-2.065,-8.221 -2.759,-16.554 -2.084,-25c-24.52,-0.208 -37.715,-12.708 -39.583,-37.5c-7.639,-7.637 -15.278,-15.279 -22.917,-22.917c-24.524,-7.845 -48.135,-17.57 -70.833,-29.166c-15.797,-16.809 -23.436,-36.946 -22.917,-60.417c-6.3,-3.154 -11.856,-7.321 -16.666,-12.5c-3.317,-17.729 -2.623,-35.087 2.083,-52.083c-8.725,-10.975 -10.114,-22.779 -4.167,-35.417c17.29,-13.075 31.179,-29.05 41.667,-47.917c10.588,-1.587 20.311,-5.058 29.167,-10.416c4.391,0.749 8.558,2.137 12.5,4.166c8.459,-15.389 20.959,-26.5 37.5,-33.333c8.768,-8.68 10.157,-18.402 4.166,-29.167c3.387,-5.474 7.554,-10.335 12.5,-14.583c-11.118,-14.075 -22.229,-27.963 -33.333,-41.667c-3.817,-1.559 -7.29,-3.642 -10.417,-6.25c-7.081,3.776 -14.72,5.165 -22.916,4.167c1.586,-10.174 -1.191,-12.952 -8.334,-8.333c-12.771,-3.739 -20.41,-12.073 -22.916,-25c-10.832,-4.553 -21.943,-4.553 -33.334,-0c-35.682,-9.289 -71.099,-9.289 -106.25,-0l0,-220.834c0,-26.924 -0.076,-14.424 -1.632,-55.275l-80.7,-0.9l-167.25,-2.125l0.041,0.025l-98.2,-1.858l-79.408,-3.175l-133.208,-3.775l-105.009,-5.742l-83.916,-5.758l-75.842,-4.15l-105.992,-9.308Z"/></svg>