<?xml version="1.0" encoding="UTF-8" standalone="no"?><!DOCTYPE svg PUBLIC "-//W3C//DTD SVG 1.1//EN" "http://www.w3.org/Graphics/SVG/1.1/DTD/svg11.dtd"><svg fill="#a2a2a2" stroke="#fff" fill-rule="nonzero" stroke-width="20.83px" width="100%" height="100%" viewBox="0 0 365 173" version="1.1" xmlns="http://www.w3.org/2000/svg" xmlns:xlink="http://www.w3.org/1999/xlink" xml:space="preserve" xmlnsSerif="http://www.serif.com/" style="fill-rule:evenodd;clip-rule:evenodd;stroke-linejoin:round;"><path id="un1812" d="M10.417,27.858l11.326,8.824c19.442,4.1 23.609,13.822 12.5,29.167c10.53,2.973 20.946,5.751 31.25,8.333c6.293,17.768 15.32,33.74 27.083,47.917c-0.355,4.614 -1.744,8.781 -4.167,12.5c18.962,5.062 38.407,7.839 58.334,8.333c10.375,8.095 22.18,12.956 35.416,14.584c11.572,-4.652 23.589,-8.13 36.05,-10.433c4.59,-0.849 8.563,-1.388 8.563,-1.388l15.761,-18.578l25.609,2.566l16.541,18.459l31.442,2.891l8.758,11.009l29.492,-4.242l0.017,0.042l-9.084,-5.175l-9.733,-14.575l-7.8,-28.517l-20.108,-17.483l-9.417,-20.409l14.542,-51.866l-0.659,-9.4l-152.641,9.208l-149.075,8.233Z"/></svg>