<?xml version="1.0" encoding="UTF-8" standalone="no"?><!DOCTYPE svg PUBLIC "-//W3C//DTD SVG 1.1//EN" "http://www.w3.org/Graphics/SVG/1.1/DTD/svg11.dtd"><svg fill="#a2a2a2" stroke="#fff" fill-rule="nonzero" stroke-width="20.83px" width="100%" height="100%" viewBox="0 0 3289 2595" version="1.1" xmlns="http://www.w3.org/2000/svg" xmlns:xlink="http://www.w3.org/1999/xlink" xml:space="preserve" xmlnsSerif="http://www.serif.com/" style="fill-rule:evenodd;clip-rule:evenodd;stroke-linejoin:round;"><path id="un1821" d="M2482.81,2510.97l120.567,-0.425l119.591,-3.992l159.417,-5.325l120.883,-6.266l130.284,-6.917l13.958,23l0.333,15.233l-7.766,13.617l-11.984,5.2l-16.508,23.675l-5.5,14.917l95.275,-8.834l8.083,-19.45l7.45,-7.783l-14.275,-17.167l16.525,-2.608l-5.2,-11.983l12.309,-11.034l-5.85,-21.383l18.8,-1.317l8.416,-25.283l15.892,9.058l6.15,-5.516l8.417,-25.284l-3.584,-20.091l3.55,-22.042l-8.1,-1.617l-12.325,-10.033l-9.716,6.492l-31.475,-45.025l6.791,-17.184l1.934,-13.941l-11.684,-21.709l-6.825,-24.95l-12.641,-4.2l-12.984,-19.433l-17.183,-6.792l-12.325,-10.033l-12.642,-4.2l-14.916,-5.5l-34.384,-34.65l-8.441,-16.833l16.491,-44.742l6.792,-17.183l-1.317,-18.8l9.059,-15.892l-8.759,-11.008l-35.658,-11.309l-20.725,15.25l-11.35,-6.475l-5.2,-11.983l-6.192,-36.617l-13.958,-23l-32.75,-21.683l-9.733,-14.575l-36.975,-30.108l-14.934,-26.567l-0.333,-15.233l-5.2,-11.984l-5.533,-27.216l2.566,-25.609l7.767,-13.616l0.067,-0.067l7.125,-1.95l-2.625,-37.592l27.541,-11.366l7.45,-7.784l2.567,-25.608l17.483,-20.108l-0.991,-24.634l-5.2,-11.983l-13.617,-7.767l-1.633,-12.958l3.55,-22.042l8.741,-10.058l38.884,-4.892l13.6,-13.3l21.383,-5.85l12.308,-11.033l3.867,-27.875l13.6,-13.3l6.775,-38.25l-6.175,-15.55l-32.75,-21.683l-8.125,-22.684l-28.217,-19.1l2.592,-4.541l0,0.025l0.317,-5.834l-9.417,-20.408l-35.983,-5.475l-11.35,-6.475l-12.342,-31.1l-8.142,-43.75l10.675,-23.992l-2.925,-10.691l-12.641,-4.2l-8.125,-22.684l-0.05,-0.016l-1.984,-49.259l-7.8,-28.516l-17.841,-16.192l-15.892,-9.058l-15.233,0.333l-24.65,-20.075l-14.934,-26.567l-20.108,-17.483l-24.308,-4.842l-16.542,-18.458l-24.308,-4.842l-30.167,-26.225c-4.167,0 -4.376,-1.691 -8.542,-1.691c-7.16,-3.017 -14.799,-5.796 -22.917,-8.334c-2.064,-8.221 -2.759,-16.554 -2.083,-25c-24.521,-0.208 -37.716,-12.708 -39.584,-37.5c-7.638,-7.637 -15.277,-15.279 -22.916,-22.916c-24.524,-7.846 -48.136,-17.571 -70.834,-29.167c-15.797,-16.808 -23.435,-36.946 -22.916,-60.417c-6.301,-3.154 -11.856,-7.321 -16.667,-12.5c-3.317,-17.729 -2.623,-35.087 2.083,-52.083c-8.725,-10.975 -10.113,-22.779 -4.166,-35.417c17.289,-13.075 31.179,-29.05 41.666,-47.916c10.588,-1.588 20.311,-5.059 29.167,-10.417c4.391,0.75 8.558,2.137 12.5,4.167c8.459,-15.39 20.959,-26.501 37.5,-33.334c8.768,-8.68 10.157,-18.402 4.167,-29.166c3.386,-5.475 7.553,-10.336 12.5,-14.584c-11.119,-14.074 -22.23,-27.963 -33.334,-41.666c-3.817,-1.56 -7.29,-3.643 -10.416,-6.25c-7.081,3.775 -14.72,5.164 -22.917,4.166c1.587,-10.174 -1.191,-12.952 -8.333,-8.333c-12.771,-3.739 -20.41,-12.073 -22.917,-25c-10.832,-4.553 -21.943,-4.553 -33.333,-0c-35.683,-9.289 -71.099,-9.289 -106.25,-0l-0,-220.833c-0,-26.925 -0.077,-14.425 -1.633,-55.275l-247.908,-3l-98.2,-1.859l-79.409,-3.175l-133.208,-3.775l-105.008,-5.741l-83.917,-5.759l-75.842,-4.15l-105.991,-9.308l-140.992,-11.217l-0.058,0.009l0.041,-0l-96.591,-9.967l-80.384,-6.733l-132.566,-15.442l-77.792,-11.275l-106.967,-12.875l-103.4,-13.85l-116.041,-18.05l-94.975,-18.067l-104.375,-17.408l-155.267,-28.383l-129.658,-25.817l-4.517,-1.533l-0.883,13.9c3.775,7.081 5.162,14.72 4.166,22.916c9.55,-1.068 18.58,0.321 27.084,4.167c0.896,13.982 0.896,27.871 -0,41.667c6.466,6.108 14.108,10.275 22.916,12.5c1.459,14.006 7.017,25.812 16.667,35.416c-2.779,2.778 -5.554,5.556 -8.333,8.334c8.766,8.51 13.629,18.926 14.583,31.25c5.888,7.973 13.529,13.528 22.917,16.666c3.408,6.702 6.187,13.646 8.333,20.834c-7.858,3.776 -15.5,7.943 -22.917,12.5c0.784,15.55 -5.466,27.358 -18.75,35.416c-0.354,14.204 1.034,28.788 4.167,43.75c11.221,6.8 15.388,15.829 12.5,27.084c24.754,21.266 46.975,44.183 66.667,68.75c-8.029,6.675 -17.059,12.229 -27.084,16.666c-2.895,9.259 -6.366,18.288 -10.416,27.084c7.237,9.725 15.571,18.058 25,25c-2.946,13.333 -6.417,26.529 -10.417,39.583c-8.104,5.679 -17.133,9.154 -27.083,10.417c-5.004,3.762 -8.479,8.62 -10.417,14.583c3.763,15.133 5.846,31.104 6.25,47.917c-0.125,10.1 -1.512,19.82 -4.167,29.166c-13.775,-10.462 -29.054,-20.183 -45.833,-29.166c-0.483,-5.284 -1.871,-10.842 -4.167,-16.667c-25.432,-14.57 -71.288,-3.239 -71.288,-3.239l-4.701,3.244c0,-0 -11.535,8.38 -15.677,12.495c-14.934,5.383 -30.213,9.55 -45.834,12.5c-13.658,12.512 -12.27,25.012 4.167,37.5c-2.175,2.337 -3.562,5.117 -4.167,8.333c2.117,35.517 11.838,68.85 29.167,100c-10.617,17.004 -7.837,32.284 8.333,45.834c9.067,0.679 16.705,4.15 22.917,10.416c1.004,20.484 3.783,41.317 8.333,62.5c6.25,3.471 11.113,8.334 14.584,14.584c3.95,2.012 8.116,2.704 12.5,2.083c-1.067,-10.05 3.1,-16.996 12.5,-20.833c14.221,4.741 28.108,10.295 41.666,16.666c5.555,-5.554 11.113,-11.112 16.667,-16.666c15.217,11.45 31.883,14.925 50,10.416c3.471,3.471 6.946,6.946 10.417,10.417c12.966,-5.025 26.158,-5.025 39.583,-0c9.213,-2.063 10.604,-6.925 4.167,-14.583c4.954,-11.53 12.591,-15 22.916,-10.417c2.78,8.333 5.555,16.667 8.334,25c16.537,16.367 31.121,34.421 43.75,54.167c8.008,-5.046 15.646,-10.6 22.916,-16.667c4.438,16.246 14.855,25.967 31.25,29.167c11.175,19.608 20.205,40.441 27.084,62.5c8.733,7.358 18.454,12.912 29.166,16.666c3.255,6.017 2.559,11.571 -2.083,16.667c-11.567,1.792 -21.292,6.65 -29.167,14.583c3.659,6.479 3.659,13.421 0,20.834c5.517,15.579 10.375,31.554 14.584,47.916c9.104,4.875 18.129,9.734 27.083,14.584c-4.225,16.383 -1.45,31.658 8.333,45.833l12.838,14.26l0.289,4.49c8.357,16.721 18.773,32 31.25,45.833c3.3,14.942 -0.172,28.138 -10.416,39.584c9.613,9.416 20.03,18.445 31.25,27.083c1.673,5.717 3.757,11.271 6.25,16.667c-4.262,15.054 -10.417,45.833 -10.417,45.833l-2.825,5.511c-0,-0 88.963,14.848 133.448,22.148c0,-0 32.448,1.508 43.559,1.508c43.389,5.158 87.139,10.714 131.25,16.666c-7.857,97.375 -16.95,194.663 -27.28,291.864c0,-0 -23.834,206.641 -24.803,214.386c11.629,32.325 22.74,64.963 33.333,97.917c-0.925,6.479 -3.703,12.037 -8.333,16.667c4.782,6.87 10.337,13.12 16.666,18.75c11.851,9.087 23.657,18.112 35.417,27.083c12.954,-6.129 26.149,-11.688 39.583,-16.667c18.545,10.25 37.989,19.279 58.334,27.084c7.52,10.012 17.241,16.958 29.166,20.833c37.25,-0.417 70.584,10.696 100,33.333c8.334,1.388 16.667,2.779 25,4.167c13.15,6.967 25.65,14.604 37.5,22.917c11.729,-3.105 23.538,-5.884 35.417,-8.334c38.854,2.625 78.437,4.709 118.75,6.25c51.012,10.5 100.317,26.471 147.917,47.917c12.479,-3.233 24.283,-8.096 35.416,-14.583c6.946,-2.78 13.888,-2.78 20.834,-0c25.791,9.516 50.791,20.625 75,33.333c28.525,7.854 56.304,14.104 83.333,18.75l-0,141.667c-0,26.127 -1.6,73.666 -0.632,86.931l3.409,-0.618l150.392,3.092l215.136,7.602l226.31,4.422l84.301,2.129l111.558,1.808l-0.108,0.042Z"/></svg>