<?xml version="1.0" encoding="UTF-8" standalone="no"?><!DOCTYPE svg PUBLIC "-//W3C//DTD SVG 1.1//EN" "http://www.w3.org/Graphics/SVG/1.1/DTD/svg11.dtd"><svg fill="#a2a2a2" stroke="#fff" fill-rule="nonzero" stroke-width="20.83px" width="100%" height="100%" viewBox="0 0 1910 1474" version="1.1" xmlns="http://www.w3.org/2000/svg" xmlns:xlink="http://www.w3.org/1999/xlink" xml:space="preserve" xmlnsSerif="http://www.serif.com/" style="fill-rule:evenodd;clip-rule:evenodd;stroke-linejoin:round;"><path id="dt1864" d="M37.978,1360.37l50.139,7.494l85.9,12.891l105.666,15.142l85.9,12.892l84.925,9.325l85.9,12.891l169.85,18.65l145.534,13.809l9.641,-90.759l9.625,-111.825l15.742,-159.5l-0.025,0.042l0.075,-0.008l137.425,12.2l113.117,7.358l92.083,7.375l134.167,7.342l74.89,4.871l0.831,0.623c-0.286,1.915 0.442,3.372 2.185,4.37c22.042,9.026 34.78,10.794 57.896,17.064c11.002,0.913 21.927,0.913 32.776,-0c15.095,7.187 30.391,13.743 45.887,19.665c5.828,0.729 11.654,1.457 17.481,2.186c14.306,7.288 29.237,9.838 44.795,7.647c12.354,4.352 24.737,8.722 37.146,13.111c2.419,-0.186 4.604,-0.915 6.556,-2.185c2.505,-3.777 3.25,-7.417 2.235,-10.92l2.113,-3.557l9.4,-0.659l11.334,-14.591l25.608,2.566l21.067,-0.016l25.925,-3.267l23.675,16.508l35.658,11.309l6.492,9.716l13.941,1.934l0.659,9.4l12.008,15.866l16.208,3.225l-4.558,-23.658l-16.542,-18.458l10.359,-18.159l9.383,-21.725l-1.633,-12.958l7.766,-13.617l-3.583,-20.091l-11.667,-0.642l3.867,-27.875l-5.85,-21.383l17.5,0.958l3.133,-121.542l-0.391,-78.433l1.183,-128.667l-14.275,-17.166l-16.208,-3.225l-21.425,-36.284l1.616,-8.1l26.884,-20.766l12.291,-32.1l-0.075,-0.025l-0.675,-30.467l-4.891,-38.883l-15.25,-20.725l-4.242,-29.492l-4.217,-8.417l-0.033,-42.133l-4.558,-23.658l-0.675,-30.467l-1.317,-18.8l2.233,-40.842l-7.483,-34.35l-9.1,-26.241l-17.558,-64.159l2.55,-46.675l-3.584,-20.091l7.109,-23.017l-15.609,-57.025l0.317,-5.833l-0.008,0.033l-98.2,-1.858l-79.409,-3.175l-133.208,-3.775l-105.008,-5.742l-83.917,-5.758l-75.842,-4.15l-105.991,-9.309l-140.992,-11.216l-17.333,188.641l-9.642,90.759l-14.125,151.333l-11.558,125.75l0.008,0.033l-14.108,172.434l-2.267,-1.292l-0.075,0.008l-94.317,-8.666l-98.858,-11.259l-96.592,-9.966l-112.8,-13.192l-139.375,-19.325l-111.5,-15.458l-138.083,-21.592l-102.108,-16.117l-15.475,90.434c7.979,6.546 9.132,7.28 9.486,17.4c12.778,-0.293 22.501,-5.848 29.166,-16.667c6.292,7.592 11.848,15.925 16.667,25c8.612,2.642 16.251,6.809 22.917,12.5c9.313,17.258 17.646,35.314 25,54.167c11.05,10.451 22.162,20.173 33.333,29.166c3.254,6.017 2.558,11.571 -2.083,16.667c-7.954,3.533 -16.288,4.925 -25,4.167c-27.611,166.121 -55.389,336.258 -75,502.083l-6.925,2.948Z"/></svg>