<?xml version="1.0" encoding="UTF-8" standalone="no"?><!DOCTYPE svg PUBLIC "-//W3C//DTD SVG 1.1//EN" "http://www.w3.org/Graphics/SVG/1.1/DTD/svg11.dtd"><svg fill="#a2a2a2" stroke="#fff" fill-rule="nonzero" stroke-width="20.83px" width="100%" height="100%" viewBox="0 0 1034 1251" version="1.1" xmlns="http://www.w3.org/2000/svg" xmlns:xlink="http://www.w3.org/1999/xlink" xml:space="preserve" xmlnsSerif="http://www.serif.com/" style="fill-rule:evenodd;clip-rule:evenodd;stroke-linejoin:round;stroke-miterlimit:2;"><path id="dt1863" d="M809.887,1192.12c1.015,3.503 0.27,7.143 -2.236,10.92c-1.951,1.27 -4.136,1.999 -6.555,2.185c-12.409,-4.389 -24.792,-8.759 -37.147,-13.111c-15.558,2.191 -30.488,-0.359 -44.794,-7.647c-5.828,-0.729 -11.653,-1.457 -17.481,-2.186c-15.497,-5.922 -30.792,-12.478 -45.887,-19.665c-10.849,0.913 -21.774,0.913 -32.776,-0c-23.116,-6.27 -35.854,-8.038 -57.897,-17.064c-1.742,-0.998 -2.471,-2.455 -2.185,-4.37l-0.831,-0.623l-74.89,-4.871l-134.166,-7.342l-92.084,-7.375l-113.116,-7.358l-137.425,-12.2l14.45,-157.2l12.2,-137.425l6.1,-68.717l2.266,1.292l14.109,-172.434l-0.009,-0.033l11.559,-125.75l14.125,-151.333l9.641,-90.759l17.334,-188.641l140.991,11.216l105.992,9.309l75.842,4.15l83.916,5.758l105.009,5.742l133.208,3.775l79.408,3.175l98.2,1.858l0.009,-0.033l-0.317,5.833l15.608,57.025l-7.108,23.017l3.583,20.091l-2.55,46.675l17.559,64.159l9.1,26.241l7.483,34.35l-2.233,40.842l1.316,18.8l0.675,30.467l4.559,23.658l0.033,42.133l4.217,8.417l4.241,29.492l15.25,20.725l4.892,38.883l0.675,30.467l0.075,0.025l-12.292,32.1l-26.883,20.766l-1.617,8.1l21.425,36.284l16.209,3.225l14.275,17.166l-1.184,128.667l0.392,78.433l-3.133,121.542l-17.5,-0.958l5.85,21.383l-3.867,27.875l11.667,0.642l3.583,20.091l-7.767,13.617l1.634,12.958l-9.384,21.725l-10.358,18.159l16.542,18.458l4.558,23.658l-16.208,-3.225l-12.009,-15.866l-0.658,-9.4l-13.942,-1.934l-6.491,-9.716l-35.659,-11.309l-23.675,-16.508l-25.925,3.267l-21.066,0.016l-25.609,-2.566l-11.333,14.591l-9.4,0.659l-2.113,3.557Z"/></svg>