<?xml version="1.0" encoding="UTF-8" standalone="no"?><!DOCTYPE svg PUBLIC "-//W3C//DTD SVG 1.1//EN" "http://www.w3.org/Graphics/SVG/1.1/DTD/svg11.dtd"><svg fill="#a2a2a2" stroke="#fff" fill-rule="nonzero" stroke-width="20.83px" width="100%" height="100%" viewBox="0 0 2241 1429" version="1.1" xmlns="http://www.w3.org/2000/svg" xmlns:xlink="http://www.w3.org/1999/xlink" xml:space="preserve" xmlnsSerif="http://www.serif.com/" style="fill-rule:evenodd;clip-rule:evenodd;stroke-linejoin:round;stroke-miterlimit:2;"><path id="dt1861" d="M482.215,1187.37c5.155,-0.234 9.321,-2.317 12.5,-6.25c-9.783,-14.175 -12.558,-29.45 -8.333,-45.834c-8.954,-4.85 -17.979,-9.708 -27.083,-14.583c-4.209,-16.362 -9.067,-32.337 -14.584,-47.917c3.659,-7.412 3.659,-14.354 0,-20.833c7.875,-7.933 17.6,-12.792 29.167,-14.583c4.642,-5.096 5.338,-10.65 2.083,-16.667c-10.712,-3.754 -20.433,-9.308 -29.166,-16.667c-6.879,-22.058 -15.909,-42.891 -27.084,-62.5c-16.395,-3.2 -26.812,-12.92 -31.25,-29.166c-7.27,6.066 -14.908,11.621 -22.916,16.666c-12.629,-19.745 -27.213,-37.8 -43.75,-54.166c-2.779,-8.334 -5.554,-16.667 -8.334,-25c-10.325,-4.584 -17.962,-1.113 -22.916,10.416c6.437,7.659 5.046,12.521 -4.167,14.584c-13.425,-5.025 -26.617,-5.025 -39.583,-0c-3.471,-3.471 -6.946,-6.946 -10.417,-10.417c-18.117,4.508 -34.783,1.033 -50,-10.417c-5.554,5.555 -11.112,11.113 -16.667,16.667c-13.558,-6.371 -27.445,-11.925 -41.666,-16.667c-9.4,3.838 -13.567,10.784 -12.5,20.834c-4.384,0.621 -8.55,-0.071 -12.5,-2.084c-3.471,-6.25 -8.334,-11.112 -14.584,-14.583c-4.55,-21.183 -7.329,-42.017 -8.333,-62.5c-6.212,-6.267 -13.85,-9.737 -22.917,-10.417c-16.17,-13.55 -18.95,-28.829 -8.333,-45.833c-17.329,-31.15 -27.05,-64.483 -29.167,-100c0.605,-3.217 1.992,-5.996 4.167,-8.333c-16.437,-12.488 -17.825,-24.988 -4.167,-37.5c15.621,-2.95 30.9,-7.117 45.834,-12.5c27.671,-27.492 58.225,-31.659 91.666,-12.5c2.296,5.825 3.684,11.383 4.167,16.666c16.779,8.984 32.058,18.705 45.833,29.167c2.655,-9.346 4.042,-19.067 4.167,-29.167c-0.404,-16.812 -2.487,-32.783 -6.25,-47.916c1.938,-5.963 5.413,-10.821 10.417,-14.584c9.95,-1.262 18.979,-4.737 27.083,-10.416c4,-13.054 7.471,-26.25 10.417,-39.584c-9.429,-6.941 -17.763,-15.275 -25,-25c4.05,-8.795 7.521,-17.825 10.416,-27.083c10.025,-4.437 19.055,-9.992 27.084,-16.667c-19.692,-24.566 -41.913,-47.483 -66.667,-68.75c2.888,-11.254 -1.279,-20.283 -12.5,-27.083c-3.133,-14.962 -4.521,-29.546 -4.167,-43.75c13.284,-8.058 19.534,-19.867 18.75,-35.417c7.417,-4.557 15.059,-8.723 22.917,-12.5c-2.146,-7.188 -4.925,-14.132 -8.333,-20.833c-9.388,-3.138 -17.029,-8.693 -22.917,-16.667c-0.954,-12.323 -5.817,-22.74 -14.583,-31.25c2.779,-2.778 5.554,-5.555 8.333,-8.333c-9.65,-9.605 -15.208,-21.41 -16.667,-35.417c-8.808,-2.224 -16.45,-6.391 -22.916,-12.5c0.896,-13.795 0.896,-27.684 -0,-41.666c-8.504,-3.847 -17.534,-5.235 -27.084,-4.167c0.996,-8.197 -0.391,-15.835 -4.166,-22.917l5.4,-12.366l129.658,25.816l155.267,28.384l104.375,17.408l94.975,18.067l116.041,18.05l103.4,13.85l106.967,12.875l77.792,11.275l132.566,15.441l80.384,6.734l96.591,9.966l-0.041,0l0.058,-0.008l140.992,11.217l105.991,9.308l75.842,4.15l83.917,5.758l105.008,5.742l133.208,3.775l79.409,3.175l98.2,1.858l0.008,-0.033l-0.317,5.833l15.609,57.025l-7.109,23.017l3.584,20.092l-2.55,46.675l17.558,64.158l9.1,26.242l7.483,34.35l-2.233,40.841l1.317,18.8l0.675,30.467l4.558,23.658l0.033,42.134l4.217,8.416l4.242,29.492l15.25,20.725l4.891,38.883l0.675,30.467l0.075,0.025l-12.291,32.1l-26.884,20.767l-1.616,8.1l21.425,36.283l16.208,3.225l14.275,17.167l-1.183,128.666l0.391,78.434l-3.133,121.541l-17.5,-0.958l5.85,21.383l-3.867,27.875l11.667,0.642l3.583,20.092l-7.766,13.616l1.633,12.959l-9.383,21.725l-10.359,18.158l16.542,18.458l4.558,23.659l-16.208,-3.225l-12.008,-15.867l-0.659,-9.4l-13.941,-1.933l-6.492,-9.717l-35.658,-11.308l-23.675,-16.509l-25.925,3.267l-21.067,0.017l-25.608,-2.567l-11.334,14.592l-9.4,0.658l-2.113,3.557c1.015,3.504 0.27,7.144 -2.235,10.92c-1.952,1.271 -4.137,1.999 -6.556,2.185c-12.409,-4.388 -24.792,-8.758 -37.146,-13.11c-15.558,2.19 -30.489,-0.359 -44.795,-7.648c-5.827,-0.728 -11.653,-1.457 -17.48,-2.185c-15.497,-5.923 -30.793,-12.478 -45.887,-19.666c-10.849,0.913 -21.775,0.913 -32.777,-0c-23.116,-6.27 -35.854,-8.038 -57.896,-17.064c-1.743,-0.998 -2.471,-2.455 -2.185,-4.37l-0.831,-0.622l-74.89,-4.872l-134.167,-7.342l-92.083,-7.375l-113.117,-7.358l-137.425,-12.2l-0.075,0.008l0.025,-0.041c-0.321,0.994 -82.777,-5.833 -170.224,-16.164c-219.281,-25.903 -580.109,-73.835 -564.718,-75.711Z"/></svg>