<?xml version="1.0" encoding="UTF-8" standalone="no"?><!DOCTYPE svg PUBLIC "-//W3C//DTD SVG 1.1//EN" "http://www.w3.org/Graphics/SVG/1.1/DTD/svg11.dtd"><svg fill="#a2a2a2" stroke="#fff" fill-rule="nonzero" stroke-width="20.83px" width="100%" height="100%" viewBox="0 0 797 1240" version="1.1" xmlns="http://www.w3.org/2000/svg" xmlns:xlink="http://www.w3.org/1999/xlink" xml:space="preserve" xmlnsSerif="http://www.serif.com/" style="fill-rule:evenodd;clip-rule:evenodd;stroke-linejoin:round;stroke-miterlimit:2;"><path id="dt1858" d="M16.715,10.417l105.991,9.308l75.842,4.15l83.917,5.758l105.008,5.742l133.208,3.775l79.409,3.175l98.2,1.858l0.008,-0.033l-0.317,5.833l15.609,57.025l-7.109,23.017l3.584,20.092l-2.55,46.675l17.558,64.158l9.1,26.242l7.483,34.35l-2.233,40.841l1.317,18.8l0.675,30.467l4.558,23.658l0.033,42.134l4.217,8.416l4.242,29.492l15.25,20.725l4.891,38.883l0.675,30.467l0.075,0.025l-12.291,32.1l-26.884,20.767l-1.616,8.1l21.425,36.283l16.208,3.225l14.275,17.167l-1.183,128.666l0.391,78.434l-3.133,121.541l-17.5,-0.958l5.85,21.383l-3.867,27.875l11.667,0.642l3.583,20.092l-7.766,13.616l1.633,12.959l-9.383,21.725l-10.359,18.158l16.542,18.458l4.558,23.659l-16.208,-3.225l-12.008,-15.867l-0.659,-9.4l-13.941,-1.933l-6.492,-9.717l-35.658,-11.308l-23.675,-16.509l-25.925,3.267l-21.067,0.017l-25.608,-2.567l-11.334,14.592l-3.681,-7.567c-16.746,-10.954 -34.8,-19.979 -54.167,-27.083c-5.441,-10.721 -12.387,-20.442 -20.833,-29.167c-12.158,-7.388 -24.658,-13.638 -37.5,-18.75c0.621,-4.383 -0.071,-8.55 -2.083,-12.5c-8.146,-3.971 -15.092,-9.529 -20.834,-16.667c-3.291,-15.116 -12.32,-23.45 -27.083,-25c0.879,-17 -4.679,-31.583 -16.667,-43.75c21.05,-25.596 18.967,-49.9 -6.25,-72.916c0.225,-11.213 -4.637,-18.85 -14.583,-22.917c-10.671,3.15 -21.783,6.621 -33.333,10.417c1.65,-10.6 -1.129,-19.63 -8.334,-27.084c-14.712,-6.691 -29.991,-11.55 -45.833,-14.583c-3.433,-13.621 -11.767,-22.646 -25,-27.083c1.388,-1.388 2.779,-2.78 4.167,-4.167c-11.192,-10.608 -15.359,-23.804 -12.5,-39.583c11.358,0.983 21.079,-2.488 29.166,-10.417c5.555,-6.946 5.555,-13.888 0,-20.833c7.909,-3.75 14.85,-8.609 20.834,-14.584c-0.284,-27.462 -0.975,-55.241 -2.084,-83.333c-5.408,-4.417 -10.27,-9.275 -14.583,-14.583c7.413,-8.767 12.967,-18.492 16.667,-29.167c-1.754,-9.104 -3.838,-18.129 -6.25,-27.083c-9.809,-13.834 -17.446,-28.417 -22.917,-43.75c5.079,-14.021 9.246,-28.605 12.5,-43.75c-5.554,-11.113 -5.554,-22.221 0,-33.334c-6.6,-14.241 -15.625,-26.741 -27.083,-37.5c-2.913,-15.345 -7.771,-29.928 -14.584,-43.75c2.78,-4.166 5.555,-8.333 8.334,-12.5c-8.171,-13.395 -13.029,-27.978 -14.584,-43.75c-12.245,-9.636 -25.437,-11.025 -39.583,-4.166c-6.154,-17.449 -8.929,-34.81 -8.333,-52.084c-13.888,-2.778 -27.779,-2.778 -41.667,0c-13.021,7.492 -24.133,4.714 -33.333,-8.333c-8.054,-1.046 -15.692,-3.13 -22.917,-6.25c-0.908,-12.193 -2.992,-23.998 -6.25,-35.417c-5.829,-2.477 -11.383,-1.783 -16.667,2.084c-6.495,-2.39 -12.745,-5.168 -18.75,-8.334c0.517,-9.763 2.6,-19.485 6.25,-29.166c-5.554,-12.5 -11.112,-25 -16.666,-37.5c0.391,-20.527 1.087,-41.36 2.083,-62.5c-1.037,-4.684 -3.121,-8.85 -6.25,-12.5c-11.279,-4.494 -22.392,-8.661 -33.333,-12.5c0.166,-19.553 1.554,-38.997 4.166,-58.334l2.132,-4.541Z"/></svg>