<?xml version="1.0" encoding="UTF-8" standalone="no"?><!DOCTYPE svg PUBLIC "-//W3C//DTD SVG 1.1//EN" "http://www.w3.org/Graphics/SVG/1.1/DTD/svg11.dtd"><svg fill="#a2a2a2" stroke="#fff" fill-rule="nonzero" stroke-width="20.83px" width="100%" height="100%" viewBox="0 0 1034 1251" version="1.1" xmlns="http://www.w3.org/2000/svg" xmlns:xlink="http://www.w3.org/1999/xlink" xml:space="preserve" xmlnsSerif="http://www.serif.com/" style="fill-rule:evenodd;clip-rule:evenodd;stroke-linejoin:round;"><path id="dt1882" d="M59.542,566.933l-14.109,172.434l-2.266,-1.292l-6.1,68.717l-12.2,137.425l-14.45,157.2l137.425,12.2l113.116,7.358l92.084,7.375l134.166,7.342l113.117,7.358l148.442,3.433l31.458,23.959l31.775,18.125l9.4,-0.659l11.333,-14.591l25.609,2.566l21.066,-0.016l25.925,-3.267l23.675,16.508l35.659,11.309l6.491,9.716l13.942,1.934l0.658,9.4l12.009,15.866l16.208,3.225l-4.558,-23.658l-16.542,-18.458l10.358,-18.159l9.384,-21.725l-1.634,-12.958l7.767,-13.617l-3.583,-20.091l-11.667,-0.642l3.867,-27.875l-5.85,-21.383l17.5,0.958l3.133,-121.542l-0.392,-78.433l1.184,-128.667l-14.275,-17.166l-16.209,-3.225l-21.425,-36.284l1.617,-8.1l26.883,-20.766l12.292,-32.1l-0.075,-0.025l-0.675,-30.467l-4.892,-38.883l-15.25,-20.725l-4.241,-29.492l-4.217,-8.417l-0.033,-42.133l-4.559,-23.658l-0.675,-30.467l-1.316,-18.8l2.233,-40.842l-7.483,-34.35l-9.1,-26.241l-17.559,-64.159l2.55,-46.675l-3.583,-20.091l7.108,-23.017l-15.608,-57.025l0.317,-5.833l-0.009,0.033l-98.2,-1.858l-79.408,-3.175l-133.208,-3.775l-105.009,-5.742l-83.916,-5.758l-75.842,-4.15l-105.992,-9.309l-140.991,-11.216l-17.334,188.641l-9.641,90.759l-14.125,151.333l-11.559,125.75l0.009,0.033Z"/></svg>