<?xml version="1.0" encoding="UTF-8" standalone="no"?><!DOCTYPE svg PUBLIC "-//W3C//DTD SVG 1.1//EN" "http://www.w3.org/Graphics/SVG/1.1/DTD/svg11.dtd"><svg fill="#a2a2a2" stroke="#fff" fill-rule="nonzero" stroke-width="20.83px" width="100%" height="100%" viewBox="0 0 578 917" version="1.1" xmlns="http://www.w3.org/2000/svg" xmlns:xlink="http://www.w3.org/1999/xlink" xml:space="preserve" xmlnsSerif="http://www.serif.com/" style="fill-rule:evenodd;clip-rule:evenodd;stroke-linejoin:round;"><path id="al1817" d="M393.292,10.417l-165.925,16.666l-116.342,8.85l-99.817,6.242l0.975,3.567l14.275,17.166l-3.791,112.142l-0.242,90.1l-6.3,201l-5.708,147.142l15.658,120.225l20.875,153.283l4.858,-3.242l40.517,8.067l-0.017,-21.067l5.475,-35.983l16.525,-2.608l7.15,19.116l-4.2,12.642l6.492,9.717l22.375,18.775l-1.933,13.941l32.075,-8.775l1.616,-8.1l14.575,-9.733l11.334,-14.592l-4.217,-8.416l-5.2,-11.984l4.525,-18.475l-16.867,-12.625l-22.058,-24.608l4.842,-24.308l155.233,-13.75l100.167,-12.075l147.125,-15.359l-2.609,-16.525l-15.566,-14.891l-2.609,-16.525l3.85,-48.942l-3.9,-14.258l-9.733,-14.575l-8.125,-22.684l10.017,-33.416l-0.992,-24.634l2.908,-10.375l17.167,-14.275l-12.325,-10.033l-3.583,-20.092l-6.175,-15.55l-14.275,-17.166l-11.367,-27.542l-5.517,-6.15l-8.125,-22.683l-39.333,-136.734l-27.308,-99.8l-24.7,-83.275l-11.709,-42.766l-0.041,-0.05Z"/></svg>