<?xml version="1.0" encoding="UTF-8" standalone="no"?><!DOCTYPE svg PUBLIC "-//W3C//DTD SVG 1.1//EN" "http://www.w3.org/Graphics/SVG/1.1/DTD/svg11.dtd"><svg fill="#a2a2a2" stroke="#fff" fill-rule="nonzero" stroke-width="20.83px" width="100%" height="100%" viewBox="0 0 898 588" version="1.1" xmlns="http://www.w3.org/2000/svg" xmlns:xlink="http://www.w3.org/1999/xlink" xml:space="preserve" xmlnsSerif="http://www.serif.com/" style="fill-rule:evenodd;clip-rule:evenodd;stroke-linejoin:round;"><path id="ia1849" d="M814.208,185.025l0.317,-5.833l-9.417,-20.409l-35.983,-5.475l-11.35,-6.475l-12.342,-31.1l-8.141,-43.75l10.675,-23.991l-2.925,-10.692l-12.642,-4.2l-8.125,-22.683l-85.558,2.341l-257.967,9.3l-129.958,1.084l-126.4,0.108l-87.834,1.05l-17.5,-0.958l5.85,21.383l-3.866,27.875l11.666,0.642l3.584,20.091l-7.767,13.617l1.633,12.958l-9.383,21.725l-10.358,18.159l16.541,18.458l4.559,23.658l12.641,4.2l-1.275,23.334l7.467,13.283l-0.958,17.5l9.733,14.575l2.925,10.692l13.3,13.6l2.292,22.358l8.758,11.008l-3.867,27.875l1.317,18.8l21.4,15.217l-3.55,22.042l10.375,2.908l-5.817,20.75l5.517,6.15l0.675,30.467l3.242,4.858l1.65,34.025l-4.2,12.642l14.591,11.333l-0.641,11.667l115.708,2.816l126.4,-0.116l62.225,-3.617l64.492,-2.325l158.5,-8.892l29.491,-4.241l5.2,11.983l21.4,15.217l15.567,14.891l7.125,-1.95l-2.625,-37.591l27.542,-11.367l7.45,-7.783l2.566,-25.609l17.484,-20.108l-0.992,-24.633l-5.2,-11.984l-13.617,-7.766l-1.633,-12.959l3.55,-22.041l8.742,-10.059l38.883,-4.891l13.6,-13.3l21.383,-5.85l12.309,-11.034l3.866,-27.875l13.6,-13.3l6.775,-38.25l-6.175,-15.55l-32.75,-21.683l-8.125,-22.683l-28.216,-19.1l2.591,-4.542l0,0.025Z"/></svg>