<?xml version="1.0" encoding="UTF-8" standalone="no"?><!DOCTYPE svg PUBLIC "-//W3C//DTD SVG 1.1//EN" "http://www.w3.org/Graphics/SVG/1.1/DTD/svg11.dtd"><svg fill="#a2a2a2" stroke="#fff" fill-rule="nonzero" stroke-width="20.83px" width="100%" height="100%" viewBox="0 0 898 588" version="1.1" xmlns="http://www.w3.org/2000/svg" xmlns:xlink="http://www.w3.org/1999/xlink" xml:space="preserve" xmlnsSerif="http://www.serif.com/" style="fill-rule:evenodd;clip-rule:evenodd;stroke-linejoin:round;"><path id="ia1846" d="M117.342,515.55l-1.65,-34.025l-3.242,-4.858l-0.675,-30.467l-5.517,-6.15l5.817,-20.75l-10.375,-2.908l3.55,-22.042l-21.4,-15.217l-1.317,-18.8l3.867,-27.875l-8.758,-11.008l-2.292,-22.358l-13.3,-13.6l-2.925,-10.692l-9.733,-14.575l0.958,-17.5l-7.467,-13.283l1.275,-23.334l-12.641,-4.2l-4.559,-23.658l-16.541,-18.458l10.358,-18.159l9.383,-21.725l-1.633,-12.958l7.767,-13.617l-3.584,-20.091l-11.666,-0.642l3.866,-27.875l-5.85,-21.383l17.5,0.958l87.834,-1.05l126.4,-0.108l129.958,-1.084l257.967,-9.3l85.558,-2.341l8.125,22.683l12.642,4.2l2.925,10.692l-10.675,23.991l8.141,43.75l12.342,31.1l11.35,6.475l35.983,5.475l9.417,20.409l-0.317,5.833l0,-0.025l-2.591,4.542l28.216,19.1l8.125,22.683l32.75,21.683l6.175,15.55l-6.775,38.25l-13.6,13.3l-3.866,27.875l-12.309,11.034l-21.383,5.85l-13.6,13.3l-38.883,4.891l-8.742,10.059l-3.55,22.041l1.633,12.959l13.617,7.766l5.2,11.984l0.992,24.633l-17.484,20.108l-2.566,25.609l-7.45,7.783l-27.542,11.367l2.625,37.591l-7.125,1.95l-15.567,-14.891l-0.033,0.033l-21.4,-15.217l-5.2,-11.983l-11.301,-21.216l-550,0l-5.232,1.916Z"/></svg>