<?xml version="1.0" encoding="UTF-8" standalone="no"?><!DOCTYPE svg PUBLIC "-//W3C//DTD SVG 1.1//EN" "http://www.w3.org/Graphics/SVG/1.1/DTD/svg11.dtd"><svg fill="#a2a2a2" stroke="#fff" fill-rule="nonzero" stroke-width="20.83px" width="100%" height="100%" viewBox="0 0 676 333" version="1.1" xmlns="http://www.w3.org/2000/svg" xmlns:xlink="http://www.w3.org/1999/xlink" xml:space="preserve" xmlnsSerif="http://www.serif.com/" style="fill-rule:evenodd;clip-rule:evenodd;stroke-linejoin:round;"><path id="md1776" d="M360.808,190.425l10.375,2.908l7.784,7.45l0.658,9.4l0,-0.008l0.017,-0.025l1.316,18.8l-6.791,17.183l-8.417,4.217l-7.108,23.017l4.875,17.825l8.1,1.616l21.05,-21.083l10.708,18.142l10.058,8.741l26.584,6.134l20.091,-3.584l26.259,11.967l15.891,9.058l-0.333,-15.233l-11.033,-12.308l-8.442,-16.834l0.642,-11.666l-21.084,-21.05l-9.75,-35.642l-4.216,-8.417l6.133,-26.583l-5.2,-11.983l9.717,-6.492l-14.617,-32.4l5.5,-14.917l-7.783,-7.45l28.833,-13.633l16.508,-23.675l7.467,13.283l-16.192,17.842l-8.725,31.125l22.042,3.55l1.317,18.8l-10.034,12.325l13.617,7.767l-4.525,18.475l-13.942,-1.934l-0.958,17.5l15.233,-0.333l13.617,7.767l-9.383,21.725l1.633,12.958l-8.417,4.217l18.817,19.75l32.1,12.291l14.575,-9.733l10.058,8.742l-10.033,12.325l17.5,0.958l-3.867,27.875l35.325,-3.917l0.317,-5.833l33.333,-11.05l4.525,-18.475l3.567,-0.975l3.542,-22.042l11.983,-5.2l3.225,-16.208l-5.517,-6.15l3.225,-16.208l-85.225,17.575l-25.358,-92.667l-33.5,-115.35l-3.9,-14.258l0.05,0.008l-79.392,17.892l-157.483,33.5l-125.417,24.741l-141.916,27.35l14.983,89.759l37.233,-38.925l11.65,-20.425l14.917,5.5l9.058,-15.892l10.675,-23.992l6.492,9.717l24.308,4.842l14.259,-3.9l3.225,-16.209l19.116,-7.15l7.767,-13.616l10.692,-2.925l24.966,14.241l11.984,-5.2l8.441,16.834l9.084,5.175l11.033,12.308l1.633,12.958l26.9,0.3l13.617,7.767l0.017,21.067l13.616,7.766l21.067,-0.016l6.492,9.716l17.183,6.792l-0.017,0.025Z"/></svg>