<?xml version="1.0" encoding="UTF-8" standalone="no"?><!DOCTYPE svg PUBLIC "-//W3C//DTD SVG 1.1//EN" "http://www.w3.org/Graphics/SVG/1.1/DTD/svg11.dtd"><svg fill="#a2a2a2" stroke="#fff" fill-rule="nonzero" stroke-width="20.83px" width="100%" height="100%" viewBox="0 0 627 706" version="1.1" xmlns="http://www.w3.org/2000/svg" xmlns:xlink="http://www.w3.org/1999/xlink" xml:space="preserve" xmlnsSerif="http://www.serif.com/" style="fill-rule:evenodd;clip-rule:evenodd;stroke-linejoin:round;"><path id="oh1805" d="M615.973,250.208l-15.958,-93.325l-24.759,-146.466l-62.841,36.35l-40.167,28.233l-37.558,44.758l-26.242,9.1l-23.333,-1.275l-26.567,14.934l-15.55,6.175l-18.142,10.708l-15.891,-9.058l-28.192,1.966l-11.008,8.759l-6.492,-9.717l-21.083,-21.05l-19.775,-2.25l-211.998,32.33l6.923,58.27l13.05,103.7l15.025,131.892l16.991,160.091l14.575,-9.733l12.325,10.033l24.95,-6.825l20.425,11.65l21.425,36.284l16.209,3.225l16.525,-2.609l16.208,3.225l23.675,16.509l8.1,1.616l14.892,-15.566l24.308,4.841l10.058,8.742l24.95,-6.825l10.359,-18.158l20.408,-9.417l13.633,28.833l17.184,6.792l20.108,17.483l11.667,0.642l23.975,-10.392l3.866,-27.875l10.692,-2.925l-5.217,-33.05l13.9,-40.2l6.15,-5.516l24.967,14.241l8.417,-4.216l-1.009,-45.7l6.792,-17.184l14.258,-3.9l0.642,-11.666l8.742,-10.059l12.641,4.2l21.709,-11.683l12.308,-11.033l9.058,-15.892l21.05,-21.083l-0.675,-30.467l8.417,-25.283l-0.992,-24.634l5.475,-35.983l5.5,-14.917l-7.466,-13.283l4.2,-12.642l-16.542,-18.458l20.725,-15.25l0,-0.017Z"/></svg>