<?xml version="1.0" encoding="UTF-8" standalone="no"?><!DOCTYPE svg PUBLIC "-//W3C//DTD SVG 1.1//EN" "http://www.w3.org/Graphics/SVG/1.1/DTD/svg11.dtd"><svg fill="#a2a2a2" stroke="#fff" fill-rule="nonzero" stroke-width="20.83px" width="100%" height="100%" viewBox="0 0 1866 1729" version="1.1" xmlns="http://www.w3.org/2000/svg" xmlns:xlink="http://www.w3.org/1999/xlink" xml:space="preserve" xmlnsSerif="http://www.serif.com/" style="fill-rule:evenodd;clip-rule:evenodd;stroke-linejoin:round;"><path id="id1863" d="M799.7,1413.67l-175,-30.633l-121.558,-24.2l-99.517,-20.659l-148.142,-30.333l-72.933,-14.525l-172.133,-41.008l39.4,-164.025l35.191,-151.417l23.3,-40.858l-2.925,-10.692l12.625,-16.867l-8.441,-16.833l-23.992,-10.675l7.75,-34.683l15.867,-12.009l19.1,-28.216l13.283,-7.467l16.192,-17.842l5.816,-20.75l18.459,-16.541l15.85,-33.075l32.375,-35.675l4.2,-12.642l-3.584,-20.092l-16.541,-18.458l-9.084,-5.175l-7.466,-13.283l0.958,-17.5l-5.85,-21.384l10.033,-12.325l-1.633,-12.958l-8.125,-22.683l9.358,-42.792l34.875,-145.55l28.425,-113.133l13.567,-55.434l27.125,-110.866l114.425,26.15l-0.008,0.008l104.058,23.242l131.933,27.108l129.659,25.817l155.266,28.383l104.375,17.408l94.975,18.067l116.042,18.05l103.4,13.85l106.967,12.875l77.791,11.275l132.567,15.442l80.383,6.733l96.592,9.967l-0.042,-0l-17.333,188.641l-9.642,90.759l-14.125,151.333l-11.558,125.75l-14.108,172.433l-2.275,-1.258l-6.1,68.717l-12.2,137.425l-14.45,157.2l0.025,-0.042l-15.742,159.5l-9.625,111.825l-9.642,90.758l-145.533,-13.808l-169.85,-18.65l-85.9,-12.892l-84.925,-9.325l-85.9,-12.891l-105.667,-15.142l0.059,0l-85.9,-12.892l-46.409,-7.544l-0.533,-1.606l25.492,-178.6l-133.367,-20.808Z"/></svg>