<?xml version="1.0" encoding="UTF-8" standalone="no"?><!DOCTYPE svg PUBLIC "-//W3C//DTD SVG 1.1//EN" "http://www.w3.org/Graphics/SVG/1.1/DTD/svg11.dtd"><svg fill="#a2a2a2" stroke="#fff" fill-rule="nonzero" stroke-width="20.83px" width="100%" height="100%" viewBox="0 0 1062 358" version="1.1" xmlns="http://www.w3.org/2000/svg" xmlns:xlink="http://www.w3.org/1999/xlink" xml:space="preserve" xmlnsSerif="http://www.serif.com/" style="fill-rule:evenodd;clip-rule:evenodd;stroke-linejoin:round;"><path id="ms1798" d="M1026.75,10.417l-280.024,22.65l-154.772,14.122l-181.214,11.751l-88.729,7.583l-108.613,7.232l-86.089,6.125l-31.509,3.663l18.427,12.474l-21.35,47.983l-4.2,12.642l-9.717,6.491l-13.916,19.134l-11.984,5.2l-9.383,21.725l-2.892,31.441l-13.6,13.3l6.175,15.55l-7.108,23.017l-14.258,3.9l5.2,11.983l-2.909,10.375l8.442,16.834l-12.308,11.033l149.075,-8.233l152.641,-9.209l336.075,-24.85l155.234,-13.75l100.166,-12.075l147.125,-15.358l-2.608,-16.525l-15.567,-14.892l-2.608,-16.525l3.85,-48.941l-3.9,-14.259l-9.733,-14.575l-8.125,-22.683l10.016,-33.417l-0.991,-24.633l2.908,-10.375l17.167,-14.275l-12.325,-10.033l-2.069,-11.6Z"/></svg>