<?xml version="1.0" encoding="UTF-8" standalone="no"?><!DOCTYPE svg PUBLIC "-//W3C//DTD SVG 1.1//EN" "http://www.w3.org/Graphics/SVG/1.1/DTD/svg11.dtd"><svg fill="#a2a2a2" stroke="#fff" fill-rule="nonzero" stroke-width="20.83px" width="100%" height="100%" viewBox="0 0 541 912" version="1.1" xmlns="http://www.w3.org/2000/svg" xmlns:xlink="http://www.w3.org/1999/xlink" xml:space="preserve" xmlnsSerif="http://www.serif.com/" style="fill-rule:evenodd;clip-rule:evenodd;stroke-linejoin:round;"><path id="ms1817" d="M495.517,10.475l-159.75,11.158l-156.209,10.184l7.467,13.283l-12.308,11.033l-16.834,8.442l1.634,12.958l-14.259,3.9l-4.525,18.475l2.925,10.692l-1.591,29.167l-33.034,26.283l-5.5,14.917l-12.308,11.033l10.058,8.742l-2.908,10.375l-26.242,9.1l8.759,11.008l-5.175,9.075l5.2,11.983l-21.05,21.084l7.466,13.283l-10.358,18.158l14.592,11.334l-0.959,17.5l-6.475,11.35l12.325,10.033l1.317,18.8l-9.717,6.492l1.317,18.8l14.275,17.166l-6.475,11.35l-3.225,16.209l9.083,5.175l-10.033,12.325l0.658,9.4l11.034,12.308l1.316,18.8l28.217,19.1l-21.35,47.983l-4.2,12.642l-9.717,6.492l-13.916,19.133l-11.984,5.2l-9.383,21.725l-2.892,31.442l-13.6,13.3l6.175,15.55l-7.108,23.016l-14.258,3.9l5.2,11.984l-2.909,10.375l8.442,16.833l-12.308,11.033l149.075,-8.233l152.641,-9.208l0.659,9.4l-14.542,51.866l9.417,20.409l20.108,17.483l7.8,28.517l9.733,14.575l9.084,5.175l12.958,-1.634l4.2,-12.641l11.008,-8.759l50.25,-19.491l12.309,-11.034l13.941,1.934l16.867,12.625l28.192,-1.967l16.208,3.225l10.033,-12.325l-20.875,-153.283l-15.658,-120.225l5.708,-147.142l6.3,-201l0.242,-90.1l3.792,-112.142l-14.275,-17.166l-0.075,0.058Z"/></svg>