<?xml version="1.0" encoding="UTF-8" standalone="no"?><!DOCTYPE svg PUBLIC "-//W3C//DTD SVG 1.1//EN" "http://www.w3.org/Graphics/SVG/1.1/DTD/svg11.dtd"><svg fill="#a2a2a2" stroke="#fff" fill-rule="nonzero" stroke-width="20.83px" width="100%" height="100%" viewBox="0 0 712 1287" version="1.1" xmlns="http://www.w3.org/2000/svg" xmlns:xlink="http://www.w3.org/1999/xlink" xml:space="preserve" xmlnsSerif="http://www.serif.com/" style="fill-rule:evenodd;clip-rule:evenodd;stroke-linejoin:round;"><path id="ma1798" d="M422.042,1249.65l-8.417,4.217l-12.942,22.7l36.934,-12.025l-15.567,-14.892l-0.008,0Zm-98.084,-239.425l-14.258,3.9l-41.117,45.734l-151.666,33.841l-104.342,24.725l-2.158,125.084l6.808,3.883l93.642,-21.8l125.75,-30.575l0.975,3.567l54.758,-16.9l3.583,20.091l10.709,18.142l18.158,10.358l6.808,3.884l11.667,0.641l6.825,24.95l9.4,-0.658l15.867,-12.008l-2.925,-10.692l15.866,-12.008l12.625,-16.867l9.75,35.642l17.167,-14.275l7.767,-13.617l23.975,-10.392l30.125,-15.908l5.833,0.317l-8.775,-32.075l-11.65,20.425l-24.292,16.225l-23.333,-1.275l-14.917,-5.5l-10.391,-23.975l-12.959,1.633l-4.558,-23.658l-25.625,-23.634l-25.925,3.267l-10.375,-2.908l2.25,-19.775l13.917,-19.134l-4.217,-8.416l22.025,-17.517l-3.9,-14.258l-11.008,8.758l-10.059,-8.742l-7.8,-28.516l0,0.016Zm255.417,-347.575l-0.658,-9.4l-15.892,-9.058l-8.417,4.217l-2.566,25.608l5.516,6.15l22.025,-17.517l-0.008,0Zm-99.6,-489.925c0,0 -32.598,-114.993 -49.593,-162.309l-20.834,-0c-8.333,5.555 -16.666,5.555 -25,-0l-25,-0c-6.343,16.904 -9.816,33.571 -10.416,50c-4.722,7.13 -10.972,9.213 -18.75,6.25c10.938,-9.151 15.105,-20.957 12.5,-35.417c-12.948,-0.62 -25.448,1.463 -37.5,6.25c-23.924,17.975 -36.424,42.28 -37.5,72.917c-2.442,0.872 -4.525,2.26 -6.25,4.166c-1.139,-19.885 -11.556,-28.219 -31.25,-25c-0.077,48.752 -9.799,97.364 -29.167,145.834c-11.314,10.654 -20.342,23.154 -27.083,37.5c0.314,34.345 -7.324,66.289 -22.917,95.833l0,29.167c9.403,1.923 17.736,6.09 25,12.5c8.462,25.533 18.184,50.533 29.167,75l4.166,-0l4.644,32.043l-6.792,17.183l-0.958,17.5l-8.084,19.45l3.9,14.258l-7.766,13.617l-9.734,-14.575l-14.575,9.733l38.342,112.109l43.217,129.925l20.15,59.616l6.508,30.784l26.917,21.366l1.633,12.959l14.592,11.333l11.983,-5.2l3.867,-27.875l2.25,-19.775l13.6,-13.3l-3.267,-25.925l18.142,-10.708l-12.659,-25.25l11.65,-20.425l12.625,-16.867l21.4,15.217l9.4,-0.659l8.725,-31.125l8.742,-10.058l14.917,5.5l-0.017,-21.067l6.15,-5.516l18.158,10.358l7.45,-7.783l4.525,-18.475l-0.333,-15.234l2.892,-31.441l4.2,-12.642l-8.759,-11.008l14.892,-15.567l17.517,22.025l16.208,3.225l14.258,-3.9l-10.708,-18.142l33.033,-26.283l20.092,-3.583l6.175,15.55l10.692,-2.925l12.308,-11.034l1.933,-13.941l-6.491,-9.717l7.45,-7.783l17.5,0.958l11.983,-5.2l-1.317,-18.8l19.775,2.25l6.475,-11.35l12.967,-1.633l19.733,-39.884l-14.275,-17.166l-29.525,-37.892l-8.1,-1.617l-12.308,11.034l-21.4,-15.217l-0.017,-21.067l-14.275,-17.166l7.45,-7.784l-7.466,-13.283l-26.242,9.1l-27.558,-9.7l0.641,-11.667l-0.033,0.017l0.642,-11.667l-23.075,-70.308l-46.142,-140.617Z"/></svg>