<?xml version="1.0" encoding="UTF-8" standalone="no"?><!DOCTYPE svg PUBLIC "-//W3C//DTD SVG 1.1//EN" "http://www.w3.org/Graphics/SVG/1.1/DTD/svg11.dtd"><svg fill="#a2a2a2" stroke="#fff" fill-rule="nonzero" stroke-width="20.83px" width="100%" height="100%" viewBox="0 0 722 1364" version="1.1" xmlns="http://www.w3.org/2000/svg" xmlns:xlink="http://www.w3.org/1999/xlink" xml:space="preserve" xmlnsSerif="http://www.serif.com/" style="fill-rule:evenodd;clip-rule:evenodd;stroke-linejoin:round;"><path id="ma1776" d="M416.042,77.472l-0,-16.667l-16.028,-17.055l0,-16.667c10.265,-10.952 8.876,-8.175 20.834,-16.666l29.166,-0c9.618,9.468 20.729,10.857 33.334,4.166c6.164,20.38 11.025,41.214 14.583,62.5c46.705,128.091 89.761,257.257 129.167,387.5c1.559,3.817 3.642,7.292 6.25,10.417c17.486,-0.833 32.764,4.029 45.833,14.583c7.118,17.713 15.452,34.379 25,50l7.121,13.898l-21.606,-0.096l-9.331,-14.137l-19.793,14.949l2.352,2.216l24.259,31.134l14.275,17.166l-19.733,39.884l-12.967,1.633l-6.475,11.35l-19.775,-2.25l1.317,18.8l-11.983,5.2l-17.5,-0.958l-7.45,7.783l6.491,9.717l-1.933,13.941l-12.308,11.034l-10.692,2.925l-6.175,-15.55l-20.092,3.583l-33.033,26.283l10.708,18.142l-14.258,3.9l-16.208,-3.225l-17.517,-22.025l-14.892,15.567l8.759,11.008l-4.2,12.642l-2.892,31.441l0.333,15.234l-4.525,18.475l-7.45,7.783l-18.158,-10.358l-6.15,5.516l0.017,21.067l-14.917,-5.5l-8.742,10.058l-8.725,31.125l-9.4,0.659l-21.4,-15.217l-12.625,16.867l-11.65,20.425l12.659,25.25l-18.142,10.708l3.267,25.925l-13.6,13.3l-2.25,19.775l-3.867,27.875l-11.983,5.2l-14.592,-11.333l-1.633,-12.959l-26.917,-21.366l-6.508,-30.784l-20.15,-59.616l-43.217,-129.925l-38.342,-112.109l14.575,-9.733l9.734,14.575l7.766,-13.617l-3.9,-14.258l8.084,-19.45l0.958,-17.5l6.792,-17.183l-4.644,-32.043l-4.166,-0c-10.983,-24.467 -20.705,-49.467 -29.167,-75c-7.264,-6.41 -15.597,-10.577 -25,-12.5l0,-29.167c15.593,-29.544 23.231,-61.488 22.917,-95.833c6.741,-14.346 15.769,-26.846 27.083,-37.5c19.368,-48.47 29.09,-97.082 29.167,-145.834c19.694,-3.219 30.111,5.115 31.25,25c1.725,-1.905 3.808,-3.294 6.25,-4.166c1.076,-30.637 13.576,-54.942 37.5,-72.917c12.052,-4.786 24.552,-6.87 37.5,-6.25c2.605,14.46 -1.562,26.266 -12.5,35.417c7.778,2.963 14.028,0.88 18.75,-6.25c0.6,-16.429 4.073,-33.096 10.416,-50l25,-0c8.334,5.555 16.667,5.555 25,-0l16.667,-0l-9.973,-9.932Zm6,1249.17l-8.417,4.217l-12.942,22.7l36.934,-12.025l-15.567,-14.892l-0.008,0Zm-98.084,-239.425l-14.258,3.9l-41.117,45.734l-151.666,33.841l-104.342,24.725l-2.158,125.084l6.808,3.883l93.642,-21.8l125.75,-30.575l0.975,3.567l54.758,-16.9l3.583,20.091l10.709,18.142l18.158,10.358l6.808,3.884l11.667,0.641l6.825,24.95l9.4,-0.658l15.867,-12.008l-2.925,-10.692l15.866,-12.008l12.625,-16.867l9.75,35.642l17.167,-14.275l7.767,-13.617l23.975,-10.392l30.125,-15.908l5.833,0.317l-8.775,-32.075l-11.65,20.425l-24.292,16.225l-23.333,-1.275l-14.917,-5.5l-10.391,-23.975l-12.959,1.633l-4.558,-23.658l-25.625,-23.634l-25.925,3.267l-10.375,-2.908l2.25,-19.775l13.917,-19.134l-4.217,-8.416l22.025,-17.517l-3.9,-14.258l-11.008,8.758l-10.059,-8.742l-7.8,-28.516l0,0.016Zm255.417,-347.575l-0.658,-9.4l-15.892,-9.058l-8.417,4.217l-2.566,25.608l5.516,6.15l22.025,-17.517l-0.008,0Z"/></svg>