<?xml version="1.0" encoding="UTF-8" standalone="no"?><!DOCTYPE svg PUBLIC "-//W3C//DTD SVG 1.1//EN" "http://www.w3.org/Graphics/SVG/1.1/DTD/svg11.dtd"><svg fill="#a2a2a2" stroke="#fff" fill-rule="nonzero" stroke-width="20.83px" width="100%" height="100%" viewBox="0 0 2286 1356" version="1.1" xmlns="http://www.w3.org/2000/svg" xmlns:xlink="http://www.w3.org/1999/xlink" xml:space="preserve" style="fill-rule:evenodd;clip-rule:evenodd;stroke-linejoin:round;stroke-miterlimit:2;"><path id="mxBEFORE" d="M2271.87,1212.41c0.563,1.58 1.464,2.928 2.696,4.045c-12.231,29.06 -22.12,59.173 -29.662,90.334c0.564,1.58 1.464,2.929 2.697,4.045c-5.607,11.393 -8.303,23.527 -8.09,36.403l-1237.72,0c-5.11,-14.957 -14.097,-26.642 -26.965,-35.055c-20.292,-19.83 -36.919,-42.301 -49.886,-67.414c-9.889,-7.191 -19.774,-14.38 -29.662,-21.572c-0.3,-25.277 -7.041,-48.646 -20.225,-70.11c-22.365,-18.399 -44.835,-36.824 -67.413,-55.279c-16.228,-5.426 -29.711,-14.864 -40.449,-28.314c-5.393,-2.697 -10.786,-5.393 -16.179,-8.09c-3.152,-11.201 -3.152,-22.438 0,-33.707c5.291,-18.989 11.582,-37.417 18.876,-55.279c-1.753,-32.758 -19.731,-50.285 -53.931,-52.583c-1.917,-3.384 -4.163,-6.528 -6.741,-9.438c-2.478,-11.783 -5.175,-23.468 -8.09,-35.055c-11.425,-9.535 -23.56,-18.072 -36.403,-25.617c-19.076,-13.437 -27.165,-31.865 -24.269,-55.279c-0.052,-7.386 1.747,-14.127 5.393,-20.224c-0.337,-4.388 -1.686,-8.432 -4.045,-12.135c-14.456,-15.669 -31.536,-24.66 -51.234,-26.965c-8.365,-5.315 -16.905,-9.81 -25.618,-13.483c-1.254,-9.605 -4.4,-18.593 -9.438,-26.965c-7.296,-6.394 -13.587,-13.583 -18.875,-21.573c-10.838,-33.375 -27.915,-63.037 -51.235,-88.986c-0.151,-19.571 -6.442,-36.649 -18.876,-51.234c-13.375,-32.008 -20.566,-65.268 -21.572,-99.773c-4.843,-5.986 -5.293,-12.28 -1.348,-18.875c-6.669,-22.287 -14.759,-43.86 -24.269,-64.718c1.31,-12.506 6.256,-23.292 14.831,-32.358c1.779,-6.868 1.329,-13.61 -1.349,-20.224c-14.396,-14.405 -31.474,-24.741 -51.234,-31.011c-0.717,-12.932 -5.212,-24.166 -13.483,-33.706c-11.549,-7.993 -23.683,-14.734 -36.403,-20.225c-2.246,0.451 -4.495,0.898 -6.741,1.349c-1.767,4.009 -4.463,7.154 -8.09,9.438c-21.052,-10.716 -37.231,-26.445 -48.538,-47.19c-8.934,-5.307 -17.921,-10.7 -26.965,-16.179c-5.936,-2.225 -10.878,-0.877 -14.831,4.045c-1.737,9.818 -0.389,19.256 4.044,28.313c-15.71,21.575 -23.799,45.844 -24.269,72.807c2.357,15.389 6.852,29.77 13.483,43.145c-3.594,17.978 -3.594,35.953 0,53.931c0.93,9.368 -2.214,17.007 -9.438,22.921c-1.798,8.987 -1.798,17.977 0,26.965c5.566,12.029 11.86,23.713 18.876,35.055c0.898,6.291 1.799,12.585 2.697,18.876c15.189,7.103 26.873,17.889 35.055,32.359c24.422,20.431 39.253,46.496 44.493,78.199c8.75,5.607 15.041,13.246 18.876,22.921c4.64,1.993 9.133,4.242 13.482,6.741c5.647,13.03 9.692,26.513 12.135,40.449c5.506,5.673 12.248,8.82 20.224,9.438c-1.772,14.599 0.027,28.982 5.393,43.144c-2.634,25.38 4.107,48.301 20.224,68.762c7.99,5.288 15.179,11.579 21.573,18.876c2.793,15.371 8.186,29.751 16.179,43.145c19.542,27.397 38.418,55.263 56.627,83.593c5.909,21.06 12.65,41.734 20.224,62.021c-3.459,9.047 -5.708,18.037 -6.741,26.965c9.063,11.954 14.456,25.437 16.179,40.448c5.48,9.045 10.873,18.032 16.18,26.966c0.331,15.238 4.376,29.171 12.134,41.796c-1.232,1.117 -2.133,2.465 -2.696,4.045c4.897,9.813 10.29,19.251 16.179,28.314c-8.572,13.124 -13.966,27.507 -16.179,43.145c4.886,14.655 9.829,29.486 14.831,44.493c16.195,20.248 31.476,20.248 45.841,-0c9.017,15.3 20.701,27.885 35.055,37.751c9.257,15.829 14.65,32.906 16.179,51.235c4.385,7.086 9.778,13.377 16.18,18.876c1.302,2.556 1.75,5.253 1.348,8.089l-72.807,0c-3.797,-10.948 -7.841,-21.734 -12.134,-32.358c-11.903,-8.424 -24.037,-16.514 -36.404,-24.269c-13.151,-19.561 -26.634,-38.887 -40.448,-57.976c-34.599,-25.609 -69.207,-51.226 -103.817,-76.852c-2.341,-9.411 -5.488,-18.398 -9.438,-26.965c17.919,-44.124 23.762,-89.965 17.528,-137.524c-4.013,-15.201 -9.856,-29.581 -17.528,-43.145c-19.501,-11.409 -37.479,-24.892 -53.931,-40.448c-12.253,-17.765 -24.838,-35.293 -37.752,-52.583c-14.785,-6.817 -30.063,-8.615 -45.841,-5.393c-7.089,-12.388 -16.077,-23.174 -26.965,-32.358c-4.709,-1.271 -9.204,-3.069 -13.483,-5.394c-8.087,-15.276 -20.672,-24.266 -37.752,-26.965c-2.246,-2.246 -4.495,-4.495 -6.741,-6.741c1.664,-20.788 -6.876,-35.619 -25.617,-44.493c-7.585,-9.835 -15.675,-19.273 -24.269,-28.314c4.245,-3.05 8.74,-3.5 13.482,-1.349c16.859,11.342 34.837,14.039 53.931,8.09c24.439,-19.722 41.066,-44.439 49.886,-74.155c1.799,-4.495 1.799,-8.988 0,-13.483c-6.121,-12.398 -13.312,-24.083 -21.572,-35.055c-0.801,-9.206 -2.599,-18.193 -5.393,-26.965c-7.448,-3.994 -14.64,-8.486 -21.572,-13.483c-7.985,-25.472 -22.816,-45.696 -44.493,-60.672c-6.215,-2.414 -12.507,-4.663 -18.876,-6.742c-16.278,-15.319 -32.008,-31.498 -47.19,-48.538c-0.977,-14.677 -3.224,-29.058 -6.741,-43.144c3.405,-13.327 4.753,-26.809 4.045,-40.449c-4.045,-7.639 -9.888,-13.482 -17.528,-17.527c10.448,-30.563 4.156,-57.081 -18.876,-79.548c6.784,-31.27 0.043,-59.136 -20.224,-83.593c-1.798,-6.291 -1.798,-12.585 0,-18.876c7.436,-7.653 10.133,-16.641 8.09,-26.966c-7.62,-8.046 -13.912,-17.034 -18.876,-26.965c-0.899,-10.786 -1.798,-21.573 -2.697,-32.359c-1.797,-3.594 -4.494,-6.292 -8.089,-8.089c-2.484,-18.809 -3.001,-47.778 -3.001,-47.778l68.812,9.906l83.625,11.594l123.006,13.75l-13.112,15.081l-2.419,12.156l88.312,54.856l86.582,53.888l87.562,52.187l88.525,50.5l46.694,28.888l6.075,1.212l121.794,19.825l105.262,17.169l-0.025,-0.013l8.75,0.482l88,11.831l9.425,-60.05l121.063,17.15l75.85,9.412l0.031,0.032l15.319,8.737l6.825,19.681l11.2,19.925l19.694,8.975l13.137,16.519l10.469,17.25l17.519,16.756l3.9,8.988l20.681,23.075l15.319,8.737l14.112,14.813l10.213,5.825l12.168,18.219l2.688,15.068l9.987,26l5.6,9.963l-3.868,22.606l1.956,12.394l10.225,21.625l3.419,17.744l9.006,11.9l10.944,8.5l10.456,1.45l22.144,28.418l13.618,7.769l16.532,2.663l0.493,7.05l12.65,9.468l15.563,4.363l7.3,10.931l10.944,8.5l8.75,0.482l18.962,6.312l4.856,-8.513l15.788,-15.812l11.662,-4.631l2.663,-16.532l15.044,-34.287l13.35,-19.456l20.412,-4.15l12.156,2.419l5.825,-10.213l8.988,-3.9l22.131,12.625l15.8,-0.013l40.844,7.5l9.719,-1.225l17.262,5.332l4.631,11.662l5.838,5.588l8.75,0.481l10.469,17.25l10.943,8.5l2.925,10.694l23.594,17.968l5.363,14.338l9.243,7.525l4.644,27.462l13.138,16.519l0.987,14.1l11.438,15.544l11.706,42.769l9.006,11.9l15.319,8.737l7.794,17.981l14.843,17.488l0.988,14.1l6.812,3.881l11.438,15.544l13.856,3.394l9.975,10.2l-1.45,10.456l5.6,9.962l-5.094,12.888l7.794,17.981l-4.6,19.938l11.919,6.793l1.225,9.719l10.944,8.5l4.868,7.288l0.25,11.425l9.975,10.2l-5.331,17.262l5.838,5.588l4.387,16.037l14.831,1.688l8.513,4.856l11.425,-0.25l7.3,10.931l10.944,8.5l8.018,-2.194l25.775,10.188l9.007,11.9l10.212,5.825l35.006,1.912l17.5,0.957l13.857,3.393l32.837,25.494l21.863,-14.606l14.1,-0.988c-0,0 -3.759,3.666 -5.393,9.623Z"/></svg>