<?xml version="1.0" encoding="UTF-8" standalone="no"?><!DOCTYPE svg PUBLIC "-//W3C//DTD SVG 1.1//EN" "http://www.w3.org/Graphics/SVG/1.1/DTD/svg11.dtd"><svg fill="#a2a2a2" stroke="#fff" fill-rule="nonzero" stroke-width="20.83px" width="100%" height="100%" viewBox="0 0 2004 1650" version="1.1" xmlns="http://www.w3.org/2000/svg" xmlns:xlink="http://www.w3.org/1999/xlink" xml:space="preserve" xmlnsSerif="http://www.serif.com/" style="fill-rule:evenodd;clip-rule:evenodd;stroke-linejoin:round;"><path id="wi1836" d="M1991.04,707.65l-10.359,18.158l-11.983,5.2l-4.525,18.475l-7.767,13.617l-5.5,14.917l7.467,13.283l9.083,5.175l7.767,-13.617l4.525,-18.475l13.583,-34.366l-2.291,-22.359l-0,-0.008Zm-430.9,539.367l118.616,-7.559l141.917,-6.283l119.908,-9.825l-4.241,-29.492l1.616,-8.1l-0.016,-21.066l-8.759,-11.009l-1.633,-12.958l-9.733,-14.575l2.908,-10.375l-6.508,-30.783l2.25,-19.775l6.791,-17.184l-0.016,-21.066l10.675,-23.992l-5.85,-21.383l-1.317,-18.8l8.725,-31.125l10.033,-12.325l6.475,-11.35l-8.441,-16.834l4.5,-39.541l12.291,-32.1l3.542,-22.042l-16.867,-12.625l-16.833,8.442l-7.45,7.783l-13.267,28.533l-17.166,14.275l-15.55,6.175l6.45,-32.416l13.266,-28.534l2.909,-10.375l21.708,-11.683l2.25,-19.775l-16.867,-12.625l0.642,-11.667l5.817,-20.75l-29.167,-1.591l8.083,-19.45l-2.625,-37.592l-14.591,-11.333l-22.042,-3.542l-6.825,-24.95l-9.083,-5.175l-19.775,-2.25l-26.584,-6.133l-11.983,5.2l-24.308,-4.842l-38.909,-16.175l-128.366,-28.083l-15.909,-30.125l-20.75,-5.817l-1.95,-7.125l-0.008,-0.042l-19.775,-2.25l-22.7,-12.941l-5.175,9.083l-13.283,7.467l3.208,-37.275l10.358,-18.159l-11.033,-12.308l-14.258,3.9l-19.75,18.817l-12.642,-4.2l-22.025,17.516l-48.925,17.217l-20.092,3.583l-19.133,-13.916l-0.067,-0.05l0.317,-5.834l36.6,-27.258l34.65,-34.383l58.917,-71.675l28.175,-23.034l29.15,-19.475l53.783,-20.466l60.575,-37.65c10.105,-6.852 16.152,-16.551 28.269,-19.421c2.495,-6.76 5.273,-13.01 8.333,-18.75l0,-25c-19.373,4 -39.513,4 -60.416,0c-2.101,-26.798 -0.712,-53.187 4.166,-79.167c-5.637,-4.938 -10.498,-10.494 -14.583,-16.666c-9.933,-2.128 -18.266,-6.295 -25,-12.5l-12.5,-0c-2.643,6.028 -7.504,8.806 -14.583,8.333c-8.974,-3.134 -18.002,-3.828 -27.084,-2.083c-8.15,14.497 -20.65,21.442 -37.5,20.833c-3.569,2.871 -6.347,6.344 -8.333,10.417c-50.084,13.875 -93.14,38.181 -129.167,72.916c-9.624,2.07 -19.346,2.764 -29.166,2.084l-0,8.333l-0.378,1.687l-19.116,7.15l1.633,12.967l-10.692,2.925l-20.125,-38.55l-21.066,0.017l6.791,-17.184l-28.85,-7.425l-11.35,-6.475l-32.733,-0.616l-24.95,6.825l-5.175,9.083l-30.783,6.508l-15.25,-20.725l-43.109,-3.525l-11.033,-12.308l-20.092,3.583l-12.641,-4.2l-15.567,-14.891l-1.317,-18.8l-12.683,-46.334l-0.992,-24.633l-18.158,-10.358l-22.042,-3.55l1.034,66.75l-2.592,4.541l-247.908,-3l-98.2,-1.858l-79.409,-3.175l-133.208,-3.775l-105.008,-5.742l-83.917,-5.758l-75.842,-4.15l-105.991,-9.308l-2.132,4.541c-2.612,19.337 -4,38.781 -4.166,58.334c10.941,3.839 22.054,8.006 33.333,12.5c3.129,3.65 5.212,7.816 6.25,12.5c-0.996,21.14 -1.692,41.973 -2.083,62.5c5.554,12.5 11.112,25 16.666,37.5c-3.65,9.681 -5.733,19.403 -6.25,29.166c6.004,3.166 12.254,5.944 18.75,8.334c5.284,-3.867 10.838,-4.561 16.667,-2.084c3.258,11.419 5.342,23.225 6.25,35.417c7.225,3.12 14.863,5.204 22.917,6.25c9.2,13.048 20.312,15.825 33.333,8.333c13.888,-2.778 27.779,-2.778 41.667,0c-0.596,17.274 2.179,34.635 8.333,52.084c14.146,-6.859 27.337,-5.47 39.583,4.166c1.555,15.772 6.413,30.355 14.584,43.75c-2.779,4.167 -5.555,8.334 -8.334,12.5c6.813,13.822 11.671,28.405 14.584,43.75c11.458,10.759 20.483,23.259 27.083,37.5c-5.554,11.113 -5.554,22.221 0,33.334c-3.254,15.146 -7.421,29.729 -12.5,43.75c5.471,15.333 13.108,29.916 22.917,43.75c2.412,8.954 4.495,17.979 6.25,27.083c-3.7,10.675 -9.255,20.4 -16.667,29.167c4.312,5.308 9.175,10.166 14.583,14.583c1.109,28.092 1.8,55.871 2.084,83.333c-5.984,5.975 -12.925,10.834 -20.834,14.584c5.555,6.946 5.555,13.887 0,20.833c-8.087,7.929 -17.808,11.4 -29.166,10.417c-2.859,15.779 1.308,28.975 12.5,39.583c-1.388,1.387 -2.779,2.779 -4.167,4.167c13.233,4.437 21.567,13.462 25,27.083c15.842,3.033 31.121,7.892 45.833,14.583c7.204,7.454 9.984,16.484 8.334,27.084c11.55,-3.796 22.662,-7.267 33.333,-10.417c9.946,4.067 14.808,11.704 14.583,22.917c25.217,23.016 27.3,47.321 6.25,72.916c11.988,12.167 17.546,26.75 16.667,43.75c14.762,1.55 23.792,9.884 27.083,25c5.742,7.138 12.688,12.696 20.834,16.667c2.012,3.95 2.704,8.117 2.083,12.5c12.842,5.113 25.342,11.363 37.5,18.75c8.446,8.725 15.392,18.446 20.833,29.167c19.367,7.104 37.421,16.129 54.167,27.083l3.681,7.567l11.334,-14.592l25.608,2.567l21.067,-0.017l25.925,-3.267l23.675,16.509l35.658,11.308l6.492,9.717l13.941,1.933l0.659,9.4l12.008,15.867l16.208,3.225l-0.075,-0l12.642,4.2l-1.275,23.333l7.467,13.283l-0.959,17.5l9.734,14.575l2.925,10.692l13.3,13.6l2.291,22.358l8.759,11.009l-3.867,27.875l1.317,18.8l21.4,15.216l-3.55,22.042l10.375,2.908l-5.817,20.75l5.517,6.15l0.675,30.467l3.241,4.858l1.65,34.025l-5.575,14.295l14.494,10.272l0.798,11.108l115.708,2.817l126.4,-0.117l62.225,-3.616l64.492,-2.325l158.5,-8.892l29.492,-4.242l5.2,11.984l21.4,15.216l15.566,14.892l-0.033,0.033l0.067,-0.066l7.125,-1.95l-2.625,-37.592l27.541,-11.367l7.45,-7.783l2.567,-25.608l17.483,-20.109l-0.991,-24.633l-5.2,-11.983l-13.617,-7.767l-1.633,-12.958l3.55,-22.042l8.741,-10.058l38.884,-4.892l13.6,-13.3l21.383,-5.85l12.308,-11.033l3.867,-27.875l13.6,-13.3l6.775,-38.25l-6.175,-15.55l-32.75,-21.684l-8.125,-22.683l-28.217,-19.1l2.609,-4.483Z"/></svg>