<?xml version="1.0" encoding="UTF-8" standalone="no"?><!DOCTYPE svg PUBLIC "-//W3C//DTD SVG 1.1//EN" "http://www.w3.org/Graphics/SVG/1.1/DTD/svg11.dtd"><svg fill="#a2a2a2" stroke="#fff" fill-rule="nonzero" stroke-width="20.83px" width="100%" height="100%" viewBox="0 0 713 1457" version="1.1" xmlns="http://www.w3.org/2000/svg" xmlns:xlink="http://www.w3.org/1999/xlink" xml:space="preserve" xmlnsSerif="http://www.serif.com/" style="fill-rule:evenodd;clip-rule:evenodd;stroke-linejoin:round;"><path id="nw1800" d="M103.458,895.567l1.844,15.871l6.923,58.27l13.05,103.7l-29.4,364.009l11.35,6.475l24.292,-16.225l24.95,-6.825l2.25,-19.775l-13.942,-1.934l5.5,-14.916l-6.492,-9.717l5.175,-9.083l0,-0.025l14.575,-9.734l12.325,10.034l24.95,-6.825l20.425,11.65l21.425,36.283l16.209,3.225l16.525,-2.608l16.208,3.225l23.675,16.508l8.1,1.617l14.892,-15.567l24.308,4.842l10.058,8.741l24.95,-6.825l10.359,-18.158l20.408,-9.417l13.633,28.834l17.184,6.791l20.108,17.484l11.667,0.641l23.975,-10.391l3.866,-27.875l10.692,-2.925l-5.217,-33.05l13.9,-40.2l6.15,-5.517l24.967,14.242l8.417,-4.217l-1.009,-45.7l6.792,-17.183l14.258,-3.9l0.642,-11.667l8.742,-10.058l12.641,4.2l21.709,-11.684l12.308,-11.033l9.058,-15.892l21.05,-21.083l-0.675,-30.467l8.417,-25.283l-0.992,-24.633l5.475,-35.984l5.5,-14.916l-7.466,-13.284l4.2,-12.641l-16.542,-18.459l20.725,-15.25l0,-0.016l-15.958,-93.325l-24.759,-146.467l-62.841,36.35l-40.167,28.233l-37.558,44.759l-26.242,9.1l-23.333,-1.275l-26.567,14.933l-15.55,6.175l-18.142,10.708l-15.891,-9.058l-28.192,1.967l-11.008,8.758l-6.492,-9.717l-21.083,-21.05l-19.775,-2.25l-33.342,-9.95l7.392,-12.041l15.85,-33.075l8.416,-4.217l3.525,-43.108l1.617,-8.1l7.767,-13.617l20.725,-15.25l-1.967,-28.192l4.2,-12.641l12.625,-16.867l11.35,6.475l1.317,18.8l8.416,-4.217l7.767,-13.616l1.275,-23.334l-4.217,-8.416l5.475,-35.984l0.009,-0.066l-9.734,-14.575l-12.341,-31.1l-6.509,-30.784l-7.466,-13.283l-13.659,-49.9l-10.708,-18.142l-17.842,-16.191l-17.183,-6.792l-19.433,12.983l-20.409,9.417l-14.241,24.967l-9.7,27.558l-8.1,-1.617l-12.942,22.7l-31.125,-8.725l-7.783,-7.45l-1.967,-28.191l5.5,-14.917l5.175,-9.083l16.525,-2.609l12.308,-11.033l4.5,-39.542l19.434,-12.983l3.225,-16.208l-4.892,-38.884l1.933,-13.941l-11.05,-33.334l-17.841,-16.191l1.933,-13.942l15.55,-6.175l-5.2,-11.983l-11.033,-12.309l1.616,-8.1l-16.866,-12.625l-23.334,-1.275l-21.725,-9.383l-13.616,-7.767l-21.067,0.017l-17.517,-22.025l-12.641,-4.2l-20.092,3.583l-15.892,-9.058l-18.35,-8.417l-2.914,11.393l83.764,723.991Zm-84.516,-789.517l27.875,3.867l54.775,4.166l15.55,-6.175l-20.109,-17.483l0.642,-11.667l-32.417,-6.45l7.45,-7.783l-4.875,-17.825l15.234,-0.333l-8.442,-16.834l3.225,-16.208l-10.375,-2.908l-14.575,9.733l-15.233,0.333l-6.475,11.35l-0.025,0.025l-7.45,7.784l-13.3,-13.6l8.525,80.008Z"/></svg>