<?xml version="1.0" encoding="UTF-8" standalone="no"?><!DOCTYPE svg PUBLIC "-//W3C//DTD SVG 1.1//EN" "http://www.w3.org/Graphics/SVG/1.1/DTD/svg11.dtd"><svg fill="#a2a2a2" stroke="#fff" fill-rule="nonzero" stroke-width="20.83px" width="100%" height="100%" viewBox="0 0 572 984" version="1.1" xmlns="http://www.w3.org/2000/svg" xmlns:xlink="http://www.w3.org/1999/xlink" xml:space="preserve" xmlnsSerif="http://www.serif.com/" style="fill-rule:evenodd;clip-rule:evenodd;stroke-linejoin:round;"><path id="me1820" d="M438.777,662.651l-0.659,-9.4l-15.891,-9.058l-8.417,4.217l-2.567,25.608l5.517,6.15l22.025,-17.517l-0.008,0Zm-99.6,-489.925c-0,0 -32.598,-114.993 -49.594,-162.309l-20.833,-0c-8.333,5.555 -16.667,5.555 -25,-0l-25,-0c-6.344,16.904 -9.816,33.571 -10.417,50c-4.721,7.13 -10.971,9.213 -18.75,6.25c10.939,-9.151 15.105,-20.957 12.5,-35.417c-12.947,-0.62 -25.447,1.463 -37.5,6.25c-23.923,17.975 -36.423,42.28 -37.5,72.917c-2.441,0.872 -4.525,2.26 -6.25,4.166c-1.138,-19.885 -11.555,-28.219 -31.25,-25c-0.077,48.752 -9.799,97.364 -29.166,145.834c-11.315,10.654 -20.342,23.154 -27.084,37.5c0.315,34.345 -7.324,66.289 -22.916,95.833l-0,29.167c9.402,1.923 17.736,6.09 25,12.5c8.461,25.533 18.184,50.533 29.166,75l4.167,-0l4.643,32.043l-6.791,17.183l-0.959,17.5l-8.083,19.45l3.9,14.258l-7.767,13.617l-9.733,-14.575l-14.575,9.733l38.342,112.109l43.216,129.925l20.15,59.616l6.509,30.784l26.916,21.366l1.634,12.959l14.591,11.333l11.984,-5.2l3.866,-27.875l2.25,-19.775l13.6,-13.3l-3.266,-25.925l18.141,-10.708l-12.658,-25.25l11.65,-20.425l12.625,-16.867l21.4,15.217l9.4,-0.659l8.725,-31.125l8.742,-10.058l14.916,5.5l-0.016,-21.067l6.15,-5.516l18.158,10.358l7.45,-7.783l4.525,-18.475l-0.333,-15.234l2.891,-31.441l4.2,-12.642l-8.758,-11.008l14.892,-15.567l17.516,22.025l16.209,3.225l14.258,-3.9l-10.708,-18.142l33.033,-26.283l20.092,-3.583l6.175,15.55l10.691,-2.925l12.309,-11.034l1.933,-13.941l-6.492,-9.717l7.45,-7.783l17.5,0.958l11.984,-5.2l-1.317,-18.8l19.775,2.25l6.475,-11.35l12.967,-1.633l19.733,-39.884l-14.275,-17.166l-29.525,-37.892l-8.1,-1.617l-12.308,11.034l-21.4,-15.217l-0.017,-21.067l-14.275,-17.166l7.45,-7.784l-7.467,-13.283l-26.241,9.1l-27.559,-9.7l0.642,-11.667l-0.033,0.017l0.641,-11.667l-23.075,-70.308l-46.141,-140.617Z"/></svg>