<?xml version="1.0" encoding="UTF-8" standalone="no"?><!DOCTYPE svg PUBLIC "-//W3C//DTD SVG 1.1//EN" "http://www.w3.org/Graphics/SVG/1.1/DTD/svg11.dtd"><svg fill="#a2a2a2" stroke="#fff" fill-rule="nonzero" stroke-width="20.83px" width="100%" height="100%" viewBox="0 0 553 859" version="1.1" xmlns="http://www.w3.org/2000/svg" xmlns:xlink="http://www.w3.org/1999/xlink" xml:space="preserve" xmlnsSerif="http://www.serif.com/" style="fill-rule:evenodd;clip-rule:evenodd;stroke-linejoin:round;"><path id="me1842" d="M419.808,538.517l-0.658,-9.4l-15.892,-9.059l-8.416,4.217l-2.567,25.608l5.517,6.15l22.025,-17.516l-0.009,-0Zm-31.025,-267.334l0.642,-11.666l-23.075,-70.309l-46.142,-140.616l-29.191,-22.659l-36.634,-14.875l-11.666,-0.641l-7.767,13.616l-17.825,4.875l-9.058,15.892l-14.259,3.9l-13.6,13.3l-18.475,-4.525l-5.516,-6.15l-6.825,-24.95l-21.067,0.017l-6.15,5.516l-49.45,155.284l6.525,51.85l-11.333,14.591l-2.892,31.442l6.492,9.717l-1.934,13.941l1.634,12.959l11.033,12.308l-13.267,28.533l4.217,8.417l-18.775,22.375l-6.792,17.183l-0.958,17.5l-8.083,19.45l3.9,14.259l-7.767,13.616l-9.733,-14.575l-14.575,9.734l38.341,112.108l43.217,129.925l20.15,59.617l6.508,30.783l26.917,21.367l1.633,12.958l14.592,11.333l11.983,-5.2l3.867,-27.875l2.25,-19.775l13.6,-13.3l-3.267,-25.925l18.142,-10.708l-12.658,-25.25l11.65,-20.425l12.625,-16.867l21.4,15.217l9.4,-0.658l8.725,-31.125l8.741,-10.059l14.917,5.5l-0.017,-21.066l6.15,-5.517l18.159,10.358l7.45,-7.783l4.525,-18.475l-0.334,-15.233l2.892,-31.442l4.2,-12.642l-8.758,-11.008l14.891,-15.567l17.517,22.025l16.208,3.225l14.259,-3.9l-10.709,-18.141l33.034,-26.284l20.091,-3.583l6.175,15.55l10.692,-2.925l12.308,-11.033l1.934,-13.942l-6.492,-9.717l7.45,-7.783l17.5,0.958l11.983,-5.2l-1.316,-18.8l19.775,2.25l6.475,-11.35l12.966,-1.633l19.734,-39.883l-14.275,-17.167l-29.525,-37.892l-8.1,-1.616l-12.309,11.033l-21.4,-15.217l-0.016,-21.066l-14.275,-17.167l7.45,-7.783l-7.467,-13.284l-26.242,9.1l-27.558,-9.7l0.642,-11.666l-0.034,0.016Z"/></svg>