<?xml version="1.0" standalone="no"?>
<!DOCTYPE svg PUBLIC "-//W3C//DTD SVG 20010904//EN"
 "http://www.w3.org/TR/2001/REC-SVG-20010904/DTD/svg10.dtd">
<svg version="1.0" xmlns="http://www.w3.org/2000/svg" xmlns:xlink="http://www.w3.org/1999/xlink" xml:space="preserve" xmlnsSerif="http://www.serif.com/"
 width="256.000000pt" height="256.000000pt" viewBox="0 0 256.000000 256.000000"
 preserveAspectRatio="xMidYMid meet">
<metadata>
Created by potrace 1.10, written by Peter Selinger 2001-2011
</metadata>
<g transform="translate(0.000000,256.000000) scale(0.100000,-0.100000)">
<path d="M1175 2554 c-310 -32 -582 -159 -796 -373 -185 -186 -305 -411 -355
-669 -23 -117 -23 -347 0 -464 100 -519 503 -922 1022 -1024 119 -23 348 -23
466 0 259 50 477 165 663 351 196 196 307 403 361 676 23 115 23 344 0 463
-51 261 -171 484 -360 671 -186 184 -408 302 -654 349 -83 16 -278 27 -347 20z
m205 -503 l0 -99 43 -7 c100 -17 267 -107 267 -144 0 -23 -81 -172 -96 -178
-7 -2 -35 11 -63 31 -143 98 -317 103 -401 12 -20 -22 -25 -38 -25 -81 0 -46
4 -58 30 -85 33 -35 105 -74 220 -120 206 -82 308 -158 346 -259 30 -81 24
-215 -13 -292 -49 -99 -172 -196 -274 -215 l-33 -6 -3 -97 -3 -96 -84 -3 c-61
-2 -87 1 -92 10 -5 7 -9 52 -9 100 l0 87 -54 11 c-112 23 -296 136 -296 181 0
20 90 148 114 161 7 4 35 -10 67 -34 96 -73 150 -92 259 -93 85 0 99 3 132 25
48 33 68 68 68 123 0 81 -37 109 -270 209 -268 115 -360 224 -348 413 9 131
85 239 213 300 39 19 82 35 94 35 20 0 21 5 21 89 0 49 3 96 6 105 5 13 23 16
95 16 l89 0 0 -99z"/>
</g>
</svg>
