<?xml version="1.0" standalone="no"?>
<!DOCTYPE svg PUBLIC "-//W3C//DTD SVG 20010904//EN"
 "http://www.w3.org/TR/2001/REC-SVG-20010904/DTD/svg10.dtd">
<svg version="1.0" xmlns="http://www.w3.org/2000/svg" xmlns:xlink="http://www.w3.org/1999/xlink" xml:space="preserve" xmlnsSerif="http://www.serif.com/"
 width="256.000000pt" height="256.000000pt" viewBox="0 0 256.000000 256.000000"
 preserveAspectRatio="xMidYMid meet">
<metadata>
Created by potrace 1.10, written by Peter Selinger 2001-2011
</metadata>
<g transform="translate(0.000000,256.000000) scale(0.100000,-0.100000)">
<path d="M969 2450 c-134 -16 -166 -58 -176 -235 l-6 -105 96 0 97 0 0 58 c0
129 28 142 300 142 272 0 300 -13 300 -142 l0 -58 97 0 96 0 -6 106 c-8 126
-30 184 -77 209 -17 9 -68 20 -113 25 -96 11 -512 11 -608 0z"/>
<path d="M133 2018 c-56 -12 -109 -71 -118 -130 -4 -24 -5 -156 -3 -293 3
-230 5 -254 26 -306 44 -110 139 -183 277 -211 86 -19 1844 -19 1930 0 138 28
233 101 277 211 21 52 23 76 26 306 2 137 1 269 -3 293 -9 64 -61 117 -126
131 -64 14 -2225 13 -2286 -1z"/>
<path d="M122 623 c3 -377 4 -400 23 -432 28 -47 61 -69 124 -81 73 -14 1949
-14 2022 0 63 12 96 34 124 81 19 32 20 55 23 432 2 284 0 397 -8 397 -6 0
-23 -6 -38 -14 -82 -42 -157 -50 -507 -56 l-340 -5 -5 -178 c-7 -235 15 -217
-260 -217 -275 0 -253 -18 -260 217 l-5 178 -340 6 c-344 7 -388 11 -486 48
-30 12 -58 21 -62 21 -4 0 -7 -179 -5 -397z"/>
<path d="M1134 937 c-2 -7 -3 -76 -2 -152 l3 -140 145 0 145 0 0 150 0 150
-143 3 c-111 2 -144 0 -148 -11z"/>
</g>
</svg>
