<?xml version="1.0" encoding="UTF-8" standalone="no"?><!DOCTYPE svg PUBLIC "-//W3C//DTD SVG 1.1//EN" "http://www.w3.org/Graphics/SVG/1.1/DTD/svg11.dtd"><svg width="100%" height="100%" viewBox="0 0 1067 1067" version="1.1" xmlns="http://www.w3.org/2000/svg" xmlns:xlink="http://www.w3.org/1999/xlink" xml:space="preserve" xmlnsSerif="http://www.serif.com/" style="fill-rule:evenodd;clip-rule:evenodd;stroke-linejoin:round;stroke-miterlimit:2;"><g><path d="M476.84,2.787c-30.966,6.51 -52.696,18.446 -77.685,43.401l-21.187,21.159l-22.816,-7.596c-27.163,-9.765 -68.993,-10.307 -97.242,-2.17c-33.138,9.766 -71.166,42.317 -88.007,74.868l-15.211,28.753l0,224.059l-22.816,27.126c-41.831,50.454 -95.069,124.779 -109.194,152.447c-30.422,60.22 -30.422,129.119 1.087,194.221c17.384,36.349 148.851,190.423 194.484,227.857c35.311,28.211 104.847,61.304 151.023,71.07c55.955,11.935 355.829,11.393 414.5,-0.543c103.217,-20.615 198.829,-93.855 243.919,-186.625c38.571,-78.665 40.201,-94.941 38.571,-396.037l-1.63,-263.121l-14.668,-27.668c-16.297,-30.381 -36.941,-50.454 -71.709,-68.357c-27.705,-14.648 -95.068,-16.818 -119.515,-3.798c-15.211,8.68 -15.754,8.138 -38.027,-13.563c-11.952,-12.478 -32.052,-27.126 -44.003,-33.093c-29.879,-14.106 -82.574,-16.818 -114.083,-6.511l-24.989,8.681l-21.73,-21.701c-36.398,-36.349 -89.093,-52.624 -139.072,-42.859Zm64.646,113.386l17.928,15.733l-0,64.56c-0,54.251 -1.087,63.474 -8.149,61.846c-4.346,-1.085 -28.792,-3.255 -53.782,-4.882l-45.09,-2.713l2.173,-59.134c1.63,-59.134 2.173,-59.677 19.557,-75.41c22.817,-20.616 44.547,-20.616 67.363,0Zm-213.497,40.689c19.557,10.308 27.706,29.838 27.706,65.644l-0,29.839l-34.768,-0c-29.879,-0 -37.484,2.17 -51.609,14.105l-16.841,14.106l0,-45.572c0.544,-48.826 6.519,-66.729 27.706,-78.122c16.841,-9.223 29.336,-9.223 47.806,-0Zm407.438,-0c24.446,13.02 27.705,28.211 27.705,125.864l0,90.057l-15.754,15.733c-11.951,11.393 -21.187,15.733 -35.854,15.733c-14.668,0 -23.903,-4.34 -35.855,-15.733l-15.754,-15.733l-0,-91.685c0.543,-97.653 3.259,-110.673 27.706,-124.236c16.84,-9.223 29.335,-9.223 47.806,-0Zm210.781,54.794c16.297,11.393 23.359,40.146 23.359,92.228c0,74.867 -13.581,100.365 -54.325,100.365c-40.743,0 -54.325,-25.498 -54.325,-100.365c0,-74.867 13.582,-100.366 54.325,-100.366c10.865,0 24.447,3.798 30.966,8.138Zm-403.635,157.33c19.014,17.36 19.557,49.911 1.086,71.612l-13.038,15.19l-92.352,2.713l-91.809,2.713l-63.561,80.292c-34.768,43.944 -63.017,81.92 -63.017,84.09c0,5.425 68.45,60.762 74.426,60.762c2.173,-0.543 23.903,-26.041 47.806,-56.964c26.076,-34.179 46.176,-55.879 50.522,-54.252c19.014,7.053 68.449,44.486 90.723,68.9c42.373,47.199 73.338,125.864 73.338,187.168c0,15.19 2.173,29.838 5.433,31.466c2.716,1.627 26.619,1.627 52.152,-0.543l46.719,-3.797l-3.259,-40.147c-8.149,-88.43 -42.917,-176.317 -92.896,-233.282c-26.619,-30.381 -28.792,-34.178 -16.297,-34.178c14.667,-0 42.373,-16.818 65.733,-39.061l22.273,-21.701l28.792,8.68c16.298,4.883 36.941,8.681 46.177,8.681c24.446,-0 69.536,-14.106 85.833,-27.126l14.125,-11.393l31.508,17.903c29.336,16.818 34.768,17.903 79.858,17.36l47.806,-0.542l-2.173,125.321c-2.173,110.674 -4.346,129.119 -14.668,159.5c-28.249,81.378 -82.574,136.172 -164.061,164.383c-31.509,10.85 -47.263,12.477 -176.013,14.648c-211.868,3.255 -271.625,-7.053 -331.383,-59.135c-37.484,-33.093 -161.345,-175.233 -171.667,-197.476c-13.581,-29.838 -13.038,-64.559 2.716,-97.653c17.384,-37.976 98.872,-141.597 160.259,-205.071l51.066,-52.624l101.587,-0c100.502,-0 101.588,-0 116.256,13.563Z" style="fill-rule:nonzero;"/></g></svg>