<?xml version="1.0" standalone="no"?>
<!DOCTYPE svg PUBLIC "-//W3C//DTD SVG 20010904//EN"
 "http://www.w3.org/TR/2001/REC-SVG-20010904/DTD/svg10.dtd">
<svg version="1.0" xmlns="http://www.w3.org/2000/svg" xmlns:xlink="http://www.w3.org/1999/xlink" xml:space="preserve" xmlnsSerif="http://www.serif.com/"
 width="256.000000pt" height="256.000000pt" viewBox="0 0 256.000000 256.000000"
 preserveAspectRatio="xMidYMid meet">
<metadata>
Created by potrace 1.10, written by Peter Selinger 2001-2011
</metadata>
<g transform="translate(0.000000,256.000000) scale(0.100000,-0.100000)">
<path d="M12 2278 c-18 -18 -17 -1691 1 -1706 15 -13 833 -302 854 -302 8 0
194 63 412 140 219 77 405 140 414 140 9 0 195 -63 413 -140 219 -77 405 -140
414 -140 40 0 40 -9 40 866 0 666 -3 844 -13 852 -15 13 -833 302 -854 302 -8
0 -194 -63 -412 -140 -219 -77 -405 -140 -414 -140 -9 0 -195 63 -413 140
-219 77 -405 140 -414 140 -9 0 -21 -5 -28 -12z m420 -209 c189 -67 355 -126
371 -131 l27 -10 0 -779 c0 -428 -3 -779 -6 -779 -5 0 -684 239 -727 255 -16
7 -17 54 -17 786 0 428 2 779 4 779 3 0 159 -54 348 -121z m1216 -660 l-3
-781 -365 -129 c-200 -71 -366 -129 -367 -129 -2 0 -2 352 -1 781 l3 782 360
128 c198 70 363 128 368 128 4 1 6 -351 5 -780z m445 657 c194 -68 360 -127
370 -131 16 -7 17 -54 17 -786 0 -428 -2 -779 -4 -779 -4 0 -596 208 -718 252
l-28 10 0 779 c0 428 3 779 6 779 3 0 164 -56 357 -124z"/>
</g>
</svg>
