<?xml version="1.0" standalone="no"?>
<!DOCTYPE svg PUBLIC "-//W3C//DTD SVG 20010904//EN"
 "http://www.w3.org/TR/2001/REC-SVG-20010904/DTD/svg10.dtd">
<svg version="1.0" xmlns="http://www.w3.org/2000/svg" xmlns:xlink="http://www.w3.org/1999/xlink" xml:space="preserve" xmlnsSerif="http://www.serif.com/"
 width="256.000000pt" height="256.000000pt" viewBox="0 0 256.000000 256.000000"
 preserveAspectRatio="xMidYMid meet">
<metadata>
Created by potrace 1.10, written by Peter Selinger 2001-2011
</metadata>
<g transform="translate(0.000000,256.000000) scale(0.100000,-0.100000)"
fill="#000000" stroke="none">
<path d="M1225 2545 c-283 -51 -704 -251 -949 -450 -55 -45 -126 -128 -126
-148 0 -17 231 1 366 28 140 28 259 66 394 124 162 70 382 205 474 290 48 46
106 121 106 139 0 14 -82 32 -142 31 -29 0 -84 -7 -123 -14z"/>
<path d="M1515 2407 c-82 -87 -287 -227 -457 -312 -264 -133 -578 -215 -823
-215 -105 0 -115 -8 -69 -51 43 -40 214 -264 315 -412 l94 -138 35 6 c134 26
234 25 385 -5 197 -38 497 -70 661 -70 231 0 377 33 489 110 85 59 133 217 91
299 -25 48 -90 97 -157 119 -70 24 -239 48 -264 39 -8 -4 -15 -18 -15 -34 0
-65 -91 -178 -181 -228 -63 -34 -83 -28 -33 9 64 48 125 109 144 146 37 73 36
78 -65 431 -53 184 -99 337 -103 341 -4 4 -25 -12 -47 -35z"/>
<path d="M609 1247 c-89 -33 -155 -95 -195 -182 -82 -179 4 -311 229 -349 l72
-12 9 -48 c8 -44 10 -47 32 -42 32 8 74 -3 74 -19 0 -7 -17 -22 -37 -32 -36
-17 -38 -20 -37 -65 1 -70 33 -102 94 -95 25 2 51 3 58 0 22 -8 13 -33 -19
-52 l-31 -19 67 -71 c111 -117 217 -183 364 -228 113 -34 318 -39 421 -9 152
44 270 114 380 225 l74 76 -64 5 c-42 3 -78 13 -102 27 -34 20 -40 21 -65 8
-16 -8 -36 -15 -45 -15 -10 0 -18 -7 -18 -15 0 -30 -39 -91 -82 -132 -82 -75
-237 -112 -388 -94 -141 18 -197 40 -184 74 3 9 10 17 14 17 5 0 65 71 134
157 69 87 146 173 171 192 88 66 168 75 238 27 34 -23 34 -23 70 -4 20 10 44
30 53 43 23 35 4 80 -42 97 -41 14 -35 28 12 28 26 0 44 -8 66 -31 30 -30 31
-30 70 -15 46 19 122 20 218 4 61 -10 73 -10 81 2 15 22 4 233 -15 305 -21 76
-91 224 -110 231 -8 3 -36 -6 -62 -19 -43 -22 -46 -25 -26 -31 34 -11 26 -26
-10 -18 -47 10 -73 8 -163 -12 -218 -48 -698 -19 -1030 62 -155 38 -229 46
-276 29z m688 -162 c2 -6 -15 -24 -36 -40 -26 -20 -55 -57 -82 -107 -23 -43
-46 -78 -51 -78 -16 0 -8 84 13 126 28 59 93 116 126 112 15 -2 28 -8 30 -13z
m-547 -62 c-1 -5 -9 -33 -20 -63 -11 -30 -19 -75 -20 -100 0 -57 -16 -77 -42
-53 -20 18 -24 67 -7 110 19 50 90 135 89 106z m1303 -34 c15 -24 0 -68 -28
-81 -31 -14 -75 12 -75 44 0 51 77 78 103 37z m-1176 -71 c18 -17 39 -23 88
-26 70 -5 85 -20 40 -40 -33 -15 -80 -15 -108 -1 -36 19 -67 51 -67 71 0 24
19 23 47 -4z m46 -123 c48 -7 60 -18 31 -29 -44 -17 -144 13 -157 48 -9 24 3
26 41 6 21 -10 58 -22 85 -25z m534 9 c15 -24 15 -29 2 -53 -28 -51 -99 -35
-99 22 0 40 15 57 52 57 19 0 33 -8 45 -26z"/>
<path d="M2005 636 c-26 -8 -44 -21 -53 -38 -20 -42 -69 -78 -107 -78 -19 0
-36 4 -40 9 -8 13 -127 25 -171 17 -52 -10 -112 -71 -225 -229 -83 -116 -96
-139 -81 -145 9 -3 71 -6 137 -6 101 0 129 4 180 23 87 34 137 89 160 177 30
114 48 130 69 66 11 -31 12 -32 34 -17 21 15 21 18 7 46 -16 29 -13 49 6 49 5
0 26 -18 46 -41 70 -78 160 -90 270 -38 60 28 183 135 183 158 0 4 -26 11 -57
14 -32 4 -94 15 -137 27 -88 22 -161 25 -221 6z"/>
</g>
</svg>
