<?xml version="1.0" encoding="UTF-8" standalone="no"?><!DOCTYPE svg PUBLIC "-//W3C//DTD SVG 1.1//EN" "http://www.w3.org/Graphics/SVG/1.1/DTD/svg11.dtd"><svg fill="#a2a2a2" stroke="#fff" fill-rule="nonzero" stroke-width="20.83px" width="100%" height="100%" viewBox="0 0 1346 1038" version="1.1" xmlns="http://www.w3.org/2000/svg" xmlns:xlink="http://www.w3.org/1999/xlink" xml:space="preserve" xmlnsSerif="http://www.serif.com/" style="fill-rule:evenodd;clip-rule:evenodd;stroke-linejoin:round;"><path id="fl1821" d="M1176.13,384.533l-10.375,-2.908l-8.741,10.058l4.241,29.492l10.034,-12.325l4.841,-24.308l0,-0.009Zm-999.666,-209.166l-41.475,9.433l-2.592,4.542l44.067,-13.975Zm796.166,-156.584l-32.733,-0.616l-34.683,-7.75l-9.4,0.658l-9.059,15.892l0.334,15.233l8.758,11.008l-0.942,38.567l-17.825,4.875l-7.783,-7.45l-9.1,-26.242l-122.175,8.534l-88.15,6.883l-99.817,6.242l-104.358,3.658l-9.083,-5.175l-8.125,-22.683l-10.709,-18.142l-147.125,15.358l-100.166,12.075l-155.234,13.75l-4.841,24.309l22.058,24.608l16.867,12.625l-4.525,18.475l5.2,11.983l10.375,2.909l-8.084,19.45l14.917,5.5l23.958,-31.459l-1.316,-18.8l15.566,14.892l6.15,-5.517l14.592,11.334l-15.867,12.008l56.709,-9.775l28.833,-13.633l13.942,1.933l16.833,-8.442l24.308,4.842l-13.283,7.467l-20.408,9.416l48.625,9.684l34.366,13.583l20.425,11.65l-7.15,-19.117l10.692,-2.925l8.125,22.684l54.158,36.9l9.734,14.575l3.583,20.091l26.242,-9.1l38.883,-4.891l23,-13.959l10.033,-12.325l22.025,-17.516l25.609,2.566l-0.659,-9.4l-17.5,-0.958l10.034,-12.325l17.166,-14.275l18.8,-1.317l19.117,-7.15l29.508,16.834l9.4,-0.659l20.425,11.65l15.567,14.892l12.983,19.433l20.75,5.817l3.267,25.925l33.075,15.85l10.708,18.142l12.642,4.2l12.008,15.866l29.492,-4.241l12.325,10.033l5.85,21.383l13.3,13.6l8.1,1.617l4.242,29.492l2.966,52.825l-13.241,49.6l6.175,15.55l-6.434,53.483l8.1,1.617l22.375,18.775l7.125,-1.95l4.842,-24.309l-4.217,-8.416l-19.45,-8.084l3.225,-16.208l14.917,5.5l20.425,11.65l8.417,-4.217l9.416,20.409l-20.391,30.483l-2.25,19.775l-13.284,7.467l3.9,14.258l13.617,7.767l3.583,20.091l40.234,56.034l12.008,15.866l20.75,5.817l6.133,-26.583l14.592,11.333l1.65,34.025l11.367,27.542l20.425,11.65l12.958,-1.634l3.583,20.092l4.217,8.417l9.75,35.641l25.942,17.8l-2.909,10.375l22.359,-2.291l28.85,7.425l14.591,11.333l25.642,44.7l13.958,23l11.35,6.475l19.775,2.25l10.059,8.742l-2.909,10.375l-23.016,-7.109l-12.325,-10.033l-2.25,19.775l17.841,16.192l28.517,-7.8l8.742,-10.059l24.308,4.842l18.775,-22.375l26.9,0.3l1.933,-13.942l12.625,-16.866l-8.125,-22.684l1.275,-23.333l7.109,-23.017l6.15,-5.516l-1.317,-18.8l7.45,-7.784l-1.65,-34.025l-1.333,-39.866l-4.259,-50.559l2.592,-4.541l-9.433,-41.475l-10.075,-29.809l-17.2,-27.858l-5.834,-0.317l-37.65,-60.575l-11.366,-27.541l-78.859,-120.175l-16.566,-39.525l-6.492,-9.717l-8.125,-22.683l19.45,8.083l0.017,21.067l25.925,-3.267l7.15,19.117l-1.275,23.333l2.941,31.758l7.125,-1.95l-7.483,-34.35l6.475,-11.35l-7.15,-19.116l-72.667,-83.584l-56.141,-86.158l-15.592,-35.958l-37.35,-87.475l-2.608,-16.525l-11.684,-21.709l-2.941,-31.758l-10.375,-2.908l0.091,0.066Z"/></svg>