<?xml version="1.0" encoding="UTF-8" standalone="no"?><!DOCTYPE svg PUBLIC "-//W3C//DTD SVG 1.1//EN" "http://www.w3.org/Graphics/SVG/1.1/DTD/svg11.dtd"><svg fill="#a2a2a2" stroke="#fff" fill-rule="nonzero" stroke-width="20.83px" width="100%" height="100%" viewBox="0 0 1077 563" version="1.1" xmlns="http://www.w3.org/2000/svg" xmlns:xlink="http://www.w3.org/1999/xlink" xml:space="preserve" xmlnsSerif="http://www.serif.com/" style="fill-rule:evenodd;clip-rule:evenodd;stroke-linejoin:round;"><path id="ky1792" d="M953.792,100.25l-20.109,-17.483l-17.183,-6.792l-13.633,-28.833l-20.409,9.416l-10.358,18.159l-24.95,6.825l-10.058,-8.742l-24.309,-4.842l-14.891,15.567l-8.1,-1.617l-23.675,-16.508l-16.209,-3.225l-16.525,2.608l-16.208,-3.225l-21.425,-36.283l-20.425,-11.65l-24.95,6.825l-12.325,-10.033l-14.575,9.733l-5.175,9.083l6.492,9.717l-5.5,14.917l13.941,1.933l-2.25,19.775l-24.95,6.825l-24.291,16.225l-11.35,-6.475l-25.925,3.267l-0.317,5.833l8.125,22.683l-15.217,21.4l-11.008,8.759l-3.55,22.041l-14.575,9.734l-6.808,-3.884l-9.059,15.892l-0.3,26.9l-5.175,9.075l-11.983,5.2l-22.042,-3.55l-13.616,-7.767l-1.634,-12.958l-19.116,7.15l-13.917,19.133l2.608,16.525l-30.783,6.509l-12.008,-15.867l-30.45,21.742l-4.525,18.475l-50.25,-22.642l-16.834,8.442l-6.475,11.35l-11.35,-6.475l-17.825,4.875l-13.616,-7.767l-0.959,17.5l-5.175,9.075l-13.941,-1.933l-1.617,8.1l-12.942,22.7l12.984,19.433l-5.175,9.083l-24.95,6.825l-22.684,8.125l-5.5,14.917l1.634,12.958l12.008,15.867l-6.792,17.183l-22.041,-3.55l-41.175,-17.466l-20.092,3.583l-15.533,27.242l8.441,16.833l-3.55,22.042l3.584,20.091l-8.417,25.284l-6.15,5.516l-15.892,-9.058l-8.416,25.283l125.75,-9.508l76.483,-7.517l-5.217,-33.05l26.9,0.3l6.809,3.884l108.241,-10.467l89.442,-9.15l58.667,-2.642l93.983,-6.566l42.45,-5.867l72.917,-6.542l129.308,-10.483l9.717,-6.492l20.725,-15.25l12.958,-1.633l23,-13.958l15.55,-6.175l5.5,-14.917l26.567,-14.933l1.933,-13.942l17.167,-14.275l1.933,-13.942l8.742,-10.058l36.6,-27.258l49.858,-55.792l-23.333,-1.275l-12.325,-10.033l-15.892,-9.059l-6.492,-9.716l-12.325,-10.034l-5.2,-11.983l-10.058,-8.742l-24.983,-35.308l4.525,-18.475l-6.509,-30.783l-0.016,0.033Z"/></svg>