<?xml version="1.0" encoding="UTF-8" standalone="no"?><!DOCTYPE svg PUBLIC "-//W3C//DTD SVG 1.1//EN" "http://www.w3.org/Graphics/SVG/1.1/DTD/svg11.dtd"><svg fill="#a2a2a2" stroke="#fff" fill-rule="nonzero" stroke-width="20.83px" width="100%" height="100%" viewBox="0 0 1876 1225" version="1.1" xmlns="http://www.w3.org/2000/svg" xmlns:xlink="http://www.w3.org/1999/xlink" xml:space="preserve" xmlnsSerif="http://www.serif.com/" style="fill-rule:evenodd;clip-rule:evenodd;stroke-linejoin:round;"><path id="ut1861" d="M459.183,1024.67c0,-0 -9.254,-3.599 -154.996,-38.101l-19.537,-29.249l-77.567,-122.442l-74.641,-111.75l-50.95,-74.175l-71.075,-112.725l28.1,-107.3l37.483,-129.025l17.45,-62.242l35.217,-130.316l25.166,-96.925l72.617,20.358l99.2,26.492l96.925,25.166l121.242,30.034l42.966,11.841l72.934,14.525l6.475,1.167l0.083,0.008l159.341,35.401l640.934,119.283l147.762,26.226c0,0 -10.168,14.805 -12.002,23.999c21.014,-4.454 36.986,2.487 47.917,20.833c2.051,4.371 1.357,8.538 -2.083,12.5c15.907,7.258 31.184,15.592 45.833,25c16.829,-13.15 29.329,-9.675 37.5,10.417c24.912,4.704 49.912,8.871 75,12.5c8.445,5.816 9.834,12.758 4.167,20.833c6.627,4.358 12.877,9.221 18.75,14.583c11.861,23.721 23.666,47.334 35.416,70.834l-290.91,-37.084l-16.75,113.775l-15.458,111.5l-22.567,134.5l-15.458,111.5l-23.85,157.859l-11.917,89.458l-113.775,-16.75l-88.167,-14.183l-112.475,-19.025l-111.183,-21.292l-66.125,-10.642l-131.933,-27.108l-213.983,-44.926l-170.992,-35.324l-0.084,-0.008Z"/></svg>