<?xml version="1.0" encoding="UTF-8" standalone="no"?><!DOCTYPE svg PUBLIC "-//W3C//DTD SVG 1.1//EN" "http://www.w3.org/Graphics/SVG/1.1/DTD/svg11.dtd"><svg fill="#a2a2a2" stroke="#fff" fill-rule="nonzero" stroke-width="20.83px" width="100%" height="100%" viewBox="0 0 2006 1266" version="1.1" xmlns="http://www.w3.org/2000/svg" xmlns:xlink="http://www.w3.org/1999/xlink" xml:space="preserve" xmlnsSerif="http://www.serif.com/" style="fill-rule:evenodd;clip-rule:evenodd;stroke-linejoin:round;"><path id="ut1850" d="M459.267,1024.67l170.992,35.324l213.983,44.926l131.933,27.108l66.125,10.642l111.183,21.292l112.475,19.025l88.167,14.183l113.775,16.75l-0.092,-0.033l80.067,12.566l137.108,18.034l81.359,10.3l16.999,0.707c15.284,-9.721 17.367,-20.138 6.25,-31.25c-3.035,-11.375 -2.341,-22.488 2.083,-33.333c-8.849,-3.992 -17.183,-8.855 -25,-14.584c-3.486,-4.212 -4.875,-9.075 -4.166,-14.583c-8.602,-0.779 -16.935,-2.863 -25,-6.25c-11.494,-7.271 -22.605,-14.913 -33.334,-22.917c-15.596,7.304 -26.708,3.138 -33.333,-12.5l-0,-20.833c17.278,-6.396 33.945,-14.033 50,-22.917c23.673,-1.954 47.284,-1.258 70.833,2.084c-0.912,-4.896 0.476,-9.063 4.167,-12.5c11.805,-6.996 22.916,-14.638 33.333,-22.917c5.181,-4.808 9.347,-10.367 12.5,-16.667c9.722,-1.387 19.445,-2.779 29.167,-4.166c2.174,-2.338 3.563,-5.117 4.167,-8.334c-5.572,-16.875 -11.128,-33.541 -16.667,-50c4.702,-11.052 8.869,-22.163 12.5,-33.333c-13.94,-6.264 -22.273,-16.681 -25,-31.25c5.177,-18.392 11.427,-36.448 18.75,-54.167c7.209,-5.165 14.847,-9.331 22.917,-12.5c27.845,9.919 51.455,4.363 70.833,-16.666c9.667,-9.687 7.584,-18.021 -6.25,-25c-2.778,-4.167 -2.778,-8.334 -0,-12.5c10.039,-8.746 21.15,-15.69 33.333,-20.834c0.371,-14.701 3.149,-28.591 8.334,-41.666c4.593,-24.062 0.426,-46.285 -12.5,-66.667c-7.608,6.557 -16.636,10.03 -27.084,10.417c-15.159,1.041 -29.743,1.735 -43.75,2.083c-12.647,-9.316 -26.536,-16.26 -41.666,-20.833c-3.767,-15.045 -8.628,-29.629 -14.584,-43.75c5.556,-12.5 11.111,-25 16.667,-37.5c-3.354,-4.637 -6.132,-9.498 -8.333,-14.584l2.302,-12.665c-11.75,-23.5 -23.555,-47.113 -35.416,-70.834c-5.873,-5.362 -12.123,-10.225 -18.75,-14.583c5.667,-8.075 4.278,-15.017 -4.167,-20.833c-25.088,-3.629 -50.088,-7.796 -75,-12.5c-8.171,-20.092 -20.671,-23.567 -37.5,-10.417c-14.649,-9.408 -29.926,-17.742 -45.833,-25c3.44,-3.962 4.134,-8.129 2.083,-12.5c-10.931,-18.346 -26.903,-25.287 -47.917,-20.833c1.834,-9.194 12.002,-23.999 12.002,-23.999l-147.762,-26.226l-640.934,-119.283l-159.341,-35.401l-0.083,-0.008l-6.475,-1.167l-72.934,-14.525l-42.966,-11.841l-121.242,-30.034l-96.925,-25.166l-99.2,-26.492l-72.617,-20.358l-25.166,96.925l-35.217,130.316l-17.45,62.242l-37.483,129.025l-28.1,107.3l71.075,112.725l50.95,74.175l74.641,111.75l77.567,122.442l19.537,29.249c145.742,34.502 154.996,38.101 154.996,38.101l0.084,0.008Z"/></svg>