<?xml version="1.0" encoding="UTF-8" standalone="no"?><!DOCTYPE svg PUBLIC "-//W3C//DTD SVG 1.1//EN" "http://www.w3.org/Graphics/SVG/1.1/DTD/svg11.dtd"><svg fill="#a2a2a2" stroke="#fff" fill-rule="nonzero" stroke-width="20.83px" width="100%" height="100%" viewBox="0 0 994 1066" version="1.1" xmlns="http://www.w3.org/2000/svg" xmlns:xlink="http://www.w3.org/1999/xlink" xml:space="preserve" xmlnsSerif="http://www.serif.com/" style="fill-rule:evenodd;clip-rule:evenodd;stroke-linejoin:round;"><path id="ut1862" d="M742.667,115.075l-175,-30.633l-121.559,-24.2l-241.183,-49.825l-17.425,83.308l-39.025,166.617l-21.292,111.183l-32.891,140.033l-39.025,162.45l-27.425,137.767l-17.425,83.308l243.308,51.084l131.933,27.108l66.125,10.642l111.184,21.291l112.475,19.025l88.166,14.184l113.775,16.75l11.917,-89.459l23.85,-157.858l15.458,-111.5l22.567,-134.5l15.458,-111.5l16.75,-113.775l-85.9,-12.892l-46.408,-7.544l-0.533,-1.606l25.491,-178.6l-133.366,-20.858Z"/></svg>