<?xml version="1.0" encoding="UTF-8" standalone="no"?><!DOCTYPE svg PUBLIC "-//W3C//DTD SVG 1.1//EN" "http://www.w3.org/Graphics/SVG/1.1/DTD/svg11.dtd"><svg fill="#a2a2a2" stroke="#fff" fill-rule="nonzero" stroke-width="20.83px" width="100%" height="100%" viewBox="0 0 1272 674" version="1.1" xmlns="http://www.w3.org/2000/svg" xmlns:xlink="http://www.w3.org/1999/xlink" xml:space="preserve" xmlnsSerif="http://www.serif.com/" style="fill-rule:evenodd;clip-rule:evenodd;stroke-linejoin:round;"><path id="ok1890" d="M734.567,599.683l-1.934,13.942l11.35,6.475l11.984,-5.2l18.458,-16.542l13.942,1.934l3.9,14.258l13.941,1.933l2.925,10.692l11.667,0.642l25.25,-12.659l5.517,6.15l-5.5,14.917l6.491,9.717l9.4,-0.659l4.2,-12.641l23.634,-25.625l9.733,14.575l24.308,4.841l6.475,-11.35l11.034,12.309l12.325,10.033l11.666,0.642l12.009,15.866l6.475,-11.35l15.233,-0.333l6.475,-11.35l16.525,-2.608l16.833,-8.442l11.35,6.475l12.959,-1.633l26.566,-14.934l8.759,11.009l27.875,3.866l13.283,-7.466l6.475,-11.35l27.242,15.533l10.375,2.908l16.541,18.459l18.475,4.525l33.075,15.85l5.834,0.316l0.9,-80.7l2.783,-157.841l-0.392,-78.434l-11.083,-75.5l-17.608,-127.358l-0.009,-0.017l0.242,-90.1l-103.058,1.384l-86.861,0.356l-3.736,3.491c-0.324,50.432 -0.658,100.864 -0.982,151.296c-0.776,3.029 -2.574,5.157 -5.403,6.386c-29.385,0.168 -58.689,0.659 -87.929,1.474c-0.327,45.847 -0.655,91.694 -0.982,137.541c-2.997,3.566 -6.762,4.713 -11.298,3.439c-2.073,-3.258 -4.858,-4.404 -8.351,-3.439c-0.327,28.164 -0.655,56.326 -0.983,84.49c-0.994,3.302 -2.467,6.413 -4.421,9.333c-0.982,0.655 -1.964,0.655 -2.947,0c-3.908,-1.677 -7.511,-3.806 -10.807,-6.386c-4.443,0.974 -8.209,-0.336 -11.298,-3.93c-3.326,2.31 -6.765,4.439 -10.315,6.386c-2.456,0.164 -4.913,0.327 -7.369,0.492c-8.293,-1.538 -16.644,-3.012 -25.052,-4.421c-1.195,-1.71 -2.831,-2.692 -4.912,-2.948c-4.912,-0.327 -9.824,-0.655 -14.737,-0.982c-1.521,-1.193 -2.667,-2.667 -3.438,-4.421c-2.249,-5.592 -3.559,-11.487 -3.93,-17.684c-3.348,-3.156 -4.986,-7.085 -4.912,-11.789c-7.246,-6.594 -14.778,-12.815 -22.596,-18.667c-0.43,-5.045 -2.23,-9.466 -5.404,-13.263c-3.516,-0.778 -6.79,-2.087 -9.824,-3.929c-4.912,-0.328 -9.824,-0.656 -14.737,-0.983c-0.982,-0.982 -1.965,-1.965 -2.947,-2.947c-8.259,-0.937 -16.446,-1.1 -24.561,-0.491c-0.804,59.58 -1.295,119.181 -1.474,178.804c-0.167,2.176 -0.822,4.141 -1.965,5.894c-0.655,17.029 -0.655,34.059 0,51.087l-0.729,0.652Zm-299.188,-237.674l5.677,0.763l-1.771,0.617l-9.468,116.653l17.5,0.958l28.55,34.333l20.091,-3.583l23.017,7.108l1.933,-13.941l18.159,10.358l2.999,4.492c0,-0 1.981,-1.98 3.109,-3.79l-1.934,5.549l5.559,8.324l-0.958,17.5l26.583,6.133l9.4,-0.658l11.35,6.475l23.017,7.108l22.358,-2.291l12.008,15.866l12.959,-1.633l10.033,-12.325l20.75,5.817l16.525,-2.609l0.017,21.067l18.135,7.833l4.319,0.898c-0.655,-17.028 -0.655,-34.058 0,-51.087c1.143,-1.753 1.798,-3.718 1.965,-5.894c0.179,-59.623 0.67,-119.224 1.474,-178.804c8.115,-0.609 16.302,-0.446 24.561,0.491c0.982,0.982 1.965,1.965 2.947,2.947c4.913,0.327 9.825,0.655 14.737,0.983c3.034,1.842 6.308,3.151 9.824,3.929c3.174,3.797 4.974,8.218 5.404,13.263c7.818,5.852 15.35,12.073 22.596,18.667c-0.074,4.704 1.564,8.633 4.912,11.789c0.371,6.197 1.681,12.092 3.93,17.684c0.771,1.754 1.917,3.228 3.438,4.421c4.913,0.327 9.825,0.655 14.737,0.982c2.081,0.256 3.717,1.238 4.912,2.948c8.408,1.409 16.759,2.883 25.052,4.421c2.456,-0.165 4.913,-0.328 7.369,-0.492c3.55,-1.947 6.989,-4.076 10.315,-6.386c3.089,3.594 6.855,4.904 11.298,3.93c3.296,2.58 6.899,4.709 10.807,6.386c0.983,0.655 1.965,0.655 2.947,0c1.954,-2.92 3.427,-6.031 4.421,-9.333c0.328,-28.164 0.656,-56.326 0.983,-84.49c3.493,-0.965 6.278,0.181 8.351,3.439c4.536,1.274 8.301,0.127 11.298,-3.439c0.327,-45.847 0.655,-91.694 0.982,-137.541c29.24,-0.815 58.544,-1.306 87.929,-1.474c2.829,-1.229 4.627,-3.357 5.403,-6.386c0.324,-50.432 0.658,-96.697 0.982,-147.129c0,-0 -4.166,-4.167 -8.903,-7.606l-124.824,-1.586l0.031,5.904c-1.055,3.368 -1.795,2.654 -2.22,6.192c-1.922,0.873 -3.155,2.352 -3.699,4.439c2.712,5.919 5.426,11.838 8.138,17.757c4.364,2.085 7.571,5.292 9.619,9.618c-1.3,2.664 -2.287,5.377 -2.96,8.139c-5.33,0.636 -9.276,3.349 -11.838,8.139c-17.264,0.986 -17.86,0.986 -35.124,-0c-1.356,-0.554 -2.59,-1.294 -3.7,-2.22c-0.322,-4.33 -1.062,-8.523 -2.219,-12.578c-6.412,-0.987 -29.492,-0.987 -35.904,0c-1.431,6.513 -1.924,13.172 -1.48,19.977c8.934,-0.488 17.812,0.006 26.636,1.479c1.098,1.165 2.33,2.151 3.699,2.96c0.74,15.776 0.987,31.56 0.74,47.352c14.806,-0.246 29.604,-0 44.393,0.74c2.728,4.149 3.715,8.834 2.959,14.057c4.556,-0.355 8.996,0.138 13.318,1.48c0.493,3.452 0.987,6.906 1.48,10.358c-0.11,4.125 -1.095,7.824 -2.96,11.099c-155.353,-2.765 -310.727,-4.984 -466.121,-6.659l-4.098,0.378l-6.7,122.517l-1.754,37.217Zm110.931,149.741c0.116,-0.604 0.237,-1.208 0.361,-1.811l-0.197,0.97l-0.164,0.841Zm5.308,-19.966c-1.035,3.034 -1.97,6.092 -2.805,9.173c0.922,-3.4 1.965,-6.772 3.129,-10.114l-0.324,0.941Zm3.19,-8.54c-0.015,0.043 -0.029,0.087 -0.044,0.131c-0.377,0.926 -0.745,1.854 -1.104,2.785c0.359,-0.931 0.727,-1.859 1.104,-2.785c0.015,-0.044 0.029,-0.088 0.044,-0.131Zm1.886,-2.873l-0.099,0.092c-0.087,0.082 -0.172,0.166 -0.254,0.252c0.112,-0.118 0.23,-0.233 0.353,-0.344Zm3.686,-1.089c-0.212,0.038 -0.425,0.077 -0.636,0.117l0.636,-0.117c0.213,-0.038 0.426,-0.074 0.639,-0.11l-0.639,0.11Zm3.869,-0.552l-0.651,0.074l-0.619,0.078c0.421,-0.055 0.845,-0.106 1.27,-0.152Zm2.952,-4.359c0.002,0.15 0.005,0.3 0.009,0.45c-0.007,-0.241 -0.01,-0.483 -0.01,-0.726l0.001,0.276Zm0.13,-3.06c-0.035,0.374 -0.063,0.747 -0.084,1.119l-0.014,0.278c0.022,-0.464 0.055,-0.93 0.098,-1.397Zm2.51,-4.922l0.037,-0.135c-0.072,0.278 -0.176,0.559 -0.315,0.843c0.117,-0.238 0.209,-0.474 0.278,-0.708Zm0.149,-1.064c0.004,0.218 -0.014,0.439 -0.054,0.661l0.021,-0.133c0.025,-0.177 0.036,-0.353 0.033,-0.528Zm-0.249,-1.191l-0.038,-0.094l-0.058,-0.126c0.034,0.073 0.067,0.146 0.096,0.22Zm-0.424,-0.784c0.125,0.183 0.233,0.368 0.323,0.555c-0.09,-0.187 -0.198,-0.372 -0.323,-0.555Zm-0.573,-0.703c0.163,0.172 0.31,0.345 0.442,0.519c-0.131,-0.175 -0.279,-0.348 -0.442,-0.519Zm-1.268,-1.082c0.188,0.133 0.364,0.267 0.531,0.403l-0.148,-0.118c-0.122,-0.095 -0.25,-0.191 -0.383,-0.285Zm-1.116,-0.316l0.342,0.013l0.343,0.008c-0.229,-0.004 -0.458,-0.011 -0.685,-0.021Zm-3.613,-0.42c0.594,0.114 1.194,0.206 1.801,0.276c-0.607,-0.07 -1.207,-0.162 -1.801,-0.276Zm-1.576,-0.358l0.223,0.058l0.321,0.079c-0.182,-0.044 -0.363,-0.09 -0.544,-0.137Zm-1.366,-0.403c0.21,0.068 0.42,0.134 0.632,0.197c-0.212,-0.063 -0.422,-0.129 -0.632,-0.197Zm-2.774,-1.109l0.303,0.141c0.147,0.067 0.294,0.132 0.443,0.196c-0.251,-0.107 -0.499,-0.22 -0.746,-0.337Zm-1.775,-6.04l0.039,0.382c0.025,0.225 0.054,0.449 0.086,0.671c-0.051,-0.348 -0.093,-0.699 -0.125,-1.053Zm0.498,-2.566c-0.034,0.224 -0.071,0.448 -0.11,0.673l0.052,-0.306l0.058,-0.367Zm0.317,-5.893c0.023,0.537 0.032,1.073 0.026,1.609c0.004,-0.413 -0,-0.826 -0.013,-1.24l-0.013,-0.369Zm-9.174,-2.432c-0.16,0.03 -0.321,0.058 -0.483,0.085l0.255,-0.043l0.228,-0.042Zm8.904,-0.527c0.026,0.19 0.051,0.379 0.073,0.569l-0.024,-0.199l-0.049,-0.37Zm-8.835,0.514l0.208,-0.04l0.25,-0.052c-0.152,0.032 -0.305,0.063 -0.458,0.092Zm-4.505,-1.807c0.306,0.191 0.618,0.374 0.936,0.548c-0.318,-0.174 -0.63,-0.357 -0.936,-0.548Zm11.034,-0.847c-0.413,0.277 -0.836,0.535 -1.268,0.773c0.432,-0.238 0.855,-0.496 1.268,-0.773Zm-11.39,0.621l0.144,0.092l-0.144,-0.092l-0.206,-0.138l0.206,0.138Zm-1.55,-1.127c0.341,0.274 0.69,0.537 1.049,0.787c-0.359,-0.25 -0.709,-0.513 -1.049,-0.787Zm-1.283,-1.13l0.264,0.25l0.147,0.134c-0.139,-0.126 -0.276,-0.254 -0.411,-0.384Zm-2.296,-2.728c0.034,0.08 0.069,0.159 0.105,0.238c0.177,0.238 0.359,0.471 0.544,0.698c-0.185,-0.227 -0.367,-0.46 -0.544,-0.698c-0.036,-0.079 -0.071,-0.158 -0.105,-0.238Zm-1.051,-4.352c0.042,0.911 0.202,1.835 0.478,2.77l-0.057,-0.2c-0.26,-0.934 -0.403,-1.855 -0.429,-2.765l0.008,0.195Zm0.414,-3.454c-0.018,0.063 -0.036,0.126 -0.053,0.189l0.053,-0.189c0.018,-0.063 0.037,-0.125 0.057,-0.188l-0.057,0.188Zm1.099,-5.837l-0.194,-0.262c0.385,0.515 0.757,1.039 1.116,1.572c-0.298,-0.443 -0.605,-0.88 -0.922,-1.31Zm-1.196,-1.543l-0.207,-0.251c0.171,0.206 0.34,0.414 0.507,0.624l-0.095,-0.12c-0.068,-0.084 -0.137,-0.169 -0.205,-0.253Zm-1.719,-1.965l0.109,0.118l-0.109,-0.118l-0.161,-0.17l0.161,0.17Zm0.572,-7.845c-1.031,1.771 -2.171,3.469 -3.418,5.094c0.39,0.342 0.772,0.69 1.146,1.044c-0.374,-0.354 -0.756,-0.702 -1.146,-1.044c1.247,-1.625 2.387,-3.323 3.418,-5.094Zm1.315,-3.092l-0.184,-0.321c0.124,0.212 0.246,0.428 0.363,0.648c-0.144,0.288 -0.29,0.574 -0.44,0.859c0.15,-0.285 0.296,-0.571 0.44,-0.859c-0.059,-0.11 -0.118,-0.22 -0.179,-0.327Zm-1.863,-2.678c0.281,0.327 0.55,0.667 0.806,1.022c-0.257,-0.354 -0.526,-0.695 -0.806,-1.022Zm-2.264,-2.141c0.126,0.095 0.249,0.193 0.37,0.293l-0.096,-0.079l-0.274,-0.214Zm-3.032,-1.803l-0.332,-0.146c0.594,0.253 1.163,0.536 1.706,0.849c-0.441,-0.254 -0.899,-0.489 -1.374,-0.703Zm-3.044,-6.324c0.433,0.703 0.802,1.44 1.105,2.21l-0.117,-0.287c-0.239,-0.572 -0.516,-1.124 -0.829,-1.658l-0.159,-0.265Zm-6.244,-5.575c0.168,0.131 0.339,0.261 0.51,0.389l0.323,0.24c-0.28,-0.206 -0.558,-0.416 -0.833,-0.629Zm-5.077,-4.7c0.362,0.399 0.731,0.79 1.107,1.171c-0.376,-0.381 -0.745,-0.772 -1.107,-1.171Zm-3.376,-1.202c0.759,0.076 1.521,0.136 2.285,0.177c-0.972,-0.054 -1.939,-0.135 -2.903,-0.243l0.618,0.066Zm-2.264,-0.28l-0.201,-0.029l0.201,0.029Zm-2.038,-0.339c0.339,0.063 0.678,0.124 1.018,0.179c-0.544,-0.09 -1.087,-0.189 -1.628,-0.297l0.61,0.118Zm-3.964,-8.349c-0.179,0.365 -0.381,0.735 -0.607,1.109c0.226,-0.374 0.429,-0.744 0.607,-1.109Zm0.672,-1.716c-0.084,0.29 -0.185,0.583 -0.302,0.879c0.117,-0.296 0.218,-0.589 0.302,-0.879Zm-1.107,-6.314l0.112,0.155l-0.112,-0.155l-0.071,-0.092l0.071,0.092Zm-17.642,-0.484l0.595,-0.015c-0.396,0.011 -0.793,0.02 -1.191,0.025c0.199,-0.003 0.397,-0.006 0.596,-0.01Zm-3.709,-0.287l0.095,0.227l-0.095,-0.227l-0.094,-0.215l0.094,0.215Zm6.081,0.197l0.127,-0.007l-0.127,0.007Zm6.135,-0.606c-1.252,0.181 -2.513,0.327 -3.783,0.439c1.27,-0.112 2.53,-0.258 3.783,-0.439Zm-34.834,0.082l0.126,-0.041c-0.16,0.052 -0.32,0.102 -0.481,0.151l0.355,-0.11Zm-1.212,-0.263c0.121,0.044 0.24,0.09 0.356,0.139l-0.133,-0.055l-0.223,-0.084Zm22.953,-1.169c0.229,0.393 0.446,0.81 0.652,1.253c-0.165,-0.356 -0.338,-0.696 -0.519,-1.019l-0.133,-0.234Zm13.957,1.22c0.192,-0.03 0.384,-0.061 0.576,-0.093l-0.576,0.093Zm-33.35,-0.633c-0.526,0.214 -1.059,0.413 -1.6,0.598c0.541,-0.185 1.074,-0.384 1.6,-0.598Zm-5.526,0.101l-0.266,-0.039c0.347,0.048 0.685,0.107 1.012,0.177c-0.243,-0.053 -0.492,-0.098 -0.746,-0.138Zm43.186,-0.292c-0.525,0.118 -1.05,0.23 -1.577,0.335c0.527,-0.105 1.053,-0.216 1.577,-0.335Zm-52.906,0.102l0.292,0.004l-0.292,-0.004l-0.237,-0.005l0.237,0.005Zm2.688,-0.015l-0.499,0.009l0.499,-0.009l0.238,-0.004l-0.238,0.004Zm51.821,-0.259l-0.212,-0.156c0.187,0.136 0.367,0.272 0.54,0.411c-0.107,-0.086 -0.216,-0.17 -0.328,-0.255Zm-56.205,0.2c0.128,0.01 0.256,0.018 0.386,0.026c-0.222,-0.013 -0.442,-0.029 -0.657,-0.048l0.271,0.022Zm-1.319,-0.148l0.256,0.037l0.19,0.025c-0.15,-0.019 -0.299,-0.039 -0.446,-0.062Zm56.747,-0.071l0.565,-0.137c-0.215,0.053 -0.43,0.105 -0.646,0.156l0.081,-0.019Zm-31.544,-3.549c-0.308,0.233 -0.62,0.459 -0.936,0.678c0.316,-0.219 0.628,-0.445 0.936,-0.678Zm1.237,-0.692c-0.094,0.028 -0.188,0.056 -0.281,0.084c0.093,-0.028 0.187,-0.056 0.281,-0.084Zm2.158,-0.467l-0.26,0.038l-0.219,0.037c0.161,-0.028 0.321,-0.053 0.479,-0.075Zm2.128,-0.087c0.416,0.025 0.819,0.078 1.21,0.157c-0.391,-0.079 -0.794,-0.132 -1.21,-0.157Zm-0.622,-0.02c-0.162,0.001 -0.326,0.005 -0.491,0.013c0.165,-0.008 0.329,-0.012 0.491,-0.013Zm83.867,121.845l-0.103,0.088l0.103,-0.088Zm11.097,-11.008l0.142,-0.145c-0.186,0.192 -0.387,0.386 -0.601,0.581c-0.042,0.283 -0.08,0.565 -0.114,0.847l-0.033,0.281c0.042,-0.375 0.091,-0.751 0.147,-1.128c0.161,-0.146 0.314,-0.292 0.459,-0.436Zm1.979,-4.121c-0.01,-0.107 -0.026,-0.214 -0.048,-0.321c0.03,0.15 0.049,0.3 0.059,0.452l-0.011,-0.131Zm-4.294,-3.854l0.339,0.022c-0.302,-0.017 -0.604,-0.04 -0.903,-0.068c0.187,0.018 0.375,0.033 0.564,0.046Zm-9.606,-4.189l0.117,0.362c-0.121,-0.361 -0.231,-0.725 -0.33,-1.092c0.066,0.244 0.137,0.488 0.213,0.73Zm-0.218,-7.403c-0.016,0.122 -0.032,0.245 -0.049,0.367l0.049,-0.367c0.015,-0.123 0.03,-0.245 0.044,-0.368l-0.044,0.368Zm0.161,-6.081c0.013,0.185 0.025,0.369 0.036,0.554l-0.023,-0.37l-0.013,-0.184Zm-17.261,-6.327l-0.252,-0.266c0.083,0.089 0.167,0.178 0.252,0.266l0.256,0.26c-0.086,-0.086 -0.172,-0.173 -0.256,-0.26Zm-3.572,-18.639c0.145,0.162 0.288,0.326 0.43,0.491l-0.214,-0.246c-0.072,-0.082 -0.144,-0.164 -0.216,-0.245Zm-6.989,-19.029c-0.047,-0.323 -0.103,-0.642 -0.168,-0.956c0.087,0.419 0.157,0.846 0.212,1.282l-0.044,-0.326Zm-0.31,-1.578c-0.051,-0.205 -0.107,-0.409 -0.166,-0.61c0.089,0.302 0.169,0.608 0.24,0.919l-0.074,-0.309Zm-2.193,-4.778c0.12,0.169 0.237,0.341 0.349,0.515l-0.171,-0.259c-0.117,-0.172 -0.237,-0.341 -0.362,-0.509l0.184,0.253Zm-21.665,-21.802c0.265,-1.108 0.285,-2.167 0.06,-3.179l-0.045,-0.189c0.288,1.131 0.265,2.323 -0.067,3.576l0.052,-0.208Zm-0.155,-3.928c-0.043,-0.123 -0.09,-0.246 -0.141,-0.368c0.076,0.183 0.144,0.367 0.204,0.554l-0.063,-0.186Zm-23.566,-4.948c-1.028,-1.609 -2.274,-2.751 -3.737,-3.426l-0.201,-0.09c1.618,0.691 2.977,1.937 4.077,3.738l-0.139,-0.222Zm-4.348,-3.677c-0.095,-0.034 -0.19,-0.066 -0.287,-0.096c0.167,0.053 0.331,0.111 0.494,0.174l-0.207,-0.078Zm-29.92,-213.464l-1.989,51.343l5.361,0.202c6.565,2.511 21.804,3.746 29.05,3.7c135.454,0.276 295.851,2.99 431.192,8.138c10.111,-0.492 -4.776,-17.653 5.335,-18.146c-3.827,-1.45 -7.773,-1.943 -11.838,-1.48c-0.771,-5.891 -1.264,-11.81 -1.48,-17.757c-13.944,0.415 -27.824,0.048 -41.64,-1.103c-1.411,-0.117 -2.822,-0.243 -4.232,-0.377c-1.231,-15.76 -1.971,-31.545 -2.22,-47.352c-9.979,-1.448 -20.092,-1.941 -30.335,-1.479l0,-23.287c12.862,-0.49 25.687,0.003 38.474,1.48c0.482,4.674 1.962,8.866 4.439,12.578c13.356,-0.353 26.674,-0.106 39.953,0.739c-0.379,-3.569 1.101,-6.036 4.439,-7.398c-1.098,-1.165 1.837,-2.151 0.468,-2.96c-1.177,-5.303 -7.316,-10.235 -10.086,-14.797c-1.639,-8.885 -8.74,-21.437 -4.634,-29.323l-0.716,-4.545l-32.862,-0.418l-266.417,-7.55l-67.742,-2.533l-80.391,-4.399l-3.196,6.4c2.433,-0.316 0.486,0.177 2.492,1.48c0.001,28.11 -0.493,56.225 -1.479,84.346l0.054,14.498Zm-2.547,-18.938c-0.493,-6.165 -0.986,-12.331 -1.479,-18.496c2.134,-20.914 3.12,-41.877 2.959,-62.89l-0.996,-6.63l-183.75,-10.055l-105.008,-5.741l-137.425,-12.2l-7.375,92.083l173.725,11.842l153.958,9.591l103.685,4.552l1.706,-2.056Z"/></svg>