<?xml version="1.0" encoding="UTF-8" standalone="no"?><!DOCTYPE svg PUBLIC "-//W3C//DTD SVG 1.1//EN" "http://www.w3.org/Graphics/SVG/1.1/DTD/svg11.dtd"><svg fill="#a2a2a2" stroke="#fff" fill-rule="nonzero" stroke-width="20.83px" width="100%" height="100%" viewBox="0 0 1272 674" version="1.1" xmlns="http://www.w3.org/2000/svg" xmlns:xlink="http://www.w3.org/1999/xlink" xml:space="preserve" xmlnsSerif="http://www.serif.com/" style="fill-rule:evenodd;clip-rule:evenodd;stroke-linejoin:round;"><path id="ok1854" d="M441.169,362.813c-0.038,-0.014 -0.076,-0.027 -0.113,-0.041l-1.771,0.617l-9.468,116.653l17.5,0.958l28.55,34.333l20.091,-3.583l23.017,7.108l1.933,-13.941l18.159,10.358l2.999,4.492c0,-0 1.98,-1.98 3.109,-3.79l-1.934,5.549l5.559,8.324l-0.958,17.5l26.583,6.133l9.4,-0.658l11.35,6.475l23.017,7.108l22.358,-2.291l12.008,15.866l12.959,-1.633l10.033,-12.325l20.75,5.817l16.525,-2.609l0.017,21.067l18.135,7.833l4.319,0.898l-0.729,0.652l-1.934,13.942l11.35,6.475l11.984,-5.2l18.458,-16.542l13.942,1.934l3.9,14.258l13.941,1.933l2.925,10.692l11.667,0.642l25.25,-12.659l5.517,6.15l-5.5,14.917l6.491,9.717l9.4,-0.659l4.2,-12.641l23.634,-25.625l9.733,14.575l24.308,4.841l6.475,-11.35l11.034,12.309l12.325,10.033l11.666,0.642l12.009,15.866l6.475,-11.35l15.233,-0.333l6.475,-11.35l16.525,-2.608l16.833,-8.442l11.35,6.475l12.959,-1.633l26.566,-14.934l8.759,11.009l27.875,3.866l13.283,-7.466l6.475,-11.35l27.242,15.533l10.375,2.908l16.541,18.459l18.475,4.525l33.075,15.85l5.834,0.316l0.9,-80.7l2.783,-157.841l-0.392,-78.434l-11.083,-75.5l-17.608,-127.358l-0.009,-0.017l0.242,-90.1l-103.058,1.384l-99.5,0.408l-167.25,-2.125l-266.417,-7.55l-67.742,-2.533l-80.391,-4.399l-3.196,6.4c2.433,-0.316 0.486,0.177 2.492,1.48c0.001,28.11 -0.493,56.225 -1.479,84.346l0.054,14.498l-2.205,56.908l-6.7,122.517l-1.754,37.217l5.677,0.763c0.037,0.014 0.075,0.027 0.113,0.041Zm105.141,148.937c0.116,-0.604 0.237,-1.208 0.361,-1.811l-0.197,0.97l-0.164,0.841Zm5.308,-19.966c-1.035,3.034 -1.97,6.092 -2.805,9.173c0.922,-3.4 1.965,-6.772 3.129,-10.114l-0.324,0.941Zm3.19,-8.54c-0.015,0.043 -0.029,0.087 -0.044,0.131c-0.378,0.928 -0.747,1.858 -1.106,2.789c0.359,-0.931 0.728,-1.861 1.106,-2.789c0.015,-0.044 0.029,-0.088 0.044,-0.131Zm1.886,-2.873l-0.099,0.092c-0.087,0.082 -0.172,0.166 -0.254,0.252c0.112,-0.118 0.23,-0.233 0.353,-0.344Zm4.005,-1.145c-0.493,0.085 -0.984,0.176 -1.472,0.274c0.594,-0.119 1.191,-0.228 1.792,-0.328l-0.32,0.054Zm2.899,-0.422c-0.108,0.013 -0.216,0.027 -0.324,0.04c0.108,-0.013 0.216,-0.027 0.324,-0.04Zm1.303,-0.142l-0.326,0.033l-0.326,0.035c0.217,-0.024 0.435,-0.047 0.652,-0.068Zm2.3,-4.291c0.002,0.15 0.005,0.3 0.009,0.45c-0.007,-0.241 -0.01,-0.483 -0.01,-0.726l0.001,0.276Zm0.13,-3.06c-0.035,0.374 -0.063,0.747 -0.084,1.119l-0.014,0.278c0.022,-0.464 0.055,-0.93 0.098,-1.397Zm2.51,-4.922l0.037,-0.135c-0.072,0.278 -0.176,0.559 -0.315,0.843c0.117,-0.238 0.209,-0.474 0.278,-0.708Zm0.149,-1.064c0.004,0.218 -0.014,0.439 -0.054,0.661l0.021,-0.133c0.025,-0.177 0.036,-0.353 0.033,-0.528Zm-0.249,-1.191l-0.038,-0.094l-0.058,-0.126c0.034,0.073 0.067,0.146 0.096,0.22Zm-0.424,-0.784c0.125,0.183 0.233,0.368 0.323,0.555c-0.09,-0.187 -0.198,-0.372 -0.323,-0.555Zm-0.573,-0.703c0.163,0.172 0.31,0.345 0.442,0.519c-0.131,-0.175 -0.279,-0.348 -0.442,-0.519Zm-1.268,-1.082c0.188,0.133 0.364,0.267 0.531,0.403l-0.148,-0.118c-0.122,-0.095 -0.25,-0.191 -0.383,-0.285Zm-1.116,-0.316l0.342,0.013l0.343,0.008c-0.229,-0.004 -0.458,-0.011 -0.685,-0.021Zm-3.613,-0.42c0.594,0.114 1.194,0.206 1.801,0.276c-0.607,-0.07 -1.207,-0.162 -1.801,-0.276Zm-1.576,-0.358l0.223,0.058l0.321,0.079c-0.182,-0.044 -0.363,-0.09 -0.544,-0.137Zm-1.366,-0.403c0.21,0.068 0.42,0.134 0.632,0.197c-0.212,-0.063 -0.422,-0.129 -0.632,-0.197Zm-2.774,-1.109l0.303,0.141c0.147,0.067 0.294,0.132 0.443,0.196c-0.251,-0.107 -0.499,-0.22 -0.746,-0.337Zm-1.17,-2.668c0.033,0.122 0.068,0.244 0.103,0.366l0.054,0.182c-0.055,-0.182 -0.107,-0.365 -0.157,-0.548Zm-0.576,-3.081c0.019,0.176 0.04,0.352 0.063,0.527c-0.023,-0.175 -0.044,-0.351 -0.063,-0.527Zm0.469,-2.857c-0.034,0.224 -0.071,0.448 -0.11,0.673l0.052,-0.306l0.058,-0.367Zm0.317,-5.893c0.023,0.537 0.032,1.073 0.026,1.609c0.004,-0.413 -0,-0.826 -0.013,-1.24l-0.013,-0.369Zm-9.174,-2.432c-0.16,0.03 -0.321,0.058 -0.483,0.085l0.255,-0.043l0.228,-0.042Zm8.904,-0.527c0.026,0.19 0.051,0.379 0.073,0.569l-0.024,-0.199l-0.049,-0.37Zm-8.846,0.516l0.219,-0.042l0.25,-0.052c-0.156,0.033 -0.312,0.065 -0.469,0.094Zm-4.494,-1.809c0.306,0.191 0.618,0.374 0.936,0.548c-0.318,-0.174 -0.63,-0.357 -0.936,-0.548Zm11.034,-0.847c-0.406,0.272 -0.82,0.525 -1.244,0.76c0.424,-0.235 0.839,-0.488 1.244,-0.76Zm-11.39,0.621l0.144,0.092l-0.144,-0.092l-0.043,-0.029l0.043,0.029Zm-1.548,-1.126c0.34,0.274 0.689,0.536 1.047,0.786c-0.358,-0.25 -0.707,-0.512 -1.047,-0.786Zm-1.285,-1.131l0.264,0.25l0.147,0.134c-0.139,-0.126 -0.276,-0.254 -0.411,-0.384Zm-2.296,-2.728c0.034,0.08 0.069,0.159 0.105,0.238c0.177,0.238 0.359,0.471 0.544,0.698c-0.185,-0.227 -0.367,-0.46 -0.544,-0.698c-0.036,-0.079 -0.071,-0.158 -0.105,-0.238Zm-1.051,-4.352c0.042,0.911 0.202,1.835 0.478,2.77l-0.057,-0.2c-0.26,-0.934 -0.403,-1.855 -0.429,-2.765l0.008,0.195Zm0.414,-3.454c-0.018,0.063 -0.036,0.126 -0.053,0.189l0.053,-0.189c0.018,-0.063 0.037,-0.125 0.057,-0.188l-0.057,0.188Zm1.099,-5.837l-0.194,-0.262c0.385,0.515 0.757,1.039 1.116,1.572c-0.298,-0.443 -0.605,-0.88 -0.922,-1.31Zm-1.196,-1.543l-0.207,-0.251c0.171,0.206 0.34,0.414 0.507,0.624l-0.095,-0.12c-0.068,-0.084 -0.137,-0.169 -0.205,-0.253Zm-1.719,-1.965l0.109,0.118l-0.109,-0.118l-0.161,-0.17l0.161,0.17Zm0.572,-7.845c-1.031,1.771 -2.171,3.469 -3.418,5.094c0.39,0.342 0.772,0.69 1.146,1.044c-0.374,-0.354 -0.756,-0.702 -1.146,-1.044c1.247,-1.625 2.387,-3.323 3.418,-5.094Zm1.494,-2.765c-0.144,0.288 -0.29,0.574 -0.44,0.859l0.177,-0.339l0.263,-0.52Zm-1.866,-2.797c0.193,0.233 0.381,0.474 0.563,0.721c-0.182,-0.247 -0.37,-0.488 -0.563,-0.721Zm-0.874,-0.968c0.041,0.042 0.081,0.084 0.122,0.125c-0.041,-0.041 -0.081,-0.083 -0.122,-0.125Zm-0.89,-0.833l0.109,0.095l-0.109,-0.095l-0.126,-0.108l0.126,0.108Zm-0.402,-0.334l-0.136,-0.108c0.113,0.089 0.225,0.179 0.335,0.271c-0.066,-0.055 -0.132,-0.109 -0.199,-0.163Zm-3.306,-2.017l-0.165,-0.074c0.515,0.226 1.012,0.476 1.489,0.747c-0.426,-0.242 -0.867,-0.467 -1.324,-0.673Zm-3.044,-6.324c0.433,0.703 0.802,1.44 1.105,2.21l-0.117,-0.287c-0.239,-0.572 -0.516,-1.124 -0.829,-1.658l-0.159,-0.265Zm-6.244,-5.575c0.168,0.131 0.339,0.261 0.51,0.389l0.323,0.24c-0.28,-0.206 -0.558,-0.416 -0.833,-0.629Zm-4.937,-4.546c0.295,0.322 0.594,0.637 0.898,0.947l0.285,0.289c-0.402,-0.403 -0.796,-0.814 -1.183,-1.236Zm-3.626,-1.368c0.836,0.086 1.676,0.152 2.52,0.197c-0.844,-0.045 -1.684,-0.111 -2.52,-0.197Zm-2.662,-0.344c0.103,0.015 0.205,0.031 0.307,0.047c-0.102,-0.016 -0.204,-0.032 -0.307,-0.047Zm-2.14,-0.381l0.305,0.06c0.428,0.083 0.857,0.16 1.287,0.232c-0.532,-0.089 -1.063,-0.186 -1.592,-0.292Zm-3.354,-8.231c-0.179,0.365 -0.381,0.735 -0.607,1.109c0.226,-0.374 0.429,-0.744 0.607,-1.109Zm-0.435,-8.03l0.112,0.155l-0.112,-0.155l-0.071,-0.092l0.071,0.092Zm-17.642,-0.484l0.595,-0.015c-0.396,0.011 -0.793,0.02 -1.191,0.025c0.199,-0.003 0.397,-0.006 0.596,-0.01Zm-3.709,-0.287l0.095,0.227l-0.095,-0.227l-0.094,-0.215l0.094,0.215Zm6.081,0.197l0.127,-0.007l-0.127,0.007Zm6.135,-0.606c-1.252,0.181 -2.513,0.327 -3.783,0.439c1.27,-0.112 2.53,-0.258 3.783,-0.439Zm-34.834,0.082l0.126,-0.041c-0.16,0.052 -0.32,0.102 -0.481,0.151l0.355,-0.11Zm-0.88,-0.135l-0.109,-0.044l-0.111,-0.043c0.074,0.028 0.148,0.057 0.22,0.087Zm22.621,-1.297c0.229,0.393 0.446,0.81 0.652,1.253c-0.165,-0.356 -0.338,-0.696 -0.519,-1.019l-0.133,-0.234Zm13.957,1.22c0.192,-0.03 0.384,-0.061 0.576,-0.093l-0.576,0.093Zm-33.35,-0.633c-0.526,0.214 -1.059,0.413 -1.6,0.598c0.541,-0.185 1.074,-0.384 1.6,-0.598Zm-5.526,0.101l-0.266,-0.039c0.347,0.048 0.685,0.107 1.012,0.177c-0.243,-0.053 -0.492,-0.098 -0.746,-0.138Zm43.162,-0.286c-0.517,0.116 -1.035,0.226 -1.553,0.329c0.519,-0.103 1.037,-0.213 1.553,-0.329Zm-52.882,0.096l0.292,0.004l-0.292,-0.004l-0.237,-0.005l0.237,0.005Zm2.688,-0.015l-0.499,0.009l0.499,-0.009l0.238,-0.004l-0.238,0.004Zm51.821,-0.259l-0.212,-0.156c0.187,0.136 0.367,0.272 0.54,0.411c-0.107,-0.086 -0.216,-0.17 -0.328,-0.255Zm-56.205,0.2c0.128,0.01 0.256,0.018 0.386,0.026c-0.222,-0.013 -0.442,-0.029 -0.657,-0.048l0.271,0.022Zm7.722,0.018l0.299,0.003l-0.299,-0.003l-0.038,0l0.038,0Zm-9.041,-0.166l0.256,0.037l0.19,0.025c-0.15,-0.019 -0.299,-0.039 -0.446,-0.062Zm56.747,-0.071l0.565,-0.137c-0.215,0.053 -0.43,0.105 -0.646,0.156l0.081,-0.019Zm-31.544,-3.549c-0.308,0.233 -0.62,0.459 -0.936,0.678c0.316,-0.219 0.628,-0.445 0.936,-0.678Zm1.237,-0.692c-0.094,0.028 -0.188,0.056 -0.281,0.084c0.093,-0.028 0.187,-0.056 0.281,-0.084Zm2.158,-0.467l-0.26,0.038l-0.219,0.037c0.161,-0.028 0.321,-0.053 0.479,-0.075Zm2.128,-0.087c0.424,0.026 0.835,0.08 1.233,0.162c-0.398,-0.083 -0.809,-0.137 -1.233,-0.162Zm-0.622,-0.02c-0.162,0.001 -0.326,0.005 -0.491,0.013c0.165,-0.008 0.329,-0.012 0.491,-0.013Zm-29.54,-231.919c-0.493,-6.165 -0.986,-12.331 -1.479,-18.496c2.134,-20.914 3.12,-41.877 2.959,-62.89l-0.996,-6.63l-183.75,-10.055l-105.008,-5.741l-137.425,-12.2l-7.375,92.083l173.725,11.842l153.958,9.591l103.685,4.552l1.706,-2.056Zm113.407,353.764l-0.103,0.088l0.103,-0.088Zm11.097,-11.008l0.142,-0.145c-0.186,0.192 -0.387,0.386 -0.601,0.581c-0.042,0.283 -0.08,0.565 -0.114,0.847l-0.033,0.281c0.042,-0.375 0.091,-0.751 0.147,-1.128c0.161,-0.146 0.314,-0.292 0.459,-0.436Zm1.979,-4.121c-0.01,-0.107 -0.026,-0.214 -0.048,-0.321c0.03,0.15 0.049,0.3 0.059,0.452l-0.011,-0.131Zm-4.294,-3.854l0.339,0.022c-0.302,-0.017 -0.604,-0.04 -0.903,-0.068c0.187,0.018 0.375,0.033 0.564,0.046Zm-9.096,-2.751l0.072,0.178l0.073,0.177c-0.049,-0.118 -0.098,-0.236 -0.145,-0.355Zm-0.332,-0.896c0.02,0.06 0.041,0.12 0.063,0.18l-0.063,-0.18c-0.021,-0.06 -0.041,-0.12 -0.061,-0.18l0.061,0.18Zm-0.396,-7.945c-0.016,0.122 -0.032,0.245 -0.049,0.367l0.049,-0.367c0.015,-0.123 0.03,-0.245 0.044,-0.368l-0.044,0.368Zm0.174,-5.897c0.008,0.123 0.016,0.247 0.023,0.37l-0.023,-0.37Zm-17.274,-6.511l-0.252,-0.266c0.083,0.089 0.167,0.178 0.252,0.266l0.256,0.26c-0.086,-0.086 -0.172,-0.173 -0.256,-0.26Zm-3.572,-18.639c0.145,0.162 0.288,0.326 0.43,0.491l-0.214,-0.246c-0.072,-0.082 -0.144,-0.164 -0.216,-0.245Zm1.176,-11.751c0.047,0.084 0.094,0.167 0.14,0.252l-0.09,-0.163l-0.05,-0.089Zm-4.641,-5.141l0.143,0.1c-0.047,-0.033 -0.095,-0.066 -0.143,-0.1l-0.144,-0.099c0.048,0.033 0.096,0.066 0.144,0.099Zm-3.524,-2.137c-0.047,-0.323 -0.103,-0.642 -0.168,-0.956c0.087,0.419 0.157,0.846 0.212,1.282l-0.044,-0.326Zm-0.31,-1.578c-0.051,-0.205 -0.107,-0.409 -0.166,-0.61c0.089,0.302 0.169,0.608 0.24,0.919l-0.074,-0.309Zm-2.193,-4.778c0.12,0.169 0.237,0.341 0.349,0.515l-0.171,-0.259c-0.117,-0.172 -0.237,-0.341 -0.362,-0.509l0.184,0.253Zm-22.246,-20.104c0.191,-0.433 0.348,-0.86 0.47,-1.28c-0.142,0.49 -0.332,0.989 -0.568,1.498l0.098,-0.218Zm0.581,-1.698c0.265,-1.108 0.285,-2.167 0.06,-3.179l-0.045,-0.189c0.288,1.131 0.265,2.323 -0.067,3.576l0.052,-0.208Zm-0.155,-3.928c-0.043,-0.123 -0.09,-0.246 -0.141,-0.368c0.076,0.183 0.144,0.367 0.204,0.554l-0.063,-0.186Zm-23.566,-4.948c-1.028,-1.609 -2.274,-2.751 -3.737,-3.426l-0.201,-0.09c1.618,0.691 2.977,1.937 4.077,3.738l-0.139,-0.222Zm-4.348,-3.677c-0.095,-0.034 -0.19,-0.066 -0.287,-0.096c0.167,0.053 0.331,0.111 0.494,0.174l-0.207,-0.078Z"/></svg>