<?xml version="1.0" encoding="UTF-8" standalone="no"?><!DOCTYPE svg PUBLIC "-//W3C//DTD SVG 1.1//EN" "http://www.w3.org/Graphics/SVG/1.1/DTD/svg11.dtd"><svg fill="#a2a2a2" stroke="#fff" fill-rule="nonzero" stroke-width="20.83px" width="100%" height="100%" viewBox="0 0 1272 674" version="1.1" xmlns="http://www.w3.org/2000/svg" xmlns:xlink="http://www.w3.org/1999/xlink" xml:space="preserve" xmlnsSerif="http://www.serif.com/" style="fill-rule:evenodd;clip-rule:evenodd;stroke-linejoin:round;"><path id="ok1854" d="M734.567,599.683l-1.934,13.942l11.35,6.475l11.984,-5.2l18.458,-16.542l13.942,1.934l3.9,14.258l13.941,1.933l2.925,10.692l11.667,0.642l25.25,-12.659l5.517,6.15l-5.5,14.917l6.491,9.717l9.4,-0.659l4.2,-12.641l23.634,-25.625l9.733,14.575l24.308,4.841l6.475,-11.35l11.034,12.309l12.325,10.033l11.666,0.642l12.009,15.866l6.475,-11.35l15.233,-0.333l6.475,-11.35l16.525,-2.608l16.833,-8.442l11.35,6.475l12.959,-1.633l26.566,-14.934l8.759,11.009l27.875,3.866l13.283,-7.466l6.475,-11.35l27.242,15.533l10.375,2.908l16.541,18.459l18.475,4.525l33.075,15.85l5.834,0.316l0.9,-80.7l2.783,-157.841l-0.392,-78.434l-11.083,-75.5l-17.608,-127.358l-0.009,-0.017l0.242,-90.1l-103.058,1.384l-99.5,0.408l-124.824,-1.586c-0,0 -4.776,-0.939 -9.564,-0.121l-32.862,-0.418l-266.417,-7.55l-67.742,-2.533l-80.391,-4.399l-3.196,6.4c2.433,-0.316 0.486,0.177 2.492,1.48c0.001,28.11 -0.493,56.225 -1.479,84.346l0.054,14.498l-2.205,56.908l-6.7,122.517l-2.015,38.597l5.938,-0.617c4.525,1.674 13.112,-0.528 17.429,1.728c3.794,-1.151 7.232,-2.951 10.316,-5.404c6.1,-1.984 10.358,-0.019 12.772,5.895c6.428,0.179 12.65,-0.476 18.666,-1.965c4.573,3.321 5.228,7.415 1.965,12.281c0.655,1.964 1.309,3.929 1.965,5.894c3.227,0.81 6.502,1.301 9.824,1.474c2.848,3.344 6.124,6.127 9.825,8.351c2.514,2.409 3.987,5.356 4.421,8.842c3.685,1.39 6.468,3.846 8.35,7.368c-1.391,2.785 -3.029,5.405 -4.912,7.859c2.671,2.341 4.964,4.961 6.877,7.86c-2.931,3.837 -3.423,7.93 -1.473,12.28c2.396,3.209 5.507,5.501 9.333,6.878c2.727,-0.439 5.183,-1.421 7.368,-2.948c0.655,0.655 1.31,1.31 1.965,1.965c0.598,3.953 0.434,7.883 -0.491,11.789c0.188,2.041 0.68,4.006 1.473,5.895c3.21,1.573 6.648,2.391 10.316,2.456c3.756,2.449 3.92,5.233 0.491,8.351c-0.448,3.018 -0.448,5.965 0,8.842c-3.538,0.19 -6.976,0.682 -10.315,1.473c-1.18,0.888 -2,2.033 -2.457,3.439c-4.034,9.893 -6.982,20.045 -8.842,30.456l-2.681,7.695l5.559,8.324l-0.958,17.5l26.583,6.133l9.4,-0.658l11.35,6.475l23.017,7.108l22.358,-2.291l12.008,15.866l12.959,-1.633l10.033,-12.325l20.75,5.817l16.525,-2.609l0.017,21.067l21.725,9.383Zm-291.076,-473.254c-0.493,-6.165 -0.986,-12.331 -1.479,-18.496c2.134,-20.914 3.12,-41.877 2.959,-62.89l-0.996,-6.63l-183.75,-10.055l-105.008,-5.741l-137.425,-12.2l-7.375,92.083l173.725,11.842l153.958,9.591l103.685,4.552l1.706,-2.056Zm-4.206,236.96l-9.468,116.653l17.5,0.958l28.55,34.333l20.091,-3.583l23.017,7.108l1.933,-13.941l18.159,10.358l2.999,4.492c0,-0 4.167,-4.167 3.856,-5.936c1.86,-10.411 4.808,-20.563 8.842,-30.456c0.457,-1.406 1.277,-2.551 2.457,-3.439c3.339,-0.791 6.777,-1.283 10.315,-1.473c-0.448,-2.877 -0.448,-5.824 0,-8.842c3.429,-3.118 3.265,-5.902 -0.491,-8.351c-3.668,-0.065 -7.106,-0.883 -10.316,-2.456c-0.793,-1.889 -1.285,-3.854 -1.473,-5.895c0.925,-3.906 1.089,-7.836 0.491,-11.789c-0.655,-0.655 -1.31,-1.31 -1.965,-1.965c-2.185,1.527 -4.641,2.509 -7.368,2.948c-3.826,-1.377 -6.937,-3.669 -9.333,-6.878c-1.95,-4.35 -1.458,-8.443 1.473,-12.28c-1.913,-2.899 -4.206,-5.519 -6.877,-7.86c1.883,-2.454 3.521,-5.074 4.912,-7.859c-1.882,-3.522 -4.665,-5.978 -8.35,-7.368c-0.434,-3.486 -1.907,-6.433 -4.421,-8.842c-3.701,-2.224 -6.977,-5.007 -9.825,-8.351c-3.322,-0.173 -6.597,-0.664 -9.824,-1.474c-0.656,-1.965 -1.31,-3.93 -1.965,-5.894c3.263,-4.866 2.608,-8.96 -1.965,-12.281c-6.016,1.489 -12.238,2.144 -18.666,1.965c-2.414,-5.914 -6.672,-7.879 -12.772,-5.895c-3.084,2.453 -6.522,4.253 -10.316,5.404c-4.317,-2.256 -12.904,-0.054 -17.429,-1.728l-1.771,0.617Z"/></svg>