<?xml version="1.0" encoding="UTF-8" standalone="no"?><!DOCTYPE svg PUBLIC "-//W3C//DTD SVG 1.1//EN" "http://www.w3.org/Graphics/SVG/1.1/DTD/svg11.dtd"><svg fill="#a2a2a2" stroke="#fff" fill-rule="nonzero" stroke-width="20.83px" width="100%" height="100%" viewBox="0 0 1272 674" version="1.1" xmlns="http://www.w3.org/2000/svg" xmlns:xlink="http://www.w3.org/1999/xlink" xml:space="preserve" xmlnsSerif="http://www.serif.com/" style="fill-rule:evenodd;clip-rule:evenodd;stroke-linejoin:round;"><path id="ok1907" d="M1232.28,143.558l0.242,-90.1l-103.058,1.384l-99.5,0.408l-167.25,-2.125l-266.417,-7.55l-67.742,-2.533l-268.333,-14.684l-105.008,-5.741l-137.425,-12.2l-7.375,92.083l173.725,11.842l153.958,9.591l108.583,4.767l-2.85,73.575l-6.7,122.517l-7.316,155.25l17.5,0.958l28.55,34.333l20.091,-3.583l23.017,7.108l1.933,-13.941l18.159,10.358l9.733,14.575l-0.958,17.5l26.583,6.133l9.4,-0.658l11.35,6.475l23.017,7.108l22.358,-2.291l12.008,15.866l12.959,-1.633l10.033,-12.325l20.75,5.817l16.525,-2.609l0.017,21.067l21.725,9.383l-1.934,13.942l11.35,6.475l11.984,-5.2l18.458,-16.542l13.942,1.934l3.9,14.258l13.941,1.933l2.925,10.692l11.667,0.642l25.25,-12.659l5.517,6.15l-5.5,14.917l6.491,9.717l9.4,-0.659l4.2,-12.641l23.634,-25.625l9.733,14.575l24.308,4.841l6.475,-11.35l11.034,12.309l12.325,10.033l11.666,0.642l12.009,15.866l6.475,-11.35l15.233,-0.333l6.475,-11.35l16.525,-2.608l16.833,-8.442l11.35,6.475l12.959,-1.633l26.566,-14.934l8.759,11.009l27.875,3.866l13.283,-7.466l6.475,-11.35l27.242,15.533l10.375,2.908l16.541,18.459l18.475,4.525l33.075,15.85l5.834,0.316l0.9,-80.7l2.783,-157.841l-0.392,-78.434l-11.083,-75.5l-17.608,-127.358l-0.009,-0.017Z"/></svg>