<?xml version="1.0" encoding="UTF-8" standalone="no"?><!DOCTYPE svg PUBLIC "-//W3C//DTD SVG 1.1//EN" "http://www.w3.org/Graphics/SVG/1.1/DTD/svg11.dtd"><svg fill="#a2a2a2" stroke="#fff" fill-rule="nonzero" stroke-width="20.83px" width="100%" height="100%" viewBox="0 0 872 679" version="1.1" xmlns="http://www.w3.org/2000/svg" xmlns:xlink="http://www.w3.org/1999/xlink" xml:space="preserve" xmlnsSerif="http://www.serif.com/" style="fill-rule:evenodd;clip-rule:evenodd;stroke-linejoin:round;"><path id="ar1824" d="M227.824,668.208l-2.683,-100.833l-6.809,-3.883l-31.441,-2.892l-13.284,7.467l-15.566,-14.892l-0.025,0.067l-5.834,-0.317l-33.075,-15.85l-18.475,-4.525l-16.541,-18.458l-10.375,-2.909l-27.242,-15.533l-6.475,11.35l-13.283,7.467l-6.439,-0.797l-0.22,-190.703l-0.391,-107.6l1.416,-183.834l111.559,1.809l120.566,-0.425l119.592,-3.992l159.417,-5.325l120.883,-6.267l130.283,-6.916l13.959,23l0.333,15.233l-7.767,13.617l-11.983,5.2l-16.508,23.675l-5.5,14.916l95.275,-8.833l-0.009,0.017l9.734,14.575l-12.959,1.633l7.467,13.283l-8.742,10.059l-23.975,10.391l6.175,15.55l-5.175,9.084l6.492,9.716l-15.55,6.175l-0.642,11.667l-10.033,12.325l-2.25,19.775l6.175,15.55l-1.933,13.942l-10.375,-2.909l-6.792,17.184l-11.008,8.758l7.466,13.283l-12.308,11.034l-16.833,8.441l1.633,12.959l-14.258,3.9l-4.525,18.475l2.925,10.691l-1.592,29.167l-33.033,26.283l-5.5,14.917l-12.309,11.033l10.059,8.742l-2.909,10.375l-26.241,9.1l8.758,11.008l-5.175,9.075l5.2,11.984l-21.05,21.083l7.467,13.283l-10.359,18.159l14.592,11.333l-0.958,17.5l-6.475,11.35l12.325,10.033l1.316,18.8l-9.716,6.492l1.316,18.8l-111.483,5.608l-83.292,3.634l-107.916,4.633l-137.092,3.033Zm-69.783,-115.033l15.566,14.892l13.284,-7.467l31.441,2.892l6.809,3.883l2.683,100.833c-72.469,-0.667 -144.938,-1.334 -217.407,-2.002l0.812,-153.888l15.487,2.149l13.283,-7.467l6.475,-11.35l27.242,15.533l10.375,2.909l16.541,18.458l18.475,4.525l33.075,15.85l5.834,0.317l0.025,-0.067Z"/></svg>