<?xml version="1.0" encoding="UTF-8" standalone="no"?><!DOCTYPE svg PUBLIC "-//W3C//DTD SVG 1.1//EN" "http://www.w3.org/Graphics/SVG/1.1/DTD/svg11.dtd"><svg fill="#a2a2a2" stroke="#fff" fill-rule="nonzero" stroke-width="20.83px" width="100%" height="100%" viewBox="0 0 750 679" version="1.1" xmlns="http://www.w3.org/2000/svg" xmlns:xlink="http://www.w3.org/1999/xlink" xml:space="preserve" xmlnsSerif="http://www.serif.com/" style="fill-rule:evenodd;clip-rule:evenodd;stroke-linejoin:round;"><path id="ar1840" d="M728.967,97.225l-95.275,8.833l5.5,-14.916l16.508,-23.675l11.983,-5.2l7.767,-13.617l-0.333,-15.233l-13.959,-23l-130.283,6.916l-120.883,6.267l-159.417,5.325l-119.592,3.992l-120.566,0.425l17.608,127.358l11.083,75.5l0.392,78.433l-2.783,157.842l-0.9,80.7l15.566,14.892l13.284,-7.467l31.441,2.892l6.809,3.883l2.683,100.833l137.092,-3.033l107.916,-4.633l83.292,-3.634l111.483,-5.608l-1.316,-18.8l9.716,-6.492l-1.316,-18.8l-12.325,-10.033l6.475,-11.35l0.958,-17.5l-14.592,-11.333l10.359,-18.159l-7.467,-13.283l21.05,-21.083l-5.2,-11.984l5.175,-9.075l-8.758,-11.008l26.241,-9.1l2.909,-10.375l-10.059,-8.742l12.309,-11.033l5.5,-14.917l33.033,-26.283l1.592,-29.167l-2.925,-10.691l4.525,-18.475l14.258,-3.9l-1.633,-12.959l16.833,-8.441l12.308,-11.034l-7.466,-13.283l11.008,-8.758l6.792,-17.184l10.375,2.909l1.933,-13.942l-6.175,-15.55l2.25,-19.775l10.033,-12.325l0.642,-11.667l15.55,-6.175l-6.492,-9.716l5.175,-9.084l-6.175,-15.55l23.975,-10.391l8.742,-10.059l-7.467,-13.283l12.959,-1.633l-9.734,-14.575l0.009,-0.017Z"/></svg>