<?xml version="1.0" encoding="UTF-8" standalone="no"?><!DOCTYPE svg PUBLIC "-//W3C//DTD SVG 1.1//EN" "http://www.w3.org/Graphics/SVG/1.1/DTD/svg11.dtd"><svg fill="#a2a2a2" stroke="#fff" fill-rule="nonzero" stroke-width="20.83px" width="100%" height="100%" viewBox="0 0 971 641" version="1.1" xmlns="http://www.w3.org/2000/svg" xmlns:xlink="http://www.w3.org/1999/xlink" xml:space="preserve" xmlnsSerif="http://www.serif.com/" style="fill-rule:evenodd;clip-rule:evenodd;stroke-linejoin:round;"><path id="hi1898" d="M157.958,10.417l-26.091,1.433l-36.717,21.933l-5.5,16.134l24.675,18.116l33.667,9l25.791,-48.783l-15.85,-17.833l0.025,-0Zm-141.75,79.858l20.017,-20.317l-25.808,3.142l5.791,17.175Zm398.192,39.992l-20.792,-19.35l-18.683,21.266l-19.642,8.55l24.117,46.3l18.025,-18.225l31.133,25.25l20.3,-15.091l-4.75,-21.442l-20.783,-1.792l-8.933,-25.425l0.008,-0.041Zm111.717,69.708l-7.109,24.008l38.434,-1.15l35.3,8.15l25.25,-13.575l1.8,-6.741l-45.934,-8.717l-2.083,5.033l-45.65,-7.008l-0.008,-0Zm115.308,35.167l-15.083,7.783l10.258,33.417l23.725,1.891l7.7,28.559l24.675,11.091l30.175,-8.55l25.083,-18.225l-52.683,-42.083l-53.808,-13.833l-0.042,-0.05Zm-55.683,55.533l17.933,-11.775l-14.808,-22.108l-17.367,-2.367l-9.958,10.442l10.158,4.741l5.325,21.35l8.733,-0.283l-0.016,-0Zm66.441,36.892l-12.908,-10.717l-11.95,16.042l24.858,-5.325Zm307.809,185.591l-29.9,-28.358l0.375,-8.258l-19.925,-3.692l-0.675,-25.083l-60.175,-41.45l-25.084,-6.35l-36.45,-22l-23.433,6.841l13.108,32.925l-39.358,58.667l14.333,22.767l15.292,42.508l8.85,67l33.5,21.908l20.675,-33.883l36.333,-27.725l44.692,-12.733l37.95,-25.084l9.858,-18.033l0.034,0.033Z"/></svg>