<?xml version="1.0" encoding="UTF-8" standalone="no"?><!DOCTYPE svg PUBLIC "-//W3C//DTD SVG 1.1//EN" "http://www.w3.org/Graphics/SVG/1.1/DTD/svg11.dtd"><svg fill="#a2a2a2" stroke="#fff" fill-rule="nonzero" stroke-width="20.83px" width="100%" height="100%" viewBox="0 0 1099 598" version="1.1" xmlns="http://www.w3.org/2000/svg" xmlns:xlink="http://www.w3.org/1999/xlink" xml:space="preserve" xmlnsSerif="http://www.serif.com/" style="fill-rule:evenodd;clip-rule:evenodd;stroke-linejoin:round;"><path id="ks1861" d="M1087.77,585.758l-4.034,-161.725l-0.733,-93.666l-1.083,-129.959l-29.509,-16.833l-11.366,-27.542l-26.6,-27.2l8.416,-25.283l11.334,-14.592l8.1,1.617l3.225,-16.208l-19.134,-13.917l-9.716,6.492l-15.892,-9.059l-17.842,-16.191l-145.191,1.425l-86.534,-1.225l-117.975,-4.109l-86.533,-1.225l-147.142,-5.708l-172.75,-8.275l-87.508,-4.783l-92.083,-7.375l-7.675,118.95l-5.759,83.916l-7.675,118.95l-8.633,136.45l-7.058,86.217l105.008,5.742l268.333,14.683l67.742,2.533l266.417,7.55l167.25,2.125l99.5,-0.408l103.058,-1.383l0.042,0.016Z"/></svg>