<?xml version="1.0" encoding="UTF-8" standalone="no"?><!DOCTYPE svg PUBLIC "-//W3C//DTD SVG 1.1//EN" "http://www.w3.org/Graphics/SVG/1.1/DTD/svg11.dtd"><svg fill="#a2a2a2" stroke="#fff" fill-rule="nonzero" stroke-width="20.83px" width="100%" height="100%" viewBox="0 0 709 860" version="1.1" xmlns="http://www.w3.org/2000/svg" xmlns:xlink="http://www.w3.org/1999/xlink" xml:space="preserve" xmlnsSerif="http://www.serif.com/" style="fill-rule:evenodd;clip-rule:evenodd;stroke-linejoin:round;"><path id="mn1848" d="M320.083,845.039l4.109,-24.006l-5.534,-27.216l6.15,-5.517l-2.608,-16.525l2.25,-19.775l9.7,-27.558l-12.983,-19.434l-16.209,-3.225l-0.991,-24.633l12.308,-11.033l9.7,-27.559l42.083,-21.1l8.742,-10.058l-2.358,-106.625l10.691,-2.925l10.359,-18.158l0.316,-5.834l36.6,-27.258l34.65,-34.383l58.917,-71.675l28.175,-23.034l29.15,-19.475l53.783,-20.466l60.575,-37.65l0.042,-0.017l-29.167,-1.592l-9.716,6.492l-9.084,-5.175l-14.275,-17.167l-11.666,-0.641l-43.75,8.141l-32.734,-0.616l-5.85,-21.384l-11.666,-0.641l-18.142,10.708l-23.317,19.792l-19.116,7.15l-17.5,-0.959l-15.892,-9.058l-8.442,-16.833l-24.308,-4.842l-9.417,-20.408l-13.941,-1.934l-19.117,7.15l1.633,12.967l-10.691,2.925l-20.125,-38.55l-21.067,0.017l6.792,-17.184l-28.85,-7.425l-11.35,-6.475l-32.734,-0.616l-24.95,6.825l-5.175,9.083l-30.783,6.508l-15.25,-20.725l-43.108,-3.525l-11.034,-12.308l-20.091,3.583l-12.642,-4.2l-15.567,-14.891l-1.316,-18.8l-12.684,-46.334l-0.991,-24.633l-18.159,-10.358l-22.041,-3.55l1.033,66.75c0,-0 -0.959,37.058 -0.959,59.816l0,220.834c35.151,-9.289 70.568,-9.289 106.25,-0c11.391,-4.553 22.502,-4.553 33.333,-0c2.507,12.927 10.146,21.261 22.917,25c7.142,-4.619 9.92,-1.841 8.333,8.333c8.197,0.998 15.836,-0.391 22.917,-4.167c3.127,2.608 6.599,4.691 10.417,6.25c11.104,13.704 22.215,27.592 33.333,41.667c-4.947,4.248 -9.113,9.109 -12.5,14.583c5.991,10.765 4.602,20.487 -4.167,29.167c-16.541,6.833 -29.041,17.944 -37.5,33.333c-3.942,-2.029 -8.108,-3.417 -12.5,-4.166c-8.856,5.358 -18.578,8.829 -29.166,10.416c-10.488,18.867 -24.377,34.842 -41.667,47.917c-5.947,12.638 -4.558,24.442 4.167,35.417c-4.706,16.995 -5.401,34.354 -2.084,52.083c4.811,5.179 10.366,9.346 16.667,12.5c-0.519,23.471 7.12,43.608 22.917,60.417c22.698,11.596 46.309,21.32 70.833,29.166c7.639,7.638 15.278,15.28 22.917,22.917c1.868,24.792 15.062,37.292 39.583,37.5c-0.675,8.446 0.019,16.779 2.083,25c8.118,2.538 15.757,5.317 22.917,8.333l12.5,0l-2.908,-4.444Z"/></svg>