<?xml version="1.0" encoding="UTF-8" standalone="no"?><!DOCTYPE svg PUBLIC "-//W3C//DTD SVG 1.1//EN" "http://www.w3.org/Graphics/SVG/1.1/DTD/svg11.dtd"><svg fill="#a2a2a2" stroke="#fff" fill-rule="nonzero" stroke-width="20.83px" width="100%" height="100%" viewBox="0 0 1185 1271" version="1.1" xmlns="http://www.w3.org/2000/svg" xmlns:xlink="http://www.w3.org/1999/xlink" xml:space="preserve" xmlnsSerif="http://www.serif.com/" style="fill-rule:evenodd;clip-rule:evenodd;stroke-linejoin:round;"><path id="az1863" d="M301.147,449.818l-3.55,22.041l8.125,22.684l6.808,3.883l9.433,41.475l-1.933,13.942l29.842,32.058l-1.617,8.1l-21.708,11.683l-22.684,8.125l-6.475,11.35l-20.725,15.25l-1.916,35l-13.584,34.367l-19.75,18.817l-12.958,1.633l-4.525,18.475l3.583,20.092l-8.083,19.45l8.758,11.008l12.642,4.2l8.758,11.008l-2.25,19.775l-12.308,11.034l-5.175,9.083l-20.75,-5.817l-8.417,4.217l-17.483,20.108l-3.225,16.209l117.75,73.141l115.442,71.85l116.75,69.584l118.033,67.333l62.258,38.517l8.1,1.616l162.392,26.434l140.35,22.891l10.642,-66.125l18.683,-127.708l13.525,-97.567l14.5,-94l15.8,-96.266l12.233,-95.292l18.684,-127.708l14.5,-94l15.8,-96.267l18.683,-127.708l-0.025,-0.025l-113.775,-16.75l-88.167,-14.184l-112.475,-19.025l-111.183,-21.291l-66.125,-10.642l-131.933,-27.108l-89.142,-17.75l-0.017,0.05c-155.241,-32.511 -305.104,-66.149 -450.846,-100.651l61.563,92.184l55.167,82.6l68.808,111.433l38.942,58.3l66.2,94.9l0.05,-0.016Z"/></svg>