<?xml version="1.0" encoding="UTF-8" standalone="no"?><!DOCTYPE svg PUBLIC "-//W3C//DTD SVG 1.1//EN" "http://www.w3.org/Graphics/SVG/1.1/DTD/svg11.dtd"><svg fill="#a2a2a2" stroke="#fff" fill-rule="nonzero" stroke-width="20.83px" width="100%" height="100%" viewBox="0 0 1015 1171" version="1.1" xmlns="http://www.w3.org/2000/svg" xmlns:xlink="http://www.w3.org/1999/xlink" xml:space="preserve" xmlnsSerif="http://www.serif.com/" style="fill-rule:evenodd;clip-rule:evenodd;stroke-linejoin:round;"><path id="az1867" d="M1004.52,137.167l-113.775,-16.75l-88.167,-14.184l-112.475,-19.025l-111.183,-21.291l-66.125,-10.642l-131.934,-27.108l-89.141,-17.75l-28.725,140.033l-19.1,28.217l-15.234,0.333l-13.958,-23l-11.667,-0.642l-15.891,-9.058l-27.217,5.533l-8.083,19.45l8.125,22.684l-7.45,7.783l-0.959,17.5l2.609,16.525l-8.084,19.45l5.217,33.05l-3.867,27.875l-11.008,8.758l-4.842,24.309l-3.55,22.041l8.125,22.684l6.809,3.883l9.433,41.475l-1.933,13.942l29.841,32.058l-1.616,8.1l-21.709,11.683l-22.683,8.125l-6.475,11.35l-20.725,15.25l-1.917,35l-13.583,34.367l-19.75,18.817l-12.958,1.633l-4.525,18.475l3.583,20.092l-8.083,19.45l8.758,11.008l12.642,4.2l8.758,11.008l-2.25,19.775l-12.308,11.034l-5.175,9.083l-20.75,-5.817l-8.417,4.217l-17.483,20.108l-3.225,16.209l117.75,73.141l115.441,71.85l116.75,69.584l118.034,67.333l62.258,38.517l8.1,1.616l162.392,26.434l140.35,22.891l10.641,-66.125l18.684,-127.708l13.525,-97.567l14.5,-94l15.8,-96.266l12.233,-95.292l18.683,-127.708l14.5,-94l15.8,-96.267l18.684,-127.708l-0.025,-0.025Z"/></svg>