<?xml version="1.0" encoding="UTF-8" standalone="no"?><!DOCTYPE svg PUBLIC "-//W3C//DTD SVG 1.1//EN" "http://www.w3.org/Graphics/SVG/1.1/DTD/svg11.dtd"><svg fill="#a2a2a2" stroke="#fff" fill-rule="nonzero" stroke-width="20.83px" width="100%" height="100%" viewBox="0 0 983 852" version="1.1" xmlns="http://www.w3.org/2000/svg" xmlns:xlink="http://www.w3.org/1999/xlink" xml:space="preserve" xmlnsSerif="http://www.serif.com/" style="fill-rule:evenodd;clip-rule:evenodd;stroke-linejoin:round;"><path id="mo1849" d="M609.4,52.508l-15.567,-14.891l-21.4,-15.217l-5.2,-11.983l-29.491,4.241l-158.5,8.892l-64.492,2.325l-62.225,3.617l-126.4,0.116l-115.708,-2.816l9.733,14.575l8.775,32.075l30.5,41.458l-0.642,11.667l13.617,7.766l17.842,16.192l15.891,9.058l9.717,-6.491l19.133,13.916l-3.225,16.209l-8.1,-1.617l-11.333,14.592l-8.417,25.283l26.6,27.2l11.367,27.542l29.508,16.833l1.084,129.958l0.733,93.667l4.033,161.725l-0.241,90.1l120.566,-0.425l119.592,-3.992l159.417,-5.325l120.883,-6.266l130.283,-6.917l13.959,23l0.333,15.233l-7.767,13.617l-11.983,5.2l-16.508,23.675l-5.5,14.917l95.275,-8.834l8.083,-19.45l7.45,-7.783l-14.275,-17.167l16.525,-2.608l-5.2,-11.983l12.308,-11.034l-5.85,-21.383l18.8,-1.317l8.417,-25.283l15.892,9.058l6.15,-5.516l8.416,-25.284l-3.583,-20.091l3.55,-22.042l-8.1,-1.617l-12.325,-10.033l-9.717,6.492l-31.475,-45.025l6.792,-17.184l1.933,-13.941l-11.683,-21.709l-6.825,-24.95l-12.642,-4.2l-12.983,-19.433l-17.183,-6.792l-12.325,-10.033l-12.642,-4.2l-14.917,-5.5l-34.383,-34.65l-8.442,-16.833l16.492,-44.742l6.792,-17.183l-1.317,-18.8l9.058,-15.892l-8.758,-11.008l-35.658,-11.309l-20.725,15.25l-11.35,-6.475l-5.2,-11.983l-6.192,-36.617l-13.958,-23l-32.75,-21.683l-9.734,-14.575l-36.975,-30.108l-14.933,-26.567l-0.333,-15.233l-5.2,-11.984l-5.534,-27.216l2.567,-25.609l7.767,-13.616l0.033,-0.034Z"/></svg>