<?xml version="1.0" encoding="UTF-8" standalone="no"?><!DOCTYPE svg PUBLIC "-//W3C//DTD SVG 1.1//EN" "http://www.w3.org/Graphics/SVG/1.1/DTD/svg11.dtd"><svg fill="#a2a2a2" stroke="#fff" fill-rule="nonzero" stroke-width="20.83px" width="100%" height="100%" viewBox="0 0 1256 576" version="1.1" xmlns="http://www.w3.org/2000/svg" xmlns:xlink="http://www.w3.org/1999/xlink" xml:space="preserve" xmlnsSerif="http://www.serif.com/" style="fill-rule:evenodd;clip-rule:evenodd;stroke-linejoin:round;"><path id="nc1790" d="M1184.24,10.417l-7.134,1.95l-7.125,1.95l7.784,7.45l6.475,-11.35Zm-16.525,2.608l-48.609,11.383l-130.266,27.984l-88.784,18.55l-108.916,22.133l-118.275,22.792l-86.2,14.008l-84.9,11.742l-77.775,9.791l-59.95,4.917l-4.542,-2.592l-6.792,17.184l0.017,21.066l-23.633,25.625l-10.992,29.825l-7.45,7.784l-17.183,-6.792l-26.567,14.933l-11.65,20.425l-11.983,5.2l-9.734,-14.575l-19.433,12.984l-4.2,12.641l-10.375,-2.908l-10.017,33.417l-12.958,1.633l-24.292,16.225l-33.333,32.117l-33.05,5.216l-21.708,11.684l-16.192,17.841l-3.55,22.042l-6.475,11.35l-22.358,2.292l-5.175,9.083l1.333,39.867l77.775,-9.792l99.158,-15.642l44.384,-19.808l9.4,-0.658l25.591,-18.5l38.234,-14.292l76.483,-7.517l102.408,-10.783l9.734,14.575l12.308,-11.033l25.625,23.633l6.825,24.95l158.142,-24.117l5.833,0.317l75.583,52.117l116.1,81.25l45.359,-16.242l34.025,-1.65l6.475,-11.35l10.691,-2.925l-0.675,-30.467l3.225,-16.208l17.15,-35.342l17.484,-20.108l20.725,-15.25l14.891,-15.567l6.475,-11.35l41.142,-24.666l35.325,-3.917l11.333,-14.592l8.1,1.617l20.392,-30.483l-8.758,-11.009l-26.9,-0.3l-13.284,7.467l-14.891,15.567l-26.584,-6.134l24.95,-6.825l23.959,-31.458l-17.184,-6.792l23,-13.958l-3.9,-14.258l-29.166,-1.592l-33.417,-10.017l28.192,-1.966l16.208,3.225l-0.017,-21.067l14.275,17.167l8.417,-4.217l27.875,3.867l16.525,-2.609l28.475,-49.933l18.142,-10.708l1.933,-13.942l-4.558,-23.658l-14.275,-17.167l-11.35,-6.475l-15.217,21.4l5.533,27.217l-12.641,-4.2l-6.175,-15.55l1.275,-23.334l-22.359,2.292l-24.291,16.225l-13.942,-1.933l-11.008,8.758l-25.925,3.267l2.25,-19.775l23.333,1.275l14.892,-15.567l29.808,-10.075l21.05,-21.083l24.633,-0.992l-16.566,-39.525l-15.892,-9.058l-6.175,-15.55l0.017,-0.067Z"/></svg>