<?xml version="1.0" encoding="UTF-8" standalone="no"?><!DOCTYPE svg PUBLIC "-//W3C//DTD SVG 1.1//EN" "http://www.w3.org/Graphics/SVG/1.1/DTD/svg11.dtd"><svg fill="#a2a2a2" stroke="#fff" fill-rule="nonzero" stroke-width="20.83px" width="100%" height="100%" viewBox="0 0 1044 1060" version="1.1" xmlns="http://www.w3.org/2000/svg" xmlns:xlink="http://www.w3.org/1999/xlink" xml:space="preserve" xmlnsSerif="http://www.serif.com/" style="fill-rule:evenodd;clip-rule:evenodd;stroke-linejoin:round;"><path id="nm1863" d="M1026.06,201.575l7.375,-92.083l-109.55,-8.334l-82.65,-8.033l-108.258,-10.6l-164.008,-18.333l-106.967,-12.875l-81.358,-10.3l-137.109,-18.034l-80.066,-12.566l-18.684,127.708l-15.8,96.267l-14.5,94l-18.683,127.708l-12.233,95.292l-15.8,96.266l-14.5,94l-13.525,97.567l-18.684,127.708l-10.641,66.125l11.666,0.642l117.334,15.775l12.566,-80.067l161.417,22.867l101.133,12.55l-11.033,-12.308l-8.775,-32.075l110.525,11.891l169.842,18.65l274.85,24.4l15.408,-174.7l14.433,-178.266l14.125,-151.334l8.992,-100.166l11.858,-152.659l5.459,-57.05l5.833,0.317l0.008,0.05Z"/></svg>