<?xml version="1.0" encoding="UTF-8" standalone="no"?><!DOCTYPE svg PUBLIC "-//W3C//DTD SVG 1.1//EN" "http://www.w3.org/Graphics/SVG/1.1/DTD/svg11.dtd"><svg fill="#a2a2a2" stroke="#fff" fill-rule="nonzero" stroke-width="20.83px" width="100%" height="100%" viewBox="0 0 1651 1208" version="1.1" xmlns="http://www.w3.org/2000/svg" xmlns:xlink="http://www.w3.org/1999/xlink" xml:space="preserve" xmlnsSerif="http://www.serif.com/" style="fill-rule:evenodd;clip-rule:evenodd;stroke-linejoin:round;"><path id="nm1850" d="M1405.64,1185.43c-4.972,-16.87 -13.306,-32.15 -25,-45.833c4.103,-6.658 4.797,-13.604 2.083,-20.833c-6.944,-13.888 -13.889,-27.779 -20.833,-41.667c-14.094,-10.671 -27.288,-21.779 -39.584,-33.333l0,-25c4.791,-13.438 9.652,-27.325 14.584,-41.667c4.166,-2.779 8.333,-5.554 12.5,-8.333c0.127,-17.784 4.294,-34.45 12.5,-50c15.665,-21.596 32.332,-42.429 50,-62.5c-4.644,-47.954 5.079,-92.4 29.166,-133.334c10.641,-32.508 18.974,-65.841 25,-100c11.038,-23.441 27.01,-42.887 47.917,-58.333c9.01,-23.687 22.899,-43.829 41.667,-60.417c6.589,-23.32 17.7,-44.154 33.333,-62.5c14.47,-1.329 26.275,-7.579 35.417,-18.75c5.285,-26.283 10.146,-52.675 14.583,-79.166c-1.442,-16.384 -4.22,-32.354 -8.333,-47.917c10.123,-21.042 12.206,-42.567 6.25,-64.583c-20.572,-25.271 -46.266,-44.021 -77.084,-56.25c-12.5,-1.388 -25,-2.779 -37.5,-4.167c-9.299,-11.396 -20.41,-20.425 -33.333,-27.083c-3.207,7.383 -8.763,11.55 -16.667,12.5c-28.005,-1.875 -54.395,-8.125 -79.166,-18.75l-9.848,-2.883c0,-0 1.543,18.804 4.197,21.798c14.19,-7.45 24.606,-3.979 31.25,10.417c31.662,12.896 59.44,23.313 83.333,47.917c-0.925,6.479 -3.703,12.037 -8.333,16.666c2.777,4.167 5.555,8.334 8.333,12.5c-2.776,5.546 -2.776,11.796 -0,18.75c-0.542,6.088 -3.394,10.85 -3.394,10.85l4.156,11.539l-30.228,-6.396l-81.358,-10.3l-137.109,-18.033l-80.066,-12.567l0.008,-0.008l-113.775,-16.75l-88.167,-14.184l-112.475,-19.025l-111.183,-21.291l-66.125,-10.642l-131.933,-27.108l-89.142,-17.75l-0.017,0.05c-155.241,-32.511 -305.104,-66.149 -450.846,-100.651l61.563,92.184l55.167,82.6l68.808,111.433l38.942,58.3l66.2,94.9l0.05,-0.016l-3.55,22.041l8.125,22.684l6.808,3.883l9.433,41.475l-1.933,13.942l29.842,32.058l-1.617,8.1l-21.708,11.683l-22.684,8.125l-6.475,11.35l-20.725,15.25l-1.916,35l-13.584,34.367l-19.75,18.817l-12.958,1.633l-4.525,18.475l3.583,20.092l-8.083,19.45l8.758,11.008l12.642,4.2l8.758,11.008l-2.25,19.775l-12.308,11.034l6.217,0.205c14.144,0.546 25.95,7.491 35.416,20.833c12.323,-7.135 24.823,-8.523 37.5,-4.166c52.184,-8.456 103.573,-19.567 154.167,-33.334c15.99,7.666 31.962,14.611 47.917,20.834c-2.852,-16.891 -2.852,-33.558 -0,-50c14.463,-2.489 28.352,-5.267 41.666,-8.334l12.5,0c7.406,4.586 15.739,8.058 25,10.417c11.818,20.189 28.485,34.078 50,41.667c18.384,13.707 37.134,26.901 56.25,39.583c23.538,-8.282 47.842,-10.365 72.917,-6.25c10.842,8.424 21.258,17.452 31.25,27.083c45.033,-40.987 87.396,-38.209 127.083,8.334c4.863,9.722 9.721,19.444 14.584,29.166c10.95,6.773 20.67,15.107 29.166,25c-4.504,50.951 -12.141,101.645 -22.916,152.084c0.354,4.614 1.745,8.781 4.166,12.5c130.504,18.445 261.059,36.5 391.667,54.166c18.857,1.923 54.608,11.768 54.608,11.768l1.142,-9.023l0.309,-2.367Z"/></svg>