<?xml version="1.0" encoding="UTF-8" standalone="no"?><!DOCTYPE svg PUBLIC "-//W3C//DTD SVG 1.1//EN" "http://www.w3.org/Graphics/SVG/1.1/DTD/svg11.dtd"><svg fill="#a2a2a2" stroke="#fff" fill-rule="nonzero" stroke-width="20.83px" width="100%" height="100%" viewBox="0 0 839 733" version="1.1" xmlns="http://www.w3.org/2000/svg" xmlns:xlink="http://www.w3.org/1999/xlink" xml:space="preserve" xmlnsSerif="http://www.serif.com/" style="fill-rule:evenodd;clip-rule:evenodd;stroke-linejoin:round;"><path id="la1812" d="M380.783,659.642l12.625,-16.867l-33.416,-10.017l-15.55,6.175l0.658,9.4l28.533,13.267l7.125,-1.95l0.025,-0.008Zm354.434,-146.8l-9.084,-5.175l-9.733,-14.575l-7.8,-28.517l-20.108,-17.483l-9.417,-20.409l14.542,-51.866l-0.659,-9.4l-152.641,9.208l-149.075,8.233l12.308,-11.033l-8.442,-16.833l2.909,-10.375l-5.2,-11.984l14.258,-3.9l7.108,-23.016l-6.175,-15.55l13.6,-13.3l2.892,-31.442l9.383,-21.725l11.984,-5.2l13.916,-19.133l9.717,-6.492l4.2,-12.642l21.35,-47.983l-28.217,-19.1l-1.316,-18.8l-11.034,-12.308l-0.658,-9.4l10.033,-12.325l-9.083,-5.175l3.225,-16.209l6.475,-11.35l-14.275,-17.166l-111.483,5.608l-83.292,3.633l-107.917,4.634l-137.091,3.033l2.75,185.083l22.375,18.775l14.616,32.4l-1.275,23.334l27.259,36.6l-2.909,10.375l25.325,50.5l-9.716,6.491l8.758,11.009l-7.108,23.016l-17.467,41.175l-6.15,5.517l5.85,21.383l-6.475,11.35l4.875,17.825l1.333,39.867l-12.625,16.867l5.517,6.15l-4.525,18.475l-14.575,9.733l8.442,16.833l15.55,-6.175l46.016,-6.85l39.867,-1.333l26.583,6.133l56.092,22.959l22.042,3.541l44.083,7.092l21.708,-11.683l3.884,-6.809l-7.467,-13.283l2.908,-10.375l20.409,-9.417l2.591,-4.541l22.359,-2.292l-5.5,14.917l30.466,-0.675l10.375,2.908l-3.225,16.208l12.967,-1.633l5.85,21.383l35.983,5.475l6.15,-5.516l9.417,20.408l-15.217,21.4l15.892,9.058l25.283,8.417l22.042,3.55l16.525,-2.608l21.725,9.383l19.417,-34.05l28.191,-1.967l23.017,7.109l-3.225,16.208l9.733,14.575l22.025,-17.517l-3.583,-20.091l9.058,-15.892l-10.075,-29.808l18.159,10.358l10.691,-2.925l21.4,15.217l4.217,8.416l21.725,9.384l3.242,4.858l19.775,2.25l18.5,25.592l11.35,6.475l19.775,2.25l24.608,-22.059l-16.542,-18.458l-14.275,-17.167l-22.358,2.292l-15.892,-9.058l-12.958,1.633l-3.9,-14.258l-20.75,-5.817l-9.733,-14.575l11.983,-5.2l26.867,-41.833l7.783,7.45l12.625,-16.867l-17.183,-6.792l-0.992,-24.633l-23,13.958l-5.817,20.75l-9.4,0.659l-25.941,-17.8l5.816,-20.75l-15.891,-9.059l-6.475,11.35l-15.867,12.009l-20.092,3.583l-28.85,-7.433l-14.591,-11.334l3.225,-16.208l27.516,-32.433l25.609,2.566l16.541,18.459l31.442,2.891l8.758,11.009l29.492,-4.242l0.017,0.042Z"/></svg>