<?xml version="1.0" encoding="UTF-8" standalone="no"?><!DOCTYPE svg PUBLIC "-//W3C//DTD SVG 1.1//EN" "http://www.w3.org/Graphics/SVG/1.1/DTD/svg11.dtd"><svg fill="#a2a2a2" stroke="#fff" fill-rule="nonzero" stroke-width="20.83px" width="100%" height="100%" viewBox="0 0 1034 695" version="1.1" xmlns="http://www.w3.org/2000/svg" xmlns:xlink="http://www.w3.org/1999/xlink" xml:space="preserve" xmlnsSerif="http://www.serif.com/" style="fill-rule:evenodd;clip-rule:evenodd;stroke-linejoin:round;"><path id="sd1889" d="M1011.76,60.158l-238.533,-3.683l-117.975,-4.108l-118.95,-7.675l-175,-9.575l-89.783,-6.084l-146.825,-11.541l-65.15,-7.075l-14.109,172.433l-2.266,-1.292l-6.1,68.717l-12.2,137.425l-14.45,157.2l137.425,12.2l113.116,7.358l92.084,7.375l134.166,7.342l113.117,7.358l148.442,3.434l31.458,23.958l31.775,18.125l9.4,-0.658l11.333,-14.592l25.609,2.567l21.066,-0.017l25.925,-3.267l23.675,16.509l35.659,11.308l6.491,9.717l13.942,1.933l0.658,9.4l12.009,15.867l16.208,3.225l-4.558,-23.659l-16.542,-18.458l10.358,-18.158l9.384,-21.725l-1.634,-12.959l7.767,-13.616l-3.583,-20.092l-11.667,-0.642l3.867,-27.875l-5.85,-21.383l17.5,0.958l3.133,-121.541l-0.392,-78.434l1.184,-128.666l-14.275,-17.167l-16.209,-3.225l-21.425,-36.283l1.617,-8.1l26.883,-20.767l12.292,-32.1l-0.067,0.008Z"/></svg>