<?xml version="1.0" encoding="UTF-8" standalone="no"?><!DOCTYPE svg PUBLIC "-//W3C//DTD SVG 1.1//EN" "http://www.w3.org/Graphics/SVG/1.1/DTD/svg11.dtd"><svg fill="#a2a2a2" stroke="#fff" fill-rule="nonzero" stroke-width="20.83px" width="100%" height="100%" viewBox="0 0 1266 507" version="1.1" xmlns="http://www.w3.org/2000/svg" xmlns:xlink="http://www.w3.org/1999/xlink" xml:space="preserve" xmlnsSerif="http://www.serif.com/" style="fill-rule:evenodd;clip-rule:evenodd;stroke-linejoin:round;"><path id="gd1854" d="M1234.62,415.935c0,-0 -35.75,-9.846 -54.607,-11.768c-130.609,-17.667 -261.163,-35.722 -391.667,-54.167c-2.421,-3.719 -3.812,-7.886 -4.167,-12.5c10.775,-50.438 18.413,-101.133 22.917,-152.083c-8.496,-9.894 -18.217,-18.227 -29.167,-25c-4.862,-9.722 -9.72,-19.445 -14.583,-29.167c-39.687,-46.543 -82.05,-49.32 -127.083,-8.333c-9.992,-9.632 -20.409,-18.66 -31.25,-27.084c-25.075,-4.115 -49.379,-2.031 -72.917,6.25c-19.117,-12.682 -37.867,-25.876 -56.25,-39.583c-21.515,-7.589 -38.182,-21.478 -50,-41.667c-9.261,-2.359 -17.594,-5.831 -25,-10.416l-12.5,-0c-13.314,3.067 -27.203,5.844 -41.667,8.333c-2.852,16.443 -2.852,33.109 0,50c-15.954,-6.223 -31.926,-13.167 -47.916,-20.833c-50.594,13.767 -101.984,24.878 -154.167,33.333c-12.677,-4.357 -25.177,-2.968 -37.5,4.167c-9.467,-13.343 -21.272,-20.287 -35.417,-20.834l-8.143,3.177l-3.248,5.701l-20.75,-5.816l-8.417,4.216l-17.483,20.109l-3.225,16.208l117.75,73.142l115.441,71.85l116.75,69.583l118.034,67.333l62.258,38.517l8.1,1.617l162.392,26.433l140.35,22.892l-0.034,-0.017l11.667,0.642l117.333,15.775l12.567,-80.067l161.417,22.867l101.133,12.55l-11.033,-12.309l-7.569,-27.665l-2.349,4.614Z"/></svg>