<?xml version="1.0" encoding="UTF-8" standalone="no"?><!DOCTYPE svg PUBLIC "-//W3C//DTD SVG 1.1//EN" "http://www.w3.org/Graphics/SVG/1.1/DTD/svg11.dtd"><svg fill="#a2a2a2" stroke="#fff" fill-rule="nonzero" stroke-width="20.83px" width="100%" height="100%" viewBox="0 0 1634 838" version="1.1" xmlns="http://www.w3.org/2000/svg" xmlns:xlink="http://www.w3.org/1999/xlink" xml:space="preserve" xmlnsSerif="http://www.serif.com/" style="fill-rule:evenodd;clip-rule:evenodd;stroke-linejoin:round;"><path id="ga1776" d="M1575.38,619.783l8.417,-25.283l-9.4,0.658l-5.817,20.75l6.808,3.884l-0.008,-0.009Zm-745.25,-560.333l-165.925,16.667l-116.342,8.85l-99.816,6.241l0.916,3.575l-159.75,11.159l-156.208,10.183l7.467,13.283l-12.309,11.034l-16.833,8.441l1.633,12.959l-14.258,3.9l-4.525,18.475l2.925,10.691l-1.592,29.167l-33.033,26.283l-5.5,14.917l-12.308,11.033l10.058,8.742l-2.908,10.375l-26.242,9.1l8.758,11.008l-5.175,9.075l5.2,11.984l-21.05,21.083l7.467,13.283l-10.358,18.159l14.591,11.333l-0.958,17.5l-6.475,11.35l12.325,10.033l1.317,18.8l-9.717,6.492l1.317,18.8l14.275,17.167l-6.475,11.35l-3.225,16.208l9.083,5.175l-10.033,12.325l0.658,9.4l11.033,12.308l1.317,18.8l9.79,6.627l31.508,-3.663l86.09,-6.126l108.613,-7.232l88.729,-7.582l181.214,-11.752l154.772,-14.121l280.023,-22.651l-0.384,-1.839l2.37,13.289l12.325,10.034l-17.167,14.275l-2.908,10.375l0.992,24.633l-10.017,33.417l8.125,22.683l9.733,14.575l3.9,14.258l-3.85,48.942l2.609,16.525l15.566,14.892l2.609,16.525l10.708,18.141l8.125,22.684l9.083,5.175l104.359,-3.659l99.816,-6.241l88.15,-6.884l122.175,-8.533l9.1,26.242l7.784,7.45l17.825,-4.875l0.941,-38.567l-8.758,-11.008l-0.333,-15.234l9.058,-15.891l9.4,-0.659l34.683,7.75l32.734,0.617l-9.1,-26.242l-0.017,-21.066l12.308,-11.034l-10.075,-29.808l11.35,6.475l14.242,-24.967l-11.35,-6.475l-8.442,-16.833l5.159,-30.142l13.266,-28.533l18.459,-16.542l-4.875,-17.825l13.941,1.934l19.1,-28.217l-9.083,-5.175l0.008,-0.017l-20.75,-5.816l-9.4,0.658l-14.275,-17.167l-1.316,-18.8l-6.492,-9.716l-8.125,-22.684l-7.783,-7.45l-28.534,-13.266l-2.291,-22.359l-8.442,-16.833l-11.033,-12.308l-7.15,-19.117l-38.909,-16.175l-11.033,-12.308l-3.9,-14.259l-17.183,-6.791l-1.317,-18.8l-19.133,-13.917l-25.284,-8.417l-11.683,-21.708l-19.133,-13.917l-35.342,-17.15l-6.175,-15.55l-24.65,-20.075l-7.15,-19.116l-9.733,-14.575l-7.467,-13.284l-23.333,-1.275l-19.134,-13.916l-30.8,-14.559l-5.516,-6.15l2.25,-19.775l20.075,-24.65l4.2,-12.641l-99.159,15.641l-77.775,9.792l-81.341,10.767l-109.534,12.733l0.042,0.1Z"/></svg>