<?xml version="1.0" encoding="UTF-8" standalone="no"?><!DOCTYPE svg PUBLIC "-//W3C//DTD SVG 1.1//EN" "http://www.w3.org/Graphics/SVG/1.1/DTD/svg11.dtd"><svg fill="#a2a2a2" stroke="#fff" fill-rule="nonzero" stroke-width="20.83px" width="100%" height="100%" viewBox="0 0 814 838" version="1.1" xmlns="http://www.w3.org/2000/svg" xmlns:xlink="http://www.w3.org/1999/xlink" xml:space="preserve" xmlnsSerif="http://www.serif.com/" style="fill-rule:evenodd;clip-rule:evenodd;stroke-linejoin:round;"><path id="ga1802" d="M755.708,619.783l8.417,-25.283l-9.4,0.658l-5.817,20.75l6.809,3.884l-0.009,-0.009Zm38.459,-125.5l-20.75,-5.816l-9.4,0.658l-14.275,-17.167l-1.317,-18.8l-6.492,-9.716l-8.125,-22.684l-7.783,-7.45l-28.533,-13.266l-2.292,-22.359l-8.442,-16.833l-11.033,-12.308l-7.15,-19.117l-38.908,-16.175l-11.034,-12.308l-3.9,-14.259l-17.183,-6.791l-1.317,-18.8l-19.133,-13.917l-25.283,-8.417l-11.684,-21.708l-19.133,-13.917l-35.342,-17.15l-6.175,-15.55l-24.65,-20.075l-7.15,-19.116l-9.733,-14.575l-7.467,-13.284l-23.333,-1.275l-19.133,-13.916l-30.8,-14.559l-5.517,-6.15l2.25,-19.775l20.075,-24.65l4.2,-12.641l-99.158,15.641l-77.775,9.792l-81.342,10.767l-109.533,12.733l11.708,42.767l24.7,83.275l27.308,99.8l39.334,136.733l8.125,22.683l5.516,6.15l11.367,27.542l14.275,17.167l6.175,15.55l3.583,20.091l12.325,10.034l-17.166,14.275l-2.909,10.375l0.992,24.633l-10.017,33.417l8.125,22.683l9.734,14.575l3.9,14.258l-3.85,48.942l2.608,16.525l15.567,14.892l2.608,16.525l10.708,18.141l8.125,22.684l9.084,5.175l104.358,-3.659l99.817,-6.241l88.15,-6.884l122.175,-8.533l9.1,26.242l7.783,7.45l17.825,-4.875l0.942,-38.567l-8.759,-11.008l-0.333,-15.234l9.058,-15.891l9.4,-0.659l34.684,7.75l32.733,0.617l-9.1,-26.242l-0.017,-21.066l12.309,-11.034l-10.075,-29.808l11.35,6.475l14.241,-24.967l-11.35,-6.475l-8.441,-16.833l5.158,-30.142l13.267,-28.533l18.458,-16.542l-4.875,-17.825l13.942,1.934l19.1,-28.217l-9.084,-5.175l0.009,-0.017Z"/></svg>