<?xml version="1.0" encoding="UTF-8" standalone="no"?><!DOCTYPE svg PUBLIC "-//W3C//DTD SVG 1.1//EN" "http://www.w3.org/Graphics/SVG/1.1/DTD/svg11.dtd"><svg fill="#a2a2a2" stroke="#fff" fill-rule="nonzero" stroke-width="20.83px" width="100%" height="100%" viewBox="0 0 2193 2929" version="1.1" xmlns="http://www.w3.org/2000/svg" xmlns:xlink="http://www.w3.org/1999/xlink" xml:space="preserve" xmlnsSerif="http://www.serif.com/" style="fill-rule:evenodd;clip-rule:evenodd;stroke-linejoin:round;"><path id="or1819" d="M2157.16,2660.2c-0.332,-0.827 -0.969,-6.603 -2.741,-9.742c7.875,-7.933 17.6,-12.791 29.167,-14.583c4.641,-5.096 5.337,-10.65 2.083,-16.667c-10.713,-3.754 -20.433,-9.308 -29.167,-16.666c-6.879,-22.059 -15.908,-42.892 -27.083,-62.5c-16.396,-3.2 -26.813,-12.921 -31.25,-29.167c-7.271,6.067 -14.908,11.621 -22.917,16.667c-12.629,-19.746 -27.212,-37.8 -43.75,-54.167c-2.779,-8.333 -5.554,-16.667 -8.333,-25c-10.325,-4.583 -17.963,-1.113 -22.917,10.417c6.438,7.658 5.046,12.52 -4.166,14.583c-13.425,-5.025 -26.617,-5.025 -39.584,-0c-3.471,-3.471 -6.946,-6.946 -10.416,-10.417c-18.117,4.509 -34.784,1.034 -50,-10.416c-5.555,5.554 -11.113,11.112 -16.667,16.666c-13.558,-6.371 -27.446,-11.925 -41.667,-16.666c-9.4,3.837 -13.566,10.783 -12.5,20.833c-4.383,0.621 -8.55,-0.071 -12.5,-2.083c-3.471,-6.25 -8.333,-11.113 -14.583,-14.584c-4.55,-21.183 -7.329,-42.016 -8.333,-62.5c-6.213,-6.266 -13.85,-9.737 -22.917,-10.416c-16.171,-13.55 -18.95,-28.83 -8.333,-45.834c-17.33,-31.15 -27.05,-64.483 -29.167,-100c0.604,-3.216 1.992,-5.996 4.167,-8.333c-16.438,-12.488 -17.825,-24.988 -4.167,-37.5c15.621,-2.95 30.9,-7.117 45.833,-12.5c4.142,-4.115 15.678,-12.495 15.678,-12.495l4.7,-3.244c0,-0 45.857,-11.331 71.289,3.239c2.296,5.825 3.683,11.383 4.167,16.667c16.779,8.983 32.058,18.704 45.833,29.166c2.654,-9.346 4.042,-19.066 4.167,-29.166c-0.405,-16.813 -2.488,-32.784 -6.25,-47.917c1.937,-5.963 5.412,-10.821 10.416,-14.583c9.95,-1.263 18.979,-4.738 27.084,-10.417c4,-13.054 7.47,-26.25 10.416,-39.583c-9.429,-6.942 -17.762,-15.275 -25,-25c4.05,-8.796 7.521,-17.825 10.417,-27.084c10.025,-4.437 19.054,-9.991 27.083,-16.666c-19.691,-24.567 -41.912,-47.484 -66.666,-68.75c2.887,-11.255 -1.28,-20.284 -12.5,-27.084c-3.134,-14.962 -4.521,-29.546 -4.167,-43.75c13.283,-8.058 19.533,-19.866 18.75,-35.416c7.417,-4.558 15.058,-8.724 22.917,-12.5c-2.146,-7.188 -4.925,-14.133 -8.334,-20.834c-9.387,-3.138 -17.029,-8.693 -22.916,-16.666c-0.955,-12.324 -5.817,-22.74 -14.584,-31.25c2.779,-2.778 5.554,-5.556 8.334,-8.334c-9.65,-9.604 -15.209,-21.41 -16.667,-35.416c-8.808,-2.225 -16.45,-6.392 -22.917,-12.5c0.896,-13.796 0.896,-27.685 0,-41.667c-8.504,-3.846 -17.533,-5.235 -27.083,-4.167c0.996,-8.196 -0.392,-15.835 -4.167,-22.916l0.884,-13.9l10.838,2.113l3.797,-9.38l-10.304,-10.373l-5.57,-18.81l-16.896,-7.58l-6.486,-25.389l-11.215,-17.892l8.544,-21.575l-18.762,-11.344l7.551,-7.487l13.26,-25.314l-2.739,-21.618l7.583,-15.941l-3.662,-26.319l2.989,-44.142l-7.479,-11.301l-10.222,-31.98l-10.318,-6.615l-12.241,4.65l-10.272,-18.827l0.068,-17.849l-18.744,-16.042l-2.693,-33.83l-17.765,-26.372l-20.629,-15.109l1.934,-14.084l-19.667,-20.743l-4.644,-15.048l3.811,-13.138l-8.423,-10.366l-6.496,-22.571l-8.427,-9.426l-5.517,-32.901l-8.462,-0.033l-15.098,14.035l-8.444,-4.73l-3.618,-37.591l-19.632,-30.136l-7.451,-18.817l-24.429,-4.79l-14.98,-16.967l-3.696,-16.924l11.308,-6.533l0.994,-14.088l-13.136,-7.565l-8.412,-13.184l-12.273,13.105l-17.872,1.811l2.91,-23.475l-6.479,-27.268l7.551,-7.487l-5.528,-30.083l-6.521,-15.995l-11.287,0.897l0.1,-26.304l-12.087,-35.745l-15.942,-11.334l-5.699,15.01l-23.431,-19.817l-4.588,-30.08l-23.467,-10.423l-14.061,-11.326l-2.749,-18.8l-7.505,-4.725l3.826,-16.896l15.959,6.637l-0.865,-19.731l-11.262,-5.68l-0.83,-29.125l56.751,-209.311c-348.393,-86.834 -531.413,-146.263 -1031.62,-336.447l-17.905,10.266l-17.961,25.297l-21.644,4.615l-1.927,12.205l-10.35,1.839l-18.948,37.506l19.724,5.711l-1.951,18.782l-8.491,7.483l13.106,15.081l-14.246,37.523l13.003,42.324l28.827,84.659l13.181,-4.647l14.226,-31.887l17.907,-11.205l32.945,-9.269l17.908,-11.206l-1.015,19.725l-12.238,3.711l-10.421,20.628l-2.892,18.778l-22.588,5.551l3.725,9.408l-8.555,24.393l11.183,26.347l12.16,16.956l-10.532,49.75l1.844,9.401l15.005,10.391l16.936,-2.754l-4.766,16.892l-24.557,29.029l-4.769,17.831l-16.02,9.334l6.528,14.116l27.371,-27.139l-2.942,31.929l16.832,24.49l39.512,-5.487l7.555,-8.426l27.264,1.043l0.861,20.671l-20.746,15.891l-48.003,12.97l-13.246,21.557l-19.742,-1.015l-11.344,15.928l-7.618,25.336l3.704,15.045l-1.048,28.179l12.22,0.986l18.898,-24.354l0.057,-15.031l19.689,15.106l32.888,5.762l40.349,21.76l-1.895,3.75l-34.726,-17.041l-30.996,-8.573l-26.342,3.658l-10.414,18.749l-16.957,8.39l-5.681,10.313l16.886,10.398l-35.744,3.622l-2.864,11.262l11.215,17.892l15.978,1.939l-10.414,18.75l7.465,15.059l27.174,24.529l9.357,12.248l25.444,-14.935l16.853,18.853l12.227,-0.893l4.63,18.806l13.171,-1.828l22.538,7.601l-0.079,20.667l13.121,11.323l-6.607,6.551l-23.492,-3.847l0.887,14.095l-12.263,10.287l30.972,15.149l16.002,-4.637l9.32,21.643l21.612,3.84l16.936,-2.754l25.308,20.763l0.858,21.611l12.22,0.986l28.158,13.259l5.57,18.81l-30.256,44.038l26.156,45.193l27.243,6.679l16.95,-6.512l10.289,14.131l-13.185,5.587l-10.407,16.87l5.556,22.567l39.348,37.727l11.301,-4.654l2.878,-15.02l31.99,-5.515l-18.082,57.237l5.599,11.294l-9.46,14.995l27.2,17.953l10.025,19.771l-0.05,0.05l-8.083,19.45l9.1,26.242l12.642,4.2l0.358,36.3l-9.717,6.491l-11.966,26.259l12.008,15.866l-4.183,33.709l12.658,25.25l-19.117,7.15l-17.8,25.941l-0.641,11.667l-7.767,13.617l-5.475,35.983l1.633,12.958l-20.725,15.25l-9.083,-5.175l-8.742,10.059l-24.291,16.225l-3.9,-14.259l-15.234,0.334l-5.2,-11.984l11.334,-14.591l11.983,-5.2l-1.275,23.333l19.433,-12.983l14.259,-3.9l16.833,-29.509l-6.175,-15.55l2.25,-19.775l23.658,-4.558l0.3,-26.9l-6.808,-3.883l-25.908,24.333l-8.742,10.058l-24.95,6.825l22.658,-29.191l12.642,4.2l12.308,-11.034l1.934,-13.941l-4.242,-29.492l2.908,-10.375l-28.191,1.967l-9.734,-14.575l-18.8,1.316l-36.633,-14.875l-12.325,-10.033l-38.908,-16.175l-17.517,-22.025l-18.158,-10.358l-15.25,-20.725l-14.259,3.9l-16.508,23.675l0.333,15.233l-4.183,33.708l12.658,25.25l3.9,14.259l-3.208,37.275l-6.45,32.416l5.533,27.217l-7.75,34.683l17.184,6.792l-1.617,8.1l13.3,13.6l-22.358,2.292l-10.034,12.325l-2.908,10.375l20.425,11.65l-13.242,49.6l-26.241,9.1l11.683,21.708l-9.742,6.492l-1.275,23.333l-4.525,18.475l-10.691,2.925l0.333,15.233l-10.358,18.159l3.583,20.091l-10.033,12.325l-8.084,19.45l4.217,8.417l-12.308,11.033l0.658,9.4l-8.417,25.284l-24.591,43.125l-5.175,9.083l-12.609,37.933l-52.4,123.525l-10.358,18.159l-31.067,54.475l-6.475,11.35l-11.666,-0.642l-26.209,51.233l-21.366,26.917l-2.25,19.775l8.441,16.833l-4.525,18.475l-6.475,11.35l-9.7,27.559l0.017,21.066l-4.525,18.475l12.658,25.25l-0.033,0.017l-9.7,27.558l-8.742,10.059l11.034,12.308l-0.117,1.434c5.961,7.367 12.905,10.145 20.833,8.333c70.769,-2.694 140.213,-10.333 208.334,-22.917c16.876,-13.987 36.32,-20.931 58.333,-20.833c21.55,-20.163 41.689,-41.69 60.417,-64.583c4.561,-16.187 9.422,-32.16 14.583,-47.917c15.853,-2.226 31.131,-6.393 45.833,-12.5c40.517,-7.658 78.017,-0.714 112.5,20.833c10.204,32.973 32.429,51.028 66.667,54.167c12.033,13.423 22.45,28.007 31.25,43.75c15.15,10.278 29.733,21.389 43.75,33.333c24.267,62.57 70.1,96.598 137.5,102.084c20.571,16.342 41.404,32.314 62.5,47.916c18.012,18.718 35.375,38.162 52.083,58.334c7.488,22.276 14.434,44.5 20.834,66.666c11.987,30.017 31.429,53.625 58.333,70.834c8.329,25.146 24.3,31.396 47.917,18.75c13.5,-12.613 27.387,-24.421 41.666,-35.417c9.588,5.654 17.921,13.292 25,22.917c11.113,2.779 22.221,2.779 33.334,-0c6.775,-9.563 15.804,-15.813 27.083,-18.75c19.158,3.679 36.521,11.316 52.083,22.916c32.559,4.246 64.504,2.163 95.834,-6.25c27.641,6.605 54.725,5.217 81.25,-4.166c4.766,1.712 9.629,3.1 14.583,4.166c23.333,-13.729 48.333,-24.145 75,-31.25c14.158,-18.25 32.217,-32.137 54.167,-41.666c9.975,-14.209 23.17,-23.238 39.583,-27.084c3.471,6.25 8.333,11.113 14.583,14.584c20.171,3.204 39.613,1.121 58.334,-6.25c-0.913,-4.896 0.475,-9.063 4.166,-12.5c10.313,-7.627 21.421,-13.182 33.334,-16.667c11.033,1.947 20.754,6.808 29.166,14.583c8.334,13.888 19.446,25 33.334,33.334c58.016,23.737 89.266,4.987 93.75,-56.25c14.508,-26.417 26.312,-54.195 35.416,-83.334c11.113,-8.333 20.834,-18.055 29.167,-29.166c-0,-0 2.963,0.42 2.741,-0.134Zm-1427.75,-1319.82l-0.046,12.212l8.412,13.184l-17.89,6.508l-1.791,-23.493l11.315,-8.411Zm-271.115,-164.492l-17.843,-5.705l5.709,-17.827l12.224,0.046l-0.09,23.486Zm220.98,-3.858l10.236,28.222l-4.72,4.679l-22.473,-24.511l-5.527,-30.083l22.484,21.693Zm-261.87,-123.121l5.564,20.688l-5.731,23.464l-9.417,3.722l-11.244,-10.376l-8.402,-16.002l7.579,-15.003l-4.655,-12.23l25.388,0.096l0.918,5.641Zm208.592,39.309l-2.742,-20.678l15.999,-3.697l-1.015,19.724l-12.242,4.651Zm-21.611,-3.84l-10.229,-30.101l2.892,-18.778l9.428,-6.54l8.405,15.063l-10.404,15.931l-0.092,24.425Zm-70.822,-168.428l-16.027,11.212l-30.957,-18.906l28.254,-12.106l15.041,0.997l3.689,18.803Zm-178.314,-88.985l34.668,32.073l7.465,15.059l16.836,23.55l43.138,30.226l29.995,24.539l11.276,1.922l25.33,15.127l14.044,16.024l21.568,15.113l17.851,3.825l14.047,15.085l-2.02,36.63l8.374,23.518l-0.068,17.849l21.451,46.114l-9.467,16.874l4.584,31.018l7.508,3.787l14.962,21.664l20.646,10.412l19.685,16.045l6.528,14.116l12.195,7.562l-1.941,15.963l12.191,8.501l1.82,15.978l-5.673,8.433l13.038,32.93l-4.844,37.559l16.897,7.58l2.688,34.769l-11.304,5.594l-6.539,-11.298l-20.75,16.831l-12.216,-1.926l-11.234,-13.194l-13.146,-4.747l-48.722,-45.278l-29.073,-19.839l-13.092,-18.838l-27.175,-24.529l-6.521,-15.995l26.366,-10.234l9.456,-14.056l-19.713,-8.529l-11.301,4.654l-14.061,-11.327l-18.834,7.444l-11.23,-14.134l-8.391,-18.821l11.366,-21.563l-9.325,-20.704l-15.991,1.819l-4.584,-31.019l5.677,-9.373l-26.323,-1.039l-15.012,-8.512l-14.115,2.764l-4.669,-8.472l11.397,-30.019l15.999,-3.697l0.994,-14.088l-13.132,-8.505l5.759,-30.979l-12.195,-7.562l-23.513,1.79l-21.594,-8.537l-4.637,-16.928l15.119,-19.671l-24.443,-1.032l-7.44,-21.635l-15.03,-3.815l0.043,-11.273l-21.666,10.251l-8.409,-14.123l18.848,-11.202l-3.675,-22.56l-10.329,-3.797l14.179,-19.674l36.635,9.533l4.747,-12.195l-31.976,1.758l-26.316,-2.918l-12.149,-19.775l-6.514,-17.874l2.006,-32.872l41.378,-1.722l21.598,7.597Zm39.89,-105.065l-11.308,6.533l-11.219,-16.952l1.984,-27.237l21.669,-11.191l1.781,26.311l-2.907,22.536Zm27.671,-106.051l-2.874,14.08l-18.887,21.536l-4.755,14.073l-12.22,-0.986l7.597,-19.699l-2.746,-19.739l11.33,-12.169l22.555,2.904Zm16.982,-14.967l-12.266,11.227l-15.956,-7.576l10.378,-9.355l17.844,5.704Zm-46.123,12.977l-2.749,-18.799l11.326,-11.23l8.451,2.85l-5.702,15.949l-11.326,11.23Zm7.676,-40.367l-10.407,16.871l-21.577,-13.234l13.207,-11.223l18.777,7.586Zm37.603,2.022l-1.012,18.785l-18.791,-3.829l-0.897,-11.277l11.315,-8.412l9.385,4.733Zm61.006,29.354l-26.345,4.597l-11.308,6.534l-14.182,20.613l-23.514,1.79l9.488,-22.511l13.228,-16.859l40.467,-9.241l15.08,-9.337l21.626,0.082l-1.938,15.024l-22.602,9.308Zm-125.656,-89.723l-0.075,19.727l-16.006,5.576l6.682,-26.279l9.399,0.976Zm24.504,-14.938l-1.962,21.599l-10.368,6.537l-15.903,-21.668l6.636,-14.066l21.597,7.598Zm-320.995,-152.469l20.639,12.291l-7.561,10.305l-15.938,-12.273l2.86,-10.323Zm321.768,196.625l3.868,-28.168l12.366,-37.531l10.289,14.131l-7.647,32.851l-18.876,18.717Zm-50.453,-84.741l7.433,23.514l-5.692,13.131l-14.086,-4.751l-6.496,-22.571l-1.774,-28.19l7.562,-10.305l13.053,29.172Zm78.8,48.211l3.875,-30.048l11.251,8.498l-15.126,21.55Zm-86.924,-137.488l4.63,18.806l-12.245,5.59l-0.854,-22.55l8.469,-1.846Zm-239.314,-120.218l-5.702,15.949l7.497,6.605l2.746,19.738l-10.428,22.507l-11.301,4.654l-16.904,-5.7l-8.558,25.332l9.367,9.43l-3.876,30.047l19.65,25.44l-2.939,30.99l21.608,4.779l-0.075,19.728l-16.971,12.148l-16.839,-22.61l-11.044,-62.984l-14.015,-23.54l-0.883,-15.034l-13.064,-26.354l-7.365,-41.363l20.661,6.655l-2.76,-15.981l-28.151,-15.138l4.78,-20.65l15.945,10.395l33.817,8.583l22.592,-6.49l12.212,2.864Zm323.831,148.722l-1.044,27.24l-10.461,30.961l-23.649,37.488l-15.966,-4.758l10.435,-24.386l20.779,-24.346l-10.325,-4.736l-15.162,30.943l-18.82,3.687l-9.338,-16.946l0.15,-39.455l4.758,-15.013l15.073,-7.459l15.183,-36.58l17.833,8.523l6.518,16.934l14.036,17.903Zm-58.254,-11.495l-17.818,-12.28l6.642,-15.945l20.725,-10.255l-9.549,38.48Zm39.62,-33.669l-22.556,-2.904l0.036,-9.394l24.539,-24.332l2.721,26.314l-4.74,10.316Zm-121.885,-92.528l19.632,30.137l8.276,48.882l-4.744,11.255l-19.713,-8.529l-5.524,-31.023l-9.335,-17.885l-8.444,-4.729l-4.598,-27.261l-6.539,-11.298l9.449,-12.177l21.54,22.628Zm142.727,51.272l-11.272,-2.861l-29.209,15.859l13.278,-30.011l14.129,-6.523l25.376,2.915l-12.302,20.621Zm-126.739,-52.15l-15.026,-4.755l-10.261,-21.646l16.953,-7.451l12.163,16.017l-3.829,17.835Zm40.421,2.971l3.697,16.924l19.538,54.562l-34.85,15.838l-2.742,-20.678l-9.339,-16.945l2.878,-15.02l-1.77,-29.13l-11.279,-0.982l1.976,-25.357l-9.374,-7.551l4.748,-12.195l-6.543,-10.359l15.084,-10.276l12.152,18.835l13.057,28.232l2.767,14.102Zm-27.901,-80.897l-2.878,15.02l-18.852,12.141l-14.025,-20.721l-8.391,-18.82l36.695,-6.437l7.451,18.817Zm-267.44,-141.931l19.685,16.045l19.706,10.409l-2.877,15.02l30.095,-1.765l6.478,27.268l-4.779,20.65l-19.792,12.137l-15.034,-2.875l-19.76,3.683l10.283,16.009l26.327,0.1l1.934,-14.084l20.746,-15.892l4.802,-26.286l22.534,8.541l26.349,-5.537l-6.668,22.521l-33.96,28.994l-26.488,42.174l-7.636,30.033l-17.915,13.084l-24.425,-5.729l-4.723,5.618l-26.317,-2.918l-4.63,-18.806l-13.081,-21.657l8.491,-7.483l18.769,9.465l4.734,-8.437l-33.711,-36.766l11.341,-14.988l-5.417,-59.205l21.704,-20.585l0.047,-12.212l13.188,-6.526Zm260.392,16.959l-7.561,10.305l-25.423,9.298l17.032,-28.119l15.952,8.516Zm46.119,-12.038l-1.83,-13.159l30.149,-15.856l11.269,3.801l-19.814,17.774l-19.774,7.44Zm52.734,-20.467l15.119,-19.671"/></svg>