<?xml version="1.0" encoding="UTF-8" standalone="no"?><!DOCTYPE svg PUBLIC "-//W3C//DTD SVG 1.1//EN" "http://www.w3.org/Graphics/SVG/1.1/DTD/svg11.dtd"><svg fill="#a2a2a2" stroke="#fff" fill-rule="nonzero" stroke-width="20.83px" width="100%" height="100%" viewBox="0 0 2060 1213" version="1.1" xmlns="http://www.w3.org/2000/svg" xmlns:xlink="http://www.w3.org/1999/xlink" xml:space="preserve" xmlnsSerif="http://www.serif.com/" style="fill-rule:evenodd;clip-rule:evenodd;stroke-linejoin:round;"><path id="or1853" d="M965.517,997.067c299.87,67.341 904.166,179.166 914.866,178.941l147.763,26.227c-0,0 -1.611,-0.918 10.914,-9.335c2.683,-15.504 6.155,-30.779 10.417,-45.833c-2.493,-5.396 -4.576,-10.95 -6.25,-16.667c-11.22,-8.637 -21.636,-17.667 -31.25,-27.083c10.245,-11.446 13.717,-24.642 10.417,-39.584c-12.477,-13.833 -22.894,-29.112 -31.25,-45.833l-0.29,-4.49l-12.837,-14.26c-9.784,-14.175 -12.559,-29.45 -8.334,-45.833c-8.954,-4.85 -17.979,-9.709 -27.083,-14.584c-4.208,-16.362 -9.067,-32.337 -14.583,-47.916c3.658,-7.413 3.658,-14.354 -0,-20.834c7.875,-7.933 17.6,-12.791 29.166,-14.583c4.642,-5.096 5.338,-10.65 2.084,-16.667c-10.713,-3.754 -20.434,-9.308 -29.167,-16.666c-6.879,-22.059 -15.908,-42.892 -27.083,-62.5c-16.396,-3.2 -26.813,-12.921 -31.25,-29.167c-7.271,6.067 -14.909,11.621 -22.917,16.667c-12.629,-19.746 -27.212,-37.8 -43.75,-54.167c-2.779,-8.333 -5.554,-16.667 -8.333,-25c-10.325,-4.583 -17.963,-1.112 -22.917,10.417c6.437,7.658 5.046,12.521 -4.167,14.583c-13.425,-5.025 -26.616,-5.025 -39.583,0c-3.471,-3.471 -6.946,-6.946 -10.417,-10.417c-18.116,4.509 -34.783,1.034 -50,-10.416c-5.554,5.554 -11.112,11.112 -16.666,16.666c-13.559,-6.37 -27.446,-11.925 -41.667,-16.666c-9.4,3.837 -13.567,10.783 -12.5,20.833c-4.383,0.621 -8.55,-0.071 -12.5,-2.083c-3.471,-6.25 -8.333,-11.113 -14.583,-14.584c-4.55,-21.183 -7.33,-42.016 -8.334,-62.5c-6.212,-6.266 -13.85,-9.737 -22.916,-10.416c-16.171,-13.55 -18.95,-28.829 -8.334,-45.834c-17.329,-31.15 -27.05,-64.483 -29.166,-100c0.604,-3.216 1.991,-5.995 4.166,-8.333c-16.437,-12.487 -17.825,-24.987 -4.166,-37.5c15.62,-2.95 30.9,-7.117 45.833,-12.5c4.142,-4.115 15.678,-12.495 15.678,-12.495l-1.878,-6.03l-183.483,-41.867l-208.748,-45.028l-153.777,-36.422l-133.917,-34.241l-13.283,7.466l-31.125,-8.725l-31.442,-2.891l-9.717,6.491l-35.983,-5.475l-25.925,3.267l-15.55,6.175l-31.442,-2.892l-15.891,-9.058l-7.125,1.95l-31.759,2.942l-17.183,-6.792l-12.958,1.633l-12.984,-19.433l-34.366,-13.583l-28.85,-7.425l-24.95,6.825l-41.159,3.6l-30.483,-20.392l-14.917,-5.5l-6.491,-9.717l7.733,-55.75l-5.533,-27.216l-18.817,-19.75l-10.375,-2.909l0.117,0.075l-8.417,4.217l-17.183,-6.792l-9.417,-20.408l-15.55,6.175l-32.417,-6.45l-11.033,-12.308l-1.275,23.333l-4.525,18.475l-10.692,2.925l0.334,15.233l-10.359,18.159l3.584,20.091l-10.034,12.325l-8.083,19.45l4.217,8.417l-12.309,11.033l0.659,9.4l-8.417,25.284l-24.592,43.125l-5.175,9.083l-12.608,37.933l-52.4,123.525l-10.358,18.159l-31.067,54.475l-6.475,11.35l-11.667,-0.642l-26.208,51.233l-21.367,26.917l-2.25,19.775l8.442,16.833l-4.525,18.475l-6.475,11.35l-9.7,27.559l0.017,21.066l-4.525,18.475l12.658,25.25l103.417,34.917l102.441,31.35l66.75,20.033l102.442,31.35l68.075,17.767l101.467,27.783l72.616,20.359l99.2,26.491l96.925,25.167l121.242,30.033l7.867,3.334Z"/></svg>