<?xml version="1.0" encoding="UTF-8" standalone="no"?><!DOCTYPE svg PUBLIC "-//W3C//DTD SVG 1.1//EN" "http://www.w3.org/Graphics/SVG/1.1/DTD/svg11.dtd"><svg fill="#a2a2a2" stroke="#fff" fill-rule="nonzero" stroke-width="20.83px" width="100%" height="100%" viewBox="0 0 2304 850" version="1.1" xmlns="http://www.w3.org/2000/svg" xmlns:xlink="http://www.w3.org/1999/xlink" xml:space="preserve" xmlnsSerif="http://www.serif.com/" style="fill-rule:evenodd;clip-rule:evenodd;stroke-linejoin:round;stroke-miterlimit:2;"><path id="ar1819" d="M47.844,22.917c0.621,4.383 -0.071,8.55 -2.083,12.5c-10.283,13.416 -21.396,25.916 -33.333,37.5c-3.255,6.016 -2.559,11.57 2.083,16.666c9.817,9.125 20.233,17.459 31.25,25c6.517,48.796 32.212,82.129 77.083,100c28.192,30.096 61.525,53.013 100,68.75c11.113,1.388 22.221,2.779 33.334,4.167c47.433,21.642 93.266,46.642 137.5,75c26.358,3.054 52.75,5.829 79.166,8.333c51.025,34.546 105.192,63.713 162.5,87.5c18.371,11.946 35.038,25.838 50,41.667c31.425,15.571 64.759,22.517 100,20.833c18.459,8.7 37.9,14.254 58.334,16.667c29.1,3.467 58.266,6.246 87.5,8.333c27.141,12.359 54.92,23.471 83.333,33.334c121.279,2.6 236.558,28.987 345.833,79.166c42.1,38.409 90.709,64.8 145.834,79.167c18.895,17.233 38.341,33.9 58.333,50c33.95,16.279 67.283,33.642 100,52.083c-1.287,-37.708 -4.406,-88.038 -4.117,-121.725l137.092,-3.034l107.917,-4.633l83.291,-3.633l111.484,-5.609l-1.317,-18.8l9.717,-6.491l-1.317,-18.8l-12.325,-10.034l6.475,-11.35l0.958,-17.5l-14.591,-11.333l10.358,-18.158l-7.467,-13.284l21.05,-21.083l-5.2,-11.983l5.175,-9.075l-8.758,-11.009l26.242,-9.1l2.908,-10.375l-10.058,-8.741l12.308,-11.034l5.5,-14.916l33.033,-26.284l1.592,-29.166l-2.925,-10.692l4.525,-18.475l14.258,-3.9l-1.633,-12.958l16.833,-8.442l12.309,-11.033l-7.467,-13.284l11.008,-8.758l6.792,-17.183l10.375,2.908l1.933,-13.942l-6.175,-15.55l2.25,-19.775l10.034,-12.325l0.641,-11.666l15.55,-6.175l-6.491,-9.717l5.175,-9.083l-6.175,-15.55l23.975,-10.392l8.741,-10.058l-7.466,-13.284l12.958,-1.633l-9.733,-14.575l0.008,-0.017l-95.275,8.834l5.5,-14.917l16.508,-23.675l11.984,-5.2l7.766,-13.617l-0.333,-15.233l-13.958,-23l-130.284,6.917l-120.883,6.266l-159.417,5.325l-119.591,3.992l-120.567,0.425l-111.558,-1.808l-84.301,-2.13l-226.311,-4.421l-215.135,-7.603l-150.392,-3.092l-4.67,0.646c-8.333,7.901 -712.5,-44.218 -712.5,-54.166c0,-0 -1.266,3.716 -12.5,12.5Z"/></svg>