<?xml version="1.0" encoding="UTF-8" standalone="no"?><!DOCTYPE svg PUBLIC "-//W3C//DTD SVG 1.1//EN" "http://www.w3.org/Graphics/SVG/1.1/DTD/svg11.dtd"><svg fill="#a2a2a2" stroke="#fff" fill-rule="nonzero" stroke-width="20.83px" width="100%" height="100%" viewBox="0 0 1552 679" version="1.1" xmlns="http://www.w3.org/2000/svg" xmlns:xlink="http://www.w3.org/1999/xlink" xml:space="preserve" xmlnsSerif="http://www.serif.com/" style="fill-rule:evenodd;clip-rule:evenodd;stroke-linejoin:round;"><path id="ar1821" d="M838.317,553.175l15.566,14.892l13.284,-7.467l31.441,2.892l6.809,3.883l2.683,100.833c-72.469,-0.667 -144.938,-1.334 -217.407,-2.002l0.812,-153.888l15.487,2.149l13.283,-7.467l6.475,-11.35l27.242,15.533l10.375,2.909l16.541,18.458l18.475,4.525l33.075,15.85l5.834,0.317l0.025,-0.067Zm-131.325,-38.708l-27.875,-3.867l-8.759,-11.008l-26.566,14.933l-12.959,1.633l-11.35,-6.475l-16.833,8.442l-16.525,2.608l-6.475,11.35l-15.233,0.334l-6.475,11.35l-12.009,-15.867l-11.666,-0.642l-12.325,-10.033l-11.034,-12.308l-6.475,11.35l-24.308,-4.842l-9.733,-14.575l-23.634,25.625l-4.2,12.642l-9.4,0.658l-6.491,-9.717l5.5,-14.916l-5.517,-6.15l-25.25,12.658l-11.667,-0.642l-2.925,-10.691l-13.941,-1.934l-3.9,-14.258l-13.942,-1.933l-18.458,16.541l-11.984,5.2l-11.35,-6.475l1.934,-13.941l0.729,-0.652l-4.319,-0.899l-18.135,-7.833l-0.017,-21.066l-16.525,2.608l-20.75,-5.817l-10.033,12.325l-12.959,1.634l-12.008,-15.867l-22.358,2.292l-23.017,-7.109l-11.35,-6.475l-9.4,0.659l-26.583,-6.134l0.958,-17.5l-9.733,-14.575l-18.159,-10.358l-1.933,13.942l-23.017,-7.109l-20.091,3.584l-28.55,-34.334l-17.5,-0.958l9.468,-116.653l-3.906,-1.38l1.754,-37.217l4.652,-196.307l2.834,-4.03l150.392,3.092l215.136,7.603l226.311,4.421l84.3,2.129l111.559,1.809l120.566,-0.425l119.592,-3.992l159.417,-5.325l120.883,-6.267l130.283,-6.916l13.959,23l0.333,15.233l-7.767,13.617l-11.983,5.2l-16.508,23.675l-5.5,14.916l95.275,-8.833l-0.009,0.017l9.734,14.575l-12.959,1.633l7.467,13.283l-8.742,10.059l-23.975,10.391l6.175,15.55l-5.175,9.084l6.492,9.716l-15.55,6.175l-0.642,11.667l-10.033,12.325l-2.25,19.775l6.175,15.55l-1.933,13.942l-10.375,-2.909l-6.792,17.184l-11.008,8.758l7.466,13.283l-12.308,11.034l-16.833,8.441l1.633,12.959l-14.258,3.9l-4.525,18.475l2.925,10.691l-1.592,29.167l-33.033,26.283l-5.5,14.917l-12.309,11.033l10.059,8.742l-2.909,10.375l-26.241,9.1l8.758,11.008l-5.175,9.075l5.2,11.984l-21.05,21.083l7.467,13.283l-10.359,18.159l14.592,11.333l-0.958,17.5l-6.475,11.35l12.325,10.033l1.316,18.8l-9.716,6.492l1.316,18.8l-111.483,5.608l-83.292,3.634l-107.916,4.633l-137.092,3.033l-2.683,-100.833l-6.809,-3.883l-31.441,-2.892l-13.284,7.467l-15.566,-14.892l-0.025,0.067l-5.834,-0.317l-33.075,-15.85l-18.475,-4.525l-16.541,-18.458l-10.375,-2.909l-27.242,-15.533l-6.475,11.35l-13.283,7.467Z"/></svg>