<?xml version="1.0" encoding="UTF-8" standalone="no"?><!DOCTYPE svg PUBLIC "-//W3C//DTD SVG 1.1//EN" "http://www.w3.org/Graphics/SVG/1.1/DTD/svg11.dtd"><svg fill="#a2a2a2" stroke="#fff" fill-rule="nonzero" stroke-width="20.83px" width="100%" height="100%" viewBox="0 0 2389 1888" version="1.1" xmlns="http://www.w3.org/2000/svg" xmlns:xlink="http://www.w3.org/1999/xlink" xml:space="preserve" xmlnsSerif="http://www.serif.com/" style="fill-rule:evenodd;clip-rule:evenodd;stroke-linejoin:round;stroke-miterlimit:2;"><path id="ne1854" d="M798.59,1597.83l-3.248,-2.133c-11.75,-23.5 -23.555,-47.112 -35.416,-70.833c-5.873,-5.363 -12.123,-10.225 -18.75,-14.584c5.667,-8.075 4.278,-15.016 -4.167,-20.833c-25.088,-3.629 -50.088,-7.796 -75,-12.5c-8.171,-20.092 -20.671,-23.567 -37.5,-10.417c-14.649,-9.408 -29.926,-17.741 -45.833,-25c3.44,-3.962 4.134,-8.129 2.083,-12.5c-10.931,-18.345 -26.903,-25.287 -47.917,-20.833c2.753,-13.804 10.392,-24.917 22.917,-33.333c2.683,-15.504 6.155,-30.779 10.417,-45.834c-2.493,-5.395 -4.577,-10.95 -6.25,-16.666c-11.22,-8.638 -21.637,-17.667 -31.25,-27.084c10.244,-11.445 13.716,-24.641 10.416,-39.583c-12.477,-13.833 -22.893,-29.112 -31.25,-45.833l-0.289,-4.491l-25.338,-8.009c5.155,-0.234 9.321,-2.317 12.5,-6.25c-9.783,-14.175 -12.558,-29.45 -8.333,-45.834c-8.954,-4.85 -17.979,-9.708 -27.083,-14.583c-4.209,-16.362 -9.067,-32.337 -14.584,-47.917c3.659,-7.412 3.659,-14.354 0,-20.833c7.875,-7.933 17.6,-12.792 29.167,-14.583c4.642,-5.096 5.338,-10.65 2.083,-16.667c-10.712,-3.754 -20.433,-9.308 -29.166,-16.667c-6.879,-22.058 -15.909,-42.891 -27.084,-62.5c-16.395,-3.2 -26.812,-12.92 -31.25,-29.166c-7.27,6.066 -14.908,11.621 -22.916,16.666c-12.629,-19.745 -27.213,-37.8 -43.75,-54.166c-2.779,-8.334 -5.554,-16.667 -8.334,-25c-10.325,-4.584 -17.962,-1.113 -22.916,10.416c6.437,7.659 5.046,12.521 -4.167,14.584c-13.425,-5.025 -26.617,-5.025 -39.583,-0c-3.471,-3.471 -6.946,-6.946 -10.417,-10.417c-18.117,4.508 -34.783,1.033 -50,-10.417c-5.554,5.555 -11.112,11.113 -16.667,16.667c-13.558,-6.371 -27.445,-11.925 -41.666,-16.667c-9.4,3.838 -13.567,10.784 -12.5,20.834c-4.384,0.621 -8.55,-0.071 -12.5,-2.084c-3.471,-6.25 -8.334,-11.112 -14.584,-14.583c-4.55,-21.183 -7.329,-42.017 -8.333,-62.5c-6.212,-6.267 -13.85,-9.737 -22.917,-10.417c-16.17,-13.55 -18.95,-28.829 -8.333,-45.833c-17.329,-31.15 -27.05,-64.483 -29.167,-100c0.605,-3.217 1.992,-5.996 4.167,-8.333c-16.437,-12.488 -17.825,-24.988 -4.167,-37.5c15.621,-2.95 30.9,-7.117 45.834,-12.5c27.671,-27.492 58.225,-31.659 91.666,-12.5c2.296,5.825 3.684,11.383 4.167,16.666c16.779,8.984 32.058,18.705 45.833,29.167c2.655,-9.346 4.042,-19.067 4.167,-29.167c-0.404,-16.812 -2.487,-32.783 -6.25,-47.916c1.938,-5.963 5.413,-10.821 10.417,-14.584c9.95,-1.262 18.979,-4.737 27.083,-10.416c4,-13.054 7.471,-26.25 10.417,-39.584c-9.429,-6.941 -17.763,-15.275 -25,-25c4.05,-8.795 7.521,-17.825 10.416,-27.083c10.025,-4.437 19.055,-9.992 27.084,-16.667c-19.692,-24.566 -41.913,-47.483 -66.667,-68.75c2.888,-11.254 -1.279,-20.283 -12.5,-27.083c-3.133,-14.962 -4.521,-29.546 -4.167,-43.75c13.284,-8.058 19.534,-19.867 18.75,-35.417c7.417,-4.557 15.059,-8.723 22.917,-12.5c-2.146,-7.188 -4.925,-14.132 -8.333,-20.833c-9.388,-3.138 -17.029,-8.693 -22.917,-16.667c-0.954,-12.323 -5.817,-22.74 -14.583,-31.25c2.779,-2.778 5.554,-5.555 8.333,-8.333c-9.65,-9.605 -15.208,-21.41 -16.667,-35.417c-8.808,-2.224 -16.45,-6.391 -22.916,-12.5c0.896,-13.795 0.896,-27.684 -0,-41.666c-8.504,-3.847 -17.534,-5.235 -27.084,-4.167c0.996,-8.197 -0.391,-15.835 -4.166,-22.917l5.4,-12.366l129.658,25.816l155.267,28.384l104.375,17.408l94.975,18.067l116.041,18.05l103.4,13.85l106.967,12.875l77.792,11.275l132.566,15.441l80.384,6.734l96.591,9.966l-0.041,0l0.058,-0.008l140.992,11.217l-2.132,4.541c-2.612,19.337 -4,38.781 -4.166,58.334c10.941,3.839 22.054,8.006 33.333,12.5c3.129,3.65 5.213,7.816 6.25,12.5c-0.996,21.14 -1.692,41.973 -2.083,62.5c5.554,12.5 11.112,25 16.666,37.5c-3.65,9.681 -5.733,19.403 -6.25,29.166c6.005,3.166 12.255,5.944 18.75,8.334c5.284,-3.867 10.838,-4.561 16.667,-2.084c3.258,11.419 5.342,23.225 6.25,35.417c7.225,3.12 14.863,5.204 22.917,6.25c9.2,13.048 20.312,15.825 33.333,8.333c13.888,-2.778 27.779,-2.778 41.667,0c-0.596,17.274 2.179,34.635 8.333,52.084c14.146,-6.859 27.338,-5.47 39.583,4.166c1.555,15.772 6.413,30.355 14.584,43.75c-2.779,4.167 -5.554,8.334 -8.334,12.5c6.813,13.822 11.671,28.405 14.584,43.75c11.458,10.759 20.483,23.259 27.083,37.5c-5.554,11.113 -5.554,22.221 0,33.334c-3.254,15.146 -7.421,29.729 -12.5,43.75c5.471,15.333 13.108,29.916 22.917,43.75c2.412,8.954 4.496,17.979 6.25,27.083c-3.7,10.675 -9.254,20.4 -16.667,29.167c4.313,5.308 9.175,10.166 14.583,14.583c1.109,28.092 1.8,55.871 2.084,83.333c-5.984,5.975 -12.925,10.834 -20.834,14.584c5.555,6.946 5.555,13.887 0,20.833c-8.087,7.929 -17.808,11.4 -29.166,10.417c-2.859,15.779 1.308,28.975 12.5,39.583c-1.388,1.388 -2.779,2.779 -4.167,4.167c13.233,4.437 21.567,13.462 25,27.083c15.842,3.033 31.121,7.892 45.833,14.583c7.205,7.455 9.984,16.484 8.334,27.084c11.55,-3.796 22.662,-7.267 33.333,-10.417c9.946,4.067 14.808,11.704 14.583,22.917c25.217,23.016 27.3,47.321 6.25,72.916c11.988,12.167 17.546,26.75 16.667,43.75c14.763,1.55 23.792,9.884 27.083,25c5.742,7.138 12.688,12.696 20.834,16.667c2.012,3.95 2.704,8.117 2.083,12.5c12.842,5.113 25.342,11.363 37.5,18.75c8.446,8.725 15.392,18.446 20.833,29.167c19.367,7.104 37.421,16.129 54.167,27.083l-5.769,8.258l9.4,-0.658l11.334,-14.592l25.608,2.567l21.067,-0.017l25.925,-3.266l23.675,16.508l35.658,11.308l6.492,9.717l13.941,1.933l0.659,9.4l12.008,15.867l16.208,3.225l0.025,0.05l12.642,4.2l-1.275,23.333l7.467,13.284l-0.959,17.5l9.734,14.575l2.925,10.691l13.3,13.6l2.291,22.359l8.759,11.008l-3.867,27.875l1.317,18.8l21.4,15.217l-3.55,22.041l10.375,2.909l-5.817,20.75l5.517,6.15l0.675,30.466l3.241,4.859l1.65,34.025l-4.2,12.641l14.592,11.334l-0.642,11.666l9.734,14.575l8.775,32.075l30.5,41.459l-0.642,11.666l13.617,7.767l-145.192,1.425l-86.533,-1.225l-117.975,-4.108l-86.534,-1.225l-147.141,-5.709l-172.75,-8.275l-87.509,-4.783l-92.083,-7.375l-3.709,1.816c-168.867,-11.702 -338.308,-31.147 -508.333,-50c1.178,21.347 -11.435,-11.925 -6.25,-25c4.593,-24.062 0.426,-37.951 -12.5,-58.334c-7.608,6.558 -16.636,10.03 -27.084,10.417c-15.159,1.041 -29.743,1.736 -43.75,2.083c-12.647,-9.316 -26.536,-16.26 -41.666,-20.833c-3.767,-15.045 -8.627,-29.628 -14.584,-43.75c5.556,-12.5 11.112,-25 16.667,-37.5c-3.354,-4.636 -6.132,-9.497 -8.333,-14.583l5.55,-10.533Z"/></svg>