<?xml version="1.0" encoding="UTF-8" standalone="no"?><!DOCTYPE svg PUBLIC "-//W3C//DTD SVG 1.1//EN" "http://www.w3.org/Graphics/SVG/1.1/DTD/svg11.dtd"><svg fill="#a2a2a2" stroke="#fff" fill-rule="nonzero" stroke-width="20.83px" width="100%" height="100%" viewBox="0 0 1217 619" version="1.1" xmlns="http://www.w3.org/2000/svg" xmlns:xlink="http://www.w3.org/1999/xlink" xml:space="preserve" xmlnsSerif="http://www.serif.com/" style="fill-rule:evenodd;clip-rule:evenodd;stroke-linejoin:round;"><path id="ne1863" d="M844.544,99.934c-0,-0 0.948,7.883 -1.834,12.077c-1.952,1.27 -4.137,1.998 -6.556,2.185c-12.409,-4.389 -24.792,-8.759 -37.146,-13.111c-15.558,2.19 -30.489,-0.359 -44.795,-7.648c-5.827,-0.728 -11.653,-1.457 -17.481,-2.185c-15.496,-5.923 -30.792,-12.478 -45.887,-19.666c-10.849,0.913 -21.774,0.913 -32.776,0c-23.116,-6.269 -39.56,-8.242 -61.603,-17.268c-1.742,-0.998 -2.471,-2.455 -2.185,-4.37l-2.352,-0.721l-69.712,-4.535l-134.167,-7.342l-92.083,-7.375l-113.117,-7.358l-137.425,-12.2l-15.742,159.5l-9.625,111.825l-9.641,90.758l102.425,10.283l97.883,7.692l73.575,2.85l-13.45,181.833l92.083,7.375l87.509,4.784l172.75,8.275l147.141,5.708l86.534,1.225l117.975,4.108l86.533,1.225l145.192,-1.425l-13.617,-7.766l0.642,-11.667l-30.5,-41.458l-8.775,-32.075l-9.734,-14.575l0.642,-11.667l-14.592,-11.333l4.2,-12.642l-1.65,-34.025l-3.241,-4.858l-0.675,-30.467l-5.517,-6.15l5.817,-20.75l-10.375,-2.908l3.55,-22.042l-21.4,-15.217l-1.317,-18.8l3.867,-27.875l-8.759,-11.008l-2.291,-22.358l-13.3,-13.6l-2.925,-10.692l-9.734,-14.575l0.959,-17.5l-7.467,-13.283l1.275,-23.334l-12.642,-4.2l-0.025,-0.05l-16.208,-3.225l-12.008,-15.866l-0.659,-9.4l-13.941,-1.934l-6.492,-9.716l-35.658,-11.309l-23.675,-16.508l-25.925,3.267l-21.067,0.016l-25.608,-2.566l-11.334,14.591l-9.4,0.659l-2.464,2.367Z"/></svg>