<?xml version="1.0" encoding="UTF-8" standalone="no"?><!DOCTYPE svg PUBLIC "-//W3C//DTD SVG 1.1//EN" "http://www.w3.org/Graphics/SVG/1.1/DTD/svg11.dtd"><svg fill="#a2a2a2" stroke="#fff" fill-rule="nonzero" stroke-width="20.83px" width="100%" height="100%" viewBox="0 0 629 706" version="1.1" xmlns="http://www.w3.org/2000/svg" xmlns:xlink="http://www.w3.org/1999/xlink" xml:space="preserve" xmlnsSerif="http://www.serif.com/" style="fill-rule:evenodd;clip-rule:evenodd;stroke-linejoin:round;"><path id="oh1803" d="M12.26,160.38l6.923,58.27l13.05,103.7l15.025,131.892l16.992,160.091l14.575,-9.733l12.325,10.033l24.95,-6.825l20.425,11.65l21.425,36.284l16.208,3.225l16.525,-2.609l16.209,3.225l23.675,16.509l8.1,1.616l14.891,-15.566l24.309,4.841l10.058,8.742l24.95,-6.825l10.358,-18.158l20.409,-9.417l13.633,28.833l17.183,6.792l20.109,17.483l11.666,0.642l23.975,-10.392l3.867,-27.875l10.692,-2.925l-5.217,-33.05l13.9,-40.2l6.15,-5.516l24.967,14.241l8.416,-4.216l-1.008,-45.7l6.792,-17.184l14.258,-3.9l0.642,-11.666l8.741,-10.059l12.642,4.2l21.708,-11.683l12.309,-11.033l9.058,-15.892l21.05,-21.083l-0.675,-30.467l8.417,-25.283l-0.992,-24.634l5.475,-35.983l5.5,-14.917l-7.467,-13.283l4.2,-12.642l-16.541,-18.458l20.725,-15.25l-0,-0.017l-15.959,-93.325l-24.758,-146.466l-62.842,36.35l-40.166,28.233l-37.559,44.758l-26.241,9.1l-23.334,-1.275l-26.566,14.934l-15.55,6.175l-18.142,10.708l-15.892,-9.058l-28.191,1.966l-11.009,8.759l-6.491,-9.717l-21.084,-21.05l-19.775,-2.25l-33.341,-9.95l-180.5,26.408l1.843,15.872Z"/></svg>