<?xml version="1.0" encoding="UTF-8" standalone="no"?><!DOCTYPE svg PUBLIC "-//W3C//DTD SVG 1.1//EN" "http://www.w3.org/Graphics/SVG/1.1/DTD/svg11.dtd"><svg fill="#a2a2a2" stroke="#fff" fill-rule="nonzero" stroke-width="20.83px" width="100%" height="100%" viewBox="0 0 2067 1288" version="1.1" xmlns="http://www.w3.org/2000/svg" xmlns:xlink="http://www.w3.org/1999/xlink" xml:space="preserve" xmlnsSerif="http://www.serif.com/" style="fill-rule:evenodd;clip-rule:evenodd;stroke-linejoin:round;"><path id="nm1854" d="M1502.83,285.072l-30.228,-6.396l-81.358,-10.3l-137.109,-18.033l-80.066,-12.567l0.008,-0.008l-113.775,-16.75l-88.167,-14.184l-112.475,-19.025l-111.183,-21.291l-66.125,-10.642l-131.933,-27.108l-89.142,-17.75l-0.017,0.05c-155.241,-32.511 -305.104,-66.149 -450.846,-100.651l61.563,92.184l55.167,82.6l68.808,111.433l38.942,58.3l66.2,94.9l0.05,-0.016l-3.55,22.041l8.125,22.684l6.808,3.883l9.433,41.475l-1.933,13.942l29.842,32.058l-1.617,8.1l-21.708,11.683l-22.684,8.125l-6.475,11.35l-20.725,15.25l-1.916,35l-13.584,34.367l-19.75,18.817l-12.958,1.633l-4.525,18.475l3.583,20.092l-8.083,19.45l8.758,11.008l12.642,4.2l8.758,11.008l-2.25,19.775l-12.308,11.034l-5.175,9.083l-20.75,-5.817l-8.417,4.217l-17.483,20.108l-3.225,16.209l117.75,73.141l115.442,71.85l116.75,69.584l118.033,67.333l62.258,38.517l8.1,1.616l162.392,26.434l140.35,22.891l-0.033,-0.016l11.666,0.641l117.334,15.775l12.566,-80.066l161.417,22.866l101.133,12.55l-11.033,-12.308l-8.775,-32.075l110.525,11.892l169.842,18.65l274.85,24.4l15.408,-174.7l14.433,-178.267l14.125,-151.333l8.992,-100.167l11.858,-152.658l5.459,-57.05l5.833,0.316l0.008,0.05l7.375,-92.083l-0.3,-1.251c6.454,-55.308 7.841,-106.696 12.5,-162.5c-179.088,-18.254 -378.394,-41.867 -556.25,-70.833c-26.966,1.966 -49.883,2.662 -77.084,2.083c-13.146,8.175 -27.035,15.117 -41.666,20.833c2.96,5.23 2.266,26.755 6.25,31.25c14.19,-7.45 24.606,-3.979 31.25,10.417c31.662,12.896 59.44,23.313 83.333,47.917c-0.925,6.479 -3.703,12.037 -8.333,16.666c2.777,4.167 5.555,8.334 8.333,12.5c-2.776,5.546 -2.776,11.796 -0,18.75c-0.542,6.088 -3.394,10.85 -3.394,10.85l4.156,11.539Z"/></svg>