<?xml version="1.0" encoding="UTF-8" standalone="no"?><!DOCTYPE svg PUBLIC "-//W3C//DTD SVG 1.1//EN" "http://www.w3.org/Graphics/SVG/1.1/DTD/svg11.dtd"><svg fill="#a2a2a2" stroke="#fff" fill-rule="nonzero" stroke-width="20.83px" width="100%" height="100%" viewBox="0 0 506 288" version="1.1" xmlns="http://www.w3.org/2000/svg" xmlns:xlink="http://www.w3.org/1999/xlink" xml:space="preserve" xmlnsSerif="http://www.serif.com/" style="fill-rule:evenodd;clip-rule:evenodd;stroke-linejoin:round;"><path id="ma1820" d="M422.042,249.858l-8.417,4.217l-12.942,22.7l36.934,-12.025l-15.567,-14.892l-0.008,0Zm-98.084,-239.425l-14.258,3.9l-41.117,45.734l-151.666,33.841l-104.342,24.725l-2.158,125.084l6.808,3.883l93.642,-21.8l125.75,-30.575l0.975,3.567l54.758,-16.9l3.583,20.091l10.709,18.142l18.158,10.358l6.808,3.884l11.667,0.641l6.825,24.95l9.4,-0.658l15.867,-12.008l-2.925,-10.692l15.866,-12.008l12.625,-16.867l9.75,35.642l17.167,-14.275l7.767,-13.617l23.975,-10.392l30.125,-15.908l5.833,0.317l-8.775,-32.075l-11.65,20.425l-24.292,16.225l-23.333,-1.275l-14.917,-5.5l-10.391,-23.975l-12.959,1.633l-4.558,-23.658l-25.625,-23.634l-25.925,3.267l-10.375,-2.908l2.25,-19.775l13.917,-19.134l-4.217,-8.416l22.025,-17.517l-3.9,-14.258l-11.008,8.758l-10.059,-8.742l-7.8,-28.516l0,0.016Z"/></svg>