<?xml version="1.0" encoding="UTF-8" standalone="no"?><!DOCTYPE svg PUBLIC "-//W3C//DTD SVG 1.1//EN" "http://www.w3.org/Graphics/SVG/1.1/DTD/svg11.dtd"><svg fill="#a2a2a2" stroke="#fff" fill-rule="nonzero" stroke-width="20.83px" width="100%" height="100%" viewBox="0 0 958 1097" version="1.1" xmlns="http://www.w3.org/2000/svg" xmlns:xlink="http://www.w3.org/1999/xlink" xml:space="preserve" xmlnsSerif="http://www.serif.com/" style="fill-rule:evenodd;clip-rule:evenodd;stroke-linejoin:round;"><path id="mn1858" d="M947.525,239.9l-29.167,-1.592l-9.716,6.492l-9.084,-5.175l-14.275,-17.167l-11.666,-0.641l-43.75,8.141l-32.734,-0.616l-5.85,-21.384l-11.666,-0.641l-18.142,10.708l-23.317,19.792l-19.116,7.15l-17.5,-0.959l-15.892,-9.058l-8.442,-16.833l-24.308,-4.842l-9.417,-20.408l-13.941,-1.934l-19.117,7.15l1.633,12.967l-10.691,2.925l-20.125,-38.55l-21.067,0.017l6.792,-17.184l-28.85,-7.425l-11.35,-6.475l-32.734,-0.616l-24.95,6.825l-5.175,9.083l-30.783,6.508l-15.25,-20.725l-43.108,-3.525l-11.034,-12.308l-20.091,3.583l-12.642,-4.2l-15.567,-14.891l-1.316,-18.8l-12.684,-46.334l-0.991,-24.633l-18.159,-10.358l-22.041,-3.55l1.033,66.75l-2.592,4.541l-80.7,-0.9l-167.25,-2.125l-0.316,5.834l15.608,57.025l-7.108,23.016l3.583,20.092l-2.55,46.675l17.558,64.158l9.1,26.242l7.484,34.35l-2.234,40.842l1.317,18.8l0.675,30.466l4.558,23.659l0.034,42.133l4.216,8.417l4.242,29.491l15.25,20.725l4.892,38.884l0.675,30.466l-12.292,32.1l-26.883,20.767l-1.617,8.1l21.425,36.283l16.208,3.225l14.275,17.167l-1.183,128.667l0.392,78.433l-3.134,121.542l87.834,-1.05l126.4,-0.109l129.958,-1.083l257.967,-9.3l85.558,-2.342l-1.983,-49.258l-7.8,-28.517l-17.842,-16.191l-15.892,-9.059l-15.233,0.334l-24.65,-20.075l-14.933,-26.567l-20.109,-17.483l-24.308,-4.842l-16.542,-18.458l-24.308,-4.842l-30.167,-26.225l5.159,-30.142l-5.534,-27.216l6.15,-5.517l-2.608,-16.525l2.25,-19.775l9.7,-27.558l-12.983,-19.434l-16.209,-3.225l-0.991,-24.633l12.308,-11.033l9.7,-27.559l42.083,-21.1l8.742,-10.058l-2.358,-106.625l10.691,-2.925l10.359,-18.158l0.316,-5.834l36.6,-27.258l34.65,-34.383l58.917,-71.675l28.175,-23.034l29.15,-19.475l53.783,-20.466l60.575,-37.65l0.042,-0.017Z"/></svg>