<?xml version="1.0" encoding="UTF-8" standalone="no"?><!DOCTYPE svg PUBLIC "-//W3C//DTD SVG 1.1//EN" "http://www.w3.org/Graphics/SVG/1.1/DTD/svg11.dtd"><svg fill="#a2a2a2" stroke="#fff" fill-rule="nonzero" stroke-width="20.83px" width="100%" height="100%" viewBox="0 0 1646 1275" version="1.1" xmlns="http://www.w3.org/2000/svg" xmlns:xlink="http://www.w3.org/1999/xlink" xml:space="preserve" xmlnsSerif="http://www.serif.com/" style="fill-rule:evenodd;clip-rule:evenodd;stroke-linejoin:round;"><path id="mn1849" d="M782.423,1086.24l87.833,-1.05l126.4,-0.109l129.959,-1.083l257.966,-9.3l85.559,-2.342l-1.984,-49.258l-7.8,-28.517l-17.841,-16.191l-15.892,-9.059l-15.233,0.334l-24.65,-20.075l-14.934,-26.567l-20.108,-17.483l-24.308,-4.842l-16.542,-18.458l-24.308,-4.842l-30.167,-26.225l5.158,-30.142l-5.533,-27.216l6.15,-5.517l-2.608,-16.525l2.25,-19.775l9.7,-27.558l-12.984,-19.434l-16.208,-3.225l-0.992,-24.633l12.309,-11.033l9.7,-27.559l42.083,-21.1l8.742,-10.058l-2.359,-106.625l10.692,-2.925l10.358,-18.158l0.317,-5.834l36.6,-27.258l34.65,-34.383l58.917,-71.675l28.175,-23.034l29.15,-19.475l53.783,-20.466l60.575,-37.65l0.042,-0.017l-29.167,-1.592l-9.717,6.492l-9.083,-5.175l-14.275,-17.167l-11.667,-0.641l-43.75,8.141l-32.733,-0.616l-5.85,-21.384l-11.667,-0.641l-18.141,10.708l-23.317,19.792l-19.117,7.15l-17.5,-0.959l-15.891,-9.058l-8.442,-16.833l-24.308,-4.842l-9.417,-20.408l-13.942,-1.934l-19.116,7.15l1.633,12.967l-10.692,2.925l-20.125,-38.55l-21.066,0.017l6.791,-17.184l-28.85,-7.425l-11.35,-6.475l-32.733,-0.616l-24.95,6.825l-5.175,9.083l-30.783,6.508l-15.25,-20.725l-43.109,-3.525l-11.033,-12.308l-20.092,3.583l-12.641,-4.2l-15.567,-14.891l-1.317,-18.8l-12.683,-46.334l-0.992,-24.633l-18.158,-10.358l-22.042,-3.55l1.034,66.75l-2.592,4.541l-80.7,-0.9l-167.25,-2.125l0.042,0.025l-98.2,-1.858l-79.409,-3.175l-133.208,-3.775l-105.008,-5.742l-83.917,-5.758l-75.842,-4.15l-105.991,-9.308l-2.132,4.541c-2.612,19.337 -4,38.781 -4.166,58.334c10.941,3.839 22.054,8.006 33.333,12.5c3.129,3.65 5.212,7.816 6.25,12.5c-0.996,21.14 -1.692,41.973 -2.083,62.5c5.554,12.5 11.112,25 16.666,37.5c-3.65,9.681 -5.733,19.403 -6.25,29.166c6.004,3.166 12.254,5.944 18.75,8.334c5.284,-3.867 10.838,-4.561 16.667,-2.084c3.258,11.419 5.342,23.225 6.25,35.417c7.225,3.12 14.862,5.204 22.917,6.25c9.2,13.048 20.312,15.825 33.333,8.333c13.887,-2.778 27.779,-2.778 41.667,0c-0.596,17.274 2.179,34.635 8.333,52.084c14.146,-6.859 27.337,-5.47 39.583,4.166c1.554,15.772 6.413,30.355 14.584,43.75c-2.78,4.167 -5.555,8.334 -8.334,12.5c6.813,13.822 11.671,28.405 14.584,43.75c11.458,10.759 20.483,23.259 27.083,37.5c-5.554,11.113 -5.554,22.221 -0,33.334c-3.254,15.146 -7.421,29.729 -12.5,43.75c5.471,15.333 13.108,29.916 22.917,43.75c2.412,8.954 4.495,17.979 6.25,27.083c-3.7,10.675 -9.255,20.4 -16.667,29.167c4.312,5.308 9.175,10.166 14.583,14.583c1.109,28.092 1.8,55.871 2.084,83.333c-5.984,5.975 -12.925,10.834 -20.834,14.584c5.554,6.946 5.554,13.887 0,20.833c-8.087,7.929 -17.808,11.4 -29.166,10.417c-2.859,15.779 1.308,28.975 12.5,39.583c-1.388,1.388 -2.78,2.779 -4.167,4.167c13.233,4.437 21.567,13.462 25,27.083c15.842,3.033 31.121,7.892 45.833,14.583c7.204,7.455 9.984,16.484 8.334,27.084c11.55,-3.796 22.662,-7.267 33.333,-10.417c9.946,4.067 14.808,11.704 14.583,22.917c25.217,23.016 27.3,47.321 6.25,72.916c11.988,12.167 17.546,26.75 16.667,43.75c14.762,1.55 23.792,9.884 27.083,25c5.742,7.138 12.688,12.696 20.834,16.667c2.012,3.95 2.704,8.117 2.083,12.5c12.842,5.113 25.342,11.363 37.5,18.75c8.446,8.725 15.392,18.446 20.833,29.167c19.367,7.104 37.421,16.129 54.167,27.083l3.681,7.567l11.334,-14.592l25.608,2.567l21.067,-0.017l25.925,-3.267l23.675,16.509l35.658,11.308l6.492,9.717l13.941,1.933l0.659,9.4l12.008,15.867l16.208,3.225l-4.558,-23.659l-16.542,-18.458l10.359,-18.158l9.383,-21.725l-1.633,-12.959l7.766,-13.616l-3.583,-20.092l-11.667,-0.642l3.867,-27.875l-5.85,-21.383l17.5,0.958l-0.125,-0.016Z"/></svg>