<?xml version="1.0" encoding="UTF-8" standalone="no"?><!DOCTYPE svg PUBLIC "-//W3C//DTD SVG 1.1//EN" "http://www.w3.org/Graphics/SVG/1.1/DTD/svg11.dtd"><svg fill="#a2a2a2" stroke="#fff" fill-rule="nonzero" stroke-width="20.83px" width="100%" height="100%" viewBox="0 0 1459 2248" version="1.1" xmlns="http://www.w3.org/2000/svg" xmlns:xlink="http://www.w3.org/1999/xlink" xml:space="preserve" xmlnsSerif="http://www.serif.com/" style="fill-rule:evenodd;clip-rule:evenodd;stroke-linejoin:round;"><path id="in1800" d="M1345.37,589.067l-2.914,11.392l83.764,723.991l1.843,15.871l6.923,58.271l13.05,103.7l-29.4,364.008l-25.941,3.242l-0.317,5.833l8.125,22.683l-15.217,21.4l-11.008,8.759l-3.55,22.041l-14.575,9.734l-6.808,-3.884l-9.059,15.892l-0.3,26.9l-5.175,9.075l-11.983,5.2l-22.042,-3.55l-13.616,-7.767l-1.634,-12.958l-19.116,7.15l-13.917,19.133l2.608,16.525l-30.783,6.509l-12.008,-15.867l-30.45,21.742l-4.525,18.475l-50.25,-22.642l-16.834,8.442l-6.475,11.35l-11.35,-6.475l-17.825,4.875l-13.616,-7.767l-0.959,17.5l-5.175,9.075l-13.941,-1.933l-1.617,8.125l-12.942,22.7l12.984,19.433l-5.175,9.083l-24.95,6.825l-22.684,8.125l-5.5,14.917l1.634,12.958l12.008,15.867l-6.792,17.183l-22.041,-3.55l-41.175,-17.466l-20.092,3.583l-15.533,27.242l8.441,16.833l-8.1,-1.617l-12.325,-10.033l-9.716,6.492l-31.475,-45.025l6.791,-17.184l1.934,-13.941l-11.684,-21.709l-6.825,-24.95l-12.641,-4.2l-12.984,-19.433l-17.183,-6.792l-12.325,-10.033l-12.642,-4.2l-14.916,-5.5l-34.384,-34.65l-8.441,-16.833l16.491,-44.742l6.792,-17.183l-1.317,-18.8l9.059,-15.892l-8.759,-11.008l-35.658,-11.309l-20.725,15.25l-11.35,-6.475l-5.2,-11.983l-6.192,-36.617l-13.958,-23l-32.75,-21.683l-9.733,-14.575l-36.975,-30.108l-14.934,-26.567l-0.333,-15.233l-5.2,-11.984l-5.533,-27.216l2.566,-25.609l7.767,-13.616l7.125,-1.95l-2.625,-37.592l27.542,-11.367l7.45,-7.783l2.566,-25.608l17.484,-20.109l-0.992,-24.633l-5.2,-11.983l-13.617,-7.767l-1.633,-12.958l3.55,-22.042l8.742,-10.058l38.883,-4.892l13.6,-13.3l21.383,-5.85l12.309,-11.033l3.866,-27.875l13.6,-13.3l6.775,-38.25l-6.175,-15.55l-32.75,-21.684l-8.125,-22.683l-28.216,-19.1l2.591,-4.542l0.025,0l0.317,-5.833l-9.417,-20.408l-35.983,-5.475l-11.35,-6.475l-12.342,-31.1l-8.141,-43.75l10.675,-23.992l-2.925,-10.692l-12.642,-4.2l-8.125,-22.683l-0.05,-0.017l-1.983,-49.258l-7.8,-28.517l-17.842,-16.191l-15.892,-9.059l-15.233,0.334l-24.65,-20.075l-14.933,-26.567l-20.109,-17.483l-24.308,-4.842l-16.542,-18.458l-24.308,-4.842l-30.167,-26.225c-4.166,-0 -4.375,-1.692 -8.542,-1.692c-7.16,-3.016 -14.799,-5.796 -22.917,-8.333c-2.064,-8.221 -2.758,-16.554 -2.083,-25c-24.521,-0.208 -37.715,-12.708 -39.583,-37.5c-7.639,-7.638 -15.278,-15.279 -22.917,-22.917c-24.524,-7.846 -48.135,-17.571 -70.833,-29.166c-15.797,-16.809 -23.436,-36.946 -22.917,-60.417c-6.301,-3.154 -11.856,-7.321 -16.667,-12.5c-3.317,-17.729 -2.622,-35.088 2.084,-52.083c-8.725,-10.975 -10.114,-22.78 -4.167,-35.417c17.29,-13.075 31.179,-29.05 41.667,-47.917c10.588,-1.587 20.31,-5.058 29.166,-10.416c4.392,0.749 8.558,2.137 12.5,4.166c8.459,-15.389 20.959,-26.5 37.5,-33.333c8.769,-8.68 10.158,-18.402 4.167,-29.167c3.387,-5.474 7.553,-10.335 12.5,-14.583c-11.118,-14.075 -22.229,-27.963 -33.333,-41.667c-3.818,-1.559 -7.29,-3.642 -10.417,-6.25c-7.081,3.776 -14.72,5.164 -22.917,4.167c1.587,-10.174 -1.191,-12.952 -8.333,-8.333c-12.771,-3.74 -20.41,-12.073 -22.917,-25c-10.831,-4.553 -21.942,-4.553 -33.333,-0c-35.682,-9.29 -71.099,-9.29 -106.25,-0l0,-220.834c0,-26.924 0.959,-59.816 0.959,-59.816l-1.033,-66.75l22.041,3.55l18.159,10.358l0.991,24.633l12.684,46.334l1.316,18.8l15.567,14.891l12.642,4.2l20.091,-3.583l11.034,12.308l43.108,3.525l15.25,20.725l30.783,-6.508l5.175,-9.083l24.95,-6.825l32.734,0.616l11.35,6.475l28.85,7.425l-6.792,17.184l21.067,-0.017l20.125,38.55l10.691,-2.925l-1.633,-12.967l19.117,-7.15l0.377,-1.687l-0,-8.333c9.82,0.68 19.542,-0.014 29.167,-2.084c36.026,-34.735 79.082,-59.041 129.166,-72.916c1.987,-4.073 4.764,-7.546 8.334,-10.417c16.85,0.609 29.35,-6.336 37.5,-20.833c9.082,-1.745 18.109,-1.051 27.083,2.083c7.08,0.473 11.941,-2.305 14.583,-8.333l12.5,-0c6.734,6.205 15.067,10.372 25,12.5c4.085,6.172 8.946,11.728 14.584,16.666c-4.879,25.98 -6.268,52.369 -4.167,79.167c20.904,4 41.043,4 60.417,0l-0,25c-3.06,5.74 -5.838,11.99 -8.334,18.75c-12.117,2.87 -18.164,12.569 -28.269,19.421l-60.575,37.65l-53.783,20.466l-29.15,19.475l-28.175,23.034l-58.917,71.675l-34.65,34.383l-36.6,27.258l-0.316,5.834l0.066,0.05l19.134,13.916l20.091,-3.583l48.925,-17.217l22.025,-17.516l12.642,4.2l19.75,-18.817l14.258,-3.9l11.034,12.308l-10.359,18.159l-3.208,37.275l13.283,-7.467l5.175,-9.083l22.7,12.941l19.775,2.25l0.025,-0.008l49.242,-23.05l23.633,-25.625l50.875,-10.092l19.434,-12.983l11.333,-14.592l20.092,-3.583l8.083,-19.45l24.608,-22.058l7.467,13.283l12.642,4.2l12.658,25.25l-2.567,25.608l12.959,-1.633l17.483,-20.108l5.517,6.15l14.258,-3.9l35.008,1.916l20.425,11.65l6.492,9.717l18.492,25.592l10.375,2.908l6.175,15.55l15.233,-0.333l19.117,-7.15l12.958,-1.634l13.3,13.6l14.575,-9.733l15.892,9.058l15.216,-21.4l26.567,-14.933l14.892,-15.567l6.808,3.884l29.808,-10.075l42.134,-0.034l36.283,-21.425l21.067,-0.016l4.216,8.416l-1.916,35.009l31.125,8.725l20.408,-9.417l8.525,80.008l-5.817,20.75l2.609,16.525l-13.942,-1.933l-25.625,-23.633l-42.792,-9.359l-25.925,3.267l-12.941,22.7l-51.85,6.525l-21.384,5.85l-13.266,28.533l-18.142,10.709l-9.383,21.725l-12.642,-4.2l8.083,-19.45l8.417,-4.217l-2.608,-16.525l-12.309,11.033l-9.075,-5.175l-11.966,26.259l-15.55,6.175l-1.634,-12.967l-9.083,-5.175l-3.55,22.042l-9.717,6.491l-10.675,23.992l-7.108,23.017l-22.325,44.416l-5.5,14.917l-0.017,0.05l-2.25,19.775l-21.708,11.683l-2.908,10.375l-13.267,28.534l-6.45,32.416l15.55,-6.175l17.167,-14.275l13.266,-28.533l7.45,-7.783l16.834,-8.442l16.866,12.625l-3.541,22.042l-12.292,32.1l-4.5,39.541l8.442,16.834l-6.475,11.35l-10.034,12.325l-8.725,31.125l1.317,18.8l5.85,21.383l-10.675,23.992l0.017,21.066l-6.792,17.184l-2.25,19.775l6.508,30.783l-2.908,10.375l9.733,14.575l1.634,12.958l8.758,11.009l0.017,21.066l-1.617,8.1l4.242,29.492l-0,-0.025l-0.942,38.567l11.367,27.541l11.35,6.475l6.825,24.95l11.366,27.542l8.759,11.008l-0,-0.025l14.591,11.334l18.475,4.525l34.667,-13.317l22.042,-17.467l17.166,-14.275l12.942,-22.7l11.308,-35.658l12.942,-22.7l11.633,-41.492l1.259,-44.4l-4.575,-44.725l-10.392,-23.975l-37.983,-75.833l-6.175,-15.55l1.933,-13.942l6.792,-17.183l-2.942,-31.758l-11.683,-21.709l11.333,-14.591l17.467,-41.175l-2.625,-37.592l-4.875,-17.825l5.175,-9.083l14.258,-3.9l4.183,-33.709l5.834,0.317l7.766,-13.617l11.35,6.475l9.384,-21.725l18.458,-16.541l3.9,14.258l-3.883,6.808l3.9,14.259l-4.525,18.475l10.375,2.908l2.891,-31.442l14.592,11.334l2.892,-31.442l-4.559,-23.658l6.792,-17.184l17.167,-14.275l18.8,-1.316l0.641,-11.667l-13.3,-13.6l-0.016,-21.067l15.216,-21.4l21.709,-11.683l10.283,3.423l0.817,0.744Zm-413.534,-263.759l-10.058,-8.741l-28.192,1.966l-19.116,7.15l-27.859,17.2l-17.8,25.942l-0.958,17.5l11.667,0.642l14.933,26.566l18.442,-37.608l39.825,-43.467l15.233,-0.333l3.883,-6.808l0,-0.009Zm-104.15,-128.575l-15.55,6.175l-25.591,18.492l-32.717,20.45l-11.008,8.758l9.733,14.575l21.708,-11.683l1.617,-8.1l30.125,-15.908l12.308,-11.034l9.384,-21.725l-0.009,0Zm226.017,510.917l-10.358,18.158l-11.984,5.2l-4.525,18.475l-7.766,13.617l-5.5,14.917l7.466,13.283l9.084,5.175l7.766,-13.617l4.525,-18.475l13.584,-34.366l-2.292,-22.359l0,-0.008Zm187.917,-76.333l3.883,-6.809l-2.292,-22.358l-7.125,1.95l-6.133,26.583l11.667,0.642l-0,-0.008Z"/></svg>