<?xml version="1.0" encoding="UTF-8" standalone="no"?><!DOCTYPE svg PUBLIC "-//W3C//DTD SVG 1.1//EN" "http://www.w3.org/Graphics/SVG/1.1/DTD/svg11.dtd"><svg fill="#a2a2a2" stroke="#fff" fill-rule="nonzero" stroke-width="20.83px" width="100%" height="100%" viewBox="0 0 1717 2248" version="1.1" xmlns="http://www.w3.org/2000/svg" xmlns:xlink="http://www.w3.org/1999/xlink" xml:space="preserve" xmlnsSerif="http://www.serif.com/" style="fill-rule:evenodd;clip-rule:evenodd;stroke-linejoin:round;"><path id="in1803" d="M931.833,325.308l-10.058,-8.741l-28.192,1.966l-19.116,7.15l-27.859,17.2l-17.8,25.942l-0.958,17.5l11.667,0.642l14.933,26.566l18.442,-37.608l39.825,-43.467l15.233,-0.333l3.883,-6.808l0,-0.009Zm-104.15,-128.575l-15.55,6.175l-25.591,18.492l-32.717,20.45l-11.008,8.758l9.733,14.575l21.708,-11.683l1.617,-8.1l30.125,-15.908l12.308,-11.034l9.384,-21.725l-0.009,0Zm226.017,510.917l-10.358,18.158l-11.984,5.2l-4.525,18.475l-7.766,13.617l-5.5,14.917l7.466,13.283l9.084,5.175l7.766,-13.617l4.525,-18.475l13.584,-34.366l-2.292,-22.359l-0,-0.008Zm204.575,-295.442l-36.283,21.425l-42.134,0.034l-29.808,10.075l-6.808,-3.884l-14.892,15.567l-26.567,14.933l-15.216,21.4l-15.892,-9.058l-14.575,9.733l-13.3,-13.6l-12.958,1.634l-19.117,7.15l-15.233,0.333l-6.175,-15.55l-10.375,-2.908l-18.492,-25.592l-6.492,-9.717l-20.425,-11.65l-35.008,-1.916l-14.258,3.9l-5.517,-6.15l-17.483,20.108l-12.959,1.633l2.567,-25.608l-12.658,-25.25l-12.642,-4.2l-7.467,-13.283l-24.608,22.058l-8.083,19.45l-20.092,3.583l-11.333,14.592l-19.434,12.983l-50.875,10.092l-23.633,25.625l-49.242,23.05l-0.025,0.008l-19.775,-2.25l-22.7,-12.941l-5.175,9.083l-13.283,7.467l3.208,-37.275l10.359,-18.159l-11.034,-12.308l-14.258,3.9l-19.75,18.817l-12.642,-4.2l-22.025,17.516l-48.925,17.217l-20.091,3.583l-19.134,-13.916l-0.066,-0.05l0.316,-5.834l36.6,-27.258l34.65,-34.383l58.917,-71.675l28.175,-23.034l29.15,-19.475l53.783,-20.466l60.575,-37.65c10.105,-6.852 16.152,-16.551 28.269,-19.421c2.496,-6.76 5.274,-13.01 8.334,-18.75l-0,-25c-19.374,4 -39.513,4 -60.417,0c-2.101,-26.798 -0.712,-53.187 4.167,-79.167c-5.638,-4.938 -10.499,-10.494 -14.584,-16.666c-9.933,-2.128 -18.266,-6.295 -25,-12.5l-12.5,-0c-2.642,6.028 -7.503,8.806 -14.583,8.333c-8.974,-3.134 -18.001,-3.828 -27.083,-2.083c-8.15,14.497 -20.65,21.442 -37.5,20.833c-3.57,2.871 -6.347,6.344 -8.334,10.417c-50.084,13.875 -93.14,38.181 -129.166,72.916c-9.625,2.07 -19.347,2.764 -29.167,2.084l-0,8.333l-0.377,1.687l-19.117,7.15l1.633,12.967l-10.691,2.925l-20.125,-38.55l-21.067,0.017l6.792,-17.184l-28.85,-7.425l-11.35,-6.475l-32.734,-0.616l-24.95,6.825l-5.175,9.083l-30.783,6.508l-15.25,-20.725l-43.108,-3.525l-11.034,-12.308l-20.091,3.583l-12.642,-4.2l-15.567,-14.891l-1.316,-18.8l-12.684,-46.334l-0.991,-24.633l-18.159,-10.358l-22.041,-3.55l1.033,66.75c-0,-0 -0.959,32.892 -0.959,59.816l0,220.834c35.151,-9.289 70.568,-9.289 106.25,-0c11.391,-4.553 22.502,-4.553 33.333,-0c2.507,12.927 10.146,21.26 22.917,25c7.142,-4.619 9.92,-1.841 8.333,8.333c8.197,0.998 15.836,-0.391 22.917,-4.167c3.127,2.608 6.599,4.691 10.417,6.25c11.104,13.704 22.215,27.592 33.333,41.667c-4.947,4.248 -9.113,9.109 -12.5,14.583c5.991,10.765 4.602,20.487 -4.167,29.167c-16.541,6.833 -29.041,17.944 -37.5,33.333c-3.942,-2.029 -8.108,-3.417 -12.5,-4.166c-8.856,5.358 -18.578,8.829 -29.166,10.416c-10.488,18.867 -24.377,34.842 -41.667,47.917c-5.947,12.637 -4.558,24.442 4.167,35.417c-4.706,16.995 -5.401,34.354 -2.084,52.083c4.811,5.179 10.366,9.346 16.667,12.5c-0.519,23.471 7.12,43.608 22.917,60.417c22.698,11.595 46.309,21.32 70.833,29.166c7.639,7.638 15.278,15.279 22.917,22.917c1.868,24.792 15.062,37.292 39.583,37.5c-0.675,8.446 0.019,16.779 2.083,25c8.118,2.537 15.757,5.317 22.917,8.333c4.167,0 4.376,1.692 8.542,1.692l30.167,26.225l24.308,4.842l16.542,18.458l24.308,4.842l20.109,17.483l14.933,26.567l24.65,20.075l15.233,-0.334l15.892,9.059l17.842,16.191l7.8,28.517l1.983,49.258l0.05,0.017l8.125,22.683l12.642,4.2l2.925,10.692l-10.675,23.992l8.141,43.75l12.342,31.1l11.35,6.475l35.983,5.475l9.417,20.408l-0.317,5.833l-0.025,0l-2.591,4.542l28.216,19.1l8.125,22.683l32.75,21.684l6.175,15.55l-6.775,38.25l-13.6,13.3l-3.866,27.875l-12.309,11.033l-21.383,5.85l-13.6,13.3l-38.883,4.892l-8.742,10.058l-3.55,22.042l1.633,12.958l13.617,7.767l5.2,11.983l0.992,24.633l-17.484,20.109l-2.566,25.608l-7.45,7.783l-27.542,11.367l2.625,37.592l-7.125,1.95l-7.767,13.616l-2.566,25.609l5.533,27.216l5.2,11.984l0.333,15.233l14.934,26.567l36.975,30.108l9.733,14.575l32.75,21.683l13.958,23l6.192,36.617l5.2,11.983l11.35,6.475l20.725,-15.25l35.658,11.309l8.759,11.008l-9.059,15.892l1.317,18.8l-6.792,17.183l-16.491,44.742l8.441,16.833l34.384,34.65l14.916,5.5l12.642,4.2l12.325,10.033l17.183,6.792l12.984,19.433l12.641,4.2l6.825,24.95l11.684,21.709l-1.934,13.941l-6.791,17.184l31.475,45.025l9.716,-6.492l12.325,10.033l8.1,1.617l-8.441,-16.833l15.533,-27.242l20.092,-3.583l41.175,17.466l22.041,3.55l6.792,-17.183l-12.008,-15.867l-1.634,-12.958l5.5,-14.917l22.684,-8.125l24.95,-6.825l5.175,-9.083l-12.984,-19.433l12.942,-22.7l1.617,-8.125l13.941,1.933l5.175,-9.075l0.959,-17.5l13.616,7.767l17.825,-4.875l11.35,6.475l6.475,-11.35l16.834,-8.442l50.25,22.642l4.525,-18.475l30.45,-21.742l12.008,15.867l30.783,-6.509l-2.608,-16.525l13.917,-19.133l19.116,-7.15l1.634,12.958l13.616,7.767l22.042,3.55l11.983,-5.2l5.175,-9.075l0.3,-26.9l9.059,-15.892l6.808,3.884l14.575,-9.734l3.55,-22.041l11.008,-8.759l15.217,-21.4l-8.125,-22.683l0.317,-5.833l25.925,-3.267l11.35,6.475l24.291,-16.225l24.95,-6.825l2.25,-19.775l-13.941,-1.933l5.5,-14.917l-6.492,-9.717l5.175,-9.083l-16.992,-160.092l-15.025,-131.891l-13.05,-103.7l-6.669,-50.234l-0.237,0.297l-1.844,-24.205c0,0 93.009,-12.292 180.5,-26.408l3.225,-16.209l15.85,-33.075l8.417,-4.216l3.525,-43.109l1.617,-8.1l7.766,-13.616l20.725,-15.25l-1.966,-28.192l4.2,-12.642l12.625,-16.866l11.35,6.475l1.316,18.8l8.417,-4.217l7.767,-13.617l1.275,-23.333l-4.217,-8.417l5.475,-35.983l0.008,-0.067l-9.733,-14.575l-12.342,-31.1l-6.508,-30.783l-7.467,-13.283l-13.658,-49.9l-10.708,-18.142l-17.842,-16.192l-17.183,-6.791l-19.434,12.983l-20.408,9.417l-14.242,24.966l-9.7,27.559l-8.1,-1.617l-12.941,22.7l-31.125,-8.725l-7.784,-7.45l-1.966,-28.192l5.5,-14.916l5.175,-9.084l16.525,-2.608l12.308,-11.033l4.5,-39.542l19.433,-12.983l3.225,-16.209l-4.891,-38.883l1.933,-13.942l-11.05,-33.333l-17.842,-16.192l1.934,-13.941l15.55,-6.175l-5.2,-11.984l-11.034,-12.308l1.617,-8.1l-16.867,-12.625l-23.333,-1.275l-21.725,-9.383l-13.617,-7.767l-21.066,0.017l-17.517,-22.025l-12.642,-4.2l-20.091,3.583l-15.892,-9.058l-25.283,-8.417l-21.709,11.683l-15.216,21.4l0.016,21.067l13.3,13.6l-0.641,11.667l-18.8,1.316l-17.167,14.275l-6.792,17.184l4.559,23.658l-2.892,31.442l-14.592,-11.334l-2.891,31.442l-10.375,-2.908l4.525,-18.475l-3.9,-14.259l3.883,-6.808l-3.9,-14.258l-18.458,16.541l-9.384,21.725l-11.35,-6.475l-7.766,13.617l-5.834,-0.317l-4.183,33.709l-14.258,3.9l-5.175,9.083l4.875,17.825l2.625,37.592l-17.467,41.175l-11.333,14.591l11.683,21.709l2.942,31.758l-6.792,17.183l-1.933,13.942l6.175,15.55l37.983,75.833l10.392,23.975l4.575,44.725l-1.259,44.4l-11.633,41.492l-12.942,22.7l-11.308,35.658l-12.942,22.7l-17.166,14.275l-22.042,17.467l-34.667,13.317l-18.475,-4.525l-14.591,-11.334l-0,0.025l-8.759,-11.008l-11.366,-27.542l-6.825,-24.95l-11.35,-6.475l-11.367,-27.541l0.942,-38.567l-0,0.025l-4.242,-29.492l1.617,-8.1l-0.017,-21.066l-8.758,-11.009l-1.634,-12.958l-9.733,-14.575l2.908,-10.375l-6.508,-30.783l2.25,-19.775l6.792,-17.184l-0.017,-21.066l10.675,-23.992l-5.85,-21.383l-1.317,-18.8l8.725,-31.125l10.034,-12.325l6.475,-11.35l-8.442,-16.834l4.5,-39.541l12.292,-32.1l3.541,-22.042l-16.866,-12.625l-16.834,8.442l-7.45,7.783l-13.266,28.533l-17.167,14.275l-15.55,6.175l6.45,-32.416l13.267,-28.534l2.908,-10.375l21.708,-11.683l2.25,-19.775l0.017,-0.05l5.5,-14.917l22.325,-44.416l7.108,-23.017l10.675,-23.992l9.717,-6.491l3.55,-22.042l9.083,5.175l1.634,12.967l15.55,-6.175l11.966,-26.259l9.075,5.175l12.309,-11.033l2.608,16.525l-8.417,4.217l-8.083,19.45l12.642,4.2l9.383,-21.725l18.142,-10.709l13.266,-28.533l21.384,-5.85l51.85,-6.525l12.941,-22.7l25.925,-3.267l42.792,9.359l25.625,23.633l13.942,1.933l-2.609,-16.525l5.817,-20.75l27.875,3.867l54.775,4.167l15.55,-6.175l-20.108,-17.484l0.641,-11.666l-32.416,-6.45l7.45,-7.784l-4.875,-17.825l15.233,-0.333l-8.442,-16.833l3.225,-16.209l-10.375,-2.908l-14.575,9.733l-15.233,0.334l-6.475,11.35l-0.025,0.025l-7.45,7.783l-13.3,-13.6l-20.408,9.417l-31.125,-8.725l1.916,-35.009l-4.216,-8.416l-21.067,0.016Zm-16.658,219.109l3.883,-6.809l-2.292,-22.358l-7.125,1.95l-6.133,26.583l11.667,0.642l-0,-0.008Z"/></svg>