<?xml version="1.0" encoding="UTF-8" standalone="no"?><!DOCTYPE svg PUBLIC "-//W3C//DTD SVG 1.1//EN" "http://www.w3.org/Graphics/SVG/1.1/DTD/svg11.dtd"><svg fill="#a2a2a2" stroke="#fff" fill-rule="nonzero" stroke-width="20.83px" width="100%" height="100%" viewBox="0 0 295 319" version="1.1" xmlns="http://www.w3.org/2000/svg" xmlns:xlink="http://www.w3.org/1999/xlink" xml:space="preserve" xmlnsSerif="http://www.serif.com/" style="fill-rule:evenodd;clip-rule:evenodd;stroke-linejoin:round;"><path id="in1809" d="M10.417,56.391l10.375,2.909l6.175,15.55l15.233,-0.334l19.117,-7.15l12.958,-1.633l13.3,13.6l14.575,-9.733l15.892,9.058l15.216,-21.4l26.567,-14.933l14.892,-15.567l6.808,3.883l29.808,-10.075l42.134,-0.033l17.132,-10.116l13.072,114.262l-21.988,2.771l-12.941,22.7l-51.85,6.525l-21.384,5.85l-13.266,28.533l-18.142,10.708l-9.383,21.725l-12.642,-4.2l8.083,-19.45l8.417,-4.216l-2.608,-16.525l-12.309,11.033l-9.075,-5.175l-11.966,26.258l-15.55,6.175l-1.634,-12.966l-9.083,-5.175l-3.55,22.041l-9.717,6.492l-10.675,23.992l-7.108,23.016l-16.518,32.863l-18.365,-251.263Z"/></svg>