<?xml version="1.0" encoding="UTF-8" standalone="no"?><!DOCTYPE svg PUBLIC "-//W3C//DTD SVG 1.1//EN" "http://www.w3.org/Graphics/SVG/1.1/DTD/svg11.dtd"><svg fill="#a2a2a2" stroke="#fff" fill-rule="nonzero" stroke-width="20.83px" width="100%" height="100%" viewBox="0 0 1493 978" version="1.1" xmlns="http://www.w3.org/2000/svg" xmlns:xlink="http://www.w3.org/1999/xlink" xml:space="preserve" xmlnsSerif="http://www.serif.com/" style="fill-rule:evenodd;clip-rule:evenodd;stroke-linejoin:round;"><path id="mt1864" d="M1482.19,238.633l-96.592,-9.966l-80.383,-6.734l-132.567,-15.441l-77.792,-11.275l-106.966,-12.875l-103.4,-13.85l-116.042,-18.05l-94.975,-18.067l-104.375,-17.408l-155.267,-28.384l-129.658,-25.816l-131.933,-27.109l-104.059,-23.241l-37.766,176.991l16.883,33.667l-0.642,11.667l10.709,18.141l1.316,18.8l-9.716,6.492l9.733,14.575l-13.283,7.467l14.591,11.333l6.175,15.55l19.134,13.917l3.9,14.258l33.108,57.983l0.333,15.234l28.867,28.491l3.9,14.259l26.9,0.3l4.217,8.416l-8.084,19.45l-14.558,30.8l-10.033,12.325l0.333,15.234l-9.383,21.725l6.175,15.55l-0.959,17.5l-15.55,6.175l-9.716,6.491l4.875,17.825l-11.65,20.425l11.35,6.475l12.008,15.867l29.808,-10.075l24.292,-16.225l17.517,22.025l-0.617,32.733l0.017,21.067l19.15,34.983l6.825,24.95l-10.034,12.325l6.175,15.55l8.759,11.009l19.775,2.25l12.341,31.1l-6.15,5.516l6.175,15.55l-1.933,13.942l6.492,9.717l13.941,1.933l21.709,-11.683l40.2,13.9l6.475,-11.35l12.958,-1.634l17.183,6.792l29.167,1.592l7.783,7.45l14.259,-3.9l23.016,7.108l3.225,-16.208l10.034,-12.325l17.5,0.958l9.1,26.242l17.516,22.025l15.475,-90.434l102.109,16.117l138.083,21.592l111.5,15.458l139.375,19.325l112.8,13.192l96.592,9.966l98.858,11.259l94.317,8.666l2.266,1.292l14.109,-172.433l11.558,-125.75l14.125,-151.334l9.642,-90.758l17.333,-188.642l0.042,0Z"/></svg>