<?xml version="1.0" encoding="UTF-8" standalone="no"?><!DOCTYPE svg PUBLIC "-//W3C//DTD SVG 1.1//EN" "http://www.w3.org/Graphics/SVG/1.1/DTD/svg11.dtd"><svg fill="#a2a2a2" stroke="#fff" fill-rule="nonzero" stroke-width="20.83px" width="100%" height="100%" viewBox="0 0 1107 896" version="1.1" xmlns="http://www.w3.org/2000/svg" xmlns:xlink="http://www.w3.org/1999/xlink" xml:space="preserve" xmlnsSerif="http://www.serif.com/" style="fill-rule:evenodd;clip-rule:evenodd;stroke-linejoin:round;"><path id="ny1776" d="M828.2,866.842l-12.967,1.633l-3.225,16.208l16.525,-2.608l-0.333,-15.233Zm221.225,-150.584l-14.258,3.9l-26.542,36l-22.683,8.125l-45.042,10.409l-11.333,14.591l-35.325,3.917l-3.884,6.808l-25.25,12.659l-4.2,12.641l-16.833,8.442l-10.992,29.825l8.759,11.008l19.75,-18.816l17.183,6.791l17.167,-14.275l23.975,-10.391l17.166,-14.275l36.934,-12.025l26.883,-20.767l16.525,-2.608l22.025,-17.517l56.35,-46.075l-5.517,-6.15l-16.191,17.842l-10.059,-8.742l-11.333,14.592l-14.258,3.9l-6.792,17.183l-18.8,1.317l6.475,-11.35l11.983,-5.2l-1.633,-12.959l6.475,-11.35l13.283,-7.466l-0.008,0.016Zm-318.125,-644.658l-80.683,20.167l-87.809,22.116l-0.05,-0.041l-22.358,2.291l-28.175,23.034l-14.892,15.566l-44.35,61.942l-6.791,17.183l4.216,8.417l-29.133,40.533l-15.867,12.009l-17.483,20.108l12.325,10.033l8.417,-4.216l10.375,2.908l4.558,23.658l-14.575,9.734l21.425,36.283l0.333,15.233l-5.175,9.084l-21.383,5.85l-29.792,31.141l-2.908,10.375l-31.425,18.175l-49.583,7.825l-21.709,11.684l-11.666,-0.642l-19.45,-8.083l-47.967,-0.284l-15.55,6.175l-21.067,0.017l-38.233,14.292l-45.675,22.075l5.217,33.05l21.066,-0.017l1.317,18.8l11.683,21.708l-3.225,16.209l-12.308,11.033l-11.967,26.258l-24.608,22.059l-12.625,16.866l-33.333,32.117l7.825,49.583l114.708,-21.816l107.583,-19.867l125.417,-24.742l72.258,-15.941l164.609,-35.467l27.241,15.533l14.917,5.5l4.217,8.417l7.8,28.517l12.008,15.866l15.892,9.059l18.8,-1.317l11.033,12.308l119.625,38.142l-7.8,-28.517l5.833,0.317l5.85,21.383l1.334,39.867l14.575,-9.733l4.2,-12.642l11.65,-20.425l-15.567,-14.892l28.492,-28.866l-12.325,-10.034l-24.1,-137.075l-6.809,-3.883l2.159,-125.083l-0.067,-0.059l104.342,-24.725l-0,0.025l-17.517,-22.025l3.55,-22.041l-4.258,-50.559l1.616,-8.1l-10.733,-39.208l5.817,-20.75l-2.609,-16.525l7.767,-13.617l-1.317,-18.8l7.409,-49.916l-6.825,-24.95l4.2,-12.642l16.833,-8.442l17.483,-20.108l8.725,-31.125l-17.516,-22.025l8.725,-31.125l-5.85,-21.383l-99.8,27.308l-130.584,33.817l0.067,0.058Z"/></svg>