<?xml version="1.0" encoding="UTF-8" standalone="no"?><!DOCTYPE svg PUBLIC "-//W3C//DTD SVG 1.1//EN" "http://www.w3.org/Graphics/SVG/1.1/DTD/svg11.dtd"><svg fill="#a2a2a2" stroke="#fff" fill-rule="nonzero" stroke-width="20.83px" width="100%" height="100%" viewBox="0 0 1107 834" version="1.1" xmlns="http://www.w3.org/2000/svg" xmlns:xlink="http://www.w3.org/1999/xlink" xml:space="preserve" xmlnsSerif="http://www.serif.com/" style="fill-rule:evenodd;clip-rule:evenodd;stroke-linejoin:round;"><path id="ny1791" d="M828.2,805.658l-12.967,1.634l-3.225,16.208l16.525,-2.608l-0.333,-15.234Zm221.225,-150.583l-14.258,3.9l-26.542,36l-22.683,8.125l-45.042,10.408l-11.333,14.592l-35.325,3.917l-3.884,6.808l-25.25,12.658l-4.2,12.642l-16.833,8.442l-10.992,29.825l8.759,11.008l19.75,-18.817l17.183,6.792l17.167,-14.275l23.975,-10.392l17.166,-14.275l36.934,-12.025l26.883,-20.766l16.525,-2.609l22.025,-17.516l56.35,-46.075l-5.517,-6.15l-16.191,17.841l-10.059,-8.741l-11.333,14.591l-14.258,3.9l-6.792,17.184l-18.8,1.316l6.475,-11.35l11.983,-5.2l-1.633,-12.958l6.475,-11.35l13.283,-7.467l-0.008,0.017Zm-486.667,-602.417l-22.358,2.292l-28.175,23.033l-14.892,15.567l-44.35,61.942l-6.791,17.183l4.216,8.417l-29.133,40.533l-15.867,12.008l-17.483,20.109l12.325,10.033l8.417,-4.217l10.375,2.909l4.558,23.658l-14.575,9.733l21.425,36.284l0.333,15.233l-5.175,9.083l-21.383,5.85l-29.792,31.142l-2.908,10.375l-31.425,18.175l-49.583,7.825l-21.709,11.683l-11.666,-0.641l-19.45,-8.084l-47.967,-0.283l-15.55,6.175l-21.067,0.017l-38.233,14.291l-45.675,22.075l5.217,33.05l21.066,-0.016l1.317,18.8l11.683,21.708l-3.225,16.208l-12.308,11.034l-11.967,26.258l-24.608,22.058l-12.625,16.867l-33.333,32.117l7.825,49.583l114.708,-21.817l107.583,-19.866l125.417,-24.742l72.258,-15.942l164.609,-35.466l27.241,15.533l14.917,5.5l4.217,8.417l7.8,28.516l12.008,15.867l15.892,9.058l18.8,-1.316l11.033,12.308l119.625,38.142l-7.8,-28.517l5.833,0.317l5.85,21.383l1.334,39.867l14.575,-9.734l4.2,-12.641l11.65,-20.425l-15.567,-14.892l28.492,-28.867l-12.325,-10.033l-24.1,-137.075l-6.809,-3.883l2.159,-125.084l-33.184,-142.25l-8.758,-11.008l-17.5,-0.958l2.25,-19.775l-16.242,-45.359l-5.516,-6.15l1.591,-29.166l3.884,-6.809l-5.85,-21.383l-0.017,-21.067l-12.008,-15.866l-7.467,-13.284l0.3,-26.9l-7.783,-7.45l-4.242,-29.491l-80.683,20.166l-87.809,22.117l-0.05,-0.042Z"/></svg>