<?xml version="1.0" encoding="UTF-8" standalone="no"?><!DOCTYPE svg PUBLIC "-//W3C//DTD SVG 1.1//EN" "http://www.w3.org/Graphics/SVG/1.1/DTD/svg11.dtd"><svg width="100%" height="100%" viewBox="0 0 5209 5209" version="1.1" xmlns="http://www.w3.org/2000/svg" xmlns:xlink="http://www.w3.org/1999/xlink" xml:space="preserve" xmlnsSerif="http://www.serif.com/" style="fill-rule:evenodd;clip-rule:evenodd;stroke-linejoin:round;stroke-miterlimit:2;"><path d="M2156.25,1696.18l447.917,447.917l447.916,-447.917c244.792,-244.791 454.863,-446.179 463.542,-446.179c22.571,0 442.708,420.138 442.708,442.708c0,8.68 -201.387,218.75 -446.179,463.542l-447.916,447.917l447.916,447.916c244.792,244.792 446.179,454.863 446.179,463.542c0,22.571 -420.137,442.708 -442.708,442.708c-8.679,0 -218.75,-201.387 -463.542,-446.179l-447.916,-447.916l-447.917,447.916c-244.792,244.792 -454.862,446.179 -463.542,446.179c-22.57,0 -442.708,-420.137 -442.708,-442.708c0,-8.679 201.388,-218.75 446.179,-463.542l447.917,-447.916l-447.917,-447.917c-244.792,-244.792 -446.179,-454.862 -446.179,-463.542c0,-22.57 420.138,-442.708 442.708,-442.708c8.68,0 218.75,201.388 463.542,446.179Z"/></svg>