<?xml version="1.0" encoding="UTF-8" standalone="no"?><!DOCTYPE svg PUBLIC "-//W3C//DTD SVG 1.1//EN" "http://www.w3.org/Graphics/SVG/1.1/DTD/svg11.dtd"><svg fill="#a2a2a2" stroke="#fff" fill-rule="nonzero" stroke-width="20.83px" width="100%" height="100%" viewBox="0 0 9176 5971" version="1.1" xmlns="http://www.w3.org/2000/svg" xmlns:xlink="http://www.w3.org/1999/xlink" xml:space="preserve" xmlnsSerif="http://www.serif.com/" style="fill-rule:evenodd;clip-rule:evenodd;stroke-linejoin:round;stroke-miterlimit:2;"><path id="MAINLAND" d="M6583.02,4073.19l-25.934,24.342l-20.391,30.483l-22.325,44.417l-3.525,43.108l-20.709,36.317l-15.55,6.175l-13.941,-1.933l-2.25,19.775l-16.509,23.675l-14.575,9.733l-1.933,13.942l-16.192,17.841l-20.408,9.417l-24.608,22.058l-12.967,1.634l-19.45,-8.084l-2.908,10.375l14.916,5.5l7.467,13.284l-13.917,19.133l-14.258,3.9l-20.425,-11.65l-3.883,6.808l21.4,15.217l-7.767,13.617l-19.75,18.816l-0.317,5.834l0,-0.067l-0.008,0.017l9.083,5.175l-19.1,28.216l-13.941,-1.933l4.875,17.825l-18.459,16.542l-13.266,28.533l-5.159,30.142l8.442,16.833l11.35,6.475l-14.242,24.967l-11.35,-6.475l10.075,29.808l-12.308,11.033l0.017,21.067l9.025,26.208l10.375,2.909l2.941,31.758l11.684,21.708l2.608,16.525l37.35,87.475l15.592,35.959l56.141,86.158l72.667,83.583l7.15,19.117l-6.475,11.35l7.483,34.35l-7.125,1.95l-2.941,-31.758l1.275,-23.334l-7.15,-19.116l-25.925,3.266l-0.017,-21.066l-19.45,-8.084l8.125,22.684l6.492,9.716l16.566,39.525l78.859,120.175l11.366,27.542l37.65,60.575l5.834,0.317l17.2,27.858l10.075,29.808l9.433,41.475l-2.592,4.542l4.259,50.558l1.333,39.867l1.65,34.025l-7.45,7.783l1.317,18.8l-6.15,5.517l-7.109,23.017l-1.275,23.333l8.125,22.683l-12.625,16.867l-1.933,13.942l-26.9,-0.3l-18.775,22.375l-24.308,-4.842l-8.742,10.058l-28.517,7.8l-17.841,-16.191l2.25,-19.775l12.325,10.033l23.016,7.108l2.909,-10.375l-10.059,-8.741l-19.775,-2.25l-11.35,-6.475l-13.958,-23l-25.642,-44.7l-14.591,-11.334l-28.85,-7.425l-22.359,2.292l2.909,-10.375l-25.942,-17.8l-9.75,-35.642l-4.217,-8.416l-3.583,-20.092l-12.958,1.633l-20.425,-11.65l-11.367,-27.541l-1.65,-34.025l-14.592,-11.334l-6.133,26.584l-20.75,-5.817l-12.008,-15.867l-40.234,-56.033l-3.583,-20.092l-13.617,-7.766l-3.9,-14.259l13.284,-7.466l2.25,-19.775l20.391,-30.484l-9.416,-20.408l-8.417,4.217l-20.425,-11.65l-14.917,-5.5l-3.225,16.208l19.45,8.083l4.217,8.417l-4.842,24.308l-7.125,1.95l-22.375,-18.775l-8.1,-1.616l6.434,-53.484l-6.175,-15.55l13.241,-49.6l-2.966,-52.825l-4.242,-29.491l-8.1,-1.617l-13.3,-13.6l-5.85,-21.383l-12.325,-10.034l-29.492,4.242l-12.008,-15.867l-12.642,-4.2l-10.708,-18.141l-33.075,-15.85l-3.267,-25.925l-20.75,-5.817l-12.983,-19.433l-15.567,-14.892l-20.425,-11.65l-9.4,0.658l-29.508,-16.833l-19.117,7.15l-18.8,1.317l-17.166,14.275l-10.034,12.325l17.5,0.958l0.659,9.4l-25.609,-2.567l-22.025,17.517l-10.033,12.325l-23,13.958l-38.883,4.892l-26.242,9.1l-3.583,-20.092l-9.734,-14.575l-54.158,-36.9l-8.125,-22.683l-10.692,2.925l7.15,19.117l-20.425,-11.65l-34.366,-13.584l-48.625,-9.683l20.408,-9.417l13.283,-7.466l-24.308,-4.842l-16.833,8.442l-13.942,-1.934l-28.833,13.634l-56.709,9.775l15.867,-12.009l-14.592,-11.333l-6.15,5.517l-15.566,-14.892l1.316,18.8l-23.958,31.458l-14.917,-5.5l8.084,-19.45l-10.309,-2.791l4.217,8.416l-11.333,14.592l-14.575,9.733l-1.617,8.1l-32.075,8.775l1.933,-13.941l-22.375,-18.775l-6.491,-9.717l4.2,-12.642l-7.15,-19.116l-16.525,2.608l-5.475,35.983l0.016,21.067l-40.516,-8.067l-4.859,3.242l-10.016,12.275l-16.209,-3.225l-28.191,1.967l-16.867,-12.625l-13.942,-1.934l-12.308,11.034l-50.25,19.491l-11.008,8.759l-4.2,12.641l-12.959,1.634l-0.025,-0.034l-0.016,-0.041l-29.492,4.241l-8.758,-11.008l-31.442,-2.892l-16.542,-18.458l-25.608,-2.567l-27.517,32.434l-3.225,16.208l14.592,11.333l28.85,7.434l20.092,-3.584l15.866,-12.008l6.475,-11.35l15.892,9.058l-5.817,20.75l25.942,17.8l9.4,-0.658l5.817,-20.75l23,-13.958l0.991,24.633l17.184,6.792l-12.625,16.866l-7.784,-7.45l-26.866,41.834l-11.984,5.2l9.734,14.575l20.75,5.816l3.9,14.259l12.958,-1.634l15.892,9.059l22.358,-2.292l14.275,17.167l16.542,18.458l-24.609,22.058l-19.775,-2.25l-11.35,-6.475l-18.5,-25.591l-19.775,-2.25l-3.241,-4.859l-21.725,-9.383l-4.217,-8.417l-21.4,-15.216l-10.692,2.925l-18.158,-10.359l10.075,29.809l-9.058,15.891l3.583,20.092l-22.025,17.517l-9.733,-14.575l3.225,-16.209l-23.017,-7.108l-28.192,1.967l-19.416,34.05l-21.725,-9.384l-16.525,2.609l-22.042,-3.55l-25.283,-8.417l-15.892,-9.058l15.217,-21.4l-9.417,-20.409l-6.15,5.517l-35.983,-5.475l-5.85,-21.383l-12.967,1.633l3.225,-16.208l-10.375,-2.909l-30.467,0.675l5.5,-14.916l-22.358,2.291l-2.592,4.542l-20.408,9.417l-2.908,10.375l7.466,13.283l-3.883,6.808l-21.708,11.684l-44.084,-7.092l-22.041,-3.542l-56.092,-22.958l-26.583,-6.133l-39.867,1.333l-46.017,6.85l-15.55,6.175l-8.441,-16.833l14.575,-9.734l4.525,-18.475l-5.517,-6.15l-9.383,0.75l-9.384,21.725l-3.225,16.209l10.709,18.141l-30.467,0.675l-93.625,42.859l6.792,-17.184l-23.659,4.559l10.017,-33.417l-9.733,-14.575l-10.692,2.925l-8.083,19.45l-23.992,-10.675l-0.617,32.733l13.959,23l7.783,7.45l-27.517,32.434l-14.575,9.733l1.317,18.8l-35.625,30.817l-7.125,1.95l-29.15,19.475l-15.55,6.175l-21.067,0.016l-63.5,26.959l-7.15,-19.117l-14.575,9.733l-6.491,-9.716l-8.742,10.058l-18.475,-4.525l-4.2,12.642l11.35,6.475l17.517,22.025l-42.084,21.1l-17.516,-22.025l-10.692,2.925l8.442,16.833l0.333,15.233l-16.192,17.842l-45.7,1.008l-10.033,12.325l14.592,11.334l2.908,-10.375l14.917,5.5l-26.542,36l-13.617,-7.767l-42.133,0.033l4.217,8.417l17.5,0.958l4.875,17.825l14.591,11.334l-26.841,62.9l-18.475,-4.525l-16.834,8.441l-0.641,11.667l19.775,2.25l13.283,-7.467l-2.567,25.609l-8.416,4.216l2.608,16.525l-10.692,2.925l-1.916,35.009l10.058,8.741l10.408,45.042l-5.816,20.75l16.866,12.625l-0.641,11.667l8.441,16.833l-1.933,13.942l12.325,10.033l0.333,15.233l16.2,3.225c0,0 -5.011,4.888 -7.19,12.83c0.751,2.107 1.952,3.905 3.595,5.393c-16.309,38.748 -29.493,78.898 -39.549,120.446c0.751,2.107 1.952,3.905 3.595,5.393c-7.475,15.191 -11.07,31.37 -10.786,48.538l-1650.29,-0c-6.813,-19.944 -18.796,-35.523 -35.954,-46.74c-27.055,-26.441 -49.224,-56.401 -66.514,-89.885c-13.185,-9.589 -26.366,-19.174 -39.55,-28.763c-0.399,-33.704 -9.387,-64.861 -26.965,-93.481c-29.821,-24.531 -59.781,-49.098 -89.885,-73.705c-21.637,-7.234 -39.614,-19.818 -53.931,-37.752c-7.191,-3.595 -14.382,-7.191 -21.573,-10.786c-4.203,-14.936 -4.203,-29.918 0,-44.943c7.055,-25.318 15.443,-49.889 25.168,-73.705c-2.337,-43.677 -26.307,-67.047 -71.908,-70.111c-2.556,-4.512 -5.551,-8.704 -8.988,-12.584c-3.304,-15.711 -6.9,-31.29 -10.787,-46.74c-15.233,-12.713 -31.413,-24.096 -48.537,-34.156c-25.434,-17.916 -36.22,-42.487 -32.359,-73.706c-0.068,-9.847 2.33,-18.836 7.191,-26.965c-0.45,-5.85 -2.247,-11.243 -5.393,-16.179c-19.275,-20.893 -42.048,-32.88 -68.313,-35.954c-11.153,-7.087 -22.539,-13.08 -34.156,-17.977c-1.672,-12.807 -5.868,-24.791 -12.584,-35.954c-9.729,-8.525 -18.117,-18.11 -25.168,-28.764c-14.45,-44.5 -37.219,-84.049 -68.312,-118.648c-0.202,-26.095 -8.59,-48.865 -25.168,-68.312c-17.833,-42.678 -27.422,-87.023 -28.763,-133.03c-6.458,-7.982 -7.058,-16.373 -1.798,-25.168c-8.891,-29.716 -19.678,-58.479 -32.359,-86.289c1.748,-16.676 8.342,-31.057 19.775,-43.145c2.373,-9.158 1.773,-18.146 -1.798,-26.966c-19.195,-19.206 -41.965,-32.987 -68.312,-41.347c-0.957,-17.243 -6.95,-32.222 -17.977,-44.942c-15.399,-10.657 -31.579,-19.645 -48.538,-26.966c-2.995,0.601 -5.994,1.198 -8.989,1.798c-2.355,5.346 -5.95,9.539 -10.786,12.584c-28.069,-14.288 -49.641,-35.26 -64.717,-62.919c-11.911,-7.076 -23.895,-14.267 -35.954,-21.573c-7.913,-2.966 -14.504,-1.168 -19.775,5.393c-2.315,13.091 -0.517,25.675 5.394,37.752c-20.947,28.767 -31.733,61.125 -32.359,97.076c3.142,20.519 9.136,39.693 17.977,57.526c-4.793,23.971 -4.793,47.937 -0,71.908c1.24,12.49 -2.952,22.676 -12.584,30.561c-2.398,11.983 -2.398,23.97 0,35.954c7.421,16.039 15.813,31.618 25.168,46.74c1.197,8.388 2.398,16.78 3.595,25.168c20.253,9.47 35.832,23.852 46.74,43.145c32.564,27.242 52.339,61.995 59.324,104.266c11.668,7.475 20.056,17.661 25.168,30.561c6.188,2.657 12.178,5.656 17.977,8.989c7.529,17.372 12.922,35.349 16.18,53.93c7.341,7.565 16.33,11.761 26.965,12.584c-2.362,19.466 0.036,38.644 7.191,57.527c-3.513,33.84 5.476,64.401 26.965,91.682c10.653,7.051 20.239,15.439 28.764,25.168c3.724,20.494 10.915,39.668 21.572,57.527c26.056,36.529 51.224,73.684 75.503,111.457c7.878,28.08 16.866,55.646 26.966,82.694c-4.613,12.063 -7.612,24.05 -8.989,35.954c12.084,15.938 19.275,33.915 21.573,53.931c7.305,12.059 14.496,24.042 21.572,35.954c0.442,20.318 5.835,38.895 16.179,55.729c-1.643,1.488 -2.844,3.286 -3.595,5.393c6.529,13.083 13.72,25.667 21.572,37.751c-11.429,17.499 -18.62,36.677 -21.572,57.527c6.515,19.541 13.105,39.315 19.775,59.324c21.594,26.998 41.969,26.998 61.121,-0c12.023,20.4 27.602,37.18 46.741,50.335c12.343,21.105 19.533,43.875 21.572,68.313c5.846,9.449 13.037,17.837 21.572,25.168c1.737,3.408 2.334,7.004 1.798,10.786l-97.076,-0c-5.062,-14.597 -10.455,-28.979 -16.179,-43.145c-15.87,-11.232 -32.049,-22.018 -48.538,-32.358c-17.535,-26.081 -35.512,-51.85 -53.931,-77.301c-46.132,-34.146 -92.276,-68.302 -138.423,-102.469c-3.12,-12.548 -7.316,-24.532 -12.584,-35.954c23.892,-58.832 31.683,-119.954 23.371,-183.366c-5.35,-20.267 -13.142,-39.441 -23.371,-57.526c-26.002,-15.212 -49.972,-33.189 -71.908,-53.931c-16.337,-23.686 -33.117,-47.056 -50.335,-70.11c-19.714,-9.089 -40.085,-11.487 -61.122,-7.191c-9.452,-16.517 -21.436,-30.899 -35.954,-43.145c-6.277,-1.693 -12.271,-4.091 -17.977,-7.191c-10.782,-20.367 -27.562,-32.355 -50.335,-35.954c-2.995,-2.994 -5.994,-5.993 -8.989,-8.988c2.218,-27.717 -9.168,-47.492 -34.156,-59.324c-10.113,-13.112 -20.9,-25.696 -32.359,-37.752c5.661,-4.066 11.654,-4.667 17.977,-1.797c22.479,15.122 46.449,18.717 71.908,10.786c32.585,-26.297 54.754,-59.252 66.515,-98.874c2.398,-5.993 2.398,-11.983 0,-17.977c-8.162,-16.531 -17.75,-32.11 -28.763,-46.74c-1.068,-12.275 -3.466,-24.258 -7.191,-35.954c-9.93,-5.325 -19.519,-11.315 -28.763,-17.977c-10.646,-33.962 -30.421,-60.927 -59.324,-80.896c-8.286,-3.218 -16.675,-6.217 -25.168,-8.989c-21.704,-20.425 -42.677,-41.998 -62.919,-64.717c-1.303,-19.57 -4.3,-38.744 -8.989,-57.526c4.541,-17.769 6.338,-35.746 5.393,-53.931c-5.393,-10.186 -13.183,-17.977 -23.37,-23.37c13.93,-40.751 5.541,-76.108 -25.168,-106.065c9.046,-41.692 0.057,-78.847 -26.965,-111.457c-2.397,-8.388 -2.397,-16.78 -0,-25.168c9.914,-10.203 13.51,-22.187 10.786,-35.954c-10.16,-10.728 -18.549,-22.712 -25.168,-35.954c-1.198,-14.381 -2.397,-28.763 -3.595,-43.144c-2.397,-4.793 -5.993,-8.39 -10.786,-10.787c-3.312,-25.078 -3.312,-25.078 -4.002,-63.704l0.3,-26.9l-12.325,-10.033l1.275,-23.333l7.45,-7.784l-0.033,-42.133l-18.517,-46.65l-31.475,-45.025l-24.333,-25.908l-12.984,-19.434l-22.7,-12.941l-9.716,6.491l-13.617,-7.766l6.792,-17.184l-2.292,-22.358l-10.708,-18.142l-35.984,-5.475l-20.425,-11.65l-38.266,-27.841l-2.292,-22.359l-20.767,-26.883l-21.4,-15.217l-17.5,-0.958l-20.75,-5.817l-15.566,-14.891l-17.184,-6.792l-50.891,-10.975l-1.634,-12.958l-17.841,-16.192l13.916,-19.133l-2.925,-10.692l6.792,-17.183l-5.2,-11.984l15.533,-27.241l0.642,-11.667l-19.133,-13.917l-12.009,-15.866l11.967,-26.259l-4.217,-8.416l-11.35,-6.475l-15.591,-35.959l-12.325,-10.033l-4.559,-23.658l-11.683,-21.709l2.25,-19.775l-10.058,-8.741l-3.584,-20.092l-10.708,-18.142l-13.3,-13.6l-3.9,-14.258l2.892,-31.442l8.416,-25.283l7.784,7.45l12.308,-11.033l8.083,-19.45l-3.266,-25.925l-8.759,-11.009l-17.5,-0.958l-11.35,-6.475l-23.05,-49.242l7.425,-28.85l0.3,-26.9l-7.783,-7.45l12.942,-22.7l2.25,-19.775l16.525,-2.608l-4.5,39.542l12.325,10.033l7.466,13.283l8.742,-10.058l3.225,-16.208l-8.442,-16.834l-8.758,-11.008l7.45,-7.783l-7.8,-28.517l28.517,-7.8l8.758,11.008l25.925,-3.266l-7.467,-13.284l-12.308,11.034l-21.725,-9.384l-12.983,-19.433l-14.259,3.9l-12.291,32.1l6.491,9.717l-13.283,7.466l-15.25,-20.725l-8.1,-1.616l-9.417,-20.409l-11.033,-12.308l-14.258,3.9l16.508,-23.675l3.55,-22.042l-12.025,-36.933l-12.008,-15.867l-16.567,-39.525l-17.858,-37.258l-5.85,-21.383l8.741,-10.059l-1.35,-60.925l6.792,-17.183l11.333,-14.592l6.134,-26.583l0.3,-26.9l-20.15,-59.617l-23.692,-37.575l5.175,-9.083l-0.992,-24.633l33.667,-37.95l6.808,3.883l32.042,-50.908l-0.992,-24.634l8.417,-4.216l21.033,-42.15l5.159,-30.142l-0.992,-24.633l-11.033,-12.309l8.741,-10.058l9.7,-27.558l0.034,-0.017l-12.659,-25.25l4.525,-18.475l-0.016,-21.067l9.7,-27.558l6.475,-11.35l4.525,-18.475l-8.442,-16.833l2.25,-19.775l21.367,-26.917l26.208,-51.233l11.667,0.641l6.475,-11.35l31.066,-54.475l10.359,-18.158l52.4,-123.525l12.608,-37.933l5.175,-9.084l24.592,-43.125l8.416,-25.283l-0.658,-9.4l12.308,-11.033l-4.216,-8.417l8.083,-19.45l10.033,-12.325l-3.583,-20.092l10.358,-18.158l-0.333,-15.233l10.692,-2.925l4.525,-18.475l1.275,-23.334l9.741,-6.491l-11.683,-21.709l26.242,-9.1l13.241,-49.6l-20.425,-11.65l2.909,-10.375l10.033,-12.325l22.358,-2.291l-13.3,-13.6l1.617,-8.1l-17.183,-6.792l7.75,-34.683l-5.534,-27.217l6.45,-32.417l3.209,-37.275l-3.9,-14.258l-12.659,-25.25l4.184,-33.708l-0.334,-15.234l16.509,-23.675l14.258,-3.9l15.25,20.725l18.158,10.359l17.517,22.025l38.908,16.175l12.325,10.033l36.634,14.875l18.8,-1.317l9.733,14.575l28.192,-1.966l-2.909,10.375l4.242,29.491l-1.933,13.942l-12.309,11.033l-12.641,-4.2l-22.659,29.192l24.95,-6.825l8.742,-10.058l25.908,-24.334l6.809,3.884l-0.3,26.9l-23.659,4.558l-2.25,19.775l6.175,15.55l-16.833,29.508l-14.258,3.9l-19.434,12.984l1.275,-23.334l-11.983,5.2l-11.333,14.592l5.2,11.983l15.233,-0.333l3.9,14.258l24.292,-16.225l8.741,-10.058l9.084,5.175l20.725,-15.25l-1.634,-12.958l5.475,-35.984l7.767,-13.616l0.642,-11.667l17.8,-25.942l19.116,-7.15l-12.658,-25.25l4.183,-33.708l-12.008,-15.867l11.967,-26.258l9.716,-6.492l-0.358,-36.3l-12.642,-4.2l-9.1,-26.241l8.084,-19.45l14.055,0.335l-18.688,-22.636l-27.163,-17.975l9.46,-14.994l-5.586,-11.301l18.101,-57.244l-31.964,5.497l-2.884,15.023l-11.293,4.649l-39.288,-37.763l-5.537,-22.578l10.408,-16.869l13.176,-5.58l-10.271,-14.142l-16.937,6.504l-27.213,-6.699l-26.103,-45.222l30.254,-44.034l-5.553,-18.819l-28.123,-13.281l-12.208,-0.993l-0.844,-21.618l-25.271,-20.786l-16.921,2.745l-21.589,-3.854l-9.299,-21.655l-15.99,4.628l-30.933,-15.172l12.258,-10.283l-0.877,-14.1l23.467,3.862l6.605,-6.549l-13.101,-11.334l0.091,-20.674l-22.512,-7.617l-13.159,1.821l-4.614,-18.815l-12.216,0.886l-16.826,-18.869l-25.429,14.923l-9.34,-12.257l-27.134,-24.553l-7.449,-15.069l10.416,-18.749l-15.961,-1.949l-11.193,-17.905l2.868,-11.264l35.712,-3.601l-16.863,-10.412l5.682,-10.312l16.946,-8.383l10.416,-18.748l26.319,-3.643l30.962,8.594l34.682,17.068l1.895,-3.75l-40.297,-21.792l-32.853,-5.783l-19.661,-15.123l-0.066,15.036l-18.895,24.349l-12.208,-0.993l1.064,-28.188l-3.691,-15.052l7.627,-25.339l11.342,-15.925l19.723,1.026l13.247,-21.555l47.966,-12.945l20.736,-15.884l-0.848,-20.677l-27.238,-1.06l-7.552,8.424l-39.478,5.464l-16.801,-24.507l2.959,-31.938l-27.362,27.131l-6.513,-14.124l16.01,-9.327l4.776,-17.834l24.552,-29.023l4.772,-16.895l-16.921,2.745l-14.985,-10.403l-1.837,-9.406l10.553,-49.759l-12.137,-16.969l-11.157,-26.362l8.563,-24.395l-3.716,-9.414l22.569,-5.539l2.901,-18.781l10.425,-20.629l-55.46,8.213l-14.232,31.888l-13.172,4.641l4004.78,-38.711l-7.615,22.52l-12.303,20.619l39.516,-13.921l6.538,8.486l26.34,-8.341l19.776,-11.19l202.838,15.931l46.004,5.842l36.577,13.317l11.281,-1.829c0,-0 24.349,17.022 24.349,17.022l9.348,10.379l15.936,7.588l20.579,19.825l36.569,15.197l42.938,62.212l15.907,14.166l18.75,8.541l39.424,6.752l8.463,-1.842l65.627,29.421l42.239,7.704l25.313,11.389l29.004,26.441l31.897,9.538l4.652,10.357l18.791,-0.857l36.611,5.8l40.459,-14.857l15.965,1.01l15.08,-11.21l18.758,6.661l29.108,2.948l28.181,0.124l20.691,-5.547l14.087,1.002l13.097,12.274l14.119,-6.516l23.472,2.923l22.483,14.195l6.443,30.1l7.477,8.491l-4.916,49.784l-6.742,37.56l3.629,29.148l8.392,14.133l15.912,13.226l20.467,45.198l-4.875,40.387l13.01,32.008l7.399,26.345l-12.27,13.103l-1.97,20.665l2.698,27.264l23.434,11.381l15.907,14.166l11.181,20.723l12.183,6.632l14.955,16.981l18.738,11.36l1.763,26.32l-16.044,16.845l26.319,-3.643l16.829,17.929l29.071,11.405l20.646,4.79l9.323,16.017l17.815,7.596l25.263,22.665l13.958,30.133l11.231,9.447l4.601,21.634l-16.019,11.207l-13.25,22.495l5.603,7.542l15.15,-27.185l14.144,-12.154l32.866,2.964l46.86,24.64l6.535,9.426c-0,0 25.28,18.906 25.28,18.906l-0.919,-4.702l-15.567,-91.223l-7.449,-15.069l20.774,-24.341l12.196,3.812l0.852,19.739l15.055,-5.572l32.79,19.879l7.582,-15.003l-4.589,-24.453l-16.88,-6.653l-13.991,-22.615l17.902,-12.138l-9.315,-17.896l15.067,-8.391l1.01,-15.971l12.262,-11.222l2.901,-18.782l-5.57,-15.061l3.82,-14.079l-6.476,-22.582l-14.062,-6.64l-21.518,-19.83l-0.836,-23.497l-6.505,-16.004l-13.122,-6.636l-14.918,-25.439l3.873,-26.295l-11.131,-32l-7.461,-12.25l-14.997,-7.584l17.902,-12.137l-15.928,-9.468l1.945,-15.027l-6.53,-10.366l1.958,-17.846l-21.407,-45.202l-11.231,-9.447l-15.956,-2.89l0.045,-10.337l-15.932,-8.527l-15.791,-40.479l0.033,-7.517l-19.643,-18.882l18.858,-15.892l51.789,-27.964l7.569,-12.183l47.11,-31.743l21.717,-25.277l34.902,-32.737l11.372,-22.503l33.089,-47.781l10.416,-18.748l-6.555,-4.728l9.469,-16.873l28.455,-61.897l2415.22,-11.896l-6.604,6.549l0.869,15.979l-14.178,19.672l-3.824,15.019l-12.253,9.344l-22.765,49.705l-5.736,22.528l-10.411,17.809c-0,0 -13.185,7.46 -13.185,7.46l-9.414,4.657l-13.097,-12.274l-38.656,31.78l-10.329,-0.985l-15.179,33.763l-22.636,20.575l-26.319,3.642l-14.211,27.19l1.788,20.682l-20.762,21.522l13.896,44.229l-15.051,4.633l-3.823,15.018l-17,20.6l-5.811,39.443l-21.68,16.819l-3.824,15.019l8.413,9.435l-18.874,19.651l-12.204,-1.933l-12.27,13.102l-16.929,4.624l-8.5,10.299l-20.703,8.366l-14.091,-0.062l-6.634,13.127l-12.211,-0.054l-12.27,13.103l-16.925,3.684l-38.672,35.539l-21.539,-15.131l-42.322,11.09l-15.017,-2.885l-11.31,8.408l-47.027,12.948l-35.758,13.939l-4.746,11.255l-20.716,11.186l-19.731,0.853l-15.953,-3.83l-30.105,10.204l-15.088,13.09l-11.289,3.709l-28.181,-0.124l-15.088,13.09l-28.235,12.092l-44.18,6.383l-48.976,28.915l-23.492,1.776l-20.778,25.281l-22.574,6.479l-9.356,-8.499l-12.27,13.102l1.829,11.285l-10.367,7.472l-4.771,16.894l-18.875,19.651l-2.015,31.003l-9.406,2.778l0.752,42.291l7.395,27.285l-8.566,25.335l-39.532,17.68l-6.613,8.429l-15.982,2.749l-18.833,10.253l0.815,28.196l-15.071,9.331l-7.491,-5.671l-23.621,30.907l4.618,17.875l-15.998,6.507l-17.041,29.997l-8.484,6.54l-0.132,30.071l-9.415,4.658l-0.108,24.432l-9.551,35.668l-17.981,29.992l-15.998,6.508l-28.115,-15.16l-18.816,6.495l-30.954,-10.474l-7.531,3.726l-39.45,-1.114l3.7,13.173l31.041,-9.261l24.411,2.927l17.819,6.657l15.998,-6.507l13.143,1.937l10.292,9.443l17.839,1.958l-0.112,25.372l-5.827,43.202l-22.723,40.309l0.857,18.798l-27.333,20.554l-2.972,34.757l-7.635,27.218l-24.536,25.265l-19.888,36.562l-1.929,11.268l-12.278,14.982l-13.172,4.64l-24.502,17.747l-23.501,3.655l-17.008,22.479l-18.841,12.133l-0.071,15.976l-21.688,18.699l-12.312,22.499l-27.304,13.975l-16.031,14.026l0.856,18.798l-15.075,10.271l-7.689,39.435l-17.989,31.871l-21.647,9.302l-8.492,8.42l-13.28,29.073l-16.995,19.66l18.725,14.179l-22.599,12.116l-3.799,9.381l-16.031,14.025l-15.105,16.849l-1.929,11.268l-19.822,21.527l27.325,-18.675l5.707,-15.95l28.284,-23.368l12.225,-2.766l15.133,-23.426l20.766,-22.462l16.917,-1.805l4.742,-10.316l-5.582,-12.241l4.759,-14.075l-0.819,-27.256l14.19,-22.491l5.815,-40.383l11.297,-5.589l10.403,-15.93l23.539,-12.112l3.819,-14.079l16.082,-25.302l24.502,-17.747l4.792,-21.593l20.728,-14.004l15.13,-22.487l16.896,2.894l44.3,-33.635l13.246,-21.556l20.712,-10.246l6.617,-9.368l39.595,-31.776l12.315,-23.439l12.394,-41.294l11.335,-14.046l1.022,-18.79l18.941,-34.686l18.06,-47.847l4.829,-30.05l12.258,-10.283l20.865,-45.016l21.755,-33.734l9.41,-3.718l17.952,-23.414l3.811,-12.199l11.31,-8.408l13.242,-20.616l24.511,-19.626l38.705,-43.057l13.18,-6.52l31.119,-27.115l47.176,-46.779l41.465,-29.888l36.706,-15.814l33.905,-19.585l71.462,-15.66l45.077,3.018l31.893,10.478l27.184,13.277l-5.698,14.07l-29.121,-0.128l38.44,17.085l19.672,12.303l-9.464,15.934l11.256,3.808l-8.558,23.456l-22.607,13.996l-14.169,17.793l-1.043,23.489l-14.136,10.274l-5.691,12.192l-27.378,30.89l-16.942,7.443l-10.308,-5.684l-36.64,0.778l-24.39,-7.625l-10.433,22.507l-21.622,3.664l-28.231,11.152l-0.041,9.397c-0,0 -31.099,22.417 -31.099,22.417l13.164,-2.761l34.881,-28.038l18.758,6.66l38.502,2.99l18.8,-2.737l12.183,6.632l14.003,19.796l10.304,6.624l16.007,-8.387l8.533,-17.817l15.1,-15.909l19.785,-13.069l7.478,8.491l16.954,-10.263l22.503,9.497l-14.252,36.587l7.461,12.249l0.778,36.653l-32.155,48.725l60.203,-18.529l8.38,16.952l-5.728,20.649l11.198,16.964l23.443,9.501l6.488,19.763l22.446,22.653l2.751,15.048l19.677,11.363l31.045,-10.2l16.876,7.593l14.132,-9.335l27.246,-0.82l-5.715,17.83l-18.817,6.495l6.526,11.306c0,-0 -12.253,9.343 -12.253,9.343l-5.757,27.227l-12.187,-5.692l-2.905,19.721l-21.609,0.845l-6.651,16.886l-1.986,24.424l-15.051,4.632l-9.468,16.874l-32.076,30.869l-20.807,31.859l-36.793,35.548l-19.693,-7.605l-11.294,4.649l-1.03,20.67l-23.596,25.268l-12.171,-9.451l-25.479,26.201l-21.605,-0.096l-9.332,-14.137l-19.793,14.948l-17.827,-4.777l-11.318,10.287l-21.539,-15.131l0.091,-20.673l-14.024,-15.098l5.681,-10.312l-5.569,-15.06l-19.752,5.551l-13.135,-3.817l-14.83,-12.861l-0.608,11.65l27.558,9.7l26.242,-9.1l7.467,13.283l-7.45,7.784l14.275,17.166l0.016,21.067l21.4,15.217l12.309,-11.034l8.1,1.617l29.525,37.892l14.275,17.166l-19.734,39.884l-12.966,1.633l-6.475,11.35l-19.775,-2.25l1.316,18.8l-11.983,5.2l-17.5,-0.958l-7.45,7.783l6.492,9.717l-1.934,13.941l-12.308,11.034l-10.692,2.925l-6.175,-15.55l-20.091,3.583l-33.034,26.283l10.709,18.142l-14.259,3.9l-16.208,-3.225l-17.517,-22.025l-14.891,15.567l8.758,11.008l-4.2,12.642l-2.892,31.441l0.334,15.234l-4.525,18.475l-7.45,7.783l-18.159,-10.358l-6.15,5.516l0.017,21.067l-14.917,-5.5l-8.741,10.058l-8.725,31.125l-9.4,0.659l-21.4,-15.217l-12.625,16.867l-11.65,20.425l12.658,25.25l-18.142,10.708l3.267,25.925l-13.6,13.3l-2.25,19.775l-3.867,27.875l-11.983,5.2l0.033,-0.067l0.017,0.009l5.2,11.983l-2.567,25.608l-0.066,-0.041l7.8,28.516l10.058,8.742l11.008,-8.758l3.9,14.258l-22.025,17.517l4.217,8.416l-13.917,19.134l-2.25,19.775l10.375,2.908l25.925,-3.267l25.625,23.634l4.559,23.658l12.958,-1.633l10.392,23.975l14.916,5.5l23.334,1.275l24.291,-16.225l11.65,-20.425l8.775,32.075l-5.833,-0.317l-30.125,15.908l-23.975,10.392l-7.767,13.617l-17.166,14.275l-9.75,-35.642l-12.625,16.867l-15.867,12.008l2.925,10.692l-15.867,12.008l-9.4,0.658l-6.825,-24.95l-11.666,-0.641l-6.809,-3.884l-17.483,-0.883l-2.892,31.442l7.15,19.116l-2.25,19.775l-14.258,3.9l-31.425,18.175l-33.375,11.025l-11.667,-0.641l-12.308,11.033l-17.825,4.875l-9.717,6.492l-13.941,-1.934l-7.45,7.784l-12.959,1.633l-47.291,30.183l-46.634,39.584l-9.716,6.491l0.075,0l-11.65,20.425l-4.2,12.642l-14.575,9.733l-1.334,-39.866l-5.85,-21.384l-5.833,-0.316l7.758,28.483l2.925,10.692l-5.8,41.833l-7.766,13.617l-5.834,-0.317l-7.45,7.783l-4.841,24.309l13.616,7.766l24.634,-0.991l9.733,14.575l2.642,58.666l-5.834,-0.316l2.942,31.758l-2.25,19.775l4.217,8.417l-6.792,17.183l-13.6,13.3l-11.308,35.658l-7.109,23.017l-7.766,13.617l-5.159,30.141l-12.941,22.7l-11.984,5.2l2.234,-40.841l-23.017,-7.109l-15.55,6.175l-19.133,-13.916l-14.917,-5.5l-29.508,-16.834l-5.217,-33.05l4.842,-24.308l14.891,-15.567l21.709,-11.683l9.7,-27.592l-42.067,42.192c0,-0 -4.017,2.092 -5.833,8.108l-14.275,37.609l11.033,12.308l-1.933,13.942l26.916,21.366l8.442,16.834l7.8,28.516l14.592,11.334l0.658,9.4l25.942,17.8l12.958,-1.634l7.15,19.117l-4.525,18.475l9.083,5.175l6.175,15.55l-1.291,2.267l-3.559,1.033l-3.225,16.208l5.517,6.15l-3.225,16.209l-11.983,5.2l-3.542,22.041l-3.567,0.975l-4.525,18.475l-33.333,11.05l-0.317,5.834l-35.325,3.916l3.867,-27.875l-17.5,-0.958l10.033,-12.325l-10.058,-8.742l-14.575,9.734l-32.1,-12.292l-18.817,-19.75l8.417,-4.217l-1.633,-12.958l9.383,-21.725l-13.617,-7.767l-15.233,0.334l0.958,-17.5l13.942,1.933l4.525,-18.475l-13.617,-7.767l10.034,-12.325l-1.317,-18.8l-22.042,-3.55l8.725,-31.125l16.192,-17.841l-7.467,-13.284l-16.508,23.675l-28.833,13.634l7.783,7.45l-5.5,14.916l14.617,32.4l-9.717,6.492l5.2,11.983l-6.133,26.584l4.216,8.416l9.75,35.642l21.084,21.05l-0.642,11.667l8.442,16.833l11.033,12.308l0.333,15.234l-15.891,-9.059l-26.259,-11.966l-20.091,3.583l-26.584,-6.133l-10.058,-8.742l-10.708,-18.142l-21.05,21.084l-8.1,-1.617l-4.875,-17.825l7.108,-23.017l8.417,-4.216l6.791,-17.184l-1.316,-18.8l-2.959,-10.633l3.267,25.925l-8.417,4.217l-1.933,13.941l-11.667,-0.641l-6.775,38.25l9.417,20.408l5.833,0.317l30.125,-15.909l1.634,12.967l13.3,13.6l12.641,4.2l37.592,-2.625l14.592,11.333l0.658,9.4l43.767,12.925l3.9,14.259l-6.792,17.183l0.017,21.067l-10.692,2.925l15.567,14.891l18.158,10.359l-10.033,12.325l-11.667,-0.642l8.125,22.683l-10.033,12.325l25.283,8.417l8.758,11.008l-0.641,11.667l-18.142,10.708l-6.492,-9.716l-25.283,-8.417l-3.9,-14.258l-39.542,-4.5l27.242,15.533l12.008,15.867l13.942,1.933l17.842,16.192l23.333,1.275l3.225,-16.209l22.042,3.55l20.091,-3.583l7.15,19.117l26.934,42.433l-5.834,-0.317l-12.658,-25.25l-3.567,0.975l5.534,27.217l-7.125,1.95l-2.267,-1.292l-48.608,11.384l-0.034,-0.109l48.609,-11.383l-0.017,0.067l6.175,15.55l15.892,9.058l16.566,39.525l-24.633,0.992l-21.05,21.083l-29.808,10.075l-14.892,15.567l-23.333,-1.275l-2.25,19.775l25.925,-3.267l11.008,-8.758l13.942,1.933l24.291,-16.225l22.359,-2.292l-1.275,23.334l6.175,15.55l12.641,4.2l-5.533,-27.217l15.217,-21.4l11.35,6.475l14.275,17.167l4.558,23.658l-1.933,13.942l-18.142,10.708l-28.475,49.933l-16.525,2.609l-27.875,-3.867l-8.417,4.217l-14.275,-17.167l0.017,21.067l-16.208,-3.225l-28.192,1.966l33.417,10.017l29.166,1.592l3.9,14.258l-23,13.958l17.184,6.792l-23.959,31.458l-24.95,6.825l26.584,6.134l14.891,-15.567l13.284,-7.467l26.9,0.3l8.758,11.009l-20.392,30.483l-8.1,-1.617l-11.333,14.592l-35.325,3.917l-41.142,24.666l-6.475,11.35l-14.891,15.567l-20.725,15.25l-17.484,20.108l-17.15,35.342l-3.225,16.208l0.675,30.467l-10.691,2.925l-6.475,11.35l-34.025,1.65l-45.35,16.208Zm-698.28,-3247.35l-5.736,22.529l-7.54,5.605l-23.505,4.595l-5.599,-8.483l30.185,-28.058l12.195,3.812Zm-278.242,-171.32l33.821,-0.79l45.851,40.611l18.626,36.732l-12.237,5.584l-28.177,-1.064l-30.945,-12.353l-21.606,-0.095l-56.308,-12.465l-14.057,-7.58l16.11,-31.88l48.922,-16.7Zm195.365,-632.519l3.625,30.088l-13.217,14.977l-10.309,-5.684l4.768,-15.954l-1.788,-20.682l16.921,-2.745Zm-101.526,16.467l-6.63,12.188l-23.596,25.268l-13.126,-5.696l6.654,-17.826l13.214,-14.037l23.484,0.103Zm31.123,-28.054l30.925,17.051l-1.995,26.304l-8.475,4.661l-8.666,47.889l-9.485,20.632l-18.787,-0.083l0.037,-8.457l11.422,-33.78l-12.216,0.885l-20.911,55.352l-17.815,-7.596l20.907,-54.412l16.073,-23.423l15.953,3.829l3.033,-48.852Zm2192.7,1452.17l5.757,-27.227l12.253,-9.343l16.929,-4.624l17.799,11.355l18.779,1.962l25.433,-15.863l2.773,10.349l35.683,2.977l11.327,-12.166l40.451,-12.978l42.213,13.342l6.646,-15.946l11.31,-8.407l28.388,-46.862l15.837,30.141l15.013,3.826l23.493,-1.776l0.993,-12.212l12.241,-6.524l27.167,17.035l12.204,1.933l0.885,12.22l-13.197,10.279l-2.88,14.084l37.641,-14.87l22.553,-1.78l-6.667,20.645l-31.048,11.14l-1.941,14.087l-20.716,11.185l-4.755,13.136l-20.691,5.547l-4.763,15.015l-52.804,44.874l-2.872,12.204l-14.099,1.817l-8.525,15.938l-16.015,10.266l-0.058,13.156l-12.212,-0.054l-8.504,11.24l-25.412,11.164l-2.86,9.385l-16.934,5.564l0.894,10.341l-22.524,-4.798l16.813,21.688l-0.037,8.457l-18.833,10.254l-15.005,-5.704l-15.059,6.511l-8.371,-18.831l-15.043,2.752l-2.892,16.903l-11.306,7.468l-10.42,19.688l9.302,20.716l-11.504,52.574l-8.538,18.757l-15.092,14.029l6.501,16.944l-8.479,5.601l-10.458,28.146l-9.389,-0.981l-15.105,16.849l-11.272,-0.05l4.614,18.815l-11.343,15.925l-23.542,13.053l-17.819,-6.657l-5.558,-17.879l-25.276,-19.846l-1.949,15.966l-20.691,5.548l-14.926,-23.56l-2.731,-19.746l-14.024,-15.098l1.047,-24.428l-2.727,-20.686l4.784,-19.714l15.154,-28.125l-13.151,-0.058l12.328,-26.258l52.907,-68.367l3.795,-8.441l29.291,-38.4l15.1,-15.909l22.611,-14.936l14.19,-22.491l4.598,22.574l23.447,8.561l5.739,-23.468l31.103,-23.356l10.391,-13.111l31.045,-10.2l-20.637,-6.669l-41.398,14.853l-15.982,2.749l-29.179,13.027l-7.552,8.425l-25.363,-0.112l-9.435,9.355l-1.933,12.209l-28.206,5.513l4.817,-27.231l17.94,-20.595l17.066,-35.634l0.07,-15.975l10.387,-12.171Zm367.049,-368.636l8.384,16.013l23.484,0.103l12.025,42.341l-1.155,48.861l14.984,10.404l-10.49,35.663l-7.561,10.304l-2.955,30.998l-16.019,11.206l3.683,16.932l-11.326,12.166l12.162,11.331l8.516,-14.059l28.198,-3.634l-3.695,-14.112l21.804,-45.011l-30.184,28.058l-10.304,-6.623l13.238,-19.676l-4.639,-13.177l7.644,-29.098l9.481,-19.693l26.277,5.755l9.427,-7.477l28.173,2.004l8.404,11.314l-1.936,13.148l11.26,2.869l1.824,12.224l-9.464,15.934l-17.885,8.379l11.231,9.447l-11.331,13.106l-0.985,10.333l-14.173,18.732l-33.946,28.982l-4.68,-3.78l-31.98,9.257l-11.335,14.046l-12.199,-2.874l-12.262,11.223l-23.405,-17.958l-15.841,-29.202l-16.805,-23.567l2.914,-21.601l13.259,-24.375l3.886,-29.115l4.763,-15.014l3.125,-69.527l8.508,-12.179l5.815,-40.383l14.086,1.002Zm-400.07,188.061l-3.803,10.32l41.254,18.037l-0.075,16.915l12.174,8.512l10.338,-0.895l-4.606,-20.694l7.536,-4.665l40.401,-1.702l20.641,5.73l29.162,-9.269l48.036,-28.92l47.995,-19.522l15.974,-0.869l-15.142,25.306l-16.007,8.387l-6.7,28.162l-17.856,1.801l2.768,11.289l21.56,10.432l-7.548,7.485l3.691,15.052l-26.356,12.1l-23.455,-6.682l-2.773,-10.349l-14.045,-10.399l-15.03,-0.067l-10.407,16.87l-51.682,3.531l-25.322,-9.509l-5.599,-8.483l-17.835,-2.898l-23.53,10.234l-4.593,-23.514l-20.621,-10.428l-16.942,7.443l-7.481,-7.551l7.651,-30.977l0.067,-15.036l14.215,-28.129l16.825,18.869l-2.88,14.083Zm-1089.29,546.818l-14.219,29.069l-16.921,2.744l18.912,-28.108l12.228,-3.705Zm10.205,29.176l-5.711,16.89l-22.549,0.841l-0.894,-10.341l11.327,-12.167l2.876,-13.144l16.04,-15.904l-1.089,33.825Zm244.698,-316.55l-8.429,-5.676l17.972,-28.113l6.518,13.186l-16.061,20.603Zm628.202,-795.063l24.415,1.987l67.689,-11.918l51.673,-1.651l11.252,4.748l46.025,1.143l23.426,13.26l15.973,-0.869l9.369,5.679l40.41,-3.58l38.402,25.542l-11.364,20.624l-9.398,0.898l-39.536,18.62l-33.813,-1.088l-20.691,5.547l-51.678,2.591l-26.273,-6.694l-39.458,0.765l-14.003,-19.796l-18.742,-10.42l-22.52,-5.737l-64.804,-3.106l-13.122,-6.636l3.799,-9.38l32.969,-20.529Zm-1.59,998.931l13.999,20.736l-14.124,7.456l-7.494,-4.732l1.027,-19.73l6.592,-3.73Zm88.236,-623.594l-3.853,21.597l-15.009,-4.765l0.989,-11.273l17.873,-5.559Zm-7063.02,-53.722l-0.054,12.216l8.397,13.193l-17.877,6.5l-1.776,-23.501l11.31,-8.408Zm-270.756,-164.709l-17.823,-5.717l5.715,-17.83l12.212,0.054l-0.104,23.493Zm220.773,-3.724l10.208,28.237l-4.717,4.678l-22.437,-24.532l-5.504,-30.096l22.45,21.713Zm-261.545,-123.32l5.545,20.699l-5.74,23.468l-9.411,3.717l-11.226,-10.387l-8.384,-16.012l7.581,-15.002l-4.643,-12.237l25.363,0.112l0.915,5.642Zm208.37,39.449l-2.727,-20.687l15.986,-3.688l-1.027,19.73l-12.232,4.645Zm-21.589,-3.855l-10.201,-30.116l2.901,-18.782l9.423,-6.537l8.388,15.073l-10.404,15.93l-0.107,24.432Zm-70.65,-168.524l-16.019,11.206l-30.916,-18.931l28.235,-12.092l15.025,1.006l3.675,18.811Zm-178.091,-89.121l34.616,32.104l7.449,15.068l16.805,23.568l43.078,30.262l29.952,24.565l11.264,1.929l25.297,15.147l14.02,16.038l21.539,15.131l17.831,3.837l14.025,15.098l-2.041,36.641l8.351,23.53l-0.079,17.854l21.402,46.142l-9.468,16.873l4.56,31.032l7.498,3.792l14.935,21.68l20.62,10.428l19.657,16.062l6.513,14.125l12.179,7.571l-1.95,15.967l12.175,8.511l1.808,15.984l-5.673,8.433l13.006,32.948l-4.863,37.568l16.875,7.592l2.665,34.782l-11.297,5.588l-6.526,-11.305l-20.741,16.824l-12.203,-1.934l-11.215,-13.206l-13.13,-4.756l-48.648,-45.322l-29.034,-19.863l-13.068,-18.852l-27.134,-24.553l-6.505,-16.004l26.348,-10.221l9.456,-14.054l-19.689,-8.545l-11.294,4.649l-14.04,-11.339l-18.821,7.435l-11.21,-14.145l-8.372,-18.832l11.368,-21.564l-9.302,-20.715l-15.978,1.809l-4.56,-31.031l5.678,-9.373l-26.298,-1.055l-14.993,-8.524l-14.103,2.757l-4.659,-8.478l11.405,-30.022l15.986,-3.688l1.001,-14.092l-13.114,-8.515l5.773,-30.986l-12.178,-7.571l-23.493,1.775l-21.568,-8.552l-4.622,-16.936l15.117,-19.668l-24.42,-1.047l-7.419,-21.647l-15.014,-3.825l0.05,-11.277l-21.651,10.242l-8.392,-14.133l18.837,-11.194l-3.658,-22.57l-10.316,-3.804l14.177,-19.672l36.594,9.559l4.751,-12.196l-31.947,1.739l-26.29,-2.936l-12.125,-19.787l-6.496,-17.884l2.024,-32.882l41.34,-1.697l21.572,7.613Zm39.918,-105.074l-11.301,6.528l-11.198,-16.964l1.999,-27.244l21.655,-11.181l1.763,26.32l-2.918,22.541Zm27.711,-106.068l-2.881,14.084l-18.882,21.53l-4.759,14.075l-12.208,-0.994l7.602,-19.7l-2.731,-19.747l11.326,-12.166l22.533,2.918Zm16.975,-14.961l-12.262,11.223l-15.936,-7.588l10.375,-9.352l17.823,5.717Zm-46.087,12.953l-2.736,-18.807l11.323,-11.226l8.441,2.856l-5.706,15.95l-11.322,11.227Zm7.693,-40.374l-10.408,16.869l-21.547,-13.251l13.201,-11.219l18.754,7.601Zm37.566,2.045l-1.022,18.79l-18.771,-3.842l-0.889,-11.28l11.309,-8.408l9.373,4.74Zm60.931,29.401l-26.323,4.582l-11.302,6.528l-14.182,20.612l-23.492,1.776l9.493,-22.512l13.226,-16.857l40.434,-9.219l15.072,-9.331l21.605,0.096l-1.945,15.027l-22.586,9.298Zm-125.482,-89.829l-0.087,19.734l-15.994,5.568l6.692,-26.283l9.389,0.981Zm24.49,-14.928l-1.974,21.605l-10.362,6.533l-15.874,-21.684l6.638,-14.067l21.572,7.613Zm-320.597,-152.712l20.613,12.308l-7.561,10.303l-15.915,-12.286l2.863,-10.325Zm321.342,196.883l3.882,-28.175l12.377,-37.535l10.271,14.142l-7.66,32.857l-18.87,18.711Zm-50.353,-84.798l7.411,23.526l-5.694,13.131l-14.07,-4.761l-6.476,-22.582l-1.754,-28.2l7.56,-10.304l13.023,29.19Zm78.695,48.274l3.891,-30.055l11.235,8.507l-15.126,21.548Zm-86.755,-137.585l4.613,18.815l-12.236,5.585l-0.84,-22.558l8.463,-1.842Zm-297.416,-84.009l62.913,5.916l-10.432,22.508l-11.294,4.649l-16.883,-5.713l-8.567,25.335l9.353,9.438l-3.891,30.055l19.615,25.459l-2.955,30.998l21.585,4.794l-0.087,19.734l-16.963,12.142l-16.809,-22.628l-10.994,-63.01l-13.987,-23.556l-0.873,-15.039l-13.035,-26.37l13.304,-34.712Zm381.834,112.574l-1.059,27.248l-10.47,30.965l-23.65,37.485l-15.949,-4.769l10.441,-24.387l20.774,-24.342l-10.312,-4.744l-15.167,30.944l-18.804,3.676l-9.319,-16.956l0.174,-39.468l4.763,-15.015l15.063,-7.451l15.192,-36.583l17.811,8.536l6.501,16.944l14.011,17.917Zm-58.191,-11.534l-17.794,-12.295l6.646,-15.946l20.712,-10.246l-9.564,38.487Zm39.603,-33.655l-22.532,-2.919l0.041,-9.397l24.532,-24.325l2.701,26.324l-4.742,10.317Zm-141.563,-64.527l39.445,2.053l8.239,48.903l-4.746,11.256l-19.69,-8.545l-5.499,-31.035l-9.315,-17.896l-8.434,-4.736Zm162.412,23.27l-11.26,-2.869l-29.191,15.847l13.284,-30.013l14.119,-6.516l25.351,2.931l-12.303,20.62Zm-107.026,-14.568l43.988,36.844l-34.827,15.822l-2.727,-20.687l-9.319,-16.956l2.885,-15.023Zm8663.97,638.724l4.61,19.754l-11.269,-0.989l6.659,-18.765Zm-14.578,-102.496l39.512,-12.982l0.881,13.16l-35.75,12.059l-4.643,-12.237Zm-150.16,-244.994l12.178,7.572l-6.638,14.067l-16.031,14.025l-8.396,-13.193l9.489,-21.572l9.398,-0.899Zm-340.956,-222.342l8.367,19.771l22.59,-10.237l-9.36,-7.559l17.927,-17.776l13.159,-1.821l6.414,36.678l-8.467,2.781l1.804,16.924l-23.492,1.775l-16.946,8.383l5.528,24.458l16.015,-10.267l17.844,1.019l6.484,20.703l-2.019,31.942l-6.767,43.198l1.813,15.043l-5.715,17.83l0.869,15.979l-6.692,26.284l3.604,34.786l-10.507,39.422l8.4,12.254l1.754,28.2l-5.677,9.372l22.52,5.738l10.536,-46.001l6.584,-1.85l0.137,-31.011l9.518,-28.15l13.126,5.696l49.741,10.557l13.218,-14.978l4.642,12.238l-8.545,20.636l-8.492,8.42l-2.897,17.842l3.667,20.691l49.691,21.833l0.074,-16.915l39.607,-34.595l10.28,12.261l-3.833,16.899l9.299,21.655l16.031,-14.026l31.091,-20.537l4.896,-45.085l14.074,3.821l2.755,14.108l22.612,-14.936l18.882,-21.531l47.908,0.212l34.72,8.611l-1.118,40.403l-13.234,18.737l0.894,10.341l-11.31,8.407l18.675,25.456l-5.669,7.493l14.032,13.218l8.55,-21.576l9.365,6.619l-14.203,25.31l15.047,-3.692l34.752,1.093l-0.794,-32.894l8.463,-1.843l15.927,9.468l3.866,-24.416l10.378,-10.291l9.365,6.619l5.495,31.975l-6.666,20.645l-18.825,8.375l1.816,14.104l-12.282,15.921l-4.771,16.894l-15.039,1.813l-18.845,13.073l11.214,13.206l24.474,-11.169l13.114,8.516l1.712,37.597l-1.982,23.484l40.331,14.274l1.08,-31.946l-6.542,-7.547l2.95,-30.058l-0.823,-26.316l10.4,-14.99l12.245,-7.464l1.957,-17.846l11.273,0.049l-3.94,41.331l3.707,11.294l-1.99,25.364l7.469,10.37l-2.905,19.721l28.098,18.919l13.342,-43.169l-8.309,-32.927l13.151,0.058l14.028,14.158l5.566,16l9.381,2.86l3.592,37.606l-4.726,6.557l8.284,38.566l7.465,11.309l10.143,43.273l-3.882,28.175l-13.209,13.098l-13.106,-10.395l-13.164,2.761l-11.401,29.081l-10.324,-1.925l-6.493,-18.823l-10.287,-10.382l-0.882,-13.161l-11.227,-10.386l2.951,-30.059l-9.381,-2.86l-11.476,45.996l-13.321,38.47l-16.929,4.624l-10.196,-31.056l-3.43,-74.254l-9.278,-26.354l-36.465,-38.69l-16.917,1.805l-7.835,72.325l1.776,23.501l-11.269,-0.989l-13.226,16.857l-13.163,2.761l-5.736,22.528l-0.112,25.373l5.562,16.939l-8.504,11.24l1.787,20.682l-15.109,17.788l-21.618,2.724l-4.738,9.376l-22.59,10.238l-14.087,-1.002l-8.413,-9.435l4.797,-22.532l18.845,-13.073l18.866,-17.772l11.41,-30.961l-6.46,-26.341l3.812,-12.2l22.636,-20.574l6.633,-13.127l-9.36,-7.559l-17.906,13.077l-41.337,0.757l-5.702,15.011l13.126,5.696l2.735,18.807l-17.898,11.198l-7.486,-6.611l-11.338,14.985l-35.705,1.722l15.122,-20.607l-24.333,-20.782l-14.173,18.733l-5.707,15.95l-15.084,12.15l-33.867,11.127l-3.853,21.597l-28.185,0.815l-13.197,10.279l-29.12,-0.128l-25.409,10.225l-5.682,10.312l-15.952,-3.83l-12.241,6.525l-31.02,4.561l-12.27,13.102l-8.454,-0.037l-29.208,19.606l-18.862,16.832l-17.877,6.499l-18.862,16.832l-25.363,-0.112l-8.342,-25.41l-21.54,-15.13l7.648,-30.038l19.86,-29.984l18.043,-44.088l1.001,-14.092l9.481,-19.692l-1.833,-10.345l-24.428,0.832l-13.205,12.158l-26.36,13.04l-16.905,-1.015l17.985,-30.931l6.53,10.365l20.67,-0.848l9.444,-11.235l-6.481,-21.643l2.955,-30.998l-5.528,-24.457l2.868,-11.265l31.094,-21.476l-2.747,-15.988l-19.69,-8.544l-8.317,-31.048l9.514,-27.211l8.5,-10.299l-10.25,-18.84l1.354,-93.968l-7.246,-61.114l3.911,-34.753l-7.473,-9.431l14.157,-14.973l10.469,-30.965l-8.375,-17.892l5.673,-8.433l-3.678,-17.871l5.669,-7.493l-7.436,-17.887l1.949,-15.967l16.09,-27.182l32.108,-38.387l16.082,-25.302Zm-2568.68,939.677l-19.669,-13.243l-13.047,-23.551l3.857,-22.537l-4.639,-13.177l17.931,-18.715l15.567,91.223Zm-5117.05,156.725l-8.1,-1.617l-17.483,20.108l-1.617,8.1l12.983,19.434l-5.175,9.083l2.292,22.358l8.758,11.009l12.967,-1.634l0.642,-11.666l-8.759,-11.009l-10.691,2.925l4.183,-33.708l-7.783,-7.45l12.308,-11.033l5.5,-14.917l-0.025,0.017Zm-40.217,-34.967l-10.391,-23.975l-7.125,1.95l2.291,22.358l15.234,-0.333l-0.009,-0Zm26.225,-30.167l-8.1,-1.616l-14.575,9.733l18.159,10.358l15.55,-6.175l-11.034,-12.308l0,0.008Zm6095.16,2134.38l-2.567,25.608l-12.308,11.033l2.925,10.692l-14.242,24.967l7.783,7.45l-8.416,46.35l2.925,10.691l11.683,21.709l1.258,-44.4l6.792,-17.184l28.775,-76.833l8.742,-10.058l-3.9,-14.259l4.2,-12.641l-33.334,11.05l-0.316,5.833l-0,-0.008Zm-3090.25,2196.17l-5.834,-0.316l-25.25,54.791l9.4,-0.658l21.667,-53.817l0.017,0Zm25.566,-39.558l30.109,-36.975l-9.084,-5.175l-9.383,21.725l-11.65,20.425l0.008,-0Zm102.992,-85.65l-17.5,-0.958l-31.742,24.008l-16.525,2.608l5.2,11.984l12.309,-11.034l48.266,-26.616l-0.008,0.008Zm257.167,-187.225l-20.075,24.65l32.716,-20.45l-12.641,-4.2Zm3160.19,-2661.65l-6.825,-24.95l-11.666,-0.642l8.775,32.075l9.716,-6.491l0,0.008Zm-351.083,257l-12.967,1.633l-3.225,16.209l16.525,-2.609l-0.333,-15.233Zm221.225,-150.583l-14.258,3.9l-26.542,36l-22.683,8.125l-45.042,10.408l-11.333,14.592l-35.325,3.916l-3.884,6.809l-25.25,12.658l-4.2,12.642l-16.833,8.441l-10.992,29.825l8.759,11.009l19.75,-18.817l17.183,6.792l17.167,-14.275l23.975,-10.392l17.166,-14.275l36.934,-12.025l26.883,-20.767l16.525,-2.608l22.025,-17.517l56.35,-46.075l-5.517,-6.15l-16.191,17.842l-10.059,-8.742l-11.333,14.592l-14.258,3.9l-6.792,17.183l-18.8,1.317l6.475,-11.35l11.983,-5.2l-1.633,-12.958l6.475,-11.35l13.283,-7.467l-0.008,0.017Zm-308.408,931.025l-7.134,1.95l-7.125,1.95l7.784,7.45l6.475,-11.35Zm667.516,-1634.61l-0.658,-9.4l-15.892,-9.058l-8.416,4.217l-2.567,25.608l5.517,6.15l22.025,-17.517l-0.009,0Zm-157.333,587l-8.417,4.217l-12.941,22.7l36.933,-12.025l-15.567,-14.892l-0.008,0Zm-2750.25,2633.75l12.625,-16.866l-33.417,-10.017l-15.55,6.175l0.659,9.4l28.533,13.267l7.125,-1.95l0.025,-0.009Zm1622,-512.833l8.417,-25.283l-9.4,0.658l-5.817,20.75l6.808,3.883l-0.008,-0.008Zm187.083,494.75l-10.375,-2.908l-8.741,10.058l4.241,29.492l10.034,-12.325l4.841,-24.309l0,-0.008Zm-999.666,-209.167l-41.475,9.434l-2.592,4.541l44.067,-13.975Zm-4896.92,-849.416l6.192,36.616l8.758,11.009l10.692,-2.925l-12.984,-19.434l-12.658,-25.25l0,-0.016Zm29.75,-73.275l2.925,10.691l-0.958,17.5l25.608,2.567l-7.467,-13.283l-20.108,-17.484l0,0.009Zm-196.217,-157.017l-24.308,-4.842l1.317,18.8l7.783,7.45l17.825,-4.875l-2.608,-16.525l-0.009,-0.008Zm32.734,0.617l-11.009,8.758l4.217,8.417l19.45,8.083l13.283,-7.467l-25.941,-17.8l-0,0.009Zm5044.91,-1876l-1.226,-0.343l-0.159,0.106l1.385,0.237l8.951,2.51l-3.634,16.896l5.945,10.011l3.104,6.19l-15.234,0.333l4.875,17.825l-7.45,7.784l32.417,6.45l-0.642,11.666l20.109,17.484l-15.55,6.175l-54.775,-4.167l-27.875,-3.867l-5.817,20.75l2.608,16.525l-13.941,-1.933l-25.625,-23.633l-42.792,-9.359l-25.925,3.267l-12.942,22.7l-51.85,6.525l-21.383,5.85l-13.267,28.533l-18.141,10.709l-9.384,21.725l-12.641,-4.2l8.083,-19.45l8.417,-4.217l-2.609,-16.525l-12.308,11.033l-9.075,-5.175l-11.967,26.259l-15.55,6.175l-1.633,-12.967l-9.083,-5.175l-3.55,22.042l-9.717,6.491l-10.675,23.992l-7.108,23.017l-22.325,44.416l-5.5,14.917l-2.267,19.825l-21.708,11.683l-2.909,10.375l-13.266,28.534l-6.45,32.416l15.55,-6.175l17.166,-14.275l13.267,-28.533l7.45,-7.783l16.833,-8.442l3.9,-6.833l5.5,-14.917l7.767,-13.617l4.525,-18.475l11.983,-5.2l10.359,-18.158l-0,0.008l2.291,22.359l-13.583,34.366l-4.525,18.475l-7.767,13.617l-3.583,1l-3.542,22.042l-12.291,32.1l-4.5,39.541l8.441,16.834l-6.475,11.35l-10.033,12.325l-8.725,31.125l1.317,18.8l5.85,21.383l-10.675,23.992l0.016,21.066l-6.791,17.184l-2.25,19.775l6.508,30.783l-2.908,10.375l9.733,14.575l1.633,12.958l8.759,11.009l0.016,21.066l-1.616,8.1l4.241,29.467l-0.941,38.567l11.366,27.541l11.35,6.475l6.825,24.95l11.367,27.542l8.758,11.008l14.592,12.793l18.475,4.525l34.667,-13.316l22.025,-17.517l17.183,-15.71l12.942,-22.7l11.308,-35.658l12.942,-22.7l11.633,-41.492l1.258,-44.4l-4.575,-44.725l-10.391,-23.975l-37.984,-75.833l-6.175,-15.55l1.934,-13.942l6.791,-17.183l-2.941,-31.758l-11.684,-21.709l11.334,-14.591l17.466,-41.175l-2.625,-37.592l-4.875,-17.825l5.175,-9.083l14.259,-3.9l4.183,-33.709l5.833,0.317l7.767,-13.617l11.35,6.475l9.383,-21.725l18.459,-16.541l3.9,14.258l-3.884,6.808l3.9,14.259l-4.525,18.475l10.375,2.908l2.892,-31.442l14.592,11.334l2.891,-31.442l-4.558,-23.658l6.792,-17.184l17.166,-14.275l18.8,-1.316l0.642,-11.667l-13.3,-13.6l-0.017,-21.067l15.217,-21.4l21.708,-11.683l25.284,8.417l15.891,9.058l20.092,-3.583l12.642,4.2l17.516,22.025l21.067,-0.017l13.617,7.767l21.725,9.383l23.333,1.275l16.867,12.625l-1.617,8.1l11.033,12.308l5.2,11.984l-15.55,6.175l-1.933,13.941l17.842,16.192l11.05,33.333l-1.934,13.942l4.892,38.883l-3.225,16.209l-19.433,12.983l-4.5,39.542l-12.309,11.033l-16.525,2.608l-5.175,9.084l-5.5,14.916l1.967,28.192l7.783,7.45l31.125,8.725l12.942,-22.7l8.1,1.617l9.7,-27.559l14.242,-24.966l20.408,-9.417l19.433,-12.983l17.184,6.791l17.841,16.192l10.709,18.142l13.658,49.9l7.467,13.283l6.508,30.783l12.342,31.1l9.733,14.575l-0.008,0.067l-2.256,10.313l-2.202,5.975l-0.018,4.176l-14.241,65.103l-1.317,-18.8l-11.35,-6.475l-12.625,16.866l-4.2,12.642l1.967,28.192l-20.725,15.25l-1.925,3.375l-2.8,1.54l-0.015,3.396l-3.027,5.305l-1.616,8.1l-3.525,43.109l-8.417,4.216l-15.85,33.075l-3.212,16.142l-0.063,-0l0.05,0.067l0.013,-0.067l21.004,-0.017l12.325,10.034l19.775,2.25l21.083,21.05l6.492,9.716l11.008,-8.758l28.192,-1.967l15.891,9.059l18.142,-10.709l15.55,-6.175l26.567,-14.933l23.333,1.275l26.242,-9.1l37.558,-44.758l40.167,-28.234l62.883,-36.366l16.833,-8.442l75.809,-59.017l33.333,-32.116l12.625,-16.867l24.608,-22.058l11.967,-26.259l12.308,-11.033l3.225,-16.208l-11.683,-21.709l-1.317,-18.8l-21.066,0.017l-5.217,-33.05l45.675,-22.075l38.233,-14.292l21.067,-0.016l15.55,-6.175l47.967,0.283l19.45,8.083l11.666,0.642l21.709,-11.683l49.583,-7.825l31.425,-18.175l2.908,-10.375l29.792,-31.142l21.383,-5.85l5.175,-9.083l-0.333,-15.234l-21.425,-36.283l14.575,-9.733l-4.558,-23.659l-10.375,-2.908l-8.417,4.217l-12.325,-10.034l17.483,-20.108l15.867,-12.008l29.133,-40.534l-4.216,-8.416l-10.389,4.086l-8.533,17.818l-34.848,20.52l-24.519,21.506l-25.404,9.285l-19.793,14.948l-15.117,19.668l-14.96,-16.041l-1.99,25.364l17.839,1.958l13.106,10.395l-23.571,19.63l-15.97,-0.07l-19.673,-12.304l-15.998,6.508l-17.79,-13.235l-36.714,17.693l-47.035,14.828l-26.373,15.859l-14.09,-0.062l-59.301,26.991l-30.234,39.335l-13.159,1.822l-12.283,15.921l-1.005,15.031l-16.115,32.82l14.029,14.158l19.718,1.966l29.129,-1.751l17.918,-15.896l15.043,-2.753l3.62,31.027l6.518,13.185l16.871,8.533l-2.868,11.264l-16.015,10.266l-15.017,-2.885l-31.964,5.497l-24.473,11.169l-10.321,-2.865l-64.001,27.91l-23.617,29.967l0.91,6.582l46.981,-2.612l-0.964,5.634l-34.753,-1.093l-19.747,4.612l-58.208,-7.775l-38.539,5.468l-16.937,6.504l-21.685,17.759l-28.338,35.585l-6.663,19.705l-7.548,7.485l-17.865,3.68l-37.699,28.025l-19.864,30.924l-11.235,-8.507l-26.36,13.04l-11.281,1.829l-30.01,-11.409l0.172,-38.891l2.815,-4.936l14.15,-7.783l23.472,2.923l19.743,-3.672l24.461,-8.349l-1.754,-28.2l-23.489,0.836l7.631,-26.279l0.202,-45.629l2.22,-10.151l5.404,-14.665l27.312,-15.855l16.082,-25.302l15.075,-10.271l16.081,-25.302l0.108,-24.432l-7.382,-30.104l-5.433,-46.071l-8.342,-25.41l8.52,-14.998l3.899,-31.934l10.412,-17.809l11.313,-9.348l11.431,-35.659l-6.443,-30.1l-13.098,-12.274l-0.869,-15.98l-15.919,-11.347l-21.514,-20.769l-2.765,-12.229l38.544,-6.408l0.856,18.799l10.234,22.599l17.777,16.054l17.865,-3.681l-0.091,20.674l13.163,-2.761l7.47,10.37l-3.857,22.537l20.753,-19.643l15.981,-2.749l7.445,16.009l20.633,7.609l27.229,2.939l19.702,5.725l10.387,-12.17l-2.69,-29.144l-16.867,-9.472l-1.829,-11.285l18.842,-12.133l13.08,16.033l16.909,0.075l-16.768,-32.025l-13.147,-0.998l-19.644,-18.881l3.824,-15.019l-17.802,-10.416l8.537,-18.757l-13.093,-13.214l-21.659,12.121l-14.02,-16.037l-1.813,-15.044l-19.673,-12.304l-18.717,-16.058l-8.367,-19.771l-29.058,-14.224l-46.993,5.431l-45.069,-4.898l5.694,-13.131l-58.266,5.381l-39.445,-2.053l-11.248,-5.688l-32.923,10.192l-5.616,-4.724l-33.859,9.248l-33.809,-2.029l-47.874,-7.729l-10.35,3.713l-27.213,-6.698l-25.363,-0.112l-2.447,-4.122l-5.338,-10.643l3.225,-16.209l-0.198,-0.055l0.203,-0.942l-9.154,-1.568Zm-149.843,191.674l3.884,-6.809l-2.292,-22.358l-7.125,1.95l-6.133,26.583l11.666,0.642l0,-0.008Zm333.358,-107.579c0,-0 11.194,17.904 11.194,17.904l19.777,-11.19l11.33,-13.106l21.651,-10.241l4.652,10.357l20.616,11.368l3.836,-17.838l15.076,-10.271l8.392,14.133l20.633,7.609l21.543,14.191l-18.97,41.265l-27.242,-0.12l-21.588,-3.854l-22.487,-13.256l-15.034,0.874l-30.946,-12.354l-34.765,1.726l-37.504,-16.141l33.867,-11.127l15.969,0.071Zm-61.083,5.368l5.603,7.543l-11.327,12.167l-14.988,-9.464l6.629,-12.187l14.083,1.941Zm-34.133,-14.673l-16.208,-3.225l0.658,9.4l-16.192,17.842l16.209,3.225l18.8,-1.317l10.033,-12.325l-13.3,-13.6Zm-66.168,-33.696l26.289,2.936l8.426,6.615l-14.219,29.069l-20.571,-21.705l0.075,-16.915Zm-55.231,-27.75l8.505,-3.761l8.794,-0.193l14.416,-9.627l-0.726,-0.124l-22.484,9.944l-6.439,0.141l-2.066,3.62l-4.777,2.113l-13.11,-9.456l1.929,-11.268l14.173,-18.732l-17.748,-22.632l18.804,-3.676l3.807,-11.26l-10.304,-6.624l-29.121,-0.128l-14.074,-3.821l2.008,-29.123l14.227,-30.948l-17.757,-20.753l-26.248,-12.332l-15.903,-15.106l1.026,-19.73l9.46,-14.994l-5.586,-11.302l10.391,-13.11l-12.17,-9.451l-42.305,7.331l-16.946,8.383l-39.454,-0.174l-15.009,-4.765l-29.927,-30.204l-23.281,-46.15l-7.39,-28.224l-26.162,-32.067l-13.184,7.46l-19.677,-11.364l-13.201,11.219l-25.347,-3.871l-30.088,6.446l-21.552,-12.312l-9.41,3.717l-16.863,-10.411l-32.853,-5.784l-9.361,-7.559l-31.011,2.683l9.281,25.413l12.179,7.572l2.743,16.927l-10.416,18.749l-27.287,10.217l11.426,-34.72l-6.505,-16.004l-9.386,-1.921l-11.334,14.046l-0.121,27.252l-7.527,2.786l-0.087,19.734l-9.506,25.331l-15.977,1.809l2.971,-34.757l-39.536,18.62l-7.548,7.484l3.674,18.811l-13.333,41.29l-12.233,4.644l-18.143,21.609l-0.042,0.017l-60.575,37.65l-53.783,20.466l-29.15,19.475l-28.175,23.034l-58.917,71.675l-34.65,34.383l-36.6,27.258l-0.317,5.834l19.2,13.966l20.092,-3.583l48.925,-17.217l22.025,-17.516l12.642,4.2l19.75,-18.817l14.258,-3.9l11.033,12.308l-10.358,18.159l-3.208,37.275l13.283,-7.467l5.175,-9.083l22.7,12.941l19.775,2.25l0.008,0.042l0.017,-0.05l49.242,-23.05l23.633,-25.625l50.875,-10.092l19.433,-12.983l11.334,-14.592l20.091,-3.583l8.084,-19.45l24.608,-22.058l7.467,13.283l2.275,1.275l0.958,-17.5l17.8,-25.942l27.858,-17.2l19.117,-7.15l28.192,-1.966l10.058,8.741l0,0.009l-3.883,6.808l-15.234,0.333l-39.825,43.467l-18.441,37.608l-3.575,0.967l-2.567,25.608l12.958,-1.633l17.484,-20.108l5.516,6.15l14.259,-3.9l35.008,1.916l20.425,11.65l6.492,9.717l18.491,25.592l10.375,2.908l6.175,15.55l15.234,-0.333l19.116,-7.15l12.959,-1.634l13.3,13.6l14.575,-9.733l15.891,9.058l15.217,-21.4l26.567,-14.933l14.891,-15.567l6.809,3.884l29.808,-10.075l42.133,-0.034l36.284,-21.425l21.066,-0.016l4.217,8.416l-1.917,35.009l31.125,8.725l20.409,-9.417l13.3,13.6l7.475,-7.808l4.409,-7.73Zm-530.676,-256.254l-15.55,6.175l-25.592,18.492l-32.716,20.45l-11.009,8.758l9.734,14.575l21.708,-11.683l1.617,-8.1l30.125,-15.908l12.308,-11.034l9.383,-21.725l-0.008,0Zm363.394,43.39l-16.007,8.387l-25.367,0.828l7.582,-15.003l15.042,-2.752l18.75,8.54Zm-282.968,-164.763l-5.669,7.493l-20.679,2.728l-14.045,-10.399l16.015,-10.266l22.549,-0.84l1.829,11.284Z"/></svg>