<?xml version="1.0" encoding="UTF-8" standalone="no"?><!DOCTYPE svg PUBLIC "-//W3C//DTD SVG 1.1//EN" "http://www.w3.org/Graphics/SVG/1.1/DTD/svg11.dtd"><svg fill="#a2a2a2" stroke="#fff" fill-rule="nonzero" stroke-width="20.83px" width="100%" height="100%" viewBox="0 0 7576 4732" version="1.1" xmlns="http://www.w3.org/2000/svg" xmlns:xlink="http://www.w3.org/1999/xlink" xml:space="preserve" xmlnsSerif="http://www.serif.com/" style="fill-rule:evenodd;clip-rule:evenodd;stroke-linejoin:round;">
<path d="M5209.62,1047.52l3.883,-6.809l-2.291,-22.358l-7.125,1.95l-6.134,26.583l11.667,0.642l0,-0.008m238.142,-116.884l-16.209,-3.225l0.659,9.4l-16.192,17.842l16.208,3.225l18.8,-1.317l10.034,-12.325l-13.3,-13.6m-547.925,-189.125l-10.059,-8.741l-28.191,1.966l-19.117,7.15l-27.858,17.2l-17.8,25.942l-0.959,17.5l11.667,0.642l14.933,26.566l18.442,-37.608l39.825,-43.467l15.233,-0.333l3.884,-6.808l-0,-0.009m-104.15,-128.575l-15.55,6.175l-25.592,18.492l-32.717,20.45l-11.008,8.758l9.733,14.575l21.709,-11.683l1.616,-8.1l30.125,-15.908l12.309,-11.034l9.383,-21.725l-0.008,0m2616.66,-62.833l0.642,-11.667l-23.075,-70.308l-46.142,-140.617l-29.192,-22.658l-36.633,-14.875l-11.667,-0.642l-7.766,13.617l-17.825,4.875l-9.059,15.892l-14.258,3.9l-13.6,13.3l-18.475,-4.525l-5.517,-6.15l-6.825,-24.95l-21.066,0.016l-6.15,5.517l-49.45,155.283l6.525,51.85l-11.334,14.592l-2.891,31.442l6.491,9.716l-1.933,13.942l1.633,12.958l11.034,12.309l-13.267,28.533l4.217,8.417l-18.775,22.375l-6.792,17.183l-0.958,17.5l-8.084,19.45l3.9,14.258l-7.766,13.617l-9.734,-14.575l-14.575,9.733l0.034,-0.066l-4.2,12.641l-19.775,-2.25l-10.034,12.325l-3.525,43.109l-99.825,27.316l-130.583,33.817l-80.617,20.225l-87.808,22.117l-0.05,-0.042l-22.358,2.292l-28.175,23.033l-14.892,15.567l-44.35,61.941l-6.792,17.184l4.217,8.416l-29.133,40.534l-15.867,12.008l-17.483,20.108l12.325,10.034l8.416,-4.217l10.375,2.908l4.559,23.659l-14.575,9.733l21.425,36.283l0.333,15.234l-5.175,9.083l-21.383,5.85l-29.792,31.142l-2.908,10.375l-31.425,18.175l-49.584,7.825l-21.708,11.683l-11.667,-0.642l-19.45,-8.083l-47.966,-0.283l-15.55,6.175l-21.067,0.016l-38.233,14.292l-45.675,22.075l5.216,33.05l21.067,-0.017l1.317,18.8l11.683,21.709l-3.225,16.208l-12.308,11.033l-11.967,26.259l-24.608,22.058l-12.625,16.867l-33.334,32.116l-0.025,-0.033l-14.575,9.733l-61.208,49.317l-16.875,8.458l-62.842,36.35l-40.166,28.234l-37.559,44.758l-26.241,9.1l-23.334,-1.275l-26.566,14.933l-15.55,6.175l-18.142,10.709l-15.892,-9.059l-28.191,1.967l-11.009,8.758l-6.491,-9.716l-21.084,-21.05l-19.775,-2.25l-12.325,-10.034l-21.066,0.017l0.05,0.067l3.225,-16.209l15.85,-33.075l8.416,-4.216l3.525,-43.109l1.617,-8.1l7.767,-13.616l20.725,-15.25l-1.967,-28.192l4.2,-12.642l12.625,-16.866l11.35,6.475l1.317,18.8l8.416,-4.217l7.767,-13.617l1.275,-23.333l-4.217,-8.417l5.475,-35.983l0.009,-0.067l-9.734,-14.575l-12.341,-31.1l-6.509,-30.783l-7.466,-13.283l-13.659,-49.9l-10.708,-18.142l-17.842,-16.192l-17.183,-6.791l-19.433,12.983l-20.409,9.417l-14.241,24.966l-9.7,27.559l-8.1,-1.617l-12.942,22.7l-31.125,-8.725l-7.783,-7.45l-1.967,-28.192l5.5,-14.916l5.175,-9.084l16.525,-2.608l12.308,-11.033l4.5,-39.542l19.434,-12.983l3.225,-16.209l-4.892,-38.883l1.933,-13.942l-11.05,-33.333l-17.841,-16.192l1.933,-13.941l15.55,-6.175l-5.2,-11.984l-11.033,-12.308l1.616,-8.1l-16.866,-12.625l-23.334,-1.275l-21.725,-9.383l-13.616,-7.767l-21.067,0.017l-17.517,-22.025l-12.641,-4.2l-20.092,3.583l-15.892,-9.058l-25.283,-8.417l-21.708,11.683l-15.217,21.4l0.017,21.067l13.3,13.6l-0.642,11.667l-18.8,1.316l-17.167,14.275l-6.791,17.184l4.558,23.658l-2.892,31.442l-14.591,-11.334l-2.892,31.442l-10.375,-2.908l4.525,-18.475l-3.9,-14.259l3.883,-6.808l-3.9,-14.258l-18.458,16.541l-9.383,21.725l-11.35,-6.475l-7.767,13.617l-5.833,-0.317l-4.184,33.709l-14.258,3.9l-5.175,9.083l4.875,17.825l2.625,37.592l-17.467,41.175l-11.333,14.591l11.683,21.709l2.942,31.758l-6.792,17.183l-1.933,13.942l6.175,15.55l37.983,75.833l10.392,23.975l4.575,44.725l-1.258,44.4l-11.634,41.492l-12.941,22.7l-11.309,35.658l-12.941,22.7l-39.209,31.742l-34.666,13.317l-18.475,-4.525l-14.592,-11.334l-8.758,-10.983l-11.367,-27.542l-6.825,-24.95l-11.35,-6.475l-11.367,-27.541l0.942,-38.567l-0,0.025l-4.242,-29.492l1.617,-8.1l-0.017,-21.066l-8.758,-11.009l-1.633,-12.958l-9.734,-14.575l2.909,-10.375l-6.509,-30.783l2.25,-19.775l6.792,-17.184l-0.017,-21.066l10.675,-23.992l-5.85,-21.383l-1.316,-18.8l8.725,-31.125l10.033,-12.325l6.475,-11.35l-8.442,-16.834l4.5,-39.541l12.292,-32.1l3.542,-22.042l-16.867,-12.625l-16.833,8.442l-7.45,7.783l-13.267,28.533l-17.167,14.275l-15.55,6.175l6.45,-32.416l13.267,-28.534l2.908,-10.375l21.709,-11.683l2.25,-19.775l0.016,-0.05l5.5,-14.917l22.325,-44.416l7.109,-23.017l10.675,-23.992l9.716,-6.491l3.55,-22.042l9.084,5.175l1.633,12.967l15.55,-6.175l11.967,-26.259l9.075,5.175l12.308,-11.033l2.608,16.525l-8.416,4.217l-8.084,19.45l12.642,4.2l9.383,-21.725l18.142,-10.709l13.267,-28.533l21.383,-5.85l51.85,-6.525l12.942,-22.7l25.925,-3.267l42.791,9.359l25.625,23.633l13.942,1.933l-2.608,-16.525l5.816,-20.75l27.875,3.867l54.775,4.167l15.55,-6.175l-20.108,-17.484l0.642,-11.666l-32.417,-6.45l7.45,-7.784l-4.875,-17.825l15.233,-0.333l-8.441,-16.833l3.225,-16.209l-10.375,-2.908l-14.575,9.733l-15.234,0.334l-6.475,11.35l-0.025,0.025l-7.45,7.783l-13.3,-13.6l-20.408,9.417l-31.125,-8.725l1.917,-35.009l-4.217,-8.416l-21.067,0.016l-36.283,21.425l-42.133,0.034l-29.809,10.075l-6.808,-3.884l-14.892,15.567l-26.566,14.933l-15.217,21.4l-15.892,-9.058l-14.575,9.733l-13.3,-13.6l-12.958,1.634l-19.117,7.15l-15.233,0.333l-6.175,-15.55l-10.375,-2.908l-18.492,-25.592l-6.491,-9.717l-20.425,-11.65l-35.009,-1.916l-14.258,3.9l-5.517,-6.15l-17.483,20.108l-12.958,1.633l2.566,-25.608l-12.658,-25.25l-12.642,-4.2l-7.466,-13.283l-24.609,22.058l-8.083,19.45l-20.092,3.583l-11.333,14.592l-19.433,12.983l-50.875,10.092l-23.634,25.625l-49.241,23.05l-19.8,-2.242l-22.7,-12.941l-5.175,9.083l-13.284,7.467l3.209,-37.275l10.358,-18.159l-11.033,-12.308l-14.259,3.9l-19.75,18.817l-12.641,-4.2l-22.025,17.516l-48.925,17.217l-20.092,3.583l-19.2,-13.966l0.317,-5.834l36.6,-27.258l34.65,-34.383l58.916,-71.675l28.175,-23.034l29.15,-19.475l53.784,-20.466l60.575,-37.65l0.041,-0.017l-29.166,-1.592l-9.717,6.492l-9.083,-5.175l-14.275,-17.167l-11.667,-0.641l-43.75,8.141l-32.733,-0.616l-5.85,-21.384l-11.667,-0.641l-18.142,10.708l-23.316,19.792l-19.117,7.15l-17.5,-0.959l-15.892,-9.058l-8.441,-16.833l-24.309,-4.842l-9.416,-20.408l-13.942,-1.934l-19.117,7.15l1.634,12.967l-10.692,2.925l-20.125,-38.55l-21.067,0.017l6.792,-17.184l-28.85,-7.425l-11.35,-6.475l-32.733,-0.616l-24.95,6.825l-5.175,9.083l-30.784,6.508l-15.25,-20.725l-43.108,-3.525l-11.033,-12.308l-20.092,3.583l-12.642,-4.2l-15.566,-14.891l-1.317,-18.8l-12.683,-46.334l-0.992,-24.633l-18.158,-10.358l-22.042,-3.55l1.033,66.75l-2.591,4.541l-80.7,-0.9l-167.25,-2.125l-98.159,-1.833l-79.408,-3.175l-133.208,-3.775l-105.009,-5.742l-83.916,-5.758l-75.842,-4.15l-105.992,-9.308l-140.991,-11.217l-96.609,-9.958l-80.383,-6.734l-132.567,-15.441l-77.791,-11.275l-106.967,-12.875l-103.4,-13.85l-116.042,-18.05l-94.975,-18.067l-104.375,-17.408l-155.266,-28.384l-129.659,-25.816l-131.933,-27.109l-104.042,-23.183l-114.375,-26.242l-144.258,-37.141l-128.05,-33.917l-153.333,-42.325l-78.45,-20.675l-100.167,-30.05l-63.217,-21.008l-0.05,0.05l-8.083,19.45l9.1,26.241l12.642,4.2l0.358,36.3l-9.717,6.492l-11.966,26.258l12.008,15.867l-4.183,33.708l12.658,25.25l-19.117,7.15l-17.8,25.942l-0.641,11.667l-7.767,13.616l-5.475,35.984l1.633,12.958l-20.725,15.25l-9.083,-5.175l-8.742,10.058l-24.291,16.225l-3.9,-14.258l-15.234,0.333l-5.2,-11.983l11.334,-14.592l11.983,-5.2l-1.275,23.334l19.433,-12.984l14.259,-3.9l16.833,-29.508l-6.175,-15.55l2.25,-19.775l23.658,-4.558l0.3,-26.9l-6.808,-3.884l-25.908,24.334l-8.742,10.058l-24.95,6.825l22.658,-29.192l12.642,4.2l12.308,-11.033l1.934,-13.942l-4.242,-29.491l2.908,-10.375l-28.191,1.966l-9.734,-14.575l-18.8,1.317l-36.633,-14.875l-12.325,-10.033l-38.908,-16.175l-17.517,-22.025l-18.158,-10.359l-15.25,-20.725l-14.259,3.9l-16.508,23.675l0.333,15.234l-4.183,33.708l12.658,25.25l3.9,14.258l-3.208,37.275l-6.45,32.417l5.533,27.217l-7.75,34.683l17.184,6.792l-1.617,8.1l13.3,13.6l-22.358,2.291l-10.034,12.325l-2.908,10.375l20.425,11.65l-13.242,49.6l-26.241,9.1l11.683,21.709l30.467,-0.675l7.466,13.283l17.5,0.958l13.634,28.834l15.091,-0.417l0.117,0.075l-8.417,4.217l-17.183,-6.792l-9.417,-20.408l-15.55,6.175l-32.416,-6.45l-11.034,-12.309l-1.275,23.334l-4.525,18.475l-10.691,2.925l0.333,15.233l-10.358,18.158l3.583,20.092l-10.033,12.325l-8.084,19.45l4.217,8.417l-12.308,11.033l0.658,9.4l-8.417,25.283l-24.591,43.125l-5.175,9.084l-12.609,37.933l-52.4,123.525l-10.358,18.158l-31.067,54.475l-6.475,11.35l-11.666,-0.641l-26.209,51.233l-21.366,26.917l-2.25,19.775l8.441,16.833l-4.525,18.475l-6.475,11.35l-9.7,27.558l0.017,21.067l-4.525,18.475l12.625,25.267l-9.7,27.558l-8.742,10.058l11.034,12.309l0.991,24.633l-5.158,30.142l-21.033,42.15l-8.417,4.216l0.992,24.634l-32.042,50.908l-6.808,-3.883l-33.667,37.95l0.992,24.633l-5.175,9.083l23.691,37.575l20.15,59.617l-0.3,26.9l-6.133,26.583l-11.333,14.592l-6.792,17.183l1.35,60.925l-8.742,10.059l5.85,21.383l17.859,37.258l16.566,39.525l12.009,15.867l12.025,36.933l-3.55,22.042l-16.509,23.675l14.259,-3.9l11.033,12.308l9.417,20.409l8.1,1.616l15.25,20.725l13.283,-7.466l-6.492,-9.717l12.292,-32.1l14.258,-3.9l12.984,19.433l21.725,9.384l12.308,-11.034l7.467,13.284l-25.925,3.266l-8.759,-11.008l-28.516,7.8l7.8,28.517l-7.45,7.783l8.758,11.008l8.442,16.834l-3.225,16.208l-8.742,10.058l-7.467,-13.283l-12.325,-10.033l4.5,-39.542l-16.525,2.608l-2.25,19.775l-12.941,22.7l7.783,7.45l-0.3,26.9l-7.425,28.85l23.05,49.242l11.35,6.475l17.5,0.958l8.758,11.009l3.267,25.925l-8.083,19.45l-12.309,11.033l-7.783,-7.45l-8.417,25.283l-2.891,31.442l3.9,14.258l13.3,13.6l10.708,18.142l3.583,20.092l10.059,8.741l-2.25,19.775l11.683,21.709l4.558,23.658l12.325,10.033l15.592,35.959l11.35,6.475l4.217,8.416l-11.967,26.259l12.008,15.866l19.134,13.917l-0.642,11.667l-15.533,27.241l5.2,11.984l-6.792,17.183l2.925,10.692l-13.917,19.133l17.842,16.192l1.633,12.958l50.892,10.975l17.183,6.792l15.567,14.891l20.75,5.817l17.5,0.958l21.4,15.217l20.767,26.883l2.291,22.359l38.267,27.841l20.425,11.65l35.983,5.475l10.709,18.142l2.291,22.358l-6.791,17.184l13.616,7.766l9.717,-6.491l22.7,12.941l12.983,19.434l24.334,25.908l31.475,45.025l18.516,46.65l0.034,42.133l-7.45,7.784l-1.275,23.333l12.325,10.033l-0.3,26.9l91.75,13.209l111.5,15.458l164.008,18.333l-17.483,20.109l-3.225,16.208l117.75,73.142l115.441,71.85l116.75,69.583l118.034,67.333l62.258,38.517l8.1,1.617l162.392,26.433l151.983,23.517l117.333,15.775l12.567,-80.067l161.417,22.867l101.133,12.55l20.467,11.691l9.1,26.242l14.933,26.567l26.258,11.966l17.517,22.025l13.958,23l23.359,22.342l5.2,11.983l27.575,30.767l20.425,11.65l18.816,19.75l13.617,7.767l16.225,24.291l3.583,20.092l13.317,34.667l7.467,13.283l-5.159,30.142l2.609,16.525l13.633,28.833l4.558,23.658l12.009,15.867l14.591,11.333l13.942,1.934l29.525,37.891l18.158,10.359l22.042,3.55l0.658,9.4l16.867,12.625l20.75,5.816l9.733,14.575l14.592,11.334l11.667,0.641l25.283,8.417l6.475,-11.35l21.05,-21.083l15.55,-6.175l3.55,-22.042l20.058,-45.717l17.8,-25.941l27.217,-5.534l16.208,3.225l7.767,-13.616l11.983,-5.2l29.509,16.833l21.066,-0.017l54.459,10l12.958,-1.633l23.017,7.108l6.175,15.55l7.783,7.45l11.667,0.642l13.958,23l14.592,11.333l3.9,14.259l31.458,23.958l7.15,19.117l12.325,10.033l6.192,36.617l17.516,22.025l1.317,18.8l15.25,20.725l15.608,57.025l12.009,15.866l20.425,11.65l10.391,23.975l19.792,23.317l1.317,18.8l9.083,5.175l15.25,20.725l18.475,4.525l13.3,13.6l-1.933,13.942l7.466,13.283l-6.791,17.183l10.391,23.975l-6.133,26.584l15.892,9.058l1.633,12.958l14.592,11.334l6.491,9.716l0.334,15.234l13.3,13.6l-7.109,23.016l7.784,7.45l5.85,21.384l19.775,2.25l11.35,6.475l15.233,-0.334l9.733,14.575l14.592,11.334l10.692,-2.925l34.366,13.583l12.009,15.867l13.616,7.766l46.675,2.55l23.334,1.275l18.475,4.525l43.783,33.992l29.15,-19.475l18.8,-1.317l-0.333,-15.233l-15.867,12.008l-0.333,-15.233l-12.325,-10.033l1.933,-13.942l-8.442,-16.833l0.642,-11.667l-16.867,-12.625l5.817,-20.75l-10.408,-45.042l-10.059,-8.741l1.917,-35.009l10.692,-2.925l-2.609,-16.525l8.417,-4.216l2.567,-25.609l-13.284,7.467l-19.775,-2.25l0.642,-11.667l16.833,-8.441l18.475,4.525l26.842,-62.9l-14.592,-11.334l-4.875,-17.825l-17.5,-0.958l-4.216,-8.417l42.133,-0.033l13.617,7.767l26.541,-36l-14.916,-5.5l-2.909,10.375l-14.591,-11.334l10.033,-12.325l45.7,-1.008l16.192,-17.842l-0.334,-15.233l-8.441,-16.833l10.691,-2.925l17.517,22.025l42.083,-21.1l-17.516,-22.025l-11.35,-6.475l4.2,-12.642l18.475,4.525l8.741,-10.058l6.492,9.716l14.575,-9.733l7.15,19.117l63.5,-26.959l21.067,-0.016l15.55,-6.175l29.15,-19.475l7.125,-1.95l35.625,-30.817l-1.317,-18.8l14.575,-9.733l27.517,-32.434l-7.784,-7.45l-13.958,-23l0.617,-32.733l23.991,10.675l8.084,-19.45l10.691,-2.925l9.734,14.575l-10.017,33.417l23.658,-4.559l-6.791,17.184l93.625,-42.859l30.466,-0.675l6.142,-5.633l15.55,-6.175l46.017,-6.85l39.866,-1.333l26.584,6.133l56.091,22.958l22.042,3.542l44.083,7.092l21.709,-11.684l3.883,-6.808l-7.467,-13.283l2.909,-10.375l20.408,-9.417l2.592,-4.542l22.358,-2.291l-5.5,14.916l30.467,-0.675l10.375,2.909l-3.225,16.208l12.966,-1.633l5.85,21.383l35.984,5.475l6.15,-5.517l9.416,20.409l-15.216,21.4l15.891,9.058l25.284,8.417l22.041,3.55l16.525,-2.609l21.725,9.384l19.417,-34.05l28.192,-1.967l23.016,7.108l-3.225,16.209l9.734,14.575l22.025,-17.517l-3.584,-20.092l9.059,-15.891l-10.075,-29.809l18.158,10.359l10.692,-2.925l21.4,15.216l4.216,8.417l21.725,9.383l3.242,4.859l19.775,2.25l18.5,25.591l11.35,6.475l19.775,2.25l24.608,-22.058l-16.541,-18.458l-14.275,-17.167l-22.359,2.292l-15.891,-9.059l-12.959,1.634l-3.9,-14.259l-20.75,-5.816l-9.733,-14.575l11.983,-5.2l26.867,-41.834l7.783,7.45l12.625,-16.866l-17.183,-6.792l-0.992,-24.633l-23,13.958l-5.816,20.75l-9.4,0.658l-25.942,-17.8l5.817,-20.75l-15.892,-9.058l-6.475,11.35l-15.867,12.008l-20.091,3.584l-28.85,-7.434l-14.592,-11.333l3.225,-16.208l27.517,-32.434l25.608,2.567l16.542,18.458l31.441,2.892l8.759,11.008l29.533,-4.166l12.958,-1.634l4.2,-12.641l11.009,-8.759l50.25,-19.491l12.308,-11.034l13.942,1.934l16.866,12.625l28.192,-1.967l16.208,3.225l10.034,-12.325l4.841,-3.192l40.517,8.067l-0.017,-21.067l5.475,-35.983l16.525,-2.608l7.15,19.116l-4.2,12.642l6.492,9.717l22.375,18.775l-1.933,13.941l32.075,-8.775l1.616,-8.1l14.575,-9.733l11.334,-14.592l-4.217,-8.416l10.308,2.791l-8.083,19.45l14.917,5.5l23.958,-31.458l-1.317,-18.8l15.567,14.892l6.15,-5.517l14.592,11.333l-15.867,12.009l56.708,-9.775l28.834,-13.634l13.941,1.934l16.834,-8.442l24.308,4.842l-13.283,7.466l-20.409,9.417l48.625,9.683l34.367,13.584l20.425,11.65l-7.15,-19.117l10.692,-2.925l8.125,22.683l54.158,36.9l9.733,14.575l3.584,20.092l26.241,-9.1l38.884,-4.892l23,-13.958l10.033,-12.325l22.025,-17.517l25.608,2.567l-0.658,-9.4l-17.5,-0.958l10.033,-12.325l17.167,-14.275l18.8,-1.317l19.117,-7.15l29.508,16.833l9.4,-0.658l20.425,11.65l15.567,14.892l12.983,19.433l20.75,5.817l3.267,25.925l33.075,15.85l10.708,18.141l12.642,4.2l12.008,15.867l29.492,-4.242l12.325,10.034l5.85,21.383l13.3,13.6l8.1,1.617l4.241,29.491l2.967,52.825l-13.242,49.6l6.175,15.55l-6.433,53.484l8.1,1.616l22.375,18.775l7.125,-1.95l4.842,-24.308l-4.217,-8.417l-19.45,-8.083l3.225,-16.208l14.917,5.5l20.425,11.65l8.416,-4.217l9.417,20.408l-20.392,30.484l-2.25,19.775l-13.283,7.466l3.9,14.259l13.617,7.766l3.583,20.092l40.233,56.033l12.009,15.867l20.75,5.817l6.133,-26.584l14.592,11.334l1.65,34.025l11.366,27.541l20.425,11.65l12.959,-1.633l3.583,20.092l4.217,8.416l9.75,35.642l25.941,17.8l-2.908,10.375l22.358,-2.292l28.85,7.425l14.592,11.334l25.642,44.7l13.958,23l11.35,6.475l19.775,2.25l10.058,8.741l-2.908,10.375l-23.017,-7.108l-12.325,-10.033l-2.25,19.775l17.842,16.191l28.517,-7.8l8.741,-10.058l24.309,4.842l18.775,-22.375l26.9,0.3l1.933,-13.942l12.625,-16.867l-8.125,-22.683l1.275,-23.333l7.108,-23.017l6.15,-5.517l-1.316,-18.8l7.45,-7.783l-1.65,-34.025l-1.334,-39.867l-4.258,-50.558l2.592,-4.542l-9.434,-41.475l-10.075,-29.808l-17.2,-27.858l-5.833,-0.317l-37.65,-60.575l-11.367,-27.542l-78.858,-120.175l-16.567,-39.525l-6.491,-9.716l-8.125,-22.684l19.45,8.084l0.016,21.066l25.925,-3.266l7.15,19.116l-1.275,23.334l2.942,31.758l7.125,-1.95l-7.483,-34.35l6.475,-11.35l-7.15,-19.117l-72.667,-83.583l-56.142,-86.158l-15.591,-35.959l-37.35,-87.475l-2.609,-16.525l-11.683,-21.708l-2.942,-31.758l-10.3,-2.875l-9.1,-26.242l-0.016,-21.067l12.308,-11.033l-10.075,-29.808l11.35,6.475l14.242,-24.967l-11.35,-6.475l-8.442,-16.833l5.158,-30.142l13.267,-28.533l18.458,-16.542l-4.875,-17.825l13.942,1.933l19.1,-28.216l-9.083,-5.175l0.008,-0.017l0.317,-5.767l19.75,-18.816l7.766,-13.617l-21.4,-15.217l3.884,-6.808l20.425,11.65l14.258,-3.9l13.917,-19.133l-7.467,-13.284l-14.917,-5.5l2.909,-10.375l19.45,8.084l12.966,-1.634l24.609,-22.058l20.408,-9.417l16.192,-17.841l1.933,-13.942l14.575,-9.733l16.508,-23.675l2.25,-19.775l13.942,1.933l15.55,-6.175l20.708,-36.317l3.525,-43.108l22.325,-44.417l20.392,-30.483l25.908,-24.333l0.025,-0.009l-0.008,0.034l45.358,-16.242l34.025,-1.65l6.475,-11.35l10.692,-2.925l-0.675,-30.467l3.225,-16.208l17.15,-35.342l17.483,-20.108l20.725,-15.25l14.892,-15.567l6.475,-11.35l41.142,-24.666l35.325,-3.917l11.333,-14.592l8.1,1.617l20.392,-30.483l-8.759,-11.009l-26.9,-0.3l-13.283,7.467l-14.892,15.567l-26.583,-6.134l24.95,-6.825l23.958,-31.458l-17.183,-6.792l23,-13.958l-3.9,-14.258l-29.167,-1.592l-33.416,-10.017l28.191,-1.966l16.209,3.225l-0.017,-21.067l14.275,17.167l8.417,-4.217l27.875,3.867l16.525,-2.609l28.475,-49.933l18.141,-10.708l1.934,-13.942l-4.559,-23.658l-14.275,-17.167l-11.35,-6.475l-15.216,21.4l5.533,27.217l-12.642,-4.2l-6.175,-15.55l1.275,-23.334l-22.358,2.292l-24.292,16.225l-13.941,-1.933l-11.009,8.758l-25.925,3.267l2.25,-19.775l23.334,1.275l14.891,-15.567l29.809,-10.075l21.05,-21.083l24.633,-0.992l-16.567,-39.525l-15.891,-9.058l-6.175,-15.55l0.016,-0.067l0.034,0.108l2.266,1.292l7.125,-1.95l-5.533,-27.217l3.567,-0.975l12.658,25.25l5.833,0.317l-26.933,-42.433l-7.15,-19.117l-20.092,3.583l-22.041,-3.55l-3.225,16.209l-23.334,-1.275l-17.841,-16.192l-13.942,-1.933l-12.008,-15.867l-27.242,-15.533l39.542,4.5l3.9,14.258l25.283,8.417l6.492,9.716l18.141,-10.708l0.642,-11.667l-8.758,-11.008l-25.284,-8.417l10.034,-12.325l-8.125,-22.683l11.666,0.642l10.034,-12.325l-18.159,-10.359l-15.566,-14.891l10.691,-2.925l-0.016,-21.067l6.791,-17.183l-3.9,-14.259l-43.766,-12.925l-0.659,-9.4l-14.591,-11.333l-37.592,2.625l-12.642,-4.2l-8.091,-22.725l10.058,8.742l26.583,6.133l20.092,-3.583l26.258,11.966l15.892,9.059l-0.333,-15.234l-11.034,-12.308l-8.441,-16.833l0.641,-11.667l-21.083,-21.05l-9.75,-35.642l-4.217,-8.416l6.134,-26.584l-5.2,-11.983l9.716,-6.492l-14.616,-32.4l5.5,-14.916l-7.784,-7.45l28.834,-13.634l16.508,-23.675l7.467,13.284l-16.192,17.841l-8.725,31.125l22.042,3.55l1.316,18.8l-10.033,12.325l13.617,7.767l-4.525,18.475l-13.942,-1.933l-0.958,17.5l15.233,-0.334l13.617,7.767l-9.384,21.725l1.634,12.958l-8.417,4.217l18.817,19.75l32.1,12.292l14.575,-9.734l10.058,8.742l-10.033,12.325l17.5,0.958l-3.867,27.875l35.325,-3.916l0.317,-5.834l33.333,-11.05l4.525,-18.475l3.567,-0.975l3.541,-22.041l11.984,-5.2l3.225,-16.209l-5.517,-6.15l3.217,-16.266l3.566,-0.975l1.292,-2.267l-6.175,-15.55l-9.083,-5.175l4.525,-18.475l-7.15,-19.117l-12.959,1.634l-25.941,-17.8l-0.659,-9.4l-14.591,-11.334l-7.8,-28.516l-8.442,-16.834l-26.917,-21.366l1.934,-13.942l-11.034,-12.308l18.442,-37.609l-0.017,-0.016l1.684,-8.092l31.425,-18.175l1.933,-13.942l8.742,-10.058l-0.034,0.017l-9.7,27.558l-21.708,11.683l-14.892,15.567l-4.841,24.308l5.216,33.05l29.509,16.834l14.916,5.5l19.134,13.916l15.55,-6.175l23.016,7.109l-2.233,40.841l11.983,-5.2l12.942,-22.7l5.158,-30.141l7.767,-13.617l7.108,-23.017l11.309,-35.658l13.6,-13.3l6.791,-17.183l-4.216,-8.417l2.25,-19.775l-2.942,-31.758l5.833,0.316l-2.641,-58.666l-9.734,-14.575l-24.633,0.991l-13.617,-7.766l4.842,-24.309l7.45,-7.783l5.833,0.317l7.767,-13.617l5.8,-41.833l-2.925,-10.692l-7.758,-28.483l5.833,0.316l5.85,21.384l1.333,39.866l14.575,-9.733l4.2,-12.642l11.575,-20.425l9.717,-6.491l46.633,-39.584l47.292,-30.183l12.958,-1.633l7.45,-7.784l13.942,1.934l9.717,-6.492l17.825,-4.875l12.308,-11.033l11.667,0.641l26.566,-14.933l6.809,3.908l31.425,-18.175l14.258,-3.9l2.25,-19.775l-7.15,-19.116l2.892,-31.442l17.483,0.883l6.808,3.884l11.667,0.641l6.825,24.95l9.4,-0.658l15.867,-12.008l-2.925,-10.692l15.866,-12.008l12.625,-16.867l9.75,35.642l17.167,-14.275l7.767,-13.617l23.975,-10.392l30.125,-15.908l5.833,0.317l-8.775,-32.075l-11.65,20.425l-24.292,16.225l-23.333,-1.275l-14.917,-5.5l-10.391,-23.975l-12.959,1.633l-4.558,-23.658l-25.625,-23.634l-25.925,3.267l-10.375,-2.908l2.25,-19.775l13.917,-19.134l-4.217,-8.416l22.025,-17.517l-3.9,-14.258l-11.008,8.758l-10.059,-8.742l-7.8,-28.516l0,0.016l0.067,0.025l2.567,-25.608l-5.25,-11.925l11.983,-5.2l3.867,-27.875l2.25,-19.775l13.6,-13.3l-3.267,-25.925l18.142,-10.708l-12.659,-25.25l11.65,-20.425l12.625,-16.867l21.4,15.217l9.4,-0.659l8.725,-31.125l8.742,-10.058l14.917,5.5l-0.017,-21.067l6.15,-5.516l18.158,10.358l7.45,-7.783l4.525,-18.475l-0.333,-15.234l2.892,-31.441l4.2,-12.642l-8.759,-11.008l14.892,-15.567l17.517,22.025l16.208,3.225l14.258,-3.9l-10.708,-18.142l33.033,-26.283l20.092,-3.583l6.175,15.55l10.692,-2.925l12.308,-11.034l1.933,-13.941l-6.491,-9.717l7.45,-7.783l17.5,0.958l11.983,-5.2l-1.317,-18.8l19.775,2.25l6.475,-11.35l12.967,-1.633l19.733,-39.884l-14.275,-17.166l-29.525,-37.892l-8.1,-1.617l-12.308,11.034l-21.4,-15.217l-0.017,-21.067l-14.275,-17.166l7.45,-7.784l-7.466,-13.283l-26.242,9.1l-27.558,-9.7l0.641,-11.667l-0.033,0.017Zm31.025,267.333l-0.658,-9.4l-15.892,-9.058l-8.417,4.217l-2.566,25.608l5.516,6.15l22.025,-17.517l-0.008,0m-580.333,854.167l-12.967,1.633l-3.225,16.209l16.525,-2.609l-0.333,-15.233m221.225,-150.583l-14.259,3.9l-26.541,36l-22.684,8.125l-45.041,10.408l-11.334,14.592l-35.325,3.916l-3.883,6.809l-25.25,12.658l-4.2,12.642l-16.833,8.441l-10.992,29.825l8.758,11.009l19.75,-18.817l17.184,6.792l17.166,-14.275l23.975,-10.392l17.167,-14.275l36.933,-12.025l26.884,-20.767l16.525,-2.608l22.025,-17.517l56.35,-46.075l-5.517,-6.15l-16.192,17.842l-10.058,-8.742l-11.333,14.592l-14.259,3.9l-6.791,17.183l-18.8,1.317l6.475,-11.35l11.983,-5.2l-1.633,-12.958l6.475,-11.35l13.283,-7.467l-0.008,0.017m-324.809,289.966l0,0.034m-1737.75,-687.167l-10.358,18.158l-11.983,5.2l-4.525,18.475l-7.767,13.617l-5.5,14.917l7.467,13.283l9.083,5.175l7.767,-13.617l4.525,-18.475l13.583,-34.366l-2.292,-22.359l0,-0.008m1736.75,1068.67l-2.566,25.608l-12.309,11.033l2.925,10.692l-14.241,24.967l7.783,7.45l-8.417,46.35l2.925,10.691l11.684,21.709l1.258,-44.4l6.792,-17.184l28.775,-76.833l8.741,-10.058l-3.9,-14.259l4.2,-12.641l-33.333,11.05l-0.317,5.833l0,-0.008m13.834,260.5l-10.692,2.925l7.783,7.45l6.475,-11.35l-3.566,0.975m-614.5,1072.33l8.416,-25.283l-9.4,0.658l-5.816,20.75l6.808,3.883l-0.008,-0.008m187.083,494.75l-10.375,-2.908l-8.742,10.058l4.242,29.492l10.033,-12.325l4.842,-24.309l-0,-0.008m-999.667,-209.167l-41.475,9.434l-2.591,4.541l44.066,-13.975m1868.92,-2396.33l-6.825,-24.95l-11.667,-0.642l8.775,32.075l9.717,-6.491l-0,0.008m-3545.92,2974.08l-5.833,-0.316l-25.25,54.791l9.4,-0.658l21.667,-53.817l0.016,0m25.567,-39.558l30.108,-36.975l-9.083,-5.175l-9.383,21.725l-11.65,20.425l0.008,0m102.992,-85.65l-17.5,-0.958l-31.742,24.008l-16.525,2.608l5.2,11.984l12.308,-11.034l48.267,-26.616l-0.008,0.008m257.166,-187.225l-20.075,24.65l32.717,-20.45l-12.642,-4.2m481.859,-38.067l12.625,-16.866l-33.417,-10.017l-15.55,6.175l0.658,9.4l28.534,13.267l7.125,-1.95l0.025,-0.009m-4087.5,-1076.67l6.191,36.616l8.759,11.009l10.691,-2.925l-12.983,-19.434l-12.658,-25.25l-0,-0.016m29.75,-73.275l2.925,10.691l-0.959,17.5l25.609,2.567l-7.467,-13.283l-20.108,-17.484l-0,0.009m-196.217,-157.017l-24.308,-4.842l1.316,18.8l7.784,7.45l17.825,-4.875l-2.609,-16.525l-0.008,-0.008m32.733,0.617l-11.008,8.758l4.217,8.417l19.45,8.083l13.283,-7.467l-25.942,-17.8l0,0.009m362.734,-2608.58l-8.1,-1.617l-17.484,20.108l-1.616,8.1l12.983,19.434l-5.175,9.083l2.292,22.358l8.758,11.009l12.967,-1.634l0.641,-11.666l-8.758,-11.009l-10.692,2.925l4.184,-33.708l-7.784,-7.45l12.309,-11.033l5.5,-14.917l-0.025,0.017m-40.217,-34.967l-10.392,-23.975l-7.125,1.95l2.292,22.358l15.233,-0.333l-0.008,0m26.225,-30.167l-8.1,-1.616l-14.575,9.733l18.158,10.358l15.55,-6.175l-11.033,-12.308l-0,0.008m6622.74,1346.3l-8.417,4.217l-12.942,22.7l36.934,-12.025l-15.567,-14.892l-0.008,0"/>
</svg>