<?xml version="1.0" encoding="UTF-8" standalone="no"?><!DOCTYPE svg PUBLIC "-//W3C//DTD SVG 1.1//EN" "http://www.w3.org/Graphics/SVG/1.1/DTD/svg11.dtd"><svg width="100%" height="100%" viewBox="0 0 104167 112500" version="1.1" xmlns="http://www.w3.org/2000/svg" xmlns:xlink="http://www.w3.org/1999/xlink" xml:space="preserve" xmlnsSerif="http://www.serif.com/" style="fill-rule:evenodd;clip-rule:evenodd;stroke-linejoin:round;stroke-miterlimit:2;"><g><path d="M34201.4,729.167c-19635.4,2829.86 -34965.3,21197.9 -33750,40416.7c607.642,9583.33 7829.88,25138.9 20868,44965.4c6232.62,9461.79 17951.4,25694.5 18576.4,25694.5c642.362,0 11927.1,-15659.7 18524.3,-25694.5c14757,-22447.9 21718.8,-38628.5 20937.5,-48611.2c-1840.28,-23298.6 -22395.8,-40052.1 -45156.2,-36770.8l0.042,-0Z" style="fill-rule:nonzero;"/><path d="M58563.9,762.5c-19635.4,2829.86 -34965.3,21197.9 -33750,40416.7c607.642,9583.33 7829.88,25138.9 20868,44965.4c6232.62,9461.79 17951.4,25694.5 18576.4,25694.5c642.362,-0 11927.1,-15659.7 18524.3,-25694.5c14757,-22447.9 21718.8,-38628.5 20937.5,-48611.2c-1840.28,-23298.6 -22395.8,-40052.1 -45156.2,-36770.8l0.042,0Z" style="fill-opacity:0.01;fill-rule:nonzero;"/><path d="M59375,767.506l-1215.28,208.333l2430.56,1336.81c13593.8,7465.29 22170.1,21857.6 22170.1,37204.9c17.363,11579.9 -7204.88,27413.2 -23593.8,51822.9l-4947.92,7378.46l3385.42,4618.04c4027.78,5486.12 6267.38,8368.04 6631.96,8506.96c590.275,225.691 13576.4,-17829.9 20156.2,-28020.8c19322.9,-30017.4 23107.6,-44496.7 15763.9,-60382.1c-7065.96,-15312.5 -25243,-25416.7 -40781.2,-22673.6l0.012,0.15Z"/></g></svg>