<?xml version="1.0" encoding="UTF-8" standalone="no"?><!DOCTYPE svg PUBLIC "-//W3C//DTD SVG 1.1//EN" "http://www.w3.org/Graphics/SVG/1.1/DTD/svg11.dtd"><svg width="100%" height="100%" viewBox="0 0 4605 6480" version="1.1" xmlns="http://www.w3.org/2000/svg" xmlns:xlink="http://www.w3.org/1999/xlink" xml:space="preserve" xmlnsSerif="http://www.serif.com/" style="fill-rule:evenodd;clip-rule:evenodd;stroke-linejoin:round;stroke-miterlimit:2;"><path d="M2297.45,1321.68c538.492,0 976.563,438.075 976.563,976.563c-0.001,538.492 -438.071,976.562 -976.563,976.562c-538.471,0 -976.563,-438.07 -976.563,-976.562c0.001,-538.488 438.092,-976.563 976.563,-976.563Z" style="fill-opacity:0.01;fill-rule:nonzero;"/><path d="M2297.45,19.6c-1256.42,0 -2278.65,1022.2 -2278.65,2278.65c0,1221.86 2103.6,3930.62 2193.08,4045.37l85.575,109.583l85.588,-109.583c89.479,-114.742 2193.05,-2823.51 2193.05,-4045.37c-0,-1256.44 -1022.2,-2278.65 -2278.65,-2278.65l0.004,0Zm0,1302.08c538.492,0 976.563,438.075 976.563,976.563c-0.001,538.492 -438.071,976.562 -976.563,976.562c-538.471,0 -976.563,-438.07 -976.563,-976.562c0.001,-538.488 438.092,-976.563 976.563,-976.563Z"/></svg>