<?xml version="1.0" encoding="UTF-8" standalone="no"?><!DOCTYPE svg PUBLIC "-//W3C//DTD SVG 1.1//EN" "http://www.w3.org/Graphics/SVG/1.1/DTD/svg11.dtd"><svg fill="#a2a2a2" stroke="#fff" fill-rule="nonzero" stroke-width="20.83px" width="100%" height="100%" viewBox="0 0 1644 1615" version="1.1" xmlns="http://www.w3.org/2000/svg" xmlns:xlink="http://www.w3.org/1999/xlink" xml:space="preserve" xmlnsSerif="http://www.serif.com/" style="fill-rule:evenodd;clip-rule:evenodd;stroke-linejoin:round;"><path id="ia1838" d="M863.256,1542.98l-1.65,-34.025l-3.241,-4.858l-0.675,-30.467l-5.517,-6.15l5.817,-20.75l-10.375,-2.908l3.55,-22.042l-21.4,-15.216l-1.317,-18.8l3.867,-27.875l-8.759,-11.009l-2.291,-22.358l-13.3,-13.6l-2.925,-10.692l-9.734,-14.575l0.959,-17.5l-7.467,-13.283l1.275,-23.333l-12.642,-4.2l0.075,-0l-16.208,-3.225l-12.008,-15.867l-0.659,-9.4l-13.941,-1.933l-6.492,-9.717l-35.658,-11.308l-23.675,-16.509l-25.925,3.267l-21.067,0.017l-25.608,-2.567l-11.334,14.592l-3.681,-7.567c-16.746,-10.954 -34.8,-19.979 -54.167,-27.083c-5.441,-10.721 -12.387,-20.442 -20.833,-29.167c-12.158,-7.388 -24.658,-13.638 -37.5,-18.75c0.621,-4.383 -0.071,-8.55 -2.083,-12.5c-8.146,-3.971 -15.092,-9.529 -20.834,-16.667c-3.291,-15.116 -12.321,-23.45 -27.083,-25c0.879,-17 -4.679,-31.583 -16.667,-43.75c21.05,-25.596 18.967,-49.9 -6.25,-72.916c0.225,-11.213 -4.637,-18.85 -14.583,-22.917c-10.671,3.15 -21.783,6.621 -33.333,10.417c1.65,-10.6 -1.13,-19.63 -8.334,-27.084c-14.712,-6.691 -29.991,-11.55 -45.833,-14.583c-3.433,-13.621 -11.767,-22.646 -25,-27.083c1.388,-1.388 2.779,-2.78 4.167,-4.167c-11.192,-10.608 -15.359,-23.804 -12.5,-39.583c11.358,0.983 21.079,-2.488 29.166,-10.417c5.555,-6.946 5.555,-13.888 0,-20.833c7.909,-3.75 14.85,-8.609 20.834,-14.584c-0.284,-27.462 -0.975,-55.241 -2.084,-83.333c-5.408,-4.417 -10.271,-9.275 -14.583,-14.583c7.413,-8.767 12.967,-18.492 16.667,-29.167c-1.755,-9.104 -3.838,-18.129 -6.25,-27.083c-9.809,-13.834 -17.446,-28.417 -22.917,-43.75c5.079,-14.021 9.246,-28.605 12.5,-43.75c-5.554,-11.113 -5.554,-22.221 -0,-33.334c-6.6,-14.241 -15.625,-26.741 -27.083,-37.5c-2.913,-15.345 -7.771,-29.928 -14.584,-43.75c2.779,-4.166 5.555,-8.333 8.334,-12.5c-8.171,-13.395 -13.03,-27.978 -14.584,-43.75c-12.245,-9.636 -25.437,-11.025 -39.583,-4.166c-6.154,-17.449 -8.929,-34.81 -8.333,-52.084c-13.888,-2.778 -27.779,-2.778 -41.667,0c-13.021,7.492 -24.133,4.714 -33.333,-8.333c-8.054,-1.046 -15.692,-3.13 -22.917,-6.25c-0.908,-12.193 -2.992,-23.998 -6.25,-35.417c-5.829,-2.477 -11.383,-1.783 -16.667,2.084c-6.495,-2.39 -12.745,-5.168 -18.75,-8.334c0.517,-9.763 2.6,-19.485 6.25,-29.166c-5.554,-12.5 -11.112,-25 -16.666,-37.5c0.391,-20.527 1.087,-41.36 2.083,-62.5c-1.037,-4.684 -3.121,-8.85 -6.25,-12.5c-11.279,-4.494 -22.392,-8.661 -33.333,-12.5c0.166,-19.553 1.554,-38.997 4.166,-58.334l2.132,-4.541l105.991,9.308l75.842,4.15l83.917,5.758l105.008,5.742l133.208,3.775l79.409,3.175l98.2,1.858l247.908,3c1.556,40.851 1.633,28.351 1.633,55.275l-0,220.834c35.151,-9.29 70.567,-9.29 106.25,-0c11.39,-4.553 22.501,-4.553 33.333,-0c2.507,12.927 10.146,21.26 22.917,25c7.142,-4.619 9.92,-1.841 8.333,8.333c8.197,0.997 15.836,-0.391 22.917,-4.167c3.126,2.608 6.599,4.691 10.416,6.25c11.104,13.704 22.215,27.592 33.334,41.667c-4.947,4.248 -9.114,9.109 -12.5,14.583c5.99,10.765 4.601,20.487 -4.167,29.167c-16.541,6.833 -29.041,17.944 -37.5,33.333c-3.942,-2.029 -8.109,-3.417 -12.5,-4.166c-8.856,5.358 -18.579,8.829 -29.167,10.416c-10.487,18.867 -24.377,34.842 -41.666,47.917c-5.947,12.637 -4.559,24.442 4.166,35.417c-4.706,16.995 -5.4,34.354 -2.083,52.083c4.811,5.179 10.366,9.346 16.667,12.5c-0.519,23.471 7.119,43.608 22.916,60.417c22.698,11.595 46.31,21.32 70.834,29.166c7.639,7.638 15.278,15.279 22.916,22.917c1.868,24.792 15.063,37.292 39.584,37.5c-0.676,8.446 0.019,16.779 2.083,25c8.118,2.537 15.757,5.317 22.917,8.333c4.166,0 4.375,1.692 8.542,1.692l30.167,26.225l24.308,4.842l16.542,18.458l24.308,4.842l20.108,17.483l14.934,26.567l24.65,20.075l15.233,-0.334l15.892,9.059l17.841,16.191l7.8,28.517l1.984,49.258l0.05,0.017l8.125,22.683l12.641,4.2l2.925,10.692l-10.675,23.992l8.142,43.75l12.342,31.1l11.35,6.475l35.983,5.475l9.417,20.408l-0.317,5.833l-0,-0.025l-2.592,4.542l28.217,19.1l8.125,22.683l32.75,21.684l6.175,15.55l-6.775,38.25l-13.6,13.3l-3.867,27.875l-12.308,11.033l-21.383,5.85l-13.6,13.3l-38.884,4.892l-8.741,10.058l-3.55,22.042l1.633,12.958l13.617,7.767l5.2,11.983l0.991,24.633l-17.483,20.109l-2.567,25.608l-7.45,7.783l-27.541,11.367l2.625,37.592l-7.125,1.95l-0.067,0.066l0.033,-0.033l-15.566,-14.892l-21.4,-15.216l-5.2,-11.984l-29.492,4.242l-158.5,8.892l-64.492,2.325l-62.225,3.616l-126.4,0.117l-115.708,-2.817l-0.798,-11.108l-14.494,-10.272l5.575,-14.295Z"/></svg>