<?xml version="1.0" encoding="UTF-8" standalone="no"?><!DOCTYPE svg PUBLIC "-//W3C//DTD SVG 1.1//EN" "http://www.w3.org/Graphics/SVG/1.1/DTD/svg11.dtd"><svg fill="#a2a2a2" stroke="#fff" fill-rule="nonzero" stroke-width="20.83px" width="100%" height="100%" viewBox="0 0 888 1425" version="1.1" xmlns="http://www.w3.org/2000/svg" xmlns:xlink="http://www.w3.org/1999/xlink" xml:space="preserve" xmlnsSerif="http://www.serif.com/" style="fill-rule:evenodd;clip-rule:evenodd;stroke-linejoin:round;"><path id="id1868" d="M420.95,36.567l-114.425,-26.15l-27.125,110.866l-13.567,55.434l-28.425,113.133l-34.875,145.55l-9.358,42.792l8.125,22.683l1.633,12.958l-10.033,12.325l5.85,21.384l-0.958,17.5l7.466,13.283l9.084,5.175l16.541,18.458l3.584,20.092l-4.2,12.642l-32.375,35.675l-15.85,33.075l-18.459,16.541l-5.816,20.75l-16.192,17.842l-13.283,7.467l-19.1,28.216l-15.867,12.009l-7.75,34.683l23.992,10.675l8.441,16.833l-12.625,16.867l2.925,10.692l-23.3,40.858l-35.191,151.417l-39.4,164.025l172.133,41.008l72.933,14.525l148.142,30.333l99.517,20.659l121.558,24.2l175,30.633l15.158,-84.6l17.734,-110.208l19.025,-112.475l25.166,-139.059l-17.516,-22.025l-9.1,-26.241l-17.5,-0.959l-10.034,12.325l-3.225,16.209l-23.016,-7.109l-14.259,3.9l-7.783,-7.45l-29.167,-1.591l-17.183,-6.792l-12.958,1.633l-6.475,11.35l-40.2,-13.9l-21.709,11.684l-13.941,-1.934l-6.492,-9.716l1.933,-13.942l-6.175,-15.55l6.15,-5.517l-12.341,-31.1l-19.775,-2.25l-8.759,-11.008l-6.175,-15.55l10.034,-12.325l-6.825,-24.95l-19.15,-34.983l-0.017,-21.067l0.617,-32.733l-17.517,-22.025l-24.292,16.225l-29.808,10.075l-12.008,-15.867l-11.35,-6.475l11.65,-20.425l-4.875,-17.825l9.716,-6.492l15.55,-6.175l0.959,-17.5l-6.175,-15.55l9.383,-21.725l-0.333,-15.233l10.033,-12.325l14.558,-30.8l8.084,-19.45l-4.217,-8.417l-26.9,-0.3l-3.9,-14.258l-28.867,-28.492l-0.333,-15.233l-33.108,-57.983l-3.9,-14.259l-19.134,-13.916l-6.175,-15.55l-14.591,-11.334l13.283,-7.466l-9.733,-14.575l9.716,-6.492l-1.316,-18.8l-10.709,-18.142l0.642,-11.666l-16.883,-33.667l37.766,-176.992l-0.008,-0.066Z"/></svg>