<?xml version="1.0" encoding="UTF-8" standalone="no"?><!DOCTYPE svg PUBLIC "-//W3C//DTD SVG 1.1//EN" "http://www.w3.org/Graphics/SVG/1.1/DTD/svg11.dtd"><svg fill="#a2a2a2" stroke="#fff" fill-rule="nonzero" stroke-width="20.83px" width="100%" height="100%" viewBox="0 0 1698 1285" version="1.1" xmlns="http://www.w3.org/2000/svg" xmlns:xlink="http://www.w3.org/1999/xlink" xml:space="preserve" xmlnsSerif="http://www.serif.com/" style="fill-rule:evenodd;clip-rule:evenodd;stroke-linejoin:round;"><path id="ak1867" d="M12.242,1241.57l0.008,-4.734l-1.833,0.7l1.75,4.034l0.075,-0Zm49.191,-2.45l2.6,-2.867l-2.158,-1.492l-0.433,4.359l-0.009,-0Zm37.35,8.633l2.2,-1.058l-0.725,-0.375l-1.483,1.433l0.008,-0Zm-30.666,-16.533l-0.3,-4.009l-2.184,-0.033l2.484,4.05l-0,-0.008Zm64.608,11.641l-1.108,0.709l0.358,0.366l0.742,-1.083l0.008,0.008Zm-50.417,-13.225l1.184,-5.441l-1.1,0.341l-0.009,5.092l-0.075,0.008Zm80.05,-19.408l-16.75,2.633l-35.091,29.992l13.116,-0.875l41.084,-18.242l-2.325,-13.508l-0.034,-0Zm81.617,-4.092l0.4,-2.175l-1.442,-0.75l1.042,2.934l0,-0.009Zm-24.258,-8.05l-18.634,4.059l1.809,22.6l-16.867,7.358l46.767,-9.775l5.058,-19.208l-14.658,5.575l-3.459,-10.617l-0.016,0.008Zm60.275,9.384l-6.525,-1.934l4.308,3.717l2.217,-1.783Zm13.1,0.225l-10.517,-2.359l-1.483,1.434l12,0.933l-0,-0.008Zm-35.817,-13.342l-10.575,0.917l17.767,4.3l-7.192,-5.217Zm44.258,9.117l-1.066,-1.475l-4.025,1.025l5.091,0.45Zm-28.566,-11.767l-3.975,-1.883l0.175,11.291l3.8,-9.4l-0,-0.008Zm121.55,24.25l-0.717,-0.742l-1.458,-0.025l2.175,0.767Zm2.566,-1.05l0.017,-1.092l-1.792,-1.483l1.775,2.575Zm-16.275,-6.458l2.117,4.041l-0.342,-1.1l-1.775,-2.941Zm8.734,0.15l-8.692,-2.692l10.425,7.817l-1.733,-5.125Zm12.925,-10.709l-0.742,0.717l-0.001,0.725l0.75,-1.442l-0.007,0Zm112.941,16.834l-0.65,-4.742l-1.466,0.7l2.116,4.042Zm1036.92,58.916l-1.417,-2.575l0.334,1.825l1.083,0.742l0,0.008Zm-1165.5,-97.833l-0.358,-0.367l-0.367,0.359l0.725,0.016l-0,-0.008Zm1195.58,85.592l2.834,4.783l1.816,0.025l-4.65,-4.808Zm-1054.83,-57.017l-0.75,1.442l-0.417,3.266l1.175,-4.716l-0.008,0.008Zm-118.358,-19.458l2.7,-9.059l-1.45,-0.391l-1.25,9.441l-0,0.009Zm1232.33,66.55l-9.15,3.125l6.467,5.208l2.691,-8.325l-0.008,-0.008Zm-1214.42,-72.075l-1.05,-2.567l0.684,2.558l0.366,0.001l0,0.008Zm-71.7,-22.684l-24.491,5.775l-23.142,12.35l1.158,17.859l24.2,-10.15l30.225,-22.425l-7.95,-3.409Zm170.792,40.367l-5.55,5.367l5.117,-1.009l0.433,-4.358Zm1116.83,49.325l-1.016,-4.383l-1.484,1.433l2.5,2.958l0,-0.008Zm-1207.75,-77.425l-6.9,-1.208l6.442,6.658l0.458,-5.45Zm1143.33,75.25l-2.934,1.042l0.584,8.75l2.35,-9.792Zm-1127.67,-76.083l-3.65,0.666l3.592,2.975l0.058,-3.641Zm69.525,22.283l-2.55,-0.05l-1.792,-1.85l4.334,1.892l0.008,0.008Zm-77.883,-23.15l-4.325,-2.625l1.408,2.933l2.917,-0.316l-0,0.008Zm63.858,12.725l-8.058,2.775l-7.2,16.625l15.25,-19.4l0.008,-0Zm1051.92,55.875l-1.942,7.25l5.167,-4.283l-3.225,-2.967Zm-1080.5,-68.008l4.908,11.366l2.05,-13.8l-6.958,2.434Zm-83.75,-22.159l7.683,-2.416l-0.725,-0.375l-6.967,2.791l0.009,0Zm-9.359,-6.35l-1.425,-1.841l-0.375,0.725l1.8,1.125l0,-0.009Zm1174.75,89.609l-1.425,-1.842l-1.508,2.883l2.933,-1.041Zm-1061.92,-67l-2.534,-1.134l-2.225,2.509l4.759,-1.375Zm1051.75,66.833l1.908,-5.067l-1.8,-1.125l-0.1,6.184l-0.008,0.008Zm-6.792,-7.392l-3.7,3.575l4.692,2.625l-0.992,-6.208l-0,0.008Zm-1003.92,-73.641l-2.508,-2.592l-0.001,0.733l2.517,1.859l-0.008,-0Zm1004.58,54.716l7.208,4.492l4.058,-3.208l-11.266,-1.284Zm12.458,-4.891l-2.95,2.133l3.933,4.067l-0.991,-6.209l0.008,0.009Zm-22.6,1.808l-1.008,-5.117l-2.95,2.134l3.958,2.975l-0,0.008Zm102.192,-15.392l-20.267,36.067l23.483,10.95l10.342,-8.925l-1.6,-13.133l-11.958,-24.959Zm-1155.17,-66.75l-1.083,-0.383l-0.734,0.35l1.817,0.025l-0,0.008Zm1068.58,60.159l-10.683,7.466l0.167,11.65l10.516,-19.116Zm-908.416,-38.184l0.075,-4.733l-1.125,2.167l1.05,2.566Zm943.416,32.575l-3.408,7.95l16.833,-5.541l-13.433,-2.409l0.008,0Zm-43.566,-7.283l11.925,48.617l7.583,3.766l25.75,27.734l17.75,26.875l9.783,2.716l-10.216,-20.558l2.5,-18.892l-4.159,-12.45l-25.608,-35.741l-18.217,-20.692l-17.083,-1.375l-0.008,-0Zm-938.167,-43.775l-0.667,-3.292l-1.833,0.7l2.508,2.592l-0.008,-0Zm974,34.55l-7.525,14.433l8.433,-3.5l-0.908,-10.933Zm-941.417,-47.467l-5.45,-0.816l-5.5,2.458l10.95,-1.633l0,-0.009Zm99.142,14.409l-4.483,6.841l2.291,-6.15l2.2,-0.691l-0.008,-0Zm14.525,2.066l-8.742,0.217l3.909,5.892l4.833,-6.109Zm-588.583,-137.3l9.383,4.892l-1.417,-2.208l-7.966,-2.684Zm386.416,97.867l0.75,-1.083l-1.108,0.708l0.358,0.367l0,0.008Zm2.934,-1.042l1.466,-0.708l0.001,-0.367l-1.475,1.067l0.008,0.008Zm1015.25,47.25l0.741,20.767l11,-4.55l-11.741,-16.217Zm-988.167,-58.833l1.108,-0.708l-0.366,-0.001l-0.742,0.716l-0,-0.007Zm945.583,57.733l-16.058,2.275l11.408,14.392l0.55,32.05l11.784,-8.175l-1.092,-21.5l-6.6,-19.042l0.008,0Zm7.175,-15.533l-2.441,15.25l18.525,23.975l1.116,-23.283l16.95,9.383l-6.2,-20.858l-6.983,3.883l-20.975,-8.333l0.008,-0.017Zm-69.425,-6.625l-9.408,18.408l10.742,-11.108l-1.334,-7.3Zm-786.25,-48.508l-0.7,-1.467l0.35,1.458l0.367,0.001l-0.017,0.008Zm93.075,7.383l-1.766,-3.308l1.016,4.383l0.75,-1.083l0,0.008Zm698.167,26.275l4.367,43.4l21.633,34.217l2.267,-48.384l-14.817,-28.283l-13.45,-0.95Zm-640.908,-55.167l-3.309,2.125l5.409,3l-2.1,-5.133l-0,0.008Zm-12.75,0.517l1.508,-3.25l-3.642,-0.067l2.125,3.309l0.009,0.008Zm-9.45,-0.883l-3.017,6.141l-25.358,-7.708l-3.242,41.45l-10.125,-26.017l-18.683,6.967l-8.934,11.5l7.559,27.067l11.608,2.375l12.942,-11.8l-15.692,24.125l5.033,3.725l16.967,-13.184l-5.35,-6.641l15.45,-9.567l16.75,-1.175l24.917,-9.408l8.583,-12.6l-12.317,-3.484l6.35,-9.725l-23.458,-12.041l0.017,-0Zm625.916,17.783l-6.458,-5.567l-0.117,6.55l6.567,-0.983l0.008,-0Zm-631.5,-30.617l0.65,4.742l6.484,4.117l-7.134,-8.859Zm653.584,13.884l-21.234,6.925l5.9,17.208l-5.583,7.192l21.092,22.925l-0.017,-20.75l28.083,18.675l-31.808,-35.117l24.9,13.158l1.833,-22.541l-23.175,-7.667l0.009,-0.008Zm-12.709,-2.034l-2.15,-2.216l-1.108,1.075l3.258,1.15l0,-0.009Zm62.325,-4.416l-7.208,-4.492l-2.642,5.783l9.85,-1.291Zm-43.658,-1.459l-6.517,-1.933l-0.025,1.458l6.542,0.475Zm23.375,-4.341l21,72.075l5.683,-34.859l14.542,1.334l-13.033,-26.067l-18.959,1.5l-9.233,-13.992l-0,0.009Zm-657.433,-24.867l-25.409,17.05l9.609,13.267l31.058,-6.759l2.467,-16.666l-17.725,-6.85l-0,-0.042Zm-267.75,-54.367l-0.709,-1.108l-0.025,1.458l0.734,-0.35Zm-10.475,-4.908l-0.642,-5.108l-0.392,1.45l1.034,3.658Zm304.241,28.042l-2.2,1.058l-0.016,1.092l2.216,-2.15Zm-9.433,-1.975l-1.075,-1.109l-2.608,3.6l3.683,-2.483l-0,-0.008Zm24.158,-7.6l-2.525,-1.5l-0.016,1.091l2.541,0.409Zm8.017,-0.225l-2.525,-1.5l-0.375,0.725l2.9,0.775Zm-12.675,-3.85l-3.625,-0.792l-0.383,1.083l4.008,-0.3l-0,0.009Zm199.892,-1.375l1.5,-2.525l-2.217,1.783l0.717,0.742Zm65.241,-26.209l13.692,-13.241l-4.758,1.741l-8.934,11.5Zm-122.041,-16.975l4.425,-3.2l1.883,-3.975l-6.308,7.175Zm2.025,-11.983l-4.784,3.2l7.3,-1.333l-2.516,-1.867Zm-164.667,-14.775l-0.65,-4.742l-1.817,-0.025l2.467,4.775l-0,-0.008Zm159.917,13.967l-4.059,3.208l-2.983,4.317l7.042,-7.525Zm112.125,0.058l0.716,0.742l1.1,-0.342l-1.816,-0.392l-0,-0.008Zm5.45,0.458l-2.534,-0.775l0.35,0.734l2.184,0.033l-0,0.008Zm-12.709,-2.033l1.075,1.108l0.017,-1.091l-1.092,-0.017Zm-82.583,-3.567l4.083,-4.666l-4.808,4.65l0.725,0.016Zm62.708,-5.5l-0.366,-0.001l0.366,0.001Zm-49.1,-3.008l-29.058,39.192l35.542,-35.084l-6.484,-4.116l0,0.008Zm-32.425,1.275l-1.75,-4.4l-2.216,2.15l3.966,2.25Zm77.192,-0.525l-1.442,-0.75l0.717,0.742l0.725,0.016l-0,-0.008Zm26.117,5.533l1.2,-6.533l-2.95,2.133l1.75,4.4Zm-737.667,-122.691l-48.775,-0.459l19.15,30.175l14.1,6.059l24.717,2.233l-9.192,-38.017l-0,0.009Zm687.667,109.833l1.325,7.667l5.225,-7.559l-6.55,-0.116l-0,0.008Zm-40.684,-5.417l-5.475,22.484l7.15,-14.075l-1.683,-8.417l0.008,0.008Zm-877,-196.383l0.792,-3.625l0.017,-0.725l-0.8,4.358l-0.009,-0.008Zm869.25,179.508l0.309,3.284l2.183,0.033l-2.492,-3.317Zm-6.258,4.267l-1.333,-7.3l-2.584,2.142l3.917,5.166l-0,-0.008Zm49.275,-7.55l0.075,-4l-2.942,1.775l2.875,2.233l-0.008,-0.008Zm-45.317,-11.317l-0.525,9.817l3.75,-6.492l-3.216,-3.333l-0.009,0.008Zm-75.75,-20.933l1.15,-3.258l-0.733,-0.017l-0.417,3.267l0,0.008Zm-527.833,-154.842l2.292,-6.15l-1.109,0.709l-1.183,5.441Zm4.175,-10.125l-2.158,-1.491l-0.017,1.091l2.175,0.4Zm45.233,-27.275l0.025,-1.458l-0.358,-0.367l0.333,1.825Zm0.442,-4.725l-0.692,-2.2l-0.366,0.359l1.058,1.841Zm19.042,-28.441l0.375,-0.725l-1.825,0.333l1.45,0.392Zm6.166,1.558l-4.7,-1.9l0.342,1.1l4.358,0.8Zm-6.475,-4.475l0.025,-1.817l-1.483,1.792l1.458,0.025Zm-167.75,-46.142l-1.008,-5.116l-1.408,-2.934l2.416,8.05Zm16.359,-20.475l0.35,0.734l1.441,0.75l-1.791,-1.484Zm-29.425,-3.766l-7.842,-9.959l6.433,7.392l1.417,2.575l-0.008,-0.008Zm-17.192,-16.667l-1.1,0.342l2.9,0.775l-1.8,-1.125l-0,0.008Zm2.75,-11.967l-0.358,-0.366l0.358,0.366Zm-2.158,-1.491l-0.359,-0.001l2.167,1.125l-1.8,-1.125l-0.008,0.001Zm278.625,79.675l-11.667,0.9l6.85,3.758l4.808,-4.65l0.009,-0.008Zm-290.692,-98.075l-12.733,21.266l5.258,12.1l26.183,1.892l24.55,33.908l36.392,0.975l-4.933,-9.55l-32.034,-22.016l-7.316,-19.417l-17.55,4.442l-17.809,-23.6l-0.008,-0Zm185.583,4.933l0.392,-1.817l-0.733,0.35l0.35,1.459l-0.009,0.008Zm-54.466,-116.667l-1.442,-1.116l0.7,1.466l0.733,-0.35l0.009,0Zm31.866,10.367l3.309,-1.767l-1.092,-0.016l-2.217,1.783Zm22.334,-7.267l2.933,-1.041l9.9,-4.2l-12.833,5.241Zm38.816,-13.55l1.85,-1.791l-2.575,1.416l0.725,0.375Zm5.484,-1.366l5.883,-3.542l-5.492,1.725l-0.391,1.817Zm15.766,-6.65l-5.475,1l0.35,0.733l5.125,-1.733Zm6.942,-1.342l-0.725,-0.017l0.725,0.017Zm727.167,-158.917l-3.567,-4.425l-7.558,-5.225l11.125,9.65Zm-599.067,-75.25l10.8,-14.383l-5.917,5.358l-4.883,9.017l-0,0.008Zm14.483,-16.866l5.209,-6.467l-2.575,1.417l-2.634,5.05Zm7.8,-9.334l7.034,-7.166l-4.417,2.841l-2.625,4.325l0.008,0Zm364.392,23.225l5.725,5.925l2.55,0.05l-8.275,-5.966l-0,-0.009Zm-182.983,-94.816l-35.134,32.541l-14.308,6.675l-27.992,-2.65l-0.975,-6.933l-28.641,14.45l2.133,24.792l-7.625,-1.217l8.692,-19.15l-42.917,18.942l-13.333,-8.234l-39.567,36.467l-16.233,34.317l-32.384,20.575l-25.833,-0.8l-28.258,-8.484l-27.567,37.4l23.575,26.975l32.342,47.142l1.891,38.983l58.917,22.834l-10.942,23.116l9.942,15.092l9.925,-5.658l26,12.45l-24.1,4.325l-24.9,-13.159l10.158,23.834l-19.875,12.775l-65.791,-28.042l17.408,-17.55l-12.15,-13.675l-49.667,9l-74.35,26.417l5.725,27.041l35.284,23.525l-20.45,3.659l2.141,24.425l24.975,30.275l11.517,7.841l24.467,-4.325l31.408,15.817l13.05,3.133l-0.908,10.542l12.958,-12.892l21.958,-6.916l4.859,-7.567l12.283,5.667l8.167,-9.325l7.966,24.158l-9.6,8.208l-9.75,-4.533l-7.441,9.708l10.908,0.55l4.058,40.117l-6.45,15.55l-48.05,-0.442l0.292,4.375l-25.458,20.325l-32.059,1.284l-2.233,-18.609l-14.558,-0.241l-0.217,12.741l-14.567,0.117l-7.958,40.275l-6.758,-9.217l-37.275,29.959l2.716,11.691l-13.441,-1.683l-0.925,54.958l18.8,7.959l-8.084,4.6l19.05,14.516l34.384,11.867l-10.434,14.383l-0.491,-13.841l-14.6,2.3l-12.4,-20.592l-31.634,19.125l15.217,4.258l-6.008,10.825l30.808,51.484l28.717,2.666l20.1,-4.391l10.508,-18.759l7.908,5.959l-0.866,29.841l4.691,24.109l-14.958,23.416l4.633,27.384l-19.741,4.766l15.491,9.725l57.184,-23.433l16.041,20.292l11.242,2.733l10.042,30.75l12.033,-1.258l-2.175,-22.242l25.575,16.45l42.433,-12.033l14.117,-16.875l-16.875,29.208l-18.083,14.625l2.991,16.833l-11.433,8.542l-9.333,35.525l-26.809,13.75l-17.766,17.542l-34.942,21.258l-11.308,1.267l-33.134,22.016l1.334,29.15l-39.317,-21.775l-36.933,9.942l-37.259,28.867l-15.05,7.391l-5.675,12.65l33.167,-1.991l5.783,-19.2l3.742,15.716l35.075,-29.266l10.533,1.633l-7.866,13.342l38.008,-8.825l3.867,8.441l23.958,-17.8l25.808,2.25l46.459,-34.9l43.583,-15.283l40.017,-19.717l16.833,-25.933l19.858,-11.683l6.834,5.208l33.158,-23.475l6.892,1.575l41.05,-38.267l3.2,-17.058l-21.3,-10.917l6.2,-22.1l23.65,-21.083l25.975,-29.417l-5.025,-4.091l20.858,-6.2l33.5,-42.4l32.683,-16.925l24.675,4.783l-3.741,6.125l14.7,13.35l-15.359,4.108l-11.108,-10.741l-38.925,20.1l1.825,21.508l-17.542,25.55l-7.3,22.817l12.442,17.683l-7.633,-0.492l-5.842,22.475l21.492,-0.733l58.158,-37.975l11.483,-11.825l32.009,1.633l11.083,-9.641l10.975,-24.934l-16.667,-3.191l8.509,-8.234l-3.042,-13.883l6.458,-15.908l16.875,14.116l2.334,-9.058l26.883,3.367l20.692,25.083l10.225,-2.017l6.616,17.95l15.875,8.642l17.592,-6.983l-5.633,10.466l31.675,21.65l44.491,-4.716l38.042,11.191l12.958,-12.891l18.45,28.708l36.867,-5.933l7.35,17.6l-7.317,2.058l23.1,12.042l48.909,36.133l12.816,17.325l18.334,13.775l20.966,8.725l18.1,-15.717l-32.641,-28.941l29.441,2.675l8.934,31.825l11.708,-3.442l20.633,7.267l-17.958,-58.184l5.05,2.634l-3.925,-26.275l11.35,39.508l11.958,24.958l24.4,21.159l5.909,-5l11.941,26.05l25.084,1.15l0.766,19.308l-10.833,-5.275l2.458,26.983l11.442,12.567l50.55,46.358l-0.617,36.759l7.625,23.066l4.1,-27.233l22.034,-11.283l13.841,21.35l6.25,61.266l13.5,-1.591l18.05,-34.284l-6.058,-51.066l-2.817,-5.509l-58.5,-26.833l-12,-0.933l-13.9,-17.709l-3.416,-13.166l-41.492,-65.859l-33.067,-47.158l-17.666,-10.492l-31.092,-34.741l-5.517,-18.292l-9.341,-7.442l-35.017,25.625l-12.767,23.084l-22.775,11.991l-5.533,-17.2l-37.258,-35.941l-4.2,-10.267l-17.609,-13.767l-29.75,-5.958l-14.8,-7.533l-20.725,-1.8l-1.966,-707.417l-12.009,-0.567l-39.483,-33.791l-9.767,-3.809l-57.283,7.775l-14.317,-14.441l-35.275,-2.05l-17.708,-7.575l-43.625,-25.084l-48.1,2.467l-20.675,-4.717l7.058,-8.616l-21.1,-1.084l3.009,-27.616l-35.584,-5.692l-20.433,2.567l-1.45,-22.234l-7.925,-4.866l-27.4,27.208l14.225,-23.425l-18.4,-31.617l0.042,-0.066Z"/></svg>