<?xml version="1.0" encoding="UTF-8" standalone="no"?><!DOCTYPE svg PUBLIC "-//W3C//DTD SVG 1.1//EN" "http://www.w3.org/Graphics/SVG/1.1/DTD/svg11.dtd"><svg fill="#a2a2a2" stroke="#fff" fill-rule="nonzero" stroke-width="20.83px" width="100%" height="100%" viewBox="0 0 266 479" version="1.1" xmlns="http://www.w3.org/2000/svg" xmlns:xlink="http://www.w3.org/1999/xlink" xml:space="preserve" xmlnsSerif="http://www.serif.com/" style="fill-rule:evenodd;clip-rule:evenodd;stroke-linejoin:round;"><path id="vt1791" d="M225.3,443.758l-17.517,-22.025l3.55,-22.041l-4.258,-50.559l1.617,-8.1l-10.734,-39.208l5.817,-20.75l-2.608,-16.525l7.766,-13.617l-1.316,-18.8l7.408,-49.916l-6.825,-24.95l4.2,-12.642l16.833,-8.442l17.484,-20.108l8.725,-31.125l-17.517,-22.025l8.725,-31.125l-5.85,-21.383l-99.8,27.308l-130.583,33.817l4.241,29.491l7.784,7.45l-0.3,26.9l7.466,13.284l12.009,15.866l0.016,21.067l5.85,21.383l-3.883,6.809l-1.592,29.166l5.517,6.15l16.242,45.359l-2.25,19.775l17.5,0.958l8.758,11.008l33.183,142.25l104.342,-24.725l-0,0.025Z"/></svg>