<?xml version="1.0" encoding="UTF-8" standalone="no"?><!DOCTYPE svg PUBLIC "-//W3C//DTD SVG 1.1//EN" "http://www.w3.org/Graphics/SVG/1.1/DTD/svg11.dtd"><svg fill="#a2a2a2" stroke="#fff" fill-rule="nonzero" stroke-width="20.83px" width="100%" height="100%" viewBox="0 0 840 1037" version="1.1" xmlns="http://www.w3.org/2000/svg" xmlns:xlink="http://www.w3.org/1999/xlink" xml:space="preserve" xmlnsSerif="http://www.serif.com/" style="fill-rule:evenodd;clip-rule:evenodd;stroke-linejoin:round;"><path id="ut1866" d="M588.5,85.908l-175,-30.633l-121.558,-24.2l-99.517,-20.658l-17.425,83.308l-34.858,166.617l-21.292,111.183l-28.725,140.033l-34.858,166.617l-27.425,137.767l-17.425,83.308l89.141,17.75l131.934,27.108l66.125,10.642l111.183,21.292l112.475,19.025l88.167,14.183l113.775,16.75l11.916,-89.458l23.85,-157.859l15.459,-111.5l22.566,-134.5l15.459,-111.5l16.75,-113.775l-85.9,-12.891l-46.409,-7.545l-0.533,-1.605l25.492,-178.6l-133.367,-20.859Z"/></svg>