<?xml version="1.0" encoding="UTF-8" standalone="no"?><!DOCTYPE svg PUBLIC "-//W3C//DTD SVG 1.1//EN" "http://www.w3.org/Graphics/SVG/1.1/DTD/svg11.dtd"><svg fill="#a2a2a2" stroke="#fff" fill-rule="nonzero" stroke-width="20.83px" width="100%" height="100%" viewBox="0 0 205 458" version="1.1" xmlns="http://www.w3.org/2000/svg" xmlns:xlink="http://www.w3.org/1999/xlink" xml:space="preserve" xmlnsSerif="http://www.serif.com/" style="fill-rule:evenodd;clip-rule:evenodd;stroke-linejoin:round;"><path id="nj1776" d="M62.1,256.75l-9.7,27.558l-21.708,11.684l-14.892,15.566l-4.842,24.309l5.217,33.05l29.508,16.833l14.917,5.5l19.133,13.917l15.55,-6.175l23.017,7.108l-2.233,40.842l11.983,-5.2l12.942,-22.7l5.158,-30.142l7.767,-13.617l7.108,-23.016l11.308,-35.659l13.6,-13.3l6.792,-17.183l-4.217,-8.417l2.25,-19.775l-2.941,-31.758l5.833,0.317l-2.642,-58.667l-9.733,-14.575l-24.633,0.992l-13.617,-7.767l4.842,-24.308l7.45,-7.784l5.833,0.317l7.767,-13.617l5.8,-41.833l-2.925,-10.692l-119.625,-38.141l-16.192,17.841l-0.958,17.5l-13.267,28.534l-11.333,14.591l13.3,13.6l-2.25,19.775l-11.009,8.759l8.775,32.075l12.967,-1.634l7.15,19.117l56.425,38.192l-11.333,14.591l-22.342,23.359l-0,0.033Z"/></svg>