<?xml version="1.0" encoding="UTF-8" standalone="no"?><!DOCTYPE svg PUBLIC "-//W3C//DTD SVG 1.1//EN" "http://www.w3.org/Graphics/SVG/1.1/DTD/svg11.dtd"><svg fill="#a2a2a2" stroke="#fff" fill-rule="nonzero" stroke-width="20.83px" width="100%" height="100%" viewBox="0 0 1987 917" version="1.1" xmlns="http://www.w3.org/2000/svg" xmlns:xlink="http://www.w3.org/1999/xlink" xml:space="preserve" xmlnsSerif="http://www.serif.com/" style="fill-rule:evenodd;clip-rule:evenodd;stroke-linejoin:round;"><path id="va1784" d="M845.842,802.175l120.225,-15.658l127.358,-17.609l6.15,-5.516l35.325,-3.917l4.542,2.592l59.95,-4.917l77.775,-9.792l84.9,-11.741l86.2,-14.009l118.275,-22.791l108.916,-22.134l88.784,-18.55l130.266,-27.983l48.609,-11.383l2.266,1.291l7.125,-1.95l-5.533,-27.216l3.567,-0.975l12.658,25.25l5.833,0.316l-26.933,-42.433l-7.15,-19.117l-20.092,3.584l-22.041,-3.55l-3.225,16.208l-23.334,-1.275l-17.841,-16.192l-13.942,-1.933l-12.008,-15.867l-27.242,-15.533l39.542,4.5l3.9,14.258l25.283,8.417l6.492,9.717l18.141,-10.709l0.642,-11.666l-8.758,-11.009l-25.284,-8.416l10.034,-12.325l-8.125,-22.684l11.666,0.642l10.034,-12.325l-18.159,-10.358l-15.566,-14.892l10.691,-2.925l-0.016,-21.067l6.791,-17.183l-3.9,-14.258l-43.766,-12.925l-0.659,-9.4l-14.591,-11.334l-37.592,2.625l-12.642,-4.2l-13.3,-13.6l-1.633,-12.966l-30.125,15.908l-5.833,-0.317l-9.417,-20.408l6.775,-38.25l11.667,0.642l1.933,-13.942l8.417,-4.217l-3.267,-25.925l-5.517,-6.15l-10.375,-2.908l-17.183,-6.792l-6.492,-9.716l-21.066,0.016l-13.617,-7.766l-0.017,-21.067l-13.616,-7.767l-26.925,-0.341l-1.634,-12.959l-11.033,-12.308l-9.083,-5.175l-8.442,-16.833l-11.983,5.2l-24.967,-14.242l-10.692,2.925l-7.766,13.617l-19.117,7.15l-3.225,16.208l-14.258,3.9l-24.309,-4.842l-6.491,-9.716l-10.675,23.991l-9.059,15.892l-14.916,-5.5l-11.65,20.425l-37.234,38.925l-14.983,-89.756l0.017,-0.002l-0.017,-0l0,0.002l-142.9,23.781l-28.342,-166.558l-20.725,15.25l16.542,18.458l-4.2,12.642l7.467,13.283l-5.5,14.917l-5.475,35.983l0.991,24.633l-8.416,25.284l0.675,30.466l-21.05,21.084l-9.059,15.891l-12.308,11.034l-21.708,11.683l-12.642,-4.2l-8.742,10.058l-0.641,11.667l-14.259,3.9l-6.791,17.183l1.008,45.7l-8.417,4.217l-24.966,-14.242l-6.15,5.517l-13.9,40.2l5.216,33.05l-10.691,2.925l-3.867,27.875l-23.975,10.392l-11.667,-0.642l0.009,-0.017l-20.109,-17.483l-17.183,-6.792l-13.633,-28.833l-20.409,9.417l-10.358,18.158l-24.95,6.825l-10.058,-8.742l-24.309,-4.841l-14.891,15.566l-8.1,-1.616l-23.675,-16.509l-16.209,-3.225l-16.525,2.609l-16.208,-3.225l-21.425,-36.284l-20.425,-11.65l-24.95,6.825l-12.325,-10.033l-14.575,9.733l-5.175,9.084l6.492,9.716l-5.5,14.917l13.941,1.933l-2.25,19.775l-24.95,6.825l-24.291,16.225l-11.35,-6.475l-25.925,3.267l-0.317,5.833l8.125,22.684l-15.217,21.4l-11.008,8.758l-3.55,22.042l-14.575,9.733l-6.808,-3.883l-9.059,15.891l-0.3,26.9l-5.175,9.075l-11.983,5.2l-22.042,-3.55l-13.616,-7.766l-1.634,-12.959l-19.116,7.15l-13.917,19.134l2.608,16.525l-30.783,6.508l-12.008,-15.867l-30.45,21.742l-4.525,18.475l-50.25,-22.642l-16.834,8.442l-6.475,11.35l-11.35,-6.475l-17.825,4.875l-13.616,-7.767l-0.959,17.5l-5.175,9.075l-13.941,-1.933l-1.617,8.1l-12.942,22.7l12.984,19.433l-5.175,9.084l-24.95,6.825l-22.684,8.125l-5.5,14.916l1.634,12.959l12.008,15.866l-6.792,17.184l-22.041,-3.55l-41.175,-17.467l-20.092,3.583l-15.533,27.242l8.441,16.833l-3.55,22.042l3.584,20.092l-8.417,25.283l-6.15,5.517l-15.892,-9.059l-8.416,25.284l125.75,-9.509l76.483,-7.516l-5.217,-33.05l26.9,0.3l6.809,3.883l108.241,-10.467l89.442,-9.15l58.667,-2.641l93.983,-6.567l42.45,-5.867l72.917,-6.541l129.308,-10.484l9.692,-6.433Zm1096.37,-445.65l-2.566,25.608l-12.309,11.034l2.925,10.691l-14.241,24.967l7.783,7.45l-8.417,46.35l2.925,10.692l11.684,21.708l1.258,-44.4l6.792,-17.183l28.775,-76.834l8.741,-10.058l-3.9,-14.258l4.2,-12.642l-33.333,11.05l-0.317,5.833l0,-0.008Z"/></svg>