<?xml version="1.0" encoding="UTF-8" standalone="no"?><!DOCTYPE svg PUBLIC "-//W3C//DTD SVG 1.1//EN" "http://www.w3.org/Graphics/SVG/1.1/DTD/svg11.dtd"><svg fill="#a2a2a2" stroke="#fff" fill-rule="nonzero" stroke-width="20.83px" width="100%" height="100%" viewBox="0 0 1151 653" version="1.1" xmlns="http://www.w3.org/2000/svg" xmlns:xlink="http://www.w3.org/1999/xlink" xml:space="preserve" xmlnsSerif="http://www.serif.com/" style="fill-rule:evenodd;clip-rule:evenodd;stroke-linejoin:round;"><path id="va1863" d="M1106.78,196.408l-2.566,25.609l-12.309,11.033l2.925,10.692l-14.241,24.966l7.783,7.45l-8.417,46.35l2.925,10.692l11.684,21.708l1.258,-44.4l6.792,-17.183l28.775,-76.833l8.741,-10.059l-3.9,-14.258l4.2,-12.642l-33.333,11.05l-0.317,5.834l0,-0.009Zm-342.416,-180.225l-5.475,35.984l-78.467,-41.75l-1.275,23.333l-5.175,9.083l3.583,20.092l-27.183,47.667l-10.692,2.925l-13.266,28.533l-17.184,-6.792l-15.191,42.467l-3.55,22.042l-10.359,18.158l-31.441,-2.892l-9.734,-14.575l-12.641,-4.2l-1.592,29.167l-9.058,15.892l0.333,15.233l-15.217,21.4l-6.45,32.417l-23.3,40.858l-7.108,23.017l11.033,12.308l-8.741,10.058l2.925,10.692l-22.025,17.517l-12.642,-4.2l-25.592,18.491l-16.208,-3.225l-1.933,13.942l-8.742,10.058l-26.242,9.1l-13.283,7.467l-19.133,-13.917l-24.934,27.892l-12.966,1.633l-21.725,-9.383l-5.834,-0.317l-19.133,-13.916l-9.733,-14.575l1.933,-13.942l-49.858,55.792l-36.6,27.258l-8.742,10.058l-1.933,13.942l-17.167,14.275l-1.933,13.942l-26.567,14.933l-5.5,14.917l-15.55,6.175l-23,13.958l-12.958,1.633l-20.725,15.25l120.225,-15.658l127.358,-17.608l6.15,-5.517l35.325,-3.917l4.542,2.592l59.95,-4.917l77.775,-9.791l84.9,-11.742l86.2,-14.008l118.275,-22.792l108.916,-22.133l88.784,-18.55l130.266,-27.984l48.609,-11.383l2.266,1.292l7.125,-1.95l-5.533,-27.217l3.567,-0.975l12.658,25.25l5.833,0.317l-26.933,-42.434l-7.15,-19.116l-20.092,3.583l-22.041,-3.55l-3.225,16.208l-23.334,-1.275l-17.841,-16.191l-13.942,-1.934l-12.008,-15.866l-27.242,-15.534l39.542,4.5l3.9,14.259l25.283,8.416l6.492,9.717l18.141,-10.708l0.642,-11.667l-8.758,-11.008l-25.284,-8.417l10.034,-12.325l-8.125,-22.683l11.666,0.641l10.034,-12.325l-18.159,-10.358l-15.566,-14.892l10.691,-2.925l-0.016,-21.066l6.791,-17.184l-3.9,-14.258l-43.766,-12.925l-0.659,-9.4l-14.591,-11.333l-37.592,2.625l-12.642,-4.2l-13.3,-13.6l-1.633,-12.967l-30.125,15.908l-5.833,-0.316l-9.417,-20.409l6.775,-38.25l11.667,0.642l1.933,-13.942l8.417,-4.216l-3.267,-25.925l-5.517,-6.15l-10.375,-2.909l-17.183,-6.791l-6.492,-9.717l-21.066,0.017l-13.617,-7.767l-0.017,-21.067l-13.616,-7.766l-26.9,-0.3l-0.025,-0.034Z"/></svg>