<?xml version="1.0" encoding="UTF-8" standalone="no"?><!DOCTYPE svg PUBLIC "-//W3C//DTD SVG 1.1//EN" "http://www.w3.org/Graphics/SVG/1.1/DTD/svg11.dtd"><svg fill="#a2a2a2" stroke="#fff" fill-rule="nonzero" stroke-width="20.83px" width="100%" height="100%" viewBox="0 0 1783 647" version="1.1" xmlns="http://www.w3.org/2000/svg" xmlns:xlink="http://www.w3.org/1999/xlink" xml:space="preserve" xmlnsSerif="http://www.serif.com/" style="fill-rule:evenodd;clip-rule:evenodd;stroke-linejoin:round;"><path id="ks1854" d="M556.822,590.834c136.742,13.492 242.45,17.884 242.45,17.884l268.333,14.683l67.742,2.533l266.417,7.55l167.25,2.125l99.5,-0.408l103.058,-1.383l0.042,0.016l-4.034,-161.725l-0.733,-93.666l-1.083,-129.959l-29.509,-16.833l-11.366,-27.542l-26.6,-27.2l8.416,-25.283l11.334,-14.592l8.1,1.617l3.225,-16.208l-19.134,-13.917l-9.716,6.492l-15.892,-9.059l-17.842,-16.191l-145.191,1.425l-86.534,-1.225l-117.975,-4.109l-86.533,-1.225l-147.142,-5.708l-172.75,-8.275l-87.508,-4.783l-92.083,-7.375c-0,0.108 -121.184,-8.389 -512.043,-48.076l-14.583,25c-12.183,5.143 -23.294,12.088 -33.333,20.833c-2.778,4.167 -2.778,8.333 -0,12.5c13.834,6.98 15.917,15.313 6.25,25c-19.378,21.03 -42.989,26.585 -70.834,16.667c-8.069,3.168 -15.708,7.335 -22.916,12.5c-7.323,17.719 -13.573,35.774 -18.75,54.166c2.727,14.569 11.06,24.986 25,31.25c-3.632,11.17 -7.798,22.281 -12.5,33.334c5.539,16.458 11.095,33.125 16.666,50c-0.603,3.216 -1.992,5.995 -4.166,8.333c-9.722,1.387 -19.445,2.779 -29.167,4.167c-3.153,6.3 -7.32,11.858 -12.5,16.666c-10.417,8.279 -21.528,15.921 -33.333,22.917c-3.691,3.437 -5.079,7.604 -4.167,12.5l14.583,8.333c177.857,24.8 364.663,48.413 543.75,62.5c-4.658,55.804 -6.045,107.192 -12.5,162.5l0.301,1.251Z"/></svg>