<?xml version="1.0" encoding="UTF-8" standalone="no"?><!DOCTYPE svg PUBLIC "-//W3C//DTD SVG 1.1//EN" "http://www.w3.org/Graphics/SVG/1.1/DTD/svg11.dtd"><svg fill="#a2a2a2" stroke="#fff" fill-rule="nonzero" stroke-width="20.83px" width="100%" height="100%" viewBox="0 0 1172 2005" version="1.1" xmlns="http://www.w3.org/2000/svg" xmlns:xlink="http://www.w3.org/1999/xlink" xml:space="preserve" xmlnsSerif="http://www.serif.com/" style="fill-rule:evenodd;clip-rule:evenodd;stroke-linejoin:round;"><path id="ca1850" d="M448.292,1799.82l6.191,36.616l8.759,11.009l10.691,-2.925l-12.983,-19.434l-12.658,-25.25l-0,-0.016Zm29.75,-73.275l2.925,10.691l-0.959,17.5l25.609,2.567l-7.467,-13.283l-20.108,-17.484l-0,0.009Zm-196.217,-157.017l-24.308,-4.842l1.316,18.8l7.784,7.45l17.825,-4.875l-2.609,-16.525l-0.008,-0.008Zm32.733,0.617l-11.008,8.758l4.217,8.417l19.45,8.083l13.283,-7.467l-25.942,-17.8l0,0.009Zm798.25,19.075l-66.2,-94.9l-38.941,-58.3l-68.809,-111.434l-55.166,-82.6l-81.134,-121.466l-77.566,-122.442l-74.642,-111.75l-50.95,-74.175l-71.075,-112.725l28.1,-107.3l37.483,-129.025l17.45,-62.242l35.217,-130.316l25.167,-96.925l-101.467,-27.784l-68.075,-17.766l-102.442,-31.35l-66.75,-20.034l-102.441,-31.35l-103.417,-34.916l-9.7,27.558l-8.742,10.058l11.034,12.309l0.991,24.633l-5.158,30.142l-21.033,42.15l-8.417,4.216l0.992,24.634l-32.042,50.908l-6.808,-3.883l-33.667,37.95l0.992,24.633l-5.175,9.083l23.691,37.575l20.15,59.617l-0.3,26.9l-6.133,26.583l-11.333,14.592l-6.792,17.183l1.35,60.925l-8.742,10.059l5.85,21.383l17.859,37.258l16.566,39.525l12.009,15.867l12.025,36.933l-3.55,22.042l-16.509,23.675l14.259,-3.9l11.033,12.308l9.417,20.409l8.1,1.616l15.25,20.725l13.283,-7.466l-6.492,-9.717l12.292,-32.1l14.258,-3.9l12.984,19.433l21.725,9.384l12.308,-11.034l7.467,13.284l-25.925,3.266l-8.759,-11.008l-28.516,7.8l7.8,28.517l-7.45,7.783l8.758,11.008l8.442,16.834l-3.225,16.208l-8.742,10.058l-7.467,-13.283l-12.325,-10.033l4.5,-39.542l-16.525,2.608l-2.25,19.775l-12.941,22.7l7.783,7.45l-0.3,26.9l-7.425,28.85l23.05,49.242l11.35,6.475l17.5,0.958l8.758,11.009l3.267,25.925l-8.083,19.45l-12.309,11.033l-7.783,-7.45l-8.417,25.283l-2.891,31.442l3.9,14.258l13.3,13.6l10.708,18.142l3.583,20.092l10.059,8.741l-2.25,19.775l11.683,21.709l4.558,23.658l12.325,10.033l15.592,35.959l11.35,6.475l4.217,8.416l-11.967,26.259l12.008,15.866l19.134,13.917l-0.642,11.667l-15.533,27.241l5.2,11.984l-6.792,17.183l2.925,10.692l-13.917,19.133l17.842,16.192l1.633,12.958l50.892,10.975l17.183,6.792l15.567,14.891l20.75,5.817l17.5,0.958l21.4,15.217l20.767,26.883l2.291,22.359l38.267,27.841l20.425,11.65l35.983,5.475l10.709,18.142l2.291,22.358l-6.791,17.184l13.616,7.766l9.717,-6.491l22.7,12.941l12.983,19.434l24.334,25.908l31.475,45.025l18.516,46.65l0.034,42.133l-7.45,7.784l-1.275,23.333l12.325,10.033l-0.3,26.9l91.75,13.209l111.5,15.458l164.008,18.333l8.417,-4.216l20.75,5.816l5.175,-9.083l12.308,-11.033l2.25,-19.775l-8.758,-11.009l-12.642,-4.2l-8.758,-11.008l8.083,-19.45l-3.583,-20.092l4.525,-18.475l12.958,-1.633l19.75,-18.817l13.583,-34.366l1.917,-35l20.725,-15.25l6.475,-11.35l22.683,-8.125l21.709,-11.684l1.616,-8.1l-29.841,-32.058l1.933,-13.942l-9.433,-41.475l-6.809,-3.883l-8.125,-22.683l3.55,-22.042l-0.05,0.017Z"/></svg>