<?xml version="1.0" encoding="UTF-8" standalone="no"?><!DOCTYPE svg PUBLIC "-//W3C//DTD SVG 1.1//EN" "http://www.w3.org/Graphics/SVG/1.1/DTD/svg11.dtd"><svg fill="#a2a2a2" stroke="#fff" fill-rule="nonzero" stroke-width="20.83px" width="100%" height="100%" viewBox="0 0 948 1437" version="1.1" xmlns="http://www.w3.org/2000/svg" xmlns:xlink="http://www.w3.org/1999/xlink" xml:space="preserve" xmlnsSerif="http://www.serif.com/" style="fill-rule:evenodd;clip-rule:evenodd;stroke-linejoin:round;"><path id="nv1867" d="M755.017,1087.17l17.425,-83.309l27.425,-137.766l34.858,-166.617l28.725,-140.033l21.292,-111.184l34.858,-166.616l17.425,-83.309l-148.142,-30.333l-72.933,-14.525l-172.133,-41.008l-121.242,-30.034l-96.925,-25.166l-99.2,-26.492l-72.617,-20.358l-25.166,96.925l-35.217,130.316l-17.45,62.242l-37.483,129.025l-28.1,107.3l71.075,112.725l50.95,74.175l74.641,111.75l77.567,122.442l81.133,121.466l55.167,82.6l68.808,111.434l38.942,58.3l66.2,94.9l4.842,-24.309l11.008,-8.758l3.867,-27.875l-5.217,-33.05l8.083,-19.45l-2.608,-16.525l0.958,-17.5l7.45,-7.783l-8.125,-22.684l8.084,-19.45l27.216,-5.533l15.892,9.058l11.667,0.642l13.958,23l15.233,-0.333l19.1,-28.217l28.725,-140.033l-0.016,-0.05Z"/></svg>