<?xml version="1.0" encoding="UTF-8" standalone="no"?><!DOCTYPE svg PUBLIC "-//W3C//DTD SVG 1.1//EN" "http://www.w3.org/Graphics/SVG/1.1/DTD/svg11.dtd"><svg fill="#a2a2a2" stroke="#fff" fill-rule="nonzero" stroke-width="20.83px" width="100%" height="100%" viewBox="0 0 1079 851" version="1.1" xmlns="http://www.w3.org/2000/svg" xmlns:xlink="http://www.w3.org/1999/xlink" xml:space="preserve" xmlnsSerif="http://www.serif.com/" style="fill-rule:evenodd;clip-rule:evenodd;stroke-linejoin:round;"><path id="co1861" d="M1054.62,295.783l13.45,-181.833l-73.575,-2.85l-97.883,-7.692l-102.425,-10.283l-145.534,-13.808l-169.85,-18.65l-85.9,-12.892l-84.925,-9.325l-85.9,-12.892l-105.666,-15.141l-16.75,113.775l-15.459,111.5l-22.566,134.5l-15.459,111.5l-23.85,157.858l-11.916,89.458l80.066,12.567l137.109,18.033l81.358,10.3l106.967,12.875l164.008,18.334l108.258,10.6l82.65,8.033l109.55,8.333l137.425,12.2l7.059,-86.216l8.633,-136.45l7.675,-118.95l5.758,-83.917l7.675,-118.95l0.017,-0.017Z"/></svg>