<?xml version="1.0" encoding="UTF-8" standalone="no"?><!DOCTYPE svg PUBLIC "-//W3C//DTD SVG 1.1//EN" "http://www.w3.org/Graphics/SVG/1.1/DTD/svg11.dtd"><svg fill="#a2a2a2" stroke="#fff" fill-rule="nonzero" stroke-width="20.83px" width="100%" height="100%" viewBox="0 0 742 614" version="1.1" xmlns="http://www.w3.org/2000/svg" xmlns:xlink="http://www.w3.org/1999/xlink" xml:space="preserve" xmlnsSerif="http://www.serif.com/" style="fill-rule:evenodd;clip-rule:evenodd;stroke-linejoin:round;"><path id="co1861" d="M10.688,356.25c-0.912,-4.896 0.476,-9.063 4.167,-12.5c11.805,-6.996 22.916,-14.638 33.333,-22.917c5.18,-4.808 9.347,-10.366 12.5,-16.666c9.722,-1.388 19.445,-2.78 29.167,-4.167c2.174,-2.338 3.563,-5.117 4.166,-8.333c-5.571,-16.875 -11.127,-33.542 -16.666,-50c4.702,-11.053 8.868,-22.164 12.5,-33.334c-13.94,-6.264 -22.273,-16.681 -25,-31.25c5.177,-18.392 11.427,-36.447 18.75,-54.166c7.208,-5.165 14.847,-9.332 22.916,-12.5c27.845,9.918 51.456,4.363 70.834,-16.667c9.667,-9.687 7.584,-18.02 -6.25,-25c-2.778,-4.167 -2.778,-8.333 -0,-12.5c10.039,-8.745 21.15,-15.69 33.333,-20.833l14.583,-25c170.025,18.853 339.467,38.298 508.334,50c3.709,-1.816 3.709,-1.816 3.709,-1.924l-7.675,118.95l-5.759,83.916l-7.675,118.95l-8.633,136.45l-7.058,86.217c-0,0 -0.7,-2.817 -137.442,-12.142l-0.301,-1.251c6.455,-55.308 7.842,-106.696 12.5,-162.5c-179.087,-14.087 -365.893,-37.7 -543.75,-62.5l-14.583,-8.333Z"/></svg>