<?xml version="1.0" encoding="UTF-8" standalone="no"?><!DOCTYPE svg PUBLIC "-//W3C//DTD SVG 1.1//EN" "http://www.w3.org/Graphics/SVG/1.1/DTD/svg11.dtd"><svg fill="#a2a2a2" stroke="#fff" fill-rule="nonzero" stroke-width="20.83px" width="100%" height="100%" viewBox="0 0 599 1035" version="1.1" xmlns="http://www.w3.org/2000/svg" xmlns:xlink="http://www.w3.org/1999/xlink" xml:space="preserve" xmlnsSerif="http://www.serif.com/" style="fill-rule:evenodd;clip-rule:evenodd;stroke-linejoin:round;"><path id="il1818" d="M489.325,10.417l-119.908,9.825l-141.917,6.283l-118.617,7.558l-2.591,4.542l28.216,19.1l8.125,22.683l32.75,21.684l6.175,15.55l-6.775,38.25l-13.6,13.3l-3.866,27.875l-12.309,11.033l-21.383,5.85l-13.6,13.3l-38.883,4.892l-8.742,10.058l-3.55,22.042l1.633,12.958l13.617,7.767l5.2,11.983l0.992,24.633l-17.484,20.109l-2.566,25.608l-7.45,7.783l-27.542,11.367l2.625,37.592l-7.125,1.95l-7.767,13.616l-2.566,25.609l5.533,27.216l5.2,11.984l0.333,15.233l14.934,26.567l36.975,30.108l9.733,14.575l32.75,21.683l13.958,23l6.192,36.617l5.2,11.983l11.35,6.475l20.725,-15.25l35.658,11.309l8.759,11.008l-9.059,15.892l1.317,18.8l-6.792,17.183l-16.491,44.742l8.441,16.833l34.384,34.65l14.916,5.5l12.642,4.2l12.325,10.033l17.183,6.792l12.984,19.433l12.641,4.2l6.825,24.95l11.684,21.709l-1.934,13.941l-6.791,17.184l31.475,45.025l9.716,-6.492l12.325,10.033l8.1,1.617l-8.441,-16.833l15.533,-27.242l20.092,-3.583l41.175,17.466l22.041,3.55l6.792,-17.183l-12.008,-15.867l-1.634,-12.958l5.5,-14.917l22.684,-8.125l24.95,-6.825l5.175,-9.083l-12.984,-19.433l12.942,-22.7l1.617,-8.1l-4.575,-44.725l2.908,-10.375l12.308,-11.034l-10.058,-8.741l6.792,-17.184l14.258,-3.9l11.65,-20.425l-1.95,-7.125l13.6,-13.3l-3.242,-4.858l6.792,-17.183l7.45,-7.784l5.5,-14.916l-9.417,-20.409l-0.333,-15.233l-5.517,-6.15l-14.933,-26.567l8.742,-10.058l-2.609,-16.525l10.034,-12.325l-11.142,-138.7l-9.492,-104.675l-15.716,-183.417l-8.759,-11.008l-11.366,-27.542l-6.825,-24.95l-11.35,-6.475l-11.367,-27.541l0.942,-38.567l-0.042,-0.008Z"/></svg>