<?xml version="1.0" standalone="no"?>
<!DOCTYPE svg PUBLIC "-//W3C//DTD SVG 20010904//EN"
 "http://www.w3.org/TR/2001/REC-SVG-20010904/DTD/svg10.dtd">
<svg version="1.0" xmlns="http://www.w3.org/2000/svg" xmlns:xlink="http://www.w3.org/1999/xlink" xml:space="preserve" xmlnsSerif="http://www.serif.com/"
 width="256.000000pt" height="256.000000pt" viewBox="0 0 256.000000 256.000000"
 preserveAspectRatio="xMidYMid meet">
<metadata>
Created by potrace 1.10, written by Peter Selinger 2001-2011
</metadata>
<g transform="translate(0.000000,256.000000) scale(0.100000,-0.100000)">
<path d="M2012 2150 c-93 -45 -122 -64 -122 -78 0 -11 42 -107 94 -213 264
-546 304 -627 315 -633 11 -7 261 107 261 119 0 6 -50 113 -180 380 -51 105
-123 254 -160 331 -38 78 -72 144 -77 147 -5 3 -64 -21 -131 -53z"/>
<path d="M217 1785 c-114 -228 -207 -422 -207 -430 0 -9 48 -39 121 -75 101
-51 123 -59 136 -48 23 19 425 837 417 850 -8 13 -224 118 -244 118 -10 0 -87
-143 -223 -415z"/>
<path d="M1285 1999 c-16 -5 -88 -23 -160 -39 -105 -24 -153 -30 -248 -30
-150 0 -186 -17 -187 -87 l0 -33 90 0 90 0 0 -40 c0 -22 -11 -72 -24 -112 -13
-40 -29 -98 -36 -128 -23 -104 20 -180 102 -180 103 0 204 93 243 225 17 56
62 85 131 85 29 0 64 -4 77 -9 13 -5 136 -113 273 -238 137 -126 292 -268 344
-314 83 -75 95 -90 98 -122 4 -46 -21 -95 -53 -103 -21 -5 -67 24 -285 180
-143 102 -266 186 -274 186 -7 0 -19 -7 -26 -16 -23 -27 1 -59 107 -141 56
-43 160 -123 232 -178 124 -95 130 -102 131 -136 0 -45 -20 -64 -69 -63 -30 0
-68 23 -241 147 -170 122 -210 147 -235 145 -22 -2 -31 -9 -33 -24 -2 -17 34
-49 187 -165 198 -149 207 -160 181 -209 -12 -22 -74 -45 -92 -34 -7 4 -86 56
-176 116 -152 102 -193 120 -192 86 1 -7 46 -60 100 -118 55 -58 100 -110 100
-117 0 -19 -37 -35 -72 -31 -26 2 -33 9 -40 34 -9 37 -76 101 -115 110 -14 4
-39 2 -55 -4 -26 -10 -28 -9 -28 15 0 36 -16 60 -62 93 -26 19 -53 30 -75 30
-29 0 -33 3 -33 28 0 59 -68 122 -132 122 l-37 0 15 37 c35 84 -31 167 -134
168 l-56 1 -88 93 c-74 78 -91 91 -103 81 -8 -7 -15 -29 -15 -49 0 -30 11 -52
55 -110 71 -94 73 -121 10 -198 -34 -42 -45 -63 -45 -90 0 -78 75 -141 152
-129 34 6 39 4 38 -11 -5 -45 2 -66 34 -101 33 -35 38 -37 95 -37 59 0 61 -1
61 -27 0 -50 80 -118 139 -118 11 0 33 12 50 26 27 22 31 23 31 8 0 -46 97
-134 149 -134 6 0 34 20 60 45 46 43 50 45 92 39 54 -7 116 8 155 39 24 19 41
22 114 22 105 0 162 27 198 92 18 33 29 42 60 48 20 4 49 14 64 23 29 17 68
79 68 109 0 14 11 23 38 31 78 24 162 105 162 157 0 11 -8 36 -19 55 -26 49
-35 149 -16 174 8 11 15 32 15 47 0 16 -72 171 -167 361 l-168 332 -70 18
c-265 69 -409 89 -480 67z"/>
</g>
</svg>
