<?xml version="1.0" standalone="no"?>
<!DOCTYPE svg PUBLIC "-//W3C//DTD SVG 20010904//EN"
 "http://www.w3.org/TR/2001/REC-SVG-20010904/DTD/svg10.dtd">
<svg version="1.0" xmlns="http://www.w3.org/2000/svg" xmlns:xlink="http://www.w3.org/1999/xlink" xml:space="preserve" xmlnsSerif="http://www.serif.com/"
 width="256.000000pt" height="256.000000pt" viewBox="0 0 256.000000 256.000000"
 preserveAspectRatio="xMidYMid meet">
<metadata>
Created by potrace 1.10, written by Peter Selinger 2001-2011
</metadata>
<g transform="translate(0.000000,256.000000) scale(0.100000,-0.100000)"
fill="#000000" stroke="none">
<path d="M240 1505 l0 -405 -115 0 -115 0 0 -115 0 -115 115 0 115 0 0 -115 0
-115 115 0 115 0 0 115 0 115 810 0 810 0 0 -115 0 -115 115 0 115 0 0 115 0
115 115 0 115 0 0 115 0 115 -115 0 -115 0 0 405 0 405 -115 0 -115 0 0 -84 0
-83 -60 -44 c-337 -248 -751 -313 -1150 -183 -140 46 -298 133 -377 207 -32
30 -33 34 -33 109 l0 78 -115 0 -115 0 0 -405z m283 57 c23 -16 72 -46 110
-66 l67 -38 -2 -176 -3 -177 -110 0 -110 0 -3 243 c-1 133 0 242 4 242 3 0 24
-13 47 -28z m1565 -214 l-3 -243 -110 0 -110 0 -3 177 -2 176 83 46 c46 25 95
54 108 65 13 11 27 20 32 21 4 0 6 -109 5 -242z m-1148 30 c47 -11 91 -22 98
-24 10 -3 12 -33 10 -126 l-3 -123 -112 -3 -113 -3 0 157 c0 145 1 156 18 149
9 -3 55 -16 102 -27z m800 -123 l0 -156 -112 3 -113 3 -3 122 -3 122 43 11
c24 6 72 19 108 29 36 10 68 19 73 20 4 1 7 -69 7 -154z m-345 -35 l0 -115
-115 0 -115 0 -3 104 c-1 58 -1 110 2 116 2 7 43 11 117 10 l114 0 0 -115z"/>
</g>
</svg>
