<?xml version="1.0" standalone="no"?>
<!DOCTYPE svg PUBLIC "-//W3C//DTD SVG 20010904//EN"
 "http://www.w3.org/TR/2001/REC-SVG-20010904/DTD/svg10.dtd">
<svg version="1.0" xmlns="http://www.w3.org/2000/svg" xmlns:xlink="http://www.w3.org/1999/xlink" xml:space="preserve" xmlnsSerif="http://www.serif.com/"
 width="256.000000pt" height="256.000000pt" viewBox="0 0 256.000000 256.000000"
 preserveAspectRatio="xMidYMid meet">
<metadata>
Created by potrace 1.10, written by Peter Selinger 2001-2011
</metadata>
<g transform="translate(0.000000,256.000000) scale(0.100000,-0.100000)">
<path d="M1200 2405 l0 -155 -24 0 c-51 0 -186 -51 -257 -98 -146 -96 -256
-250 -295 -416 l-17 -75 -76 -3 -76 -3 0 -225 0 -225 73 -3 72 -3 0 -224 0
-225 -225 0 -225 0 0 -150 0 -150 -75 0 -75 0 0 -225 0 -225 1280 0 1280 0 0
225 0 225 -75 0 -75 0 0 150 0 150 -225 0 -225 0 0 225 0 224 73 3 72 3 0 225
0 225 -76 3 -76 3 -17 75 c-55 230 -236 425 -460 493 -37 12 -79 21 -92 21
-23 0 -24 2 -24 80 l0 80 150 0 150 0 0 75 0 75 -230 0 -230 0 0 -155z m199
-310 c196 -47 347 -201 395 -407 l6 -28 -520 0 -520 0 6 28 c70 295 347 474
633 407z m551 -665 l0 -70 -670 0 -670 0 0 70 0 70 670 0 670 0 0 -70z m-1050
-455 l0 -225 -70 0 -70 0 0 225 0 225 70 0 70 0 0 -225z m300 0 l0 -225 -70 0
-70 0 0 225 0 225 70 0 70 0 0 -225z m300 0 l0 -225 -70 0 -70 0 0 225 0 225
70 0 70 0 0 -225z m300 0 l0 -225 -70 0 -70 0 0 225 0 225 70 0 70 0 0 -225z
m460 -450 l0 -75 -230 0 -230 0 0 -75 0 -75 305 0 305 0 0 -75 0 -75 -1130 0
-1130 0 0 75 0 75 305 0 305 0 0 75 0 75 -230 0 -230 0 0 75 0 75 980 0 980 0
0 -75z"/>
</g>
</svg>
