<?xml version="1.0" standalone="no"?>
<!DOCTYPE svg PUBLIC "-//W3C//DTD SVG 20010904//EN"
 "http://www.w3.org/TR/2001/REC-SVG-20010904/DTD/svg10.dtd">
<svg version="1.0" xmlns="http://www.w3.org/2000/svg" xmlns:xlink="http://www.w3.org/1999/xlink" xml:space="preserve" xmlnsSerif="http://www.serif.com/"
 width="256.000000pt" height="256.000000pt" viewBox="0 0 256.000000 256.000000"
 preserveAspectRatio="xMidYMid meet">
<metadata>
Created by potrace 1.10, written by Peter Selinger 2001-2011
</metadata>
<g transform="translate(0.000000,256.000000) scale(0.100000,-0.100000)">
<path d="M1195 2541 c-27 -13 -222 -202 -607 -587 -591 -594 -588 -590 -588
-671 0 -56 49 -124 107 -149 20 -9 68 -14 123 -14 l90 0 0 -535 0 -536 25 -24
24 -25 296 0 295 0 0 455 0 456 25 24 24 25 271 0 271 0 24 -25 25 -24 0 -456
0 -455 295 0 296 0 24 25 25 24 0 536 0 535 89 0 c49 0 102 5 118 11 58 22
113 95 113 151 0 71 -21 101 -171 253 l-149 151 0 253 0 252 -25 24 c-23 24
-31 25 -135 25 -104 0 -112 -1 -135 -25 -23 -22 -25 -32 -25 -117 l0 -92 -262
261 c-172 172 -276 267 -300 278 -50 20 -114 19 -163 -4z"/>
</g>
</svg>
