<?xml version="1.0" standalone="no"?>
<!DOCTYPE svg PUBLIC "-//W3C//DTD SVG 20010904//EN"
 "http://www.w3.org/TR/2001/REC-SVG-20010904/DTD/svg10.dtd">
<svg version="1.0" xmlns="http://www.w3.org/2000/svg" xmlns:xlink="http://www.w3.org/1999/xlink" xml:space="preserve" xmlnsSerif="http://www.serif.com/"
 width="300.000000pt" height="351.000000pt" viewBox="0 0 300.000000 351.000000"
 preserveAspectRatio="xMidYMid meet">
<metadata>
Created by potrace 1.10, written by Peter Selinger 2001-2011
</metadata>
<g transform="translate(0.000000,351.000000) scale(0.100000,-0.100000)"
fill="#000000" stroke="none">
<path d="M1456 3168 c-13 -18 -16 -52 -16 -163 0 -149 10 -185 50 -185 44 0
50 22 50 181 0 85 -5 159 -10 170 -14 26 -55 24 -74 -3z"/>
<path d="M662 2848 c-27 -27 -11 -55 102 -167 101 -101 117 -113 140 -107 17
4 28 15 32 32 6 23 -6 39 -107 140 -112 113 -140 129 -167 102z"/>
<path d="M2157 2752 c-108 -109 -126 -139 -95 -170 26 -26 53 -10 155 91 124
121 130 130 108 163 -28 44 -53 31 -168 -84z"/>
<path d="M1345 2654 c-38 -8 -112 -36 -164 -61 -164 -79 -298 -235 -358 -418
-22 -68 -26 -98 -27 -200 0 -215 53 -340 228 -534 71 -79 126 -179 145 -266 6
-27 15 -104 19 -171 7 -103 12 -126 32 -154 42 -59 83 -70 273 -70 183 0 212
6 259 56 39 42 48 75 48 178 0 182 51 309 181 451 145 159 199 282 207 472 5
133 -12 225 -62 329 -117 243 -342 391 -606 400 -70 2 -128 -1 -175 -12z m283
-129 c279 -66 472 -346 433 -629 -20 -139 -61 -220 -178 -349 -43 -47 -93
-110 -111 -140 -65 -108 -101 -252 -102 -402 0 -42 -5 -76 -12 -83 -8 -8 -60
-12 -170 -12 -187 0 -178 -7 -178 133 0 186 -63 340 -207 503 -46 53 -95 115
-108 138 -67 114 -91 281 -61 410 48 205 215 377 416 430 72 19 199 19 278 1z"/>
<path d="M342 2054 c-27 -19 -29 -60 -3 -74 11 -5 85 -10 170 -10 159 0 181 6
181 50 0 40 -36 50 -185 50 -111 0 -145 -3 -163 -16z"/>
<path d="M2318 2058 c-24 -20 -28 -44 -12 -67 14 -20 24 -21 174 -21 157 0
160 0 175 24 19 28 10 54 -22 67 -38 14 -296 11 -315 -3z"/>
<path d="M757 1352 c-114 -114 -126 -139 -83 -167 33 -22 42 -16 164 108 100
102 116 129 90 155 -31 31 -62 14 -171 -96z"/>
<path d="M2057 1453 c-4 -3 -7 -18 -7 -33 0 -20 26 -52 113 -138 63 -62 119
-112 125 -112 15 0 52 37 52 52 0 6 -50 62 -112 125 -86 87 -118 113 -138 113
-15 0 -30 -3 -33 -7z"/>
<path d="M1258 709 c-25 -14 -24 -65 1 -79 12 -6 107 -10 239 -10 199 0 220 2
235 18 23 25 21 48 -5 66 -19 13 -59 16 -238 16 -127 0 -222 -5 -232 -11z"/>
<path d="M1268 563 c-22 -5 -35 -50 -21 -72 9 -14 42 -16 238 -19 202 -2 230
0 247 14 24 23 23 49 -4 68 -19 13 -57 16 -233 15 -115 -1 -218 -3 -227 -6z"/>
<path d="M1352 398 c-17 -17 -15 -43 4 -62 12 -13 40 -16 138 -16 136 0 150 6
144 57 l-3 28 -135 3 c-97 2 -139 -1 -148 -10z"/>
</g>
</svg>
