<?xml version="1.0" encoding="UTF-8" standalone="no"?><!DOCTYPE svg PUBLIC "-//W3C//DTD SVG 1.1//EN" "http://www.w3.org/Graphics/SVG/1.1/DTD/svg11.dtd"><svg width="100%" height="100%" viewBox="0 0 1067 1067" version="1.1" xmlns="http://www.w3.org/2000/svg" xmlns:xlink="http://www.w3.org/1999/xlink" xml:space="preserve" xmlnsSerif="http://www.serif.com/" style="fill-rule:evenodd;clip-rule:evenodd;stroke-linejoin:round;stroke-miterlimit:2;"><g><path d="M124.417,65.641l-123.225,65.25l-1.12,468.083c-0.374,268.425 0.746,467.693 2.613,467.693c1.867,-0 59.372,-29.695 127.706,-66.032l124.719,-66.423l1.12,-466.91c0.747,-372.748 -0,-467.302 -3.734,-467.302c-2.614,0.391 -60.119,29.695 -128.079,65.641Z" style="fill-rule:nonzero;"/><path d="M298.798,467.692l1.121,468.083l105.674,55.873l105.302,55.483l-0,-937.729l-104.555,-54.701c-57.505,-30.086 -105.301,-54.701 -106.421,-54.701c-1.121,-0 -1.494,210.598 -1.121,467.692Z" style="fill-rule:nonzero;"/><path d="M659.511,55.092l-103.807,54.31l-0,937.729l105.674,-55.483l105.301,-55.873l1.121,-468.083c0.373,-257.094 -0.374,-467.692 -1.867,-467.301c-1.867,-0 -49.664,24.615 -106.422,54.701Z" style="fill-rule:nonzero;"/><path d="M809.621,466.911l0,466.911l126.959,66.422c69.828,36.337 127.706,66.423 128.826,66.423c1.121,-0 1.494,-210.599 1.121,-468.083l-1.121,-467.693l-123.224,-65.25c-67.587,-35.946 -125.466,-65.25 -127.706,-65.641c-3.734,-0 -4.855,95.726 -4.855,466.911Z" /></g></svg>