<?xml version="1.0" standalone="no"?>
<!DOCTYPE svg PUBLIC "-//W3C//DTD SVG 20010904//EN"
 "http://www.w3.org/TR/2001/REC-SVG-20010904/DTD/svg10.dtd">
<svg version="1.0" xmlns="http://www.w3.org/2000/svg" xmlns:xlink="http://www.w3.org/1999/xlink" xml:space="preserve" xmlnsSerif="http://www.serif.com/"
 width="256.000000pt" height="256.000000pt" viewBox="0 0 256.000000 256.000000"
 preserveAspectRatio="xMidYMid meet">
<metadata>
Created by potrace 1.10, written by Peter Selinger 2001-2011
</metadata>
<g transform="translate(0.000000,256.000000) scale(0.100000,-0.100000)"
fill="#000000" stroke="none">
<path d="M1050 2540 c-117 -22 -228 -59 -340 -114 -77 -38 -205 -120 -238
-153 -7 -6 -33 -29 -57 -49 -63 -52 -186 -205 -243 -305 -124 -215 -180 -445
-169 -693 14 -300 116 -557 315 -791 230 -269 595 -435 957 -435 641 0 1174
463 1270 1102 38 249 -5 510 -120 743 -68 138 -131 226 -243 338 -138 140
-319 253 -497 312 -193 64 -442 82 -635 45z m1000 -909 c0 -110 -4 -202 -9
-205 -4 -3 -38 21 -76 53 l-67 58 -42 -46 c-24 -25 -136 -152 -251 -281 -114
-129 -213 -241 -221 -249 -13 -14 -28 -4 -144 96 -86 74 -173 143 -179 143 -4
0 -81 -69 -171 -152 -90 -84 -186 -174 -215 -200 l-52 -47 -57 58 -57 57 108
100 c59 54 181 168 271 252 145 137 164 152 181 140 10 -7 77 -62 148 -122 72
-60 135 -107 139 -105 5 2 101 107 213 233 l205 230 -75 68 c-41 37 -68 68
-61 68 13 0 165 21 287 39 33 5 75 9 93 10 l32 1 0 -199z"/>
</g>
</svg>
