<?xml version="1.0" encoding="UTF-8" standalone="no"?><!DOCTYPE svg PUBLIC "-//W3C//DTD SVG 1.1//EN" "http://www.w3.org/Graphics/SVG/1.1/DTD/svg11.dtd"><svg fill="#a2a2a2" stroke="#fff" fill-rule="nonzero" stroke-width="20.83px" width="100%" height="100%" viewBox="0 0 989 744" version="1.1" xmlns="http://www.w3.org/2000/svg" xmlns:xlink="http://www.w3.org/1999/xlink" xml:space="preserve" xmlnsSerif="http://www.serif.com/" style="fill-rule:evenodd;clip-rule:evenodd;stroke-linejoin:round;"><path id="wa1863" d="M297.292,123.267l-8.1,-1.617l-17.484,20.108l-1.616,8.1l12.983,19.434l-5.175,9.083l2.292,22.358l8.758,11.009l12.967,-1.634l0.641,-11.666l-8.758,-11.009l-10.692,2.925l4.184,-33.708l-7.784,-7.45l12.309,-11.033l5.5,-14.917l-0.025,0.017Zm-40.217,-34.967l-10.392,-23.975l-7.125,1.95l2.292,22.358l15.233,-0.333l-0.008,0Zm26.225,-30.167l-8.1,-1.616l-14.575,9.733l18.158,10.358l15.55,-6.175l-11.033,-12.308l-0,0.008Zm27.183,-47.666l-8.083,19.45l9.1,26.241l12.642,4.2l0.358,36.3l-9.717,6.492l-11.966,26.258l12.008,15.867l-4.183,33.708l12.658,25.25l-19.117,7.15l-17.8,25.942l-0.641,11.667l-7.767,13.616l-5.475,35.984l1.633,12.958l-20.725,15.25l-9.083,-5.175l-8.742,10.058l-24.291,16.225l-3.9,-14.258l-15.234,0.333l-5.2,-11.983l11.334,-14.592l11.983,-5.2l-1.275,23.334l19.433,-12.984l14.259,-3.9l16.833,-29.508l-6.175,-15.55l2.25,-19.775l23.658,-4.558l0.3,-26.9l-6.808,-3.884l-25.908,24.334l-8.742,10.058l-24.95,6.825l22.658,-29.192l12.642,4.2l12.308,-11.033l1.934,-13.942l-4.242,-29.491l2.908,-10.375l-28.191,1.966l-9.734,-14.575l-18.8,1.317l-36.633,-14.875l-12.325,-10.033l-38.908,-16.175l-17.517,-22.025l-18.158,-10.359l-15.25,-20.725l-14.259,3.9l-16.508,23.675l0.333,15.234l-4.183,33.708l12.658,25.25l3.9,14.258l-3.208,37.275l-6.45,32.417l5.533,27.217l-7.75,34.683l17.184,6.792l-1.617,8.1l13.3,13.6l-22.358,2.291l-10.034,12.325l-2.908,10.375l20.425,11.65l-13.242,49.6l-26.241,9.1l11.683,21.709l30.467,-0.675l7.466,13.283l17.5,0.958l13.634,28.834l15.233,-0.334l10.375,2.909l18.817,19.75l5.533,27.216l-7.733,55.75l6.491,9.717l14.917,5.5l30.483,20.392l41.159,-3.6l24.95,-6.825l28.85,7.425l34.366,13.583l12.984,19.433l12.958,-1.633l17.183,6.792l31.759,-2.942l7.125,-1.95l15.891,9.058l31.442,2.892l15.55,-6.175l25.925,-3.267l35.983,5.475l9.717,-6.491l31.442,2.891l31.125,8.725l13.283,-7.466l133.917,34.241l129.341,31.65l-5.85,-21.383l10.034,-12.325l-1.634,-12.958l-8.125,-22.684l9.359,-42.791l34.875,-145.55l28.425,-113.134l13.566,-55.433l27.125,-110.867l-144.258,-37.141l-128.05,-33.917l-153.333,-42.325l-78.45,-20.675l-100.167,-30.05l-63.217,-21.008l-0.05,0.05Z"/></svg>