<?xml version="1.0" encoding="UTF-8" standalone="no"?><!DOCTYPE svg PUBLIC "-//W3C//DTD SVG 1.1//EN" "http://www.w3.org/Graphics/SVG/1.1/DTD/svg11.dtd"><svg fill="#a2a2a2" stroke="#fff" fill-rule="nonzero" stroke-width="20.83px" width="100%" height="100%" viewBox="0 0 1713 1631" version="1.1" xmlns="http://www.w3.org/2000/svg" xmlns:xlink="http://www.w3.org/1999/xlink" xml:space="preserve" xmlnsSerif="http://www.serif.com/" style="fill-rule:evenodd;clip-rule:evenodd;stroke-linejoin:round;"><path id="wa1861" d="M297.292,123.267l-8.1,-1.617l-17.484,20.108l-1.616,8.1l12.983,19.434l-5.175,9.083l2.292,22.358l8.758,11.009l12.967,-1.634l0.641,-11.666l-8.758,-11.009l-10.692,2.925l4.184,-33.708l-7.784,-7.45l12.309,-11.033l5.5,-14.917l-0.025,0.017Zm-40.217,-34.967l-10.392,-23.975l-7.125,1.95l2.292,22.358l15.233,-0.333l-0.008,0Zm26.225,-30.167l-8.1,-1.616l-14.575,9.733l18.158,10.358l15.55,-6.175l-11.033,-12.308l-0,0.008Zm586.933,674.525l6.892,28.859c17.673,12.833 27.395,30.196 29.167,52.083c-25.439,29.329 -48.356,60.579 -68.75,93.75c-4.857,24.292 -18.746,40.958 -41.667,50c-6.797,15.088 -16.519,27.588 -29.167,37.5c-12.511,22.408 -6.956,37.688 16.667,45.833c10.846,11.092 10.846,20.813 -0,29.167c-2.358,18.604 -9.303,35.271 -20.833,50c-25.118,106.85 -49.424,213.796 -72.917,320.833c299.871,67.342 601.258,127.063 904.167,179.167c6.795,-6.496 10.266,-14.829 10.416,-25c8.454,-51.3 16.096,-102.687 22.917,-154.167c21.229,-0.295 42.062,2.48 62.5,8.334c5.154,-0.234 9.321,-2.317 12.5,-6.25c-9.783,-14.175 -12.558,-29.45 -8.333,-45.834c-8.955,-4.85 -17.98,-9.708 -27.084,-14.583c-4.208,-16.362 -9.066,-32.337 -14.583,-47.917c3.658,-7.412 3.658,-14.354 0,-20.833c7.875,-7.933 17.6,-12.792 29.167,-14.583c4.641,-5.096 5.337,-10.65 2.083,-16.667c-10.713,-3.754 -20.433,-9.308 -29.167,-16.667c-6.879,-22.058 -15.908,-42.891 -27.083,-62.5c-16.396,-3.2 -26.813,-12.92 -31.25,-29.166c-7.271,6.066 -14.908,11.621 -22.917,16.666c-12.629,-19.745 -27.212,-37.8 -43.75,-54.166c-2.779,-8.334 -5.554,-16.667 -8.333,-25c-10.325,-4.584 -17.963,-1.113 -22.917,10.416c6.438,7.659 5.046,12.521 -4.166,14.584c-13.425,-5.025 -26.617,-5.025 -39.584,-0c-3.47,-3.471 -6.946,-6.946 -10.416,-10.417c-18.117,4.508 -34.784,1.033 -50,-10.417c-5.554,5.555 -11.113,11.113 -16.667,16.667c-13.558,-6.371 -27.446,-11.925 -41.667,-16.667c-9.4,3.838 -13.566,10.784 -12.5,20.834c-4.383,0.621 -8.55,-0.071 -12.5,-2.084c-3.471,-6.25 -8.333,-11.112 -14.583,-14.583c-4.55,-21.183 -7.329,-42.017 -8.333,-62.5c-6.213,-6.267 -13.85,-9.737 -22.917,-10.417c-16.171,-13.55 -18.95,-28.829 -8.333,-45.833c-17.33,-31.15 -27.05,-64.483 -29.167,-100c0.604,-3.217 1.992,-5.996 4.167,-8.333c-16.438,-12.488 -17.825,-24.988 -4.167,-37.5c15.621,-2.95 30.9,-7.117 45.833,-12.5c27.671,-27.492 58.225,-31.659 91.667,-12.5c2.296,5.825 3.683,11.383 4.167,16.666c16.779,8.984 32.058,18.705 45.833,29.167c2.654,-9.346 4.042,-19.067 4.167,-29.167c-0.405,-16.812 -2.488,-32.783 -6.25,-47.916c1.937,-5.963 5.412,-10.821 10.416,-14.584c9.95,-1.262 18.979,-4.737 27.084,-10.416c4,-13.054 7.47,-26.25 10.416,-39.584c-9.429,-6.941 -17.762,-15.275 -25,-25c4.05,-8.795 7.521,-17.825 10.417,-27.083c10.025,-4.437 19.054,-9.992 27.083,-16.667c-19.691,-24.566 -41.912,-47.483 -66.666,-68.75c2.887,-11.254 -1.28,-20.283 -12.5,-27.083c-3.134,-14.962 -4.521,-29.546 -4.167,-43.75c13.283,-8.058 19.533,-19.867 18.75,-35.417c7.417,-4.557 15.058,-8.723 22.917,-12.5c-2.146,-7.188 -4.925,-14.132 -8.334,-20.833c-9.387,-3.138 -17.029,-8.693 -22.916,-16.667c-0.955,-12.323 -5.817,-22.74 -14.584,-31.25c2.78,-2.778 5.554,-5.555 8.334,-8.333c-9.65,-9.605 -15.209,-21.41 -16.667,-35.417c-8.808,-2.224 -16.45,-6.391 -22.917,-12.5c0.896,-13.795 0.896,-27.684 0,-41.666c-8.504,-3.847 -17.533,-5.235 -27.083,-4.167c0.996,-8.197 -0.392,-15.835 -4.167,-22.917l0.884,-13.9c-118.198,-23.482 -235.748,-49.537 -352.983,-76.84l-137.109,-35.301l-128.05,-33.917l-153.333,-42.325l-78.45,-20.675l-100.167,-30.05l-63.217,-21.008l-0.05,0.05l-8.083,19.45l9.1,26.241l12.642,4.2l0.358,36.3l-9.717,6.492l-11.966,26.258l12.008,15.867l-4.183,33.708l12.658,25.25l-19.117,7.15l-17.8,25.942l-0.641,11.667l-7.767,13.616l-5.475,35.984l1.633,12.958l-20.725,15.25l-9.083,-5.175l-8.742,10.058l-24.291,16.225l-3.9,-14.258l-15.234,0.333l-5.2,-11.983l11.334,-14.592l11.983,-5.2l-1.275,23.334l19.433,-12.984l14.259,-3.9l16.833,-29.508l-6.175,-15.55l2.25,-19.775l23.658,-4.558l0.3,-26.9l-6.808,-3.884l-25.908,24.334l-8.742,10.058l-24.95,6.825l22.658,-29.192l12.642,4.2l12.308,-11.033l1.934,-13.942l-4.242,-29.491l2.908,-10.375l-28.191,1.966l-9.734,-14.575l-18.8,1.317l-36.633,-14.875l-12.325,-10.033l-38.908,-16.175l-17.517,-22.025l-18.158,-10.359l-15.25,-20.725l-14.259,3.9l-16.508,23.675l0.333,15.234l-4.183,33.708l12.658,25.25l3.9,14.258l-3.208,37.275l-6.45,32.417l5.533,27.217l-7.75,34.683l17.184,6.792l-1.617,8.1l13.3,13.6l-22.358,2.291l-10.034,12.325l-2.908,10.375l20.425,11.65l-13.242,49.6l-26.241,9.1l11.683,21.709l30.467,-0.675l7.466,13.283l17.5,0.958l13.634,28.834l15.233,-0.334l10.375,2.909l18.817,19.75l5.533,27.216l-7.733,55.75l6.491,9.717l14.917,5.5l30.483,20.392l41.159,-3.6l24.95,-6.825l28.85,7.425l34.366,13.583l12.984,19.433l12.958,-1.633l17.183,6.792l31.759,-2.942l7.125,-1.95l15.891,9.058l31.442,2.892l15.55,-6.175l25.925,-3.267l35.983,5.475l9.717,-6.491l31.442,2.891l31.125,8.725l13.283,-7.466l133.917,34.241l129.341,31.65Z"/></svg>