<?xml version="1.0" encoding="UTF-8" standalone="no"?><!DOCTYPE svg PUBLIC "-//W3C//DTD SVG 1.1//EN" "http://www.w3.org/Graphics/SVG/1.1/DTD/svg11.dtd"><svg fill="#a2a2a2" stroke="#fff" fill-rule="nonzero" stroke-width="20.83px" width="100%" height="100%" viewBox="0 0 862 563" version="1.1" xmlns="http://www.w3.org/2000/svg" xmlns:xlink="http://www.w3.org/1999/xlink" xml:space="preserve" xmlnsSerif="http://www.serif.com/" style="fill-rule:evenodd;clip-rule:evenodd;stroke-linejoin:round;"><path id="pa1782" d="M807.342,104.3l-11.034,-12.308l-18.8,1.316l-15.891,-9.058l-12.009,-15.867l-7.8,-28.516l-4.216,-8.417l-14.917,-5.5l-27.242,-15.533l-164.608,35.466l-72.258,15.942l-125.417,24.742l-107.583,19.866l-114.709,21.817l-100.441,17.908l24.758,146.467l15.958,93.325l28.342,166.558l142.917,-23.783l141.916,-27.35l125.417,-24.742l157.483,-33.5l79.392,-17.891l6.475,-11.35l13.6,-13.3l26.9,0.3l1.617,-8.1l31.425,-18.175l1.933,-13.942l8.742,-10.058l22.341,-23.359l11.334,-14.591l-56.425,-38.192l-7.15,-19.117l-12.967,1.634l-8.775,-32.075l11.008,-8.759l2.25,-19.775l-13.3,-13.6l11.334,-14.591l13.266,-28.534l0.959,-17.5l16.191,-17.841l-0.016,-0.017Z"/></svg>