<?xml version="1.0" encoding="UTF-8" standalone="no"?><!DOCTYPE svg PUBLIC "-//W3C//DTD SVG 1.1//EN" "http://www.w3.org/Graphics/SVG/1.1/DTD/svg11.dtd"><svg fill="#a2a2a2" stroke="#fff" fill-rule="nonzero" stroke-width="20.83px" width="100%" height="100%" viewBox="0 0 862 563" version="1.1" xmlns="http://www.w3.org/2000/svg" xmlns:xlink="http://www.w3.org/1999/xlink" xml:space="preserve" xmlnsSerif="http://www.serif.com/" style="fill-rule:evenodd;clip-rule:evenodd;stroke-linejoin:round;"><path id="pa1776" d="M51.133,385.95l28.342,166.558l131.357,-21.859l1.086,-7.894c8.777,-14.401 16.416,-29.679 22.917,-45.833c2.849,-5.35 2.155,-10.21 -2.083,-14.583c11.225,-15.47 20.947,-31.442 29.166,-47.917l0,-20.833c-39.228,10.321 -68.395,-2.179 -87.5,-37.5l-12.5,-0c-7.937,18.343 -19.742,33.621 -35.416,45.833c-8.029,-5.671 -17.057,-9.143 -27.084,-10.417c-2.582,-9.218 -7.444,-16.856 -14.583,-22.916c-9.881,7.806 -20.297,14.75 -31.25,20.833l-2.452,-3.472Zm756.209,-281.65l-11.034,-12.308l-18.8,1.316l-15.891,-9.058l-12.009,-15.867l-7.8,-28.516l-4.216,-8.417l-14.917,-5.5l-27.242,-15.533l-164.608,35.466l-72.258,15.942l-125.417,24.742l-107.583,19.866l-114.709,21.817l-100.441,17.908l24.758,146.467l6.25,36.55l729.319,-153.004l6.198,-7.979l13.266,-28.534l0.959,-17.5l16.191,-17.841l-0.016,-0.017Zm-753.757,285.122c10.953,-6.083 21.369,-13.027 31.25,-20.833c7.139,6.06 12.001,13.698 14.583,22.916c10.027,1.274 19.055,4.746 27.084,10.417c15.674,-12.212 27.479,-27.49 35.416,-45.833l12.5,-0c19.105,35.321 48.272,47.821 87.5,37.5l0,20.833c-8.219,16.475 -17.941,32.447 -29.166,47.917c4.238,4.373 4.932,9.233 2.083,14.583c-6.501,16.154 -14.14,31.432 -22.917,45.833l-1.086,7.894l11.56,-1.924l141.916,-27.35l125.417,-24.742l157.483,-33.5l79.392,-17.891l6.475,-11.35l13.6,-13.3l26.9,0.3l1.617,-8.1l31.425,-18.175l1.933,-13.942l8.742,-10.058l22.341,-23.359l11.334,-14.591l-56.425,-38.192l-7.15,-19.117l-12.967,1.634l-8.775,-32.075l11.008,-8.759l2.25,-19.775l-13.3,-13.6l5.136,-6.612l-729.319,153.004l9.708,56.775l2.452,3.472Z"/></svg>