<?xml version="1.0" encoding="UTF-8" standalone="no"?><!DOCTYPE svg PUBLIC "-//W3C//DTD SVG 1.1//EN" "http://www.w3.org/Graphics/SVG/1.1/DTD/svg11.dtd"><svg fill="#a2a2a2" stroke="#fff" fill-rule="nonzero" stroke-width="20.83px" width="100%" height="100%" viewBox="0 0 642 984" version="1.1" xmlns="http://www.w3.org/2000/svg" xmlns:xlink="http://www.w3.org/1999/xlink" xml:space="preserve" xmlnsSerif="http://www.serif.com/" style="fill-rule:evenodd;clip-rule:evenodd;stroke-linejoin:round;"><path id="mi1805" d="M167,229.542l3.883,-6.809l-2.291,-22.358l-7.125,1.95l-6.134,26.583l11.667,0.642l-0,-0.008Zm176.267,693.133c-0,-0 93.008,-12.292 180.5,-26.408l3.225,-16.209l15.85,-33.075l8.416,-4.216l3.525,-43.109l1.617,-8.1l7.767,-13.616l20.725,-15.25l-1.967,-28.192l4.2,-12.642l12.625,-16.866l11.35,6.475l1.317,18.8l8.416,-4.217l7.767,-13.617l1.275,-23.333l-4.217,-8.417l5.475,-35.983l0.009,-0.067l-9.734,-14.575l-12.341,-31.1l-6.509,-30.783l-7.466,-13.283l-13.659,-49.9l-10.708,-18.142l-17.842,-16.192l-17.183,-6.791l-19.433,12.983l-20.409,9.417l-14.241,24.966l-9.7,27.559l-8.1,-1.617l-12.942,22.7l-31.125,-8.725l-7.783,-7.45l-1.967,-28.192l5.5,-14.916l5.175,-9.084l16.525,-2.608l12.308,-11.033l4.5,-39.542l19.434,-12.983l3.225,-16.209l-4.892,-38.883l1.933,-13.942l-11.05,-33.333l-17.841,-16.192l1.933,-13.941l15.55,-6.175l-5.2,-11.984l-11.033,-12.308l1.616,-8.1l-16.866,-12.625l-23.334,-1.275l-21.725,-9.383l-13.616,-7.767l-21.067,0.017l-17.517,-22.025l-12.641,-4.2l-20.092,3.583l-15.892,-9.058l-25.283,-8.417l-21.708,11.683l-15.217,21.4l0.017,21.067l13.3,13.6l-0.642,11.667l-18.8,1.316l-17.167,14.275l-6.791,17.184l4.558,23.658l-2.892,31.442l-14.591,-11.334l-2.892,31.442l-10.375,-2.908l4.525,-18.475l-3.9,-14.259l3.883,-6.808l-3.9,-14.258l-18.458,16.541l-9.383,21.725l-11.35,-6.475l-7.767,13.617l-5.833,-0.317l-4.184,33.709l-14.258,3.9l-5.175,9.083l4.875,17.825l2.625,37.592l-17.467,41.175l-11.333,14.591l11.683,21.709l2.942,31.758l-6.792,17.183l-1.933,13.942l6.175,15.55l37.983,75.833l10.392,23.975l4.575,44.725l-1.258,44.4l-11.634,41.492l-12.941,22.7l-11.309,35.658l-12.941,22.7l-17.167,14.275l-22.042,17.467l-34.666,13.317c121.082,-5.639 228.902,-15.77 334.693,-26.587l-1.843,-24.205Zm-0,-0l180.5,-26.408l33.341,9.95l-211.998,32.329l-1.843,-15.871Zm-165.688,-786.671l3.938,-0.496l42.791,9.359l25.625,23.633l13.942,1.933l-2.608,-16.525l5.816,-20.75l27.875,3.867l54.775,4.167l15.55,-6.175l-20.108,-17.484l0.642,-11.666l-32.417,-6.45l7.45,-7.784l-4.875,-17.825l15.233,-0.333l-8.441,-16.833l3.225,-16.209l-10.375,-2.908l-14.575,9.733l-15.234,0.334l-6.475,11.35l-0.025,0.025l-7.45,7.783l-13.3,-13.6l-20.408,9.417l-31.125,-8.725l1.917,-35.009l-4.217,-8.416l-21.067,0.016l-19.151,11.309l13.072,114.262Z"/></svg>