<?xml version="1.0" encoding="UTF-8" standalone="no"?><!DOCTYPE svg PUBLIC "-//W3C//DTD SVG 1.1//EN" "http://www.w3.org/Graphics/SVG/1.1/DTD/svg11.dtd"><svg fill="#a2a2a2" stroke="#fff" fill-rule="nonzero" stroke-width="20.83px" width="100%" height="100%" viewBox="0 0 2060 1657" version="1.1" xmlns="http://www.w3.org/2000/svg" xmlns:xlink="http://www.w3.org/1999/xlink" xml:space="preserve" xmlnsSerif="http://www.serif.com/" style="fill-rule:evenodd;clip-rule:evenodd;stroke-linejoin:round;"><path id="or1848" d="M1569.23,827.028c-0,-0 45.856,-11.331 71.289,3.239c2.295,5.825 3.683,11.383 4.166,16.666c16.779,8.984 32.059,18.705 45.834,29.167c2.654,-9.346 4.041,-19.067 4.166,-29.167c-0.404,-16.812 -2.487,-32.783 -6.25,-47.916c1.938,-5.963 5.413,-10.821 10.417,-14.584c9.95,-1.262 18.979,-4.737 27.083,-10.416c4,-13.054 7.471,-26.25 10.417,-39.584c-9.429,-6.941 -17.763,-15.275 -25,-25c4.05,-8.795 7.521,-17.825 10.417,-27.083c10.025,-4.437 19.054,-9.992 27.083,-16.667c-19.692,-24.566 -41.913,-47.483 -66.667,-68.75c2.888,-11.254 -1.279,-20.283 -12.5,-27.083c-3.133,-14.962 -4.521,-29.546 -4.166,-43.75c13.283,-8.058 19.533,-19.867 18.75,-35.417c7.416,-4.557 15.058,-8.723 22.916,-12.5c-2.146,-7.188 -4.925,-14.132 -8.333,-20.833c-9.387,-3.138 -17.029,-8.693 -22.917,-16.667c-0.954,-12.323 -5.816,-22.74 -14.583,-31.25c2.779,-2.778 5.554,-5.555 8.333,-8.333c-9.65,-9.605 -15.208,-21.41 -16.666,-35.417c-8.809,-2.224 -16.45,-6.391 -22.917,-12.5c0.896,-13.795 0.896,-27.684 -0,-41.666c-8.504,-3.847 -17.533,-5.235 -27.083,-4.167c0.995,-8.197 -0.392,-15.835 -4.167,-22.917l0.883,-13.9c-118.198,-23.482 -235.747,-49.537 -352.982,-76.84l-137.109,-35.301l-128.05,-33.917l-153.334,-42.325l-78.45,-20.675l-100.166,-30.05l-63.217,-21.008l-0.05,0.05l-8.083,19.45l9.1,26.241l12.641,4.2l0.359,36.3l-9.717,6.492l-11.967,26.258l12.009,15.867l-4.184,33.708l12.659,25.25l-19.117,7.15l-17.8,25.942l-0.642,11.667l-7.766,13.616l-5.475,35.984l1.633,12.958l-20.725,15.25l-9.083,-5.175l-8.742,10.058l-24.292,16.225l-3.9,-14.258l-15.233,0.333l-5.2,-11.983l11.333,-14.592l11.984,-5.2l-1.275,23.334l19.433,-12.984l14.258,-3.9l16.834,-29.508l-6.175,-15.55l2.25,-19.775l23.658,-4.558l0.3,-26.9l-6.808,-3.884l-25.909,24.334l-8.741,10.058l-24.95,6.825l22.658,-29.192l12.642,4.2l12.308,-11.033l1.933,-13.942l-4.241,-29.491l2.908,-10.375l-28.192,1.966l-9.733,-14.575l-18.8,1.317l-36.633,-14.875l-12.325,-10.033l-38.909,-16.175l-17.516,-22.025l-18.159,-10.359l-15.25,-20.725l-14.258,3.9l-16.508,23.675l0.333,15.234l-4.183,33.708l12.658,25.25l3.9,14.258l-3.208,37.275l-6.45,32.417l5.533,27.217l-7.75,34.683l17.183,6.792l-1.616,8.1l13.3,13.6l-22.359,2.291l-10.033,12.325l-2.908,10.375l20.425,11.65l-13.242,49.6l-26.242,9.1l11.684,21.709l-9.742,6.491l-1.275,23.334l-4.525,18.475l-10.692,2.925l0.334,15.233l-10.359,18.158l3.584,20.092l-10.034,12.325l-8.083,19.45l4.217,8.417l-12.309,11.033l0.659,9.4l-8.417,25.283l-24.592,43.125l-5.175,9.084l-12.608,37.933l-52.4,123.525l-10.358,18.158l-31.067,54.475l-6.475,11.35l-11.667,-0.641l-26.208,51.233l-21.367,26.917l-2.25,19.775l8.442,16.833l-4.525,18.475l-6.475,11.35l-9.7,27.558l0.017,21.067l-4.525,18.475l12.658,25.25l103.417,34.917l102.441,31.35l66.75,20.033l102.442,31.35l68.075,17.767l101.467,27.783l72.616,20.358l99.2,26.492l96.925,25.167l121.242,30.033l7.867,3.333c299.87,67.342 904.166,179.167 914.866,178.942l147.763,26.227c-0,-0 -1.611,-0.919 10.914,-9.335c2.683,-15.504 6.155,-30.779 10.417,-45.834c-2.493,-5.395 -4.576,-10.95 -6.25,-16.666c-11.22,-8.638 -21.636,-17.667 -31.25,-27.084c10.245,-11.445 13.717,-24.641 10.417,-39.583c-12.477,-13.833 -22.894,-29.112 -31.25,-45.833l-0.29,-4.491l-12.837,-14.259c-9.784,-14.175 -12.559,-29.45 -8.334,-45.834c-8.954,-4.85 -17.979,-9.708 -27.083,-14.583c-4.208,-16.362 -9.067,-32.337 -14.583,-47.917c3.658,-7.412 3.658,-14.354 -0,-20.833c7.875,-7.933 17.6,-12.792 29.166,-14.583c4.642,-5.096 5.338,-10.65 2.084,-16.667c-10.713,-3.754 -20.434,-9.308 -29.167,-16.667c-6.879,-22.058 -15.908,-42.891 -27.083,-62.5c-16.396,-3.2 -26.813,-12.92 -31.25,-29.166c-7.271,6.066 -14.909,11.621 -22.917,16.666c-12.629,-19.745 -27.213,-37.8 -43.75,-54.166c-2.779,-8.334 -5.554,-16.667 -8.333,-25c-10.325,-4.584 -17.963,-1.113 -22.917,10.416c6.437,7.659 5.046,12.521 -4.167,14.584c-13.425,-5.025 -26.616,-5.025 -39.583,-0c-3.471,-3.471 -6.946,-6.946 -10.417,-10.417c-18.116,4.508 -34.783,1.033 -50,-10.417c-5.554,5.555 -11.112,11.113 -16.666,16.667c-13.559,-6.371 -27.446,-11.925 -41.667,-16.667c-9.4,3.838 -13.567,10.784 -12.5,20.834c-4.383,0.621 -8.55,-0.071 -12.5,-2.084c-3.471,-6.25 -8.333,-11.112 -14.583,-14.583c-4.55,-21.183 -7.33,-42.017 -8.334,-62.5c-6.212,-6.267 -13.85,-9.737 -22.916,-10.417c-16.171,-13.55 -18.95,-28.829 -8.334,-45.833c-17.329,-31.15 -27.05,-64.483 -29.166,-100c0.604,-3.217 1.991,-5.996 4.166,-8.333c-16.437,-12.488 -17.825,-24.988 -4.166,-37.5c15.62,-2.95 30.9,-7.117 45.833,-12.5c4.142,-4.116 15.678,-12.496 15.678,-12.496l4.7,-3.243Z"/></svg>