<?xml version="1.0" encoding="UTF-8" standalone="no"?><!DOCTYPE svg PUBLIC "-//W3C//DTD SVG 1.1//EN" "http://www.w3.org/Graphics/SVG/1.1/DTD/svg11.dtd"><svg fill="#a2a2a2" stroke="#fff" fill-rule="nonzero" stroke-width="20.83px" width="100%" height="100%" viewBox="0 0 1193 1005" version="1.1" xmlns="http://www.w3.org/2000/svg" xmlns:xlink="http://www.w3.org/1999/xlink" xml:space="preserve" xmlnsSerif="http://www.serif.com/" style="fill-rule:evenodd;clip-rule:evenodd;stroke-linejoin:round;"><path id="or1859" d="M382.267,45.983l-8.417,4.217l-17.183,-6.792l-9.417,-20.408l-15.55,6.175l-32.417,-6.45l-11.033,-12.308l-1.275,23.333l-4.525,18.475l-10.692,2.925l0.334,15.233l-10.359,18.159l3.584,20.091l-10.034,12.325l-8.083,19.45l4.217,8.417l-12.309,11.033l0.659,9.4l-8.417,25.284l-24.592,43.125l-5.175,9.083l-12.608,37.933l-52.4,123.525l-10.358,18.159l-31.067,54.475l-6.475,11.35l-11.667,-0.642l-26.208,51.233l-21.367,26.917l-2.25,19.775l8.442,16.833l-4.525,18.475l-6.475,11.35l-9.7,27.559l0.017,21.066l-4.525,18.475l12.658,25.25l103.417,34.917l102.441,31.35l66.75,20.033l102.442,31.35l68.075,17.767l101.467,27.783l72.616,20.359l99.2,26.491l96.925,25.167l121.242,30.033l39.4,-164.025l35.192,-151.416l23.3,-40.859l-2.925,-10.691l12.625,-16.867l-8.442,-16.833l-23.992,-10.675l7.75,-34.684l15.867,-12.008l19.1,-28.217l13.283,-7.466l16.192,-17.842l5.817,-20.75l18.458,-16.542l15.85,-33.075l32.375,-35.675l4.2,-12.641l-3.583,-20.092l-16.542,-18.458l-9.083,-5.175l-7.467,-13.284l0.958,-17.5l-129.341,-31.65l-133.917,-34.241l-13.283,7.466l-31.125,-8.725l-31.442,-2.891l-9.717,6.491l-35.983,-5.475l-25.925,3.267l-15.55,6.175l-31.442,-2.892l-15.891,-9.058l-7.125,1.95l-31.759,2.942l-17.183,-6.792l-12.958,1.633l-12.984,-19.433l-34.366,-13.583l-28.85,-7.425l-24.95,6.825l-41.159,3.6l-30.483,-20.392l-14.917,-5.5l-6.491,-9.717l7.733,-55.75l-5.533,-27.216l-18.817,-19.75l-10.375,-2.909l0.117,0.075Z"/></svg>