<?xml version="1.0" encoding="UTF-8" standalone="no"?><!DOCTYPE svg PUBLIC "-//W3C//DTD SVG 1.1//EN" "http://www.w3.org/Graphics/SVG/1.1/DTD/svg11.dtd"><svg fill="#a2a2a2" stroke="#fff" fill-rule="nonzero" stroke-width="20.83px" width="100%" height="100%" viewBox="0 0 2292 2999" version="1.1" xmlns="http://www.w3.org/2000/svg" xmlns:xlink="http://www.w3.org/1999/xlink" xml:space="preserve" xmlnsSerif="http://www.serif.com/" style="fill-rule:evenodd;clip-rule:evenodd;stroke-linejoin:round;"><path id="or1821" d="M734.625,1345.59l-0.047,12.212l8.413,13.184l-17.89,6.509l-1.792,-23.493l11.316,-8.412Zm-271.115,-164.492l-17.844,-5.704l5.709,-17.828l12.224,0.047l-0.089,23.485Zm220.979,-3.858l10.236,28.222l-4.719,4.679l-22.474,-24.51l-5.527,-30.083l22.484,21.692Zm-261.869,-123.121l5.563,20.689l-5.731,23.464l-9.417,3.722l-11.244,-10.377l-8.401,-16.002l7.579,-15.002l-4.655,-12.231l25.387,0.097l0.919,5.64Zm208.592,39.309l-2.743,-20.678l15.999,-3.697l-1.015,19.724l-12.241,4.651Zm-21.612,-3.84l-10.229,-30.101l2.892,-18.777l9.428,-6.541l8.405,15.063l-10.403,15.931l-0.093,24.425Zm-70.821,-168.428l-16.028,11.212l-30.957,-18.906l28.254,-12.105l15.041,0.996l3.69,18.803Zm-178.315,-88.984l34.669,32.072l7.465,15.06l16.835,23.549l43.138,30.226l29.996,24.539l11.276,1.922l25.33,15.127l14.043,16.024l21.569,15.113l17.851,3.826l14.046,15.084l-2.019,36.63l8.373,23.518l-0.068,17.849l21.451,46.114l-9.467,16.874l4.584,31.019l7.508,3.786l14.962,21.664l20.647,10.412l19.684,16.045l6.529,14.117l12.195,7.561l-1.942,15.963l12.192,8.502l1.82,15.977l-5.674,8.433l13.039,32.93l-4.844,37.559l16.896,7.58l2.689,34.769l-11.305,5.594l-6.539,-11.298l-20.75,16.831l-12.216,-1.925l-11.233,-13.195l-13.146,-4.747l-48.723,-45.278l-29.073,-19.839l-13.092,-18.838l-27.175,-24.529l-6.521,-15.995l26.366,-10.234l9.457,-14.055l-19.714,-8.53l-11.301,4.654l-14.061,-11.326l-18.834,7.444l-11.229,-14.135l-8.391,-18.82l11.365,-21.564l-9.324,-20.703l-15.992,1.818l-4.583,-31.019l5.677,-9.373l-26.324,-1.039l-15.012,-8.512l-14.115,2.765l-4.669,-8.473l11.397,-30.019l15.999,-3.697l0.994,-14.087l-13.132,-8.505l5.76,-30.98l-12.195,-7.562l-23.514,1.79l-21.594,-8.537l-4.637,-16.927l15.119,-19.671l-24.443,-1.032l-7.44,-21.636l-15.03,-3.815l0.043,-11.273l-21.665,10.252l-8.409,-14.124l18.848,-11.201l-3.676,-22.561l-10.328,-3.797l14.179,-19.674l36.634,9.533l4.748,-12.194l-31.976,1.757l-26.317,-2.918l-12.148,-19.774l-6.514,-17.874l2.005,-32.873l41.379,-1.722l21.597,7.598Zm39.891,-105.066l-11.308,6.533l-11.219,-16.952l1.984,-27.236l21.668,-11.191l1.781,26.311l-2.906,22.535Zm27.67,-106.051l-2.874,14.081l-18.887,21.535l-4.755,14.073l-12.22,-0.985l7.597,-19.7l-2.746,-19.738l11.33,-12.17l22.555,2.904Zm16.982,-14.967l-12.266,11.227l-15.956,-7.576l10.379,-9.355l17.843,5.704Zm-46.123,12.977l-2.749,-18.799l11.326,-11.23l8.452,2.85l-5.703,15.949l-11.326,11.23Zm7.676,-40.366l-10.407,16.87l-21.576,-13.234l13.206,-11.223l18.777,7.587Zm37.603,2.021l-1.011,18.785l-18.791,-3.829l-0.898,-11.276l11.316,-8.412l9.384,4.732Zm61.007,29.355l-26.345,4.597l-11.309,6.533l-14.182,20.614l-23.514,1.789l9.489,-22.51l13.227,-16.86l40.467,-9.241l15.08,-9.337l21.626,0.082l-1.937,15.024l-22.602,9.309Zm-125.656,-89.724l-0.075,19.728l-16.006,5.576l6.681,-26.279l9.4,0.975Zm24.503,-14.938l-1.962,21.6l-10.368,6.536l-15.902,-21.667l6.635,-14.067l21.597,7.598Zm-320.995,-152.468l20.64,12.291l-7.562,10.305l-15.938,-12.274l2.86,-10.322Zm321.768,196.624l3.868,-28.168l12.366,-37.531l10.29,14.131l-7.647,32.851l-18.877,18.717Zm-50.453,-84.741l7.433,23.515l-5.692,13.13l-14.086,-4.751l-6.496,-22.571l-1.773,-28.19l7.561,-10.305l13.053,29.172Zm78.8,48.211l3.875,-30.047l11.251,8.497l-15.126,21.55Zm-86.924,-137.488l4.63,18.806l-12.244,5.591l-0.855,-22.55l8.469,-1.847Zm-239.313,-120.217l-5.702,15.949l7.497,6.604l2.746,19.739l-10.429,22.507l-11.301,4.654l-16.903,-5.701l-8.559,25.332l9.367,9.43l-3.875,30.048l19.649,25.439l-2.939,30.99l21.609,4.779l-0.075,19.728l-16.971,12.149l-16.839,-22.611l-11.045,-62.984l-14.014,-23.539l-0.884,-15.035l-13.063,-26.353l-7.365,-41.364l20.66,6.655l-2.76,-15.981l-28.151,-15.138l4.78,-20.649l15.945,10.394l33.818,8.583l22.591,-6.49l12.213,2.865Zm323.83,148.721l-1.044,27.24l-10.46,30.962l-23.65,37.487l-15.966,-4.758l10.435,-24.385l20.779,-24.347l-10.325,-4.736l-15.162,30.944l-18.819,3.686l-9.339,-16.945l0.15,-39.456l4.758,-15.013l15.073,-7.458l15.183,-36.581l17.833,8.523l6.518,16.935l14.036,17.902Zm-58.253,-11.494l-17.819,-12.281l6.643,-15.945l20.725,-10.255l-9.549,38.481Zm39.619,-33.67l-22.556,-2.904l0.036,-9.394l24.54,-24.332l2.721,26.315l-4.741,10.315Zm-121.884,-92.527l19.631,30.136l8.277,48.882l-4.744,11.256l-19.714,-8.53l-5.524,-31.023l-9.334,-17.884l-8.445,-4.73l-4.598,-27.261l-6.539,-11.298l9.449,-12.177l21.541,22.629Zm142.727,51.271l-11.273,-2.861l-29.208,15.86l13.277,-30.012l14.129,-6.522l25.377,2.914l-12.302,20.621Zm-126.739,-52.15l-15.027,-4.754l-10.261,-21.646l16.954,-7.451l12.162,16.016l-3.828,17.835Zm40.42,2.972l3.697,16.924l19.539,54.561l-34.851,15.838l-2.742,-20.678l-9.338,-16.945l2.877,-15.02l-1.769,-29.129l-11.28,-0.983l1.977,-25.357l-9.374,-7.551l4.747,-12.195l-6.542,-10.358l15.083,-10.277l12.152,18.835l13.057,28.233l2.767,14.102Zm-27.901,-80.898l-2.878,15.02l-18.851,12.141l-14.026,-20.72l-8.391,-18.821l36.695,-6.437l7.451,18.817Zm-267.439,-141.931l19.684,16.045l19.707,10.409l-2.878,15.02l30.095,-1.765l6.479,27.269l-4.78,20.649l-19.792,12.138l-15.033,-2.876l-19.76,3.683l10.282,16.009l26.327,0.1l1.934,-14.084l20.747,-15.891l4.801,-26.286l22.534,8.54l26.349,-5.537l-6.668,22.522l-33.96,28.993l-26.487,42.174l-7.637,30.033l-17.915,13.084l-24.425,-5.729l-4.723,5.619l-26.316,-2.919l-4.63,-18.806l-13.082,-21.657l8.491,-7.483l18.77,9.466l4.733,-8.437l-33.71,-36.766l11.34,-14.988l-5.417,-59.205l21.705,-20.585l0.046,-12.213l13.189,-6.526Zm260.392,16.959l-7.562,10.305l-25.423,9.298l17.032,-28.118l15.953,8.515Zm46.119,-12.037l-1.831,-13.159l30.149,-15.856l11.269,3.8l-19.813,17.774l-19.774,7.441Zm52.733,-20.468l15.119,-19.67m-24.685,2551.78l59.591,18.236l66.75,20.034l102.442,31.35l68.075,17.766l101.466,27.784l72.617,20.358l99.2,26.492l96.925,25.166l121.242,30.034l7.866,3.333c299.871,67.342 904.167,179.167 914.867,178.942l147.762,26.226c0,0 -1.61,-0.918 10.915,-9.335c2.682,-15.504 6.155,-30.779 10.417,-45.833c-2.493,-5.396 -4.577,-10.95 -6.25,-16.667c-11.22,-8.637 -21.637,-17.666 -31.25,-27.083c10.244,-11.446 13.716,-24.642 10.416,-39.583c-12.477,-13.834 -22.893,-29.113 -31.25,-45.834l-0.289,-4.49l-12.838,-14.26c-9.783,-14.175 -12.558,-29.45 -8.333,-45.833c-8.954,-4.85 -17.979,-9.708 -27.083,-14.583c-4.209,-16.363 -9.067,-32.338 -14.584,-47.917c3.659,-7.413 3.659,-14.354 0,-20.833c7.875,-7.934 17.6,-12.792 29.167,-14.584c4.642,-5.096 5.337,-10.65 2.083,-16.666c-10.712,-3.755 -20.433,-9.309 -29.166,-16.667c-6.88,-22.058 -15.909,-42.892 -27.084,-62.5c-16.396,-3.2 -26.812,-12.921 -31.25,-29.167c-7.271,6.067 -14.908,11.621 -22.916,16.667c-12.63,-19.746 -27.213,-37.8 -43.75,-54.167c-2.78,-8.333 -5.555,-16.666 -8.334,-25c-10.325,-4.583 -17.962,-1.112 -22.916,10.417c6.437,7.658 5.045,12.521 -4.167,14.583c-13.425,-5.025 -26.617,-5.025 -39.583,0c-3.471,-3.471 -6.946,-6.946 -10.417,-10.416c-18.117,4.508 -34.783,1.033 -50,-10.417c-5.554,5.554 -11.113,11.112 -16.667,16.667c-13.558,-6.371 -27.446,-11.925 -41.666,-16.667c-9.4,3.837 -13.567,10.783 -12.5,20.833c-4.384,0.621 -8.55,-0.071 -12.5,-2.083c-3.471,-6.25 -8.334,-11.113 -14.584,-14.583c-4.55,-21.184 -7.329,-42.017 -8.333,-62.5c-6.213,-6.267 -13.85,-9.738 -22.917,-10.417c-16.171,-13.55 -18.95,-28.829 -8.333,-45.833c-17.329,-31.15 -27.05,-64.484 -29.167,-100c0.604,-3.217 1.992,-5.996 4.167,-8.334c-16.438,-12.487 -17.825,-24.987 -4.167,-37.5c15.621,-2.95 30.9,-7.116 45.834,-12.5c4.142,-4.115 15.677,-12.495 15.677,-12.495l4.7,-3.244c0,0 45.857,-11.331 71.289,3.239c2.296,5.825 3.684,11.384 4.167,16.667c16.779,8.983 32.058,18.704 45.833,29.167c2.654,-9.346 4.042,-19.067 4.167,-29.167c-0.404,-16.813 -2.488,-32.783 -6.25,-47.917c1.937,-5.962 5.412,-10.821 10.417,-14.583c9.95,-1.263 18.979,-4.738 27.083,-10.417c4,-13.054 7.471,-26.25 10.417,-39.583c-9.43,-6.942 -17.763,-15.275 -25,-25c4.05,-8.796 7.52,-17.825 10.416,-27.083c10.025,-4.438 19.054,-9.992 27.084,-16.667c-19.692,-24.567 -41.913,-47.483 -66.667,-68.75c2.887,-11.254 -1.279,-20.283 -12.5,-27.083c-3.133,-14.963 -4.521,-29.546 -4.167,-43.75c13.284,-8.059 19.534,-19.867 18.75,-35.417c7.417,-4.557 15.059,-8.724 22.917,-12.5c-2.146,-7.188 -4.925,-14.132 -8.333,-20.833c-9.388,-3.138 -17.03,-8.694 -22.917,-16.667c-0.954,-12.323 -5.817,-22.74 -14.583,-31.25c2.779,-2.778 5.554,-5.556 8.333,-8.333c-9.65,-9.605 -15.208,-21.41 -16.667,-35.417c-8.808,-2.225 -16.45,-6.391 -22.916,-12.5c0.895,-13.796 0.895,-27.685 -0,-41.667c-8.505,-3.846 -17.534,-5.235 -27.084,-4.166c0.996,-8.197 -0.391,-15.836 -4.166,-22.917l0.883,-13.9l10.838,2.113l3.797,-9.38l-10.303,-10.373l-5.571,-18.81l-16.896,-7.579l-6.485,-25.39l-11.216,-17.892l8.545,-21.574l-18.763,-11.345l7.551,-7.487l13.26,-25.314l-2.739,-21.617l7.583,-15.942l-3.661,-26.318l2.988,-44.142l-7.479,-11.302l-10.222,-31.98l-10.318,-6.615l-12.241,4.651l-10.271,-18.828l0.067,-17.849l-18.744,-16.042l-2.692,-33.83l-17.766,-26.371l-20.628,-15.11l1.934,-14.084l-19.667,-20.742l-4.644,-15.049l3.811,-13.138l-8.424,-10.365l-6.496,-22.571l-8.426,-9.427l-5.517,-32.901l-8.463,-0.032l-15.097,14.034l-8.445,-4.729l-3.618,-37.591l-19.631,-30.137l-7.451,-18.817l-24.429,-4.79l-14.98,-16.967l-3.697,-16.924l11.308,-6.533l0.994,-14.088l-13.135,-7.565l-8.413,-13.184l-12.273,13.105l-17.872,1.811l2.91,-23.474l-6.479,-27.269l7.551,-7.486l-5.527,-30.083l-6.521,-15.996l-11.287,0.897l0.1,-26.304l-12.088,-35.744l-15.942,-11.334l-5.698,15.009l-23.432,-19.817l-4.587,-30.079l-23.468,-10.423l-14.061,-11.327l-2.749,-18.799l-7.504,-4.726l3.825,-16.895l15.959,6.636l-0.865,-19.731l-11.262,-5.679l-0.829,-29.126l56.75,-209.311c-348.393,-86.834 -531.413,-146.263 -1031.62,-336.447l-17.904,10.266l-17.962,25.297l-21.643,4.615l-1.927,12.205l-10.35,1.84l-18.948,37.505l19.724,5.712l-1.952,18.781l-8.491,7.483l13.107,15.081l-14.247,37.524l13.003,42.324l28.827,84.658l13.182,-4.647l14.225,-31.887l17.908,-11.205l32.944,-9.269l17.908,-11.205l-1.015,19.724l-12.238,3.711l-10.421,20.628l-2.892,18.778l-22.588,5.551l3.726,9.408l-8.556,24.393l11.184,26.347l12.159,16.956l-10.532,49.75l1.845,9.402l15.005,10.39l16.935,-2.754l-4.765,16.892l-24.558,29.03l-4.769,17.831l-16.02,9.333l6.528,14.117l27.371,-27.14l-2.942,31.93l16.832,24.489l39.513,-5.487l7.554,-8.426l27.264,1.043l0.862,20.671l-20.747,15.892l-48.003,12.969l-13.246,21.557l-19.742,-1.014l-11.343,15.927l-7.619,25.336l3.704,15.045l-1.047,28.179l12.22,0.986l18.898,-24.354l0.057,-15.03l19.688,15.105l32.888,5.762l40.349,21.76l-1.895,3.751l-34.725,-17.042l-30.997,-8.573l-26.341,3.658l-10.415,18.749l-16.956,8.391l-5.681,10.312l16.885,10.398l-35.744,3.622l-2.864,11.262l11.216,17.892l15.977,1.94l-10.414,18.749l7.465,15.059l27.175,24.529l9.356,12.248l25.444,-14.934l16.854,18.852l12.227,-0.893l4.629,18.807l13.171,-1.829l22.538,7.601l-0.078,20.667l13.12,11.323l-6.606,6.551l-23.493,-3.847l0.887,14.095l-12.263,10.288l30.972,15.148l16.002,-4.636l9.321,21.642l21.612,3.84l16.935,-2.754l25.309,20.764l0.858,21.61l12.22,0.986l28.158,13.259l5.57,18.81l-30.256,44.039l26.156,45.192l27.242,6.679l16.95,-6.511l10.289,14.13l-13.185,5.587l-10.407,16.87l5.556,22.568l39.349,37.727l11.301,-4.655l2.877,-15.02l31.991,-5.515l-18.083,57.237l5.599,11.295l-9.46,14.995l27.2,17.952l10.026,19.771l-0.05,0.05l-8.084,19.45l9.1,26.242l12.642,4.2l0.358,36.3l-9.716,6.492l-11.967,26.258l12.008,15.867l-4.183,33.708l12.658,25.25l-19.116,7.15l-17.8,25.942l-0.642,11.666l-7.767,13.617l-5.475,35.983l1.634,12.959l-20.725,15.25l-9.084,-5.175l-8.741,10.058l-24.292,16.225l-3.9,-14.258l-15.233,0.333l-5.2,-11.983l11.333,-14.592l11.983,-5.2l-1.275,23.333l19.434,-12.983l14.258,-3.9l16.833,-29.508l-6.175,-15.55l2.25,-19.775l23.659,-4.559l0.3,-26.9l-6.809,-3.883l-25.908,24.333l-8.742,10.059l-24.95,6.825l22.659,-29.192l12.641,4.2l12.309,-11.033l1.933,-13.942l-4.242,-29.492l2.909,-10.375l-28.192,1.967l-9.733,-14.575l-18.8,1.317l-36.634,-14.875l-12.325,-10.034l-38.908,-16.175l-17.517,-22.025l-18.158,-10.358l-15.25,-20.725l-14.258,3.9l-16.509,23.675l0.334,15.233l-4.184,33.709l12.659,25.25l3.9,14.258l-3.209,37.275l-6.45,32.417l5.534,27.216l-7.75,34.684l17.183,6.791l-1.617,8.1l13.3,13.6l-22.358,2.292l-10.033,12.325l-2.909,10.375l20.425,11.65l-13.241,49.6l-26.242,9.1l11.683,21.708l-9.741,6.492l-1.275,23.333l-4.525,18.475l-10.692,2.925l0.333,15.234l-10.358,18.158l3.583,20.092l-10.033,12.325l-8.083,19.45l4.216,8.416l-12.308,11.034l0.658,9.4l-8.416,25.283l-24.592,43.125l-5.175,9.083l-12.608,37.934l-52.4,123.525l-10.359,18.158l-31.066,54.475l-6.475,11.35l-11.667,-0.642l-26.208,51.234l-21.367,26.916l-2.25,19.775l8.442,16.834l-4.525,18.475l-6.475,11.35l-9.7,27.558l0.016,21.067l-4.525,18.475l12.659,25.25l146.267,48.03Z"/></svg>