<?xml version="1.0" encoding="UTF-8" standalone="no"?><!DOCTYPE svg PUBLIC "-//W3C//DTD SVG 1.1//EN" "http://www.w3.org/Graphics/SVG/1.1/DTD/svg11.dtd"><svg fill="#a2a2a2" stroke="#fff" fill-rule="nonzero" stroke-width="20.83px" width="100%" height="100%" viewBox="0 0 258 520" version="1.1" xmlns="http://www.w3.org/2000/svg" xmlns:xlink="http://www.w3.org/1999/xlink" xml:space="preserve" xmlnsSerif="http://www.serif.com/" style="fill-rule:evenodd;clip-rule:evenodd;stroke-linejoin:round;"><path id="nh1776" d="M242.15,388.508l-14.592,-11.333l-1.633,-12.958l-26.917,-21.367l-6.508,-30.783l-20.15,-59.617l-43.217,-129.925l-38.341,-112.108l-4.2,12.641l-19.775,-2.25l-10.034,12.325l-3.525,43.109l5.85,21.383l-8.725,31.125l17.517,22.025l-8.725,31.125l-17.483,20.108l-16.834,8.442l-4.2,12.642l6.825,24.95l-7.408,49.916l1.317,18.8l-7.767,13.617l2.608,16.525l-5.816,20.75l10.733,39.208l-1.617,8.1l4.259,50.559l-3.55,22.041l17.516,22.025l151.667,-33.841l41.117,-45.734l14.258,-3.9l2.567,-25.608l-5.2,-11.983l-0.017,-0.009Z"/></svg>