<?xml version="1.0" encoding="UTF-8" standalone="no"?><!DOCTYPE svg PUBLIC "-//W3C//DTD SVG 1.1//EN" "http://www.w3.org/Graphics/SVG/1.1/DTD/svg11.dtd"><svg fill="#a2a2a2" stroke="#fff" fill-rule="nonzero" stroke-width="20.83px" width="100%" height="100%" viewBox="0 0 974 628" version="1.1" xmlns="http://www.w3.org/2000/svg" xmlns:xlink="http://www.w3.org/1999/xlink" xml:space="preserve" xmlnsSerif="http://www.serif.com/" style="fill-rule:evenodd;clip-rule:evenodd;stroke-linejoin:round;"><path id="nd1889" d="M885.642,55.4l-98.2,-1.858l-79.409,-3.175l-133.208,-3.775l-105.008,-5.742l-83.917,-5.758l-75.842,-4.15l-105.991,-9.309l-140.992,-11.216l-17.333,188.641l-9.642,90.759l-14.125,151.333l-11.558,125.75l65.15,7.075l146.825,11.542l89.783,6.083l175,9.575l118.95,7.675l117.975,4.108l238.533,3.684l-0.675,-30.467l-4.891,-38.883l-15.25,-20.725l-4.242,-29.492l-4.217,-8.417l-0.033,-42.133l-4.558,-23.658l-0.675,-30.467l-1.317,-18.8l2.233,-40.842l-7.483,-34.35l-9.1,-26.241l-17.558,-64.159l2.55,-46.675l-3.584,-20.091l7.109,-23.017l-15.609,-57.025l0.317,-5.833l-0.008,0.033Z"/></svg>