<?xml version="1.0" encoding="UTF-8" standalone="no"?><!DOCTYPE svg PUBLIC "-//W3C//DTD SVG 1.1//EN" "http://www.w3.org/Graphics/SVG/1.1/DTD/svg11.dtd"><svg fill="#a2a2a2" stroke="#fff" fill-rule="nonzero" stroke-width="20.83px" width="100%" height="100%" viewBox="0 0 1272 674" version="1.1" xmlns="http://www.w3.org/2000/svg" xmlns:xlink="http://www.w3.org/1999/xlink" xml:space="preserve" xmlnsSerif="http://www.serif.com/" style="fill-rule:evenodd;clip-rule:evenodd;stroke-linejoin:round;"><path id="ok1893" d="M734.567,599.683l-1.934,13.942l11.35,6.475l11.984,-5.2l18.458,-16.542l13.942,1.934l3.9,14.258l13.941,1.933l2.925,10.692l11.667,0.642l25.25,-12.659l5.517,6.15l-5.5,14.917l6.491,9.717l9.4,-0.659l4.2,-12.641l23.634,-25.625l9.733,14.575l24.308,4.841l6.475,-11.35l11.034,12.309l12.325,10.033l11.666,0.642l12.009,15.866l6.475,-11.35l15.233,-0.333l6.475,-11.35l16.525,-2.608l16.833,-8.442l11.35,6.475l12.959,-1.633l26.566,-14.934l8.759,11.009l27.875,3.866l13.283,-7.466l6.475,-11.35l27.242,15.533l10.375,2.908l16.541,18.459l18.475,4.525l33.075,15.85l5.834,0.316l0.9,-80.7l2.783,-157.841l-0.392,-78.434l-11.083,-75.5l-17.608,-127.358l-0.009,-0.017l0.242,-90.1l-103.058,1.384l-86.861,0.356l-3.736,3.491c-0.324,50.432 -0.658,100.864 -0.982,151.296c-0.776,3.029 -2.574,5.157 -5.403,6.386c-29.385,0.168 -58.689,0.659 -87.929,1.474c-0.327,45.847 -0.655,91.694 -0.982,137.541c-2.997,3.566 -6.762,4.713 -11.298,3.439c-2.073,-3.258 -4.858,-4.404 -8.351,-3.439c-0.327,28.164 -0.655,56.326 -0.983,84.49c-0.994,3.302 -2.467,6.413 -4.421,9.333c-0.982,0.655 -1.964,0.655 -2.947,0c-3.908,-1.677 -7.511,-3.806 -10.807,-6.386c-4.443,0.974 -8.209,-0.336 -11.298,-3.93c-3.326,2.31 -6.765,4.439 -10.315,6.386c-2.456,0.164 -4.913,0.327 -7.369,0.492c-8.293,-1.538 -16.644,-3.012 -25.052,-4.421c-1.195,-1.71 -2.831,-2.692 -4.912,-2.948c-4.912,-0.327 -9.824,-0.655 -14.737,-0.982c-1.521,-1.193 -2.667,-2.667 -3.438,-4.421c-2.249,-5.592 -3.559,-11.487 -3.93,-17.684c-3.348,-3.156 -4.986,-7.085 -4.912,-11.789c-7.246,-6.594 -14.778,-12.815 -22.596,-18.667c-0.43,-5.045 -2.23,-9.466 -5.404,-13.263c-3.516,-0.778 -6.79,-2.087 -9.824,-3.929c-4.912,-0.328 -9.824,-0.656 -14.737,-0.983c-0.982,-0.982 -1.965,-1.965 -2.947,-2.947c-8.259,-0.937 -16.446,-1.1 -24.561,-0.491c-0.804,59.58 -1.295,119.181 -1.474,178.804c-0.167,2.176 -0.822,4.141 -1.965,5.894c-0.655,17.029 -0.655,34.059 0,51.087l-0.729,0.652Zm-293.511,-236.911c4.525,1.674 13.112,-0.528 17.429,1.728c3.794,-1.151 7.232,-2.951 10.316,-5.404c6.1,-1.984 10.358,-0.019 12.772,5.895c6.428,0.179 12.65,-0.476 18.666,-1.965c4.573,3.321 5.228,7.415 1.965,12.281c0.655,1.964 1.309,3.929 1.965,5.894c3.227,0.81 6.502,1.301 9.824,1.474c2.848,3.344 6.124,6.127 9.825,8.351c2.514,2.409 3.987,5.356 4.421,8.842c3.685,1.39 6.468,3.846 8.35,7.368c-1.391,2.785 -3.029,5.405 -4.912,7.859c2.671,2.341 4.964,4.961 6.877,7.86c-2.931,3.837 -3.423,7.93 -1.473,12.28c2.396,3.209 5.507,5.501 9.333,6.878c2.727,-0.439 5.183,-1.421 7.368,-2.948c0.655,0.655 1.31,1.31 1.965,1.965c0.598,3.953 0.434,7.883 -0.491,11.789c0.188,2.041 0.68,4.006 1.473,5.895c3.21,1.573 6.648,2.391 10.316,2.456c3.756,2.449 3.92,5.233 0.491,8.351c-0.448,3.018 -0.448,5.965 0,8.842c-3.538,0.19 -6.976,0.682 -10.315,1.473c-1.18,0.888 -2,2.033 -2.457,3.439c-4.034,9.893 -6.982,20.045 -8.842,30.456l-2.681,7.695l5.559,8.324l-0.958,17.5l26.583,6.133l9.4,-0.658l11.35,6.475l23.017,7.108l22.358,-2.291l12.008,15.866l12.959,-1.633l10.033,-12.325l20.75,5.817l16.525,-2.609l0.017,21.067l18.135,7.833l4.319,0.898c-0.655,-17.028 -0.655,-34.058 0,-51.087c1.143,-1.753 1.798,-3.718 1.965,-5.894c0.179,-59.623 0.67,-119.224 1.474,-178.804c8.115,-0.609 16.302,-0.446 24.561,0.491c0.982,0.982 1.965,1.965 2.947,2.947c4.913,0.327 9.825,0.655 14.737,0.983c3.034,1.842 6.308,3.151 9.824,3.929c3.174,3.797 4.974,8.218 5.404,13.263c7.818,5.852 15.35,12.073 22.596,18.667c-0.074,4.704 1.564,8.633 4.912,11.789c0.371,6.197 1.681,12.092 3.93,17.684c0.771,1.754 1.917,3.228 3.438,4.421c4.913,0.327 9.825,0.655 14.737,0.982c2.081,0.256 3.717,1.238 4.912,2.948c8.408,1.409 16.759,2.883 25.052,4.421c2.456,-0.165 4.913,-0.328 7.369,-0.492c3.55,-1.947 6.989,-4.076 10.315,-6.386c3.089,3.594 6.855,4.904 11.298,3.93c3.296,2.58 6.899,4.709 10.807,6.386c0.983,0.655 1.965,0.655 2.947,0c1.954,-2.92 3.427,-6.031 4.421,-9.333c0.328,-28.164 0.656,-56.326 0.983,-84.49c3.493,-0.965 6.278,0.181 8.351,3.439c4.536,1.274 8.301,0.127 11.298,-3.439c0.327,-45.847 0.655,-91.694 0.982,-137.541c29.24,-0.815 58.544,-1.306 87.929,-1.474c2.829,-1.229 4.627,-3.357 5.403,-6.386c0.324,-50.432 0.658,-96.697 0.982,-147.129c0,-0 -4.166,-4.167 -8.903,-7.606l-167.25,-2.125l-266.417,-7.55l-67.742,-2.533l-268.333,-14.684l-105.008,-5.741l-137.425,-12.2l-7.375,92.083l173.725,11.842l153.958,9.591l108.583,4.767l-2.85,73.575l-6.7,122.517l-1.754,37.217l5.677,0.763Zm-1.771,0.617l-9.468,116.653l17.5,0.958l28.55,34.333l20.091,-3.583l23.017,7.108l1.933,-13.941l18.159,10.358l2.999,4.492c0,-0 4.167,-4.167 3.856,-5.936c1.86,-10.411 4.808,-20.563 8.842,-30.456c0.457,-1.406 1.277,-2.551 2.457,-3.439c3.339,-0.791 6.777,-1.283 10.315,-1.473c-0.448,-2.877 -0.448,-5.824 0,-8.842c3.429,-3.118 3.265,-5.902 -0.491,-8.351c-3.668,-0.065 -7.106,-0.883 -10.316,-2.456c-0.793,-1.889 -1.285,-3.854 -1.473,-5.895c0.925,-3.906 1.089,-7.836 0.491,-11.789c-0.655,-0.655 -1.31,-1.31 -1.965,-1.965c-2.185,1.527 -4.641,2.509 -7.368,2.948c-3.826,-1.377 -6.937,-3.669 -9.333,-6.878c-1.95,-4.35 -1.458,-8.443 1.473,-12.28c-1.913,-2.899 -4.206,-5.519 -6.877,-7.86c1.883,-2.454 3.521,-5.074 4.912,-7.859c-1.882,-3.522 -4.665,-5.978 -8.35,-7.368c-0.434,-3.486 -1.907,-6.433 -4.421,-8.842c-3.701,-2.224 -6.977,-5.007 -9.825,-8.351c-3.322,-0.173 -6.597,-0.664 -9.824,-1.474c-0.656,-1.965 -1.31,-3.93 -1.965,-5.894c3.263,-4.866 2.608,-8.96 -1.965,-12.281c-6.016,1.489 -12.238,2.144 -18.666,1.965c-2.414,-5.914 -6.672,-7.879 -12.772,-5.895c-3.084,2.453 -6.522,4.253 -10.316,5.404c-4.317,-2.256 -12.904,-0.054 -17.429,-1.728l-1.771,0.617Z"/></svg>