<?xml version="1.0" encoding="UTF-8" standalone="no"?><!DOCTYPE svg PUBLIC "-//W3C//DTD SVG 1.1//EN" "http://www.w3.org/Graphics/SVG/1.1/DTD/svg11.dtd"><svg fill="#a2a2a2" stroke="#fff" fill-rule="nonzero" stroke-width="20.83px" width="100%" height="100%" viewBox="0 0 1272 674" version="1.1" xmlns="http://www.w3.org/2000/svg" xmlns:xlink="http://www.w3.org/1999/xlink" xml:space="preserve" xmlnsSerif="http://www.serif.com/" style="fill-rule:evenodd;clip-rule:evenodd;stroke-linejoin:round;"><path id="ok1896" d="M735.296,599.031c-0.655,-17.028 -0.655,-34.058 0,-51.087c1.143,-1.753 1.798,-3.718 1.965,-5.894c0.179,-59.623 0.67,-119.224 1.474,-178.804c8.115,-0.609 16.302,-0.446 24.561,0.491c0.982,0.982 1.965,1.965 2.947,2.947c4.913,0.327 9.825,0.655 14.737,0.983c3.034,1.842 6.308,3.151 9.824,3.929c3.174,3.797 4.974,8.218 5.404,13.263c7.818,5.852 15.35,12.073 22.596,18.667c-0.074,4.704 1.564,8.633 4.912,11.789c0.371,6.197 1.681,12.092 3.93,17.684c0.771,1.754 1.917,3.228 3.438,4.421c4.913,0.327 9.825,0.655 14.737,0.982c2.081,0.256 3.717,1.238 4.912,2.948c8.408,1.409 16.759,2.883 25.052,4.421c2.456,-0.165 4.913,-0.328 7.369,-0.492c3.55,-1.947 6.989,-4.076 10.315,-6.386c3.089,3.594 6.855,4.904 11.298,3.93c3.296,2.58 6.899,4.709 10.807,6.386c0.983,0.655 1.965,0.655 2.947,0c1.954,-2.92 3.427,-6.031 4.421,-9.333c0.328,-28.164 0.656,-56.326 0.983,-84.49c3.493,-0.965 6.278,0.181 8.351,3.439c4.536,1.274 8.301,0.127 11.298,-3.439c0.327,-45.847 0.655,-91.694 0.982,-137.541c29.24,-0.815 58.544,-1.306 87.929,-1.474c2.829,-1.229 4.627,-3.357 5.403,-6.386c0.324,-50.432 0.658,-96.697 0.982,-147.129c0,-0 -4.166,-4.167 -8.903,-7.606l-167.25,-2.125l-266.417,-7.55l-67.742,-2.533l-268.333,-14.684l-105.008,-5.741l-137.425,-12.2l-7.375,92.083l173.725,11.842l153.958,9.591l108.583,4.767l-2.85,73.575l-6.7,122.517l-7.316,155.25l17.5,0.958l28.55,34.333l20.091,-3.583l23.017,7.108l1.933,-13.941l18.159,10.358l9.733,14.575l-0.958,17.5l26.583,6.133l9.4,-0.658l11.35,6.475l23.017,7.108l22.358,-2.291l12.008,15.866l12.959,-1.633l10.033,-12.325l20.75,5.817l16.525,-2.609l0.017,21.067l18.135,7.833l4.319,0.898Zm-0.729,0.652l-1.934,13.942l11.35,6.475l11.984,-5.2l18.458,-16.542l13.942,1.934l3.9,14.258l13.941,1.933l2.925,10.692l11.667,0.642l25.25,-12.659l5.517,6.15l-5.5,14.917l6.491,9.717l9.4,-0.659l4.2,-12.641l23.634,-25.625l9.733,14.575l24.308,4.841l6.475,-11.35l11.034,12.309l12.325,10.033l11.666,0.642l12.009,15.866l6.475,-11.35l15.233,-0.333l6.475,-11.35l16.525,-2.608l16.833,-8.442l11.35,6.475l12.959,-1.633l26.566,-14.934l8.759,11.009l27.875,3.866l13.283,-7.466l6.475,-11.35l27.242,15.533l10.375,2.908l16.541,18.459l18.475,4.525l33.075,15.85l5.834,0.316l0.9,-80.7l2.783,-157.841l-0.392,-78.434l-11.083,-75.5l-17.608,-127.358l-0.009,-0.017l0.242,-90.1l-103.058,1.384l-86.861,0.356l-3.736,3.491c-0.324,50.432 -0.658,100.864 -0.982,151.296c-0.776,3.029 -2.574,5.157 -5.403,6.386c-29.385,0.168 -58.689,0.659 -87.929,1.474c-0.327,45.847 -0.655,91.694 -0.982,137.541c-2.997,3.566 -6.762,4.713 -11.298,3.439c-2.073,-3.258 -4.858,-4.404 -8.351,-3.439c-0.327,28.164 -0.655,56.326 -0.983,84.49c-0.994,3.302 -2.467,6.413 -4.421,9.333c-0.982,0.655 -1.964,0.655 -2.947,0c-3.908,-1.677 -7.511,-3.806 -10.807,-6.386c-4.443,0.974 -8.209,-0.336 -11.298,-3.93c-3.326,2.31 -6.765,4.439 -10.315,6.386c-2.456,0.164 -4.913,0.327 -7.369,0.492c-8.293,-1.538 -16.644,-3.012 -25.052,-4.421c-1.195,-1.71 -2.831,-2.692 -4.912,-2.948c-4.912,-0.327 -9.824,-0.655 -14.737,-0.982c-1.521,-1.193 -2.667,-2.667 -3.438,-4.421c-2.249,-5.592 -3.559,-11.487 -3.93,-17.684c-3.348,-3.156 -4.986,-7.085 -4.912,-11.789c-7.246,-6.594 -14.778,-12.815 -22.596,-18.667c-0.43,-5.045 -2.23,-9.466 -5.404,-13.263c-3.516,-0.778 -6.79,-2.087 -9.824,-3.929c-4.912,-0.328 -9.824,-0.656 -14.737,-0.983c-0.982,-0.982 -1.965,-1.965 -2.947,-2.947c-8.259,-0.937 -16.446,-1.1 -24.561,-0.491c-0.804,59.58 -1.295,119.181 -1.474,178.804c-0.167,2.176 -0.822,4.141 -1.965,5.894c-0.655,17.029 -0.655,34.059 0,51.087l-0.729,0.652Z"/></svg>