<?xml version="1.0" encoding="UTF-8" standalone="no"?><!DOCTYPE svg PUBLIC "-//W3C//DTD SVG 1.1//EN" "http://www.w3.org/Graphics/SVG/1.1/DTD/svg11.dtd"><svg fill="#a2a2a2" stroke="#fff" fill-rule="nonzero" stroke-width="20.83px" width="100%" height="100%" viewBox="0 0 2058 2013" version="1.1" xmlns="http://www.w3.org/2000/svg" xmlns:xlink="http://www.w3.org/1999/xlink" xml:space="preserve" xmlnsSerif="http://www.serif.com/" style="fill-rule:evenodd;clip-rule:evenodd;stroke-linejoin:round;"><path id="tx1850" d="M1461.54,1669.41l-5.834,-0.316l-25.25,54.791l9.4,-0.658l21.667,-53.817l0.017,0Zm25.566,-39.558l30.109,-36.975l-9.084,-5.175l-9.383,21.725l-11.65,20.425l0.008,-0Zm102.992,-85.65l-17.5,-0.958l-31.742,24.008l-16.525,2.608l5.2,11.984l12.309,-11.034l48.266,-26.616l-0.008,0.008Zm257.167,-187.225l-20.075,24.65l32.716,-20.45l-12.641,-4.2Zm41.75,-785.333l-5.834,-0.317l-33.075,-15.85l-18.475,-4.525l-16.541,-18.458l-10.375,-2.909l-27.242,-15.533l-6.475,11.35l-13.283,7.467l-27.875,-3.867l-8.759,-11.008l-26.566,14.933l-12.959,1.633l-11.35,-6.475l-16.833,8.442l-16.525,2.608l-6.475,11.35l-15.233,0.334l-6.475,11.35l-12.009,-15.867l-11.666,-0.642l-12.325,-10.033l-11.034,-12.308l-6.475,11.35l-24.308,-4.842l-9.733,-14.575l-23.634,25.625l-4.2,12.642l-9.4,0.658l-6.491,-9.717l5.5,-14.916l-5.517,-6.15l-25.25,12.658l-11.667,-0.642l-2.925,-10.691l-13.941,-1.934l-3.9,-14.258l-13.942,-1.933l-18.458,16.541l-11.984,5.2l-11.35,-6.475l1.934,-13.941l-21.725,-9.384l-0.017,-21.066l-16.525,2.608l-20.75,-5.817l-10.033,12.325l-12.959,1.634l-12.008,-15.867l-22.358,2.292l-23.017,-7.109l-11.35,-6.475l-9.4,0.659l-26.583,-6.134l0.958,-17.5l-9.733,-14.575l-18.159,-10.358l-1.933,13.942l-23.017,-7.109l-20.091,3.584l-28.55,-34.334l-17.5,-0.958l7.316,-155.25l6.7,-122.517l2.85,-73.575l-108.583,-4.766l-153.958,-9.592l-173.725,-11.842l-5.834,-0.316l-5.458,57.05l-11.858,152.658l-8.992,100.167l-14.125,151.333l-14.433,178.267l-15.409,174.7l-274.85,-24.4l-169.841,-18.65l-110.525,-11.892l8.775,32.075l11.033,12.308l20.425,11.65l9.1,26.242l14.933,26.567l26.259,11.966l17.516,22.025l13.959,23l23.358,22.342l5.2,11.983l27.575,30.767l20.425,11.65l18.817,19.75l13.616,7.767l16.225,24.291l3.584,20.092l13.316,34.667l7.467,13.283l-5.158,30.142l2.608,16.525l13.633,28.833l4.559,23.658l12.008,15.867l14.592,11.333l13.941,1.934l29.525,37.891l18.159,10.359l22.041,3.55l0.659,9.4l16.866,12.625l20.75,5.816l9.734,14.575l14.591,11.334l11.667,0.641l25.283,8.417l6.475,-11.35l21.05,-21.083l15.55,-6.175l3.55,-22.042l20.059,-45.717l17.8,-25.941l27.216,-5.534l16.209,3.225l7.766,-13.616l11.984,-5.2l29.508,16.833l21.067,-0.017l54.458,10l12.958,-1.633l23.017,7.108l6.175,15.55l7.783,7.45l11.667,0.642l13.958,23l14.592,11.333l3.9,14.259l31.458,23.958l7.15,19.117l12.325,10.033l6.192,36.617l17.517,22.025l1.316,18.8l15.25,20.725l15.609,57.025l12.008,15.866l20.425,11.65l10.392,23.975l19.791,23.317l1.317,18.8l9.083,5.175l15.25,20.725l18.475,4.525l13.3,13.6l-1.933,13.942l7.467,13.283l-6.792,17.183l10.392,23.975l-6.134,26.584l15.892,9.058l1.633,12.958l14.592,11.334l6.492,9.716l0.333,15.234l13.3,13.6l-7.108,23.016l7.783,7.45l5.85,21.384l19.775,2.25l11.35,6.475l15.233,-0.334l9.734,14.575l14.591,11.334l10.692,-2.925l34.367,13.583l12.008,15.867l13.617,7.766l46.675,2.55l23.333,1.275l18.475,4.525l43.783,33.992l29.15,-19.475l18.8,-1.317l-0.333,-15.233l-15.867,12.008l-0.333,-15.233l-12.325,-10.033l1.933,-13.942l-8.441,-16.833l0.641,-11.667l-16.866,-12.625l5.816,-20.75l-10.408,-45.042l-10.058,-8.741l1.916,-35.009l10.692,-2.925l-2.608,-16.525l8.416,-4.216l2.567,-25.609l-13.283,7.467l-19.775,-2.25l0.641,-11.667l16.834,-8.441l18.475,4.525l26.841,-62.9l-14.591,-11.334l-4.875,-17.825l-17.5,-0.958l-4.217,-8.417l42.133,-0.033l13.617,7.767l26.542,-36l-14.917,-5.5l-2.908,10.375l-14.592,-11.334l10.033,-12.325l45.7,-1.008l16.192,-17.842l-0.333,-15.233l-8.442,-16.833l10.692,-2.925l17.516,22.025l42.084,-21.1l-17.517,-22.025l-11.35,-6.475l4.2,-12.642l18.475,4.525l8.742,-10.058l6.491,9.716l14.575,-9.733l7.15,19.117l63.5,-26.959l21.067,-0.016l15.55,-6.175l29.15,-19.475l7.125,-1.95l35.625,-30.817l-1.317,-18.8l14.575,-9.733l27.517,-32.434l-7.783,-7.45l-13.959,-23l0.617,-32.733l23.992,10.675l8.083,-19.45l10.692,-2.925l9.733,14.575l-10.017,33.417l23.659,-4.559l-6.792,17.184l93.625,-42.859l30.467,-0.675l-10.709,-18.141l3.225,-16.209l9.384,-21.725l9.4,-0.658l12.625,-16.867l-1.334,-39.866l-4.875,-17.825l6.475,-11.35l-5.85,-21.384l6.15,-5.516l17.467,-41.175l7.108,-23.017l-8.758,-11.008l9.717,-6.492l-25.325,-50.5l2.908,-10.375l-27.258,-36.6l1.275,-23.333l-14.617,-32.4l-22.375,-18.775l-2.75,-185.084l-2.683,-100.833l-6.809,-3.883l-31.441,-2.892l-13.284,7.467l-15.566,-14.892l0.025,-0.008Z"/></svg>