<?xml version="1.0" encoding="UTF-8" standalone="no"?><!DOCTYPE svg PUBLIC "-//W3C//DTD SVG 1.1//EN" "http://www.w3.org/Graphics/SVG/1.1/DTD/svg11.dtd"><svg fill="#a2a2a2" stroke="#fff" fill-rule="nonzero" stroke-width="20.83px" width="100%" height="100%" viewBox="0 0 2141 3077" version="1.1" xmlns="http://www.w3.org/2000/svg" xmlns:xlink="http://www.w3.org/1999/xlink" xml:space="preserve" xmlnsSerif="http://www.serif.com/" style="fill-rule:evenodd;clip-rule:evenodd;stroke-linejoin:round;"><path id="tx1845" d="M1544.61,2733.42l-5.833,-0.317l-25.25,54.792l9.4,-0.659l21.666,-53.816l0.017,-0Zm25.567,-39.559l30.108,-36.975l-9.083,-5.175l-9.384,21.725l-11.65,20.425l0.009,0Zm102.991,-85.65l-17.5,-0.958l-31.741,24.008l-16.525,2.609l5.2,11.983l12.308,-11.033l48.267,-26.617l-0.009,0.008Zm257.167,-187.225l-20.075,24.65l32.717,-20.45l-12.642,-4.2Zm-1779.53,-2333.12l0.507,0.011m-81.966,683.121l11.901,12.334c24.772,10.625 51.161,16.875 79.167,18.75c7.903,-0.95 13.459,-5.116 16.666,-12.5c12.923,6.659 24.034,15.688 33.334,27.084c12.5,1.387 25,2.779 37.5,4.166c30.817,12.23 56.511,30.98 77.083,56.25c5.957,22.017 3.873,43.542 -6.25,64.584c4.113,15.562 6.891,31.533 8.333,47.916c-4.436,26.492 -9.298,52.884 -14.583,79.167c-9.142,11.171 -20.947,17.421 -35.417,18.75c-15.633,18.346 -26.744,39.179 -33.333,62.5c-18.767,16.588 -32.657,36.729 -41.667,60.417c-20.907,15.446 -36.879,34.891 -47.916,58.333c-6.027,34.158 -14.36,67.492 -25,100c-24.088,40.933 -33.811,85.379 -29.167,133.333c-17.668,20.071 -34.335,40.905 -50,62.5c-8.206,15.55 -12.373,32.217 -12.5,50c-4.167,2.779 -8.333,5.555 -12.5,8.334c-4.932,14.341 -9.793,28.229 -14.583,41.666l-0,25c12.295,11.555 25.489,22.663 39.583,33.334c6.945,13.887 13.889,27.779 20.833,41.666c2.715,7.23 2.02,14.175 -2.083,20.834c11.695,13.683 20.028,28.962 25,45.833l-0.267,2.408l8.775,32.075l11.033,12.309l20.425,11.65l9.1,26.241l14.934,26.567l26.258,11.967l17.517,22.025l13.958,23l23.358,22.341l5.2,11.984l27.575,30.766l20.425,11.65l18.817,19.75l13.617,7.767l16.225,24.292l3.583,20.091l13.317,34.667l7.466,13.283l-5.158,30.142l2.608,16.525l13.634,28.833l4.558,23.659l12.008,15.866l14.592,11.334l13.942,1.933l29.525,37.892l18.158,10.358l22.042,3.55l0.658,9.4l16.867,12.625l20.75,5.817l9.733,14.575l14.592,11.333l11.666,0.642l25.284,8.416l6.475,-11.35l21.05,-21.083l15.55,-6.175l3.55,-22.042l20.058,-45.716l17.8,-25.942l27.217,-5.533l16.208,3.225l7.767,-13.617l11.983,-5.2l29.508,16.833l21.067,-0.016l54.458,10l12.959,-1.634l23.016,7.109l6.175,15.55l7.784,7.45l11.666,0.641l13.959,23l14.591,11.334l3.9,14.258l31.459,23.958l7.15,19.117l12.325,10.033l6.191,36.617l17.517,22.025l1.317,18.8l15.25,20.725l15.608,57.025l12.008,15.867l20.425,11.65l10.392,23.975l19.792,23.316l1.316,18.8l9.084,5.175l15.25,20.725l18.475,4.525l13.3,13.6l-1.934,13.942l7.467,13.283l-6.792,17.184l10.392,23.975l-6.133,26.583l15.891,9.058l1.634,12.959l14.591,11.333l6.492,9.717l0.333,15.233l13.3,13.6l-7.108,23.017l7.783,7.45l5.85,21.383l19.775,2.25l11.35,6.475l15.234,-0.333l9.733,14.575l14.592,11.333l10.691,-2.925l34.367,13.583l12.008,15.867l13.617,7.767l46.675,2.55l23.333,1.275l18.475,4.525l43.784,33.991l29.15,-19.475l18.8,-1.316l-0.334,-15.234l-15.866,12.009l-0.334,-15.234l-12.325,-10.033l1.934,-13.942l-8.442,-16.833l0.642,-11.667l-16.867,-12.625l5.817,-20.75l-10.409,-45.041l-10.058,-8.742l1.917,-35.008l10.691,-2.925l-2.608,-16.525l8.417,-4.217l2.566,-25.608l-13.283,7.466l-19.775,-2.25l0.642,-11.666l16.833,-8.442l18.475,4.525l26.842,-62.9l-14.592,-11.333l-4.875,-17.825l-17.5,-0.959l-4.217,-8.416l42.134,-0.034l13.616,7.767l26.542,-36l-14.917,-5.5l-2.908,10.375l-14.592,-11.333l10.034,-12.325l45.7,-1.009l16.191,-17.841l-0.333,-15.234l-8.442,-16.833l10.692,-2.925l17.517,22.025l42.083,-21.1l-17.517,-22.025l-11.35,-6.475l4.2,-12.642l18.475,4.525l8.742,-10.058l6.492,9.717l14.575,-9.734l7.15,19.117l63.5,-26.958l21.066,-0.017l15.55,-6.175l29.15,-19.475l7.125,-1.95l35.625,-30.817l-1.316,-18.8l14.575,-9.733l27.516,-32.433l-7.783,-7.45l-13.958,-23l0.616,-32.734l23.992,10.675l8.083,-19.45l10.692,-2.925l9.733,14.575l-10.016,33.417l23.658,-4.558l-6.792,17.183l93.625,-42.858l30.467,-0.675l-10.708,-18.142l3.225,-16.208l9.383,-21.725l9.4,-0.659l12.625,-16.866l-1.333,-39.867l-4.875,-17.825l6.475,-11.35l-5.85,-21.383l6.15,-5.517l17.466,-41.175l7.109,-23.017l-8.759,-11.008l9.717,-6.492l-25.325,-50.5l2.908,-10.375l-27.258,-36.6l1.275,-23.333l-14.617,-32.4l-22.375,-18.775l-2.75,-185.083l-2.683,-100.834l-6.808,-3.883l-31.442,-2.892l-13.283,7.467l-15.567,-14.892l0.025,-0.008l-5.833,-0.317l-33.075,-15.85l-18.475,-4.525l-16.542,-18.458l-10.375,-2.908l-27.242,-15.534l-6.475,11.35l-13.283,7.467l-27.875,-3.867l-8.758,-11.008l-26.567,14.933l-12.958,1.634l-11.35,-6.475l-16.834,8.441l-16.525,2.609l-6.475,11.35l-15.233,0.333l-6.475,11.35l-12.008,-15.867l-11.667,-0.641l-12.325,-10.034l-11.033,-12.308l-6.475,11.35l-24.309,-4.842l-9.733,-14.575l-23.633,25.625l-4.2,12.642l-9.4,0.658l-6.492,-9.716l5.5,-14.917l-5.517,-6.15l-25.25,12.658l-11.666,-0.641l-2.925,-10.692l-13.942,-1.933l-3.9,-14.259l-13.942,-1.933l-18.458,16.542l-11.983,5.2l-11.35,-6.475l1.933,-13.942l-21.725,-9.383l-0.017,-21.067l-16.525,2.608l-20.75,-5.816l-10.033,12.325l-12.958,1.633l-12.009,-15.867l-22.358,2.292l-23.017,-7.108l-11.35,-6.475l-9.4,0.658l-26.583,-6.133l0.958,-17.5l-9.733,-14.575l-18.158,-10.359l-1.934,13.942l-23.016,-7.108l-20.092,3.583l-28.55,-34.333l-17.5,-0.959l7.317,-155.25c-0,0 9.55,-196.091 4.668,-196.273c-2.026,-2.843 0.057,-60.531 0.057,-90.343l0,-141.667c-27.029,-4.646 -54.808,-10.896 -83.333,-18.75c-24.209,-12.708 -49.209,-23.817 -75,-33.333c-6.946,-2.779 -13.888,-2.779 -20.834,-0c-11.133,6.487 -22.937,11.35 -35.416,14.583c-47.6,-21.446 -96.904,-37.417 -147.917,-47.917c-40.312,-1.541 -79.896,-3.625 -118.75,-6.25c-11.879,2.45 -23.687,5.23 -35.417,8.334c-11.85,-8.313 -24.35,-15.95 -37.5,-22.917c-8.333,-1.387 -16.666,-2.779 -25,-4.167c-29.416,-22.637 -62.75,-33.75 -100,-33.333c-11.925,-3.875 -21.645,-10.821 -29.166,-20.833c-20.344,-7.804 -39.789,-16.834 -58.334,-27.084c-13.434,4.98 -26.628,10.538 -39.583,16.667c-11.76,-8.971 -23.566,-17.996 -35.417,-27.083c-6.329,-5.629 -11.884,-11.879 -16.666,-18.75c4.63,-4.629 7.408,-10.188 8.333,-16.667c-10.593,-32.954 -21.704,-65.592 -33.333,-97.917c0.969,-7.745 2.884,-23.237 2.884,-23.237l21.92,-191.149c10.329,-97.201 19.422,-194.489 27.279,-291.864c-44.111,-5.952 -87.861,-11.508 -131.25,-16.666l-33.333,-0c-3.029,25.819 -6.062,51.639 -9.102,77.461l-81.966,683.121Z"/></svg>