<?xml version="1.0" encoding="UTF-8" standalone="no"?><!DOCTYPE svg PUBLIC "-//W3C//DTD SVG 1.1//EN" "http://www.w3.org/Graphics/SVG/1.1/DTD/svg11.dtd"><svg fill="#a2a2a2" stroke="#fff" fill-rule="nonzero" stroke-width="20.83px" width="100%" height="100%" viewBox="0 0 1257 448" version="1.1" xmlns="http://www.w3.org/2000/svg" xmlns:xlink="http://www.w3.org/1999/xlink" xml:space="preserve" xmlnsSerif="http://www.serif.com/" style="fill-rule:evenodd;clip-rule:evenodd;stroke-linejoin:round;"><path id="tn1790" d="M957.1,53.158l-9.717,6.492l-129.308,10.483l-72.917,6.542l-42.45,5.867l-93.983,6.566l-58.667,2.642l-89.441,9.15l-108.242,10.467l-6.808,-3.884l-26.9,-0.3l5.216,33.05l-76.483,7.517l-125.75,9.508l-18.8,1.317l5.85,21.383l-12.308,11.034l5.2,11.983l-16.525,2.608l14.275,17.167l-7.45,7.783l-8.084,19.45l9.734,14.575l-12.959,1.634l7.467,13.283l-8.742,10.058l-23.975,10.392l6.175,15.55l-5.175,9.083l6.492,9.717l-15.55,6.175l-0.642,11.667l-10.033,12.325l-2.25,19.775l6.175,15.55l-1.933,13.941l-10.375,-2.908l-6.792,17.183l-11.008,8.759l156.208,-10.184l159.75,-11.158l-0.975,-3.567l99.817,-6.241l116.341,-8.85l165.925,-16.667l109.534,-12.733l81.341,-10.767l-1.333,-39.867l5.175,-9.083l22.358,-2.292l6.475,-11.35l3.55,-22.041l16.192,-17.842l21.708,-11.683l33.05,-5.217l33.334,-32.117l24.291,-16.225l12.959,-1.633l10.016,-33.417l10.375,2.909l4.2,-12.642l19.434,-12.983l9.733,14.575l11.983,-5.2l11.65,-20.425l26.567,-14.934l17.183,6.792l7.45,-7.783l10.992,-29.825l23.633,-25.625l-0.016,-21.067l6.791,-17.183l-35.325,3.916l-6.15,5.517l-127.358,17.608l-120.225,15.659l0.05,0.041Z"/></svg>