<?xml version="1.0" encoding="UTF-8" standalone="no"?><!DOCTYPE svg PUBLIC "-//W3C//DTD SVG 1.1//EN" "http://www.w3.org/Graphics/SVG/1.1/DTD/svg11.dtd"><svg fill="#a2a2a2" stroke="#fff" fill-rule="nonzero" stroke-width="20.83px" width="100%" height="100%" viewBox="0 0 1037 862" version="1.1" xmlns="http://www.w3.org/2000/svg" xmlns:xlink="http://www.w3.org/1999/xlink" xml:space="preserve" xmlnsSerif="http://www.serif.com/" style="fill-rule:evenodd;clip-rule:evenodd;stroke-linejoin:round;"><path id="wy1890" d="M993.517,489.333l14.45,-157.2l12.2,-137.425l6.1,-68.716l-94.317,-8.667l-98.858,-11.258l-96.592,-9.967l-112.8,-13.192l-139.375,-19.325l-111.5,-15.458l-138.083,-21.592l-102.109,-16.116l-15.475,90.433l-25.166,139.058l-19.025,112.475l-17.734,110.209l-15.158,84.6l-29.658,178.6l48.625,9.683l135.816,20.3l85.9,12.892l105.667,15.141l85.9,12.892l84.925,9.325l85.9,12.892l169.85,18.65l145.533,13.808l9.642,-90.758l9.625,-111.825l15.742,-159.5l-0.025,0.041Z"/></svg>