<?xml version="1.0" encoding="UTF-8" standalone="no"?><!DOCTYPE svg PUBLIC "-//W3C//DTD SVG 1.1//EN" "http://www.w3.org/Graphics/SVG/1.1/DTD/svg11.dtd"><svg fill="#a2a2a2" stroke="#fff" fill-rule="nonzero" stroke-width="20.83px" width="100%" height="100%" viewBox="0 0 755 577" version="1.1" xmlns="http://www.w3.org/2000/svg" xmlns:xlink="http://www.w3.org/1999/xlink" xml:space="preserve" xmlnsSerif="http://www.serif.com/" style="fill-rule:evenodd;clip-rule:evenodd;stroke-linejoin:round;"><path id="sc1776" d="M743.592,172.108l-116.1,-81.25l-75.584,-52.116l-5.833,-0.317l-158.142,24.117l-6.825,-24.95l-25.625,-23.634l-12.308,11.034l-9.733,-14.575l-102.409,10.783l-76.483,7.517l-38.233,14.291l-25.592,18.5l-9.4,0.659l-44.383,19.808l-4.2,12.642l-20.075,24.65l-2.25,19.775l5.516,6.15l30.8,14.558l19.134,13.917l23.333,1.275l7.467,13.283l9.733,14.575l7.15,19.117l24.65,20.075l6.175,15.55l35.342,17.15l19.133,13.916l11.683,21.709l25.284,8.416l19.133,13.917l1.317,18.8l17.183,6.792l3.9,14.258l11.033,12.308l38.909,16.175l7.15,19.117l11.033,12.308l8.442,16.834l2.291,22.358l28.534,13.267l7.783,7.45l8.125,22.683l6.492,9.717l1.316,18.8l14.275,17.166l9.4,-0.658l20.75,5.817l0.317,-5.834l19.75,-18.816l7.767,-13.617l-21.4,-15.217l3.883,-6.808l20.425,11.65l14.258,-3.9l13.917,-19.133l-7.467,-13.284l-14.916,-5.5l2.908,-10.375l19.45,8.084l12.967,-1.634l24.608,-22.058l20.408,-9.417l16.192,-17.841l1.933,-13.942l14.575,-9.733l16.509,-23.675l2.25,-19.775l13.941,1.933l15.55,-6.175l20.709,-36.317l3.525,-43.108l22.325,-44.417l20.391,-30.483l25.909,-24.333l0.025,-0.009Z"/></svg>