<?xml version="1.0" encoding="UTF-8" standalone="no"?><!DOCTYPE svg PUBLIC "-//W3C//DTD SVG 1.1//EN" "http://www.w3.org/Graphics/SVG/1.1/DTD/svg11.dtd"><svg fill="#a2a2a2" stroke="#fff" fill-rule="nonzero" stroke-width="20.83px" width="100%" height="100%" viewBox="0 0 2143 591" version="1.1" xmlns="http://www.w3.org/2000/svg" xmlns:xlink="http://www.w3.org/1999/xlink" xml:space="preserve" xmlnsSerif="http://www.serif.com/" style="fill-rule:evenodd;clip-rule:evenodd;stroke-linejoin:round;"><path id="nc1776" d="M898.342,499.892l77.775,-9.792l99.158,-15.642l44.383,-19.808l9.4,-0.658l25.592,-18.5l38.233,-14.292l76.484,-7.517l102.408,-10.783l9.733,14.575l12.309,-11.033l25.625,23.633l6.825,24.95l158.141,-24.117l5.834,0.317l75.583,52.117l116.1,81.25l45.358,-16.242l34.025,-1.65l6.475,-11.35l10.692,-2.925l-0.675,-30.467l3.225,-16.208l17.15,-35.342l17.483,-20.108l20.725,-15.25l14.892,-15.567l6.475,-11.35l41.142,-24.666l35.325,-3.917l11.333,-14.592l8.1,1.617l20.392,-30.483l-8.759,-11.009l-26.9,-0.3l-13.283,7.467l-14.892,15.567l-26.583,-6.134l24.95,-6.825l23.958,-31.458l-17.183,-6.792l23,-13.958l-3.9,-14.258l-29.167,-1.592l-33.416,-10.017l28.191,-1.966l16.209,3.225l-0.017,-21.067l14.275,17.167l8.417,-4.217l27.875,3.867l16.525,-2.609l28.475,-49.933l18.141,-10.708l1.934,-13.942l-4.559,-23.658l-14.275,-17.167l-11.35,-6.475l-15.216,21.4l5.533,27.217l-12.642,-4.2l-6.175,-15.55l1.275,-23.334l-22.358,2.292l-24.292,16.225l-13.941,-1.933l-11.009,8.758l-25.925,3.267l2.25,-19.775l23.334,1.275l14.891,-15.567l29.809,-10.075l21.05,-21.083l24.633,-0.992l-16.567,-39.525l-15.891,-9.058l-6.175,-15.55l0.016,-0.067l-48.608,11.383l-130.267,27.984l-88.783,18.55l-108.917,22.133l-118.275,22.792l-86.2,14.008l-84.9,11.742l-77.775,9.791l-59.95,4.917l-4.541,-2.592l0.016,0l-35.325,3.917l-6.15,5.517l-127.358,17.608l-120.225,15.658l0.05,0.042l-9.717,6.492l-129.308,10.483l-72.917,6.542l-42.45,5.866l-93.983,6.567l-58.667,2.642l-89.441,9.15l-108.242,10.466l-6.808,-3.883l-26.9,-0.3l5.216,33.05l-76.483,7.517l-125.75,9.508l-18.8,1.317l5.85,21.383l-12.308,11.033l5.2,11.984l-16.525,2.608l14.275,17.167l-7.45,7.783l-8.084,19.45l9.734,14.575l-12.959,1.633l7.467,13.284l-8.742,10.058l-23.975,10.392l6.175,15.55l-5.175,9.083l6.492,9.717l-15.55,6.175l-0.642,11.666l-10.033,12.325l-2.25,19.775l6.175,15.55l-1.933,13.942l-10.375,-2.908l-6.792,17.183l-11.008,8.758l156.208,-10.183l159.75,-11.158l-0.975,-3.567l99.817,-6.242l116.341,-8.85l165.925,-16.666l109.534,-12.734l81.341,-10.766l-0.016,-0Zm1172.49,-489.475l-7.133,1.95l-7.125,1.95l7.783,7.45l6.475,-11.35Z"/></svg>