<?xml version="1.0" encoding="UTF-8" standalone="no"?><!DOCTYPE svg PUBLIC "-//W3C//DTD SVG 1.1//EN" "http://www.w3.org/Graphics/SVG/1.1/DTD/svg11.dtd"><svg fill="#a2a2a2" stroke="#fff" fill-rule="nonzero" stroke-width="20.83px" width="100%" height="100%" viewBox="0 0 1116 1169" version="1.1" xmlns="http://www.w3.org/2000/svg" xmlns:xlink="http://www.w3.org/1999/xlink" xml:space="preserve" xmlnsSerif="http://www.serif.com/" style="fill-rule:evenodd;clip-rule:evenodd;stroke-linejoin:round;"><path id="mi1836" d="M641.225,445l3.883,-6.808l-2.291,-22.359l-7.125,1.95l-6.134,26.584l11.667,0.641l0,-0.008Zm238.142,-116.883l-16.209,-3.225l0.659,9.4l-16.192,17.841l16.208,3.225l18.8,-1.316l10.034,-12.325l-13.3,-13.6Zm-125.834,-53.692l-7.45,7.783l-13.3,-13.6l-20.408,9.417l-31.125,-8.725l1.917,-35.008l-4.217,-8.417l-21.067,0.017l-36.283,21.425l-42.133,0.033l-29.809,10.075l-6.808,-3.883l-14.892,15.566l-26.566,14.934l-15.217,21.4l-15.892,-9.059l-14.575,9.734l-13.3,-13.6l-12.958,1.633l-19.117,7.15l-15.233,0.333l-6.175,-15.55l-10.375,-2.908l-18.492,-25.592l-6.491,-9.716l-20.425,-11.65l-35.009,-1.917l-14.258,3.9l-5.517,-6.15l-17.483,20.108l-12.958,1.634l2.566,-25.609l-12.658,-25.25l-12.642,-4.2l-7.466,-13.283l-24.609,22.058l-8.083,19.45l-20.092,3.584l-11.333,14.591l-19.433,12.984l-50.875,10.091l-23.634,25.625l-49.241,23.05l1.95,7.125l20.75,5.817l15.908,30.125l128.367,28.083l38.908,16.175l24.308,4.842l11.984,-5.2l26.583,6.133l19.775,2.25l9.083,5.175l6.825,24.95l22.042,3.542l14.592,11.333l2.625,37.592l-8.084,19.45l29.167,1.592l-5.817,20.75l-0.641,11.666l16.866,12.625l5.5,-14.916l22.325,-44.417l7.109,-23.017l10.675,-23.991l9.716,-6.492l3.55,-22.042l9.084,5.175l1.633,12.967l15.55,-6.175l11.967,-26.258l9.075,5.175l12.308,-11.034l2.608,16.525l-8.416,4.217l-8.084,19.45l12.642,4.2l9.383,-21.725l18.142,-10.708l13.267,-28.534l21.383,-5.85l51.85,-6.525l12.942,-22.7l25.925,-3.266l42.791,9.358l25.625,23.633l13.942,1.934l-2.608,-16.525l5.816,-20.75l27.875,3.866l54.775,4.167l15.55,-6.175l-20.108,-17.483l0.642,-11.667l-32.417,-6.45l7.45,-7.783l-4.875,-17.825l15.233,-0.334l-8.441,-16.833l3.225,-16.208l-10.375,-2.909l-14.575,9.734l-15.234,0.333l-6.475,11.35l-0.025,0.025Zm-422.091,-135.433l-10.059,-8.742l-28.191,1.967l-19.117,7.15l-27.858,17.2l-17.8,25.941l-0.959,17.5l11.667,0.642l14.933,26.567l18.442,-37.609l39.825,-43.466l15.233,-0.334l3.884,-6.808l-0,-0.008Zm-104.15,-128.575l-15.55,6.175l-25.592,18.491l-32.717,20.45l-11.008,8.759l9.733,14.575l21.709,-11.684l1.616,-8.1l30.125,-15.908l12.309,-11.033l9.383,-21.725l-0.008,-0Zm590.2,1127.72c-0,0 93.008,-12.291 180.5,-26.408l3.225,-16.208l15.85,-33.075l8.416,-4.217l3.525,-43.108l1.617,-8.1l7.767,-13.617l20.725,-15.25l-1.967,-28.192l4.2,-12.641l12.625,-16.867l11.35,6.475l1.317,18.8l8.416,-4.217l7.767,-13.616l1.275,-23.334l-4.217,-8.416l5.475,-35.984l0.009,-0.066l-9.734,-14.575l-12.341,-31.1l-6.509,-30.784l-7.466,-13.283l-13.659,-49.9l-10.708,-18.142l-17.842,-16.191l-17.183,-6.792l-19.433,12.983l-20.409,9.417l-14.241,24.967l-9.7,27.558l-8.1,-1.617l-12.942,22.7l-31.125,-8.725l-7.783,-7.45l-1.967,-28.191l5.5,-14.917l5.175,-9.083l16.525,-2.609l12.308,-11.033l4.5,-39.542l19.434,-12.983l3.225,-16.208l-4.892,-38.884l1.933,-13.941l-11.05,-33.334l-17.841,-16.191l1.933,-13.942l15.55,-6.175l-5.2,-11.983l-11.033,-12.309l1.616,-8.1l-16.866,-12.625l-23.334,-1.275l-21.725,-9.383l-13.616,-7.767l-21.067,0.017l-17.517,-22.025l-12.641,-4.2l-20.092,3.583l-15.892,-9.058l-25.283,-8.417l-21.708,11.684l-15.217,21.4l0.017,21.066l13.3,13.6l-0.642,11.667l-18.8,1.317l-17.167,14.275l-6.791,17.183l4.558,23.658l-2.892,31.442l-14.591,-11.333l-2.892,31.441l-10.375,-2.908l4.525,-18.475l-3.9,-14.258l3.883,-6.809l-3.9,-14.258l-18.458,16.542l-9.383,21.725l-11.35,-6.475l-7.767,13.616l-5.833,-0.316l-4.184,33.708l-14.258,3.9l-5.175,9.083l4.875,17.825l2.625,37.592l-17.467,41.175l-11.333,14.592l11.683,21.708l2.942,31.758l-6.792,17.184l-1.933,13.941l6.175,15.55l37.983,75.834l10.392,23.975l4.575,44.725l-1.258,44.4l-11.634,41.491l-12.941,22.7l-11.309,35.659l-12.941,22.7l-17.167,14.275l78.75,-6.225l126.083,-15.342l70.65,-7.842l0.659,9.4Zm-0,0l180.5,-26.408l33.341,9.95l-211.998,32.33l-1.843,-15.872Z"/></svg>