<?xml version="1.0" encoding="UTF-8" standalone="no"?><!DOCTYPE svg PUBLIC "-//W3C//DTD SVG 1.1//EN" "http://www.w3.org/Graphics/SVG/1.1/DTD/svg11.dtd"><svg fill="#a2a2a2" stroke="#fff" fill-rule="nonzero" stroke-width="20.83px" width="100%" height="100%" viewBox="0 0 667 663" version="1.1" xmlns="http://www.w3.org/2000/svg" xmlns:xlink="http://www.w3.org/1999/xlink" xml:space="preserve" xmlnsSerif="http://www.serif.com/" style="fill-rule:evenodd;clip-rule:evenodd;stroke-linejoin:round;"><path id="wv1863" d="M404.925,153.192l-142.917,23.783l-28.341,-166.558l-20.725,15.25l16.541,18.458l-4.2,12.642l7.467,13.283l-5.5,14.917l-5.475,35.983l0.992,24.633l-8.417,25.284l0.675,30.466l-21.05,21.084l-9.058,15.891l-12.309,11.034l-21.708,11.683l-12.642,-4.2l-8.741,10.058l-0.642,11.667l-14.258,3.9l-6.792,17.183l1.008,45.7l-8.416,4.217l-24.967,-14.242l-6.15,5.517l-13.9,40.2l5.217,33.05l-10.692,2.925l-3.867,27.875l-23.975,10.392l-11.666,-0.642l6.508,30.783l-4.525,18.475l24.983,35.309l10.059,8.741l5.2,11.984l12.325,10.033l6.491,9.717l15.892,9.058l12.325,10.033l23.333,1.275l-1.933,13.942l9.733,14.575l19.134,13.917l5.833,0.316l21.725,9.384l12.967,-1.634l24.933,-27.891l19.133,13.916l13.284,-7.466l26.241,-9.1l8.742,-10.059l1.933,-13.941l16.209,3.225l25.591,-18.492l12.642,4.2l22.025,-17.517l-2.925,-10.691l8.742,-10.059l-11.034,-12.308l7.109,-23.017l23.3,-40.858l6.45,-32.417l15.216,-21.4l-0.333,-15.233l9.058,-15.892l1.592,-29.166l12.642,4.2l9.733,14.575l31.442,2.891l10.358,-18.158l3.55,-22.042l15.192,-42.466l17.183,6.791l13.267,-28.533l10.691,-2.925l27.184,-47.667l-3.584,-20.091l5.175,-9.084l1.275,-23.333l78.467,41.75l5.475,-35.983l-1.633,-12.959l-11.034,-12.308l-9.083,-5.175l-8.442,-16.833l-11.983,5.2l-24.967,-14.242l-10.691,2.925l-7.767,13.617l-19.117,7.15l-3.225,16.208l-14.258,3.9l-24.308,-4.842l-6.492,-9.716l-10.675,23.991l-9.058,15.892l-14.917,-5.5l-11.65,20.425l-37.233,38.925l-14.984,-89.758l0.017,-0Z"/></svg>