<?xml version="1.0" encoding="UTF-8" standalone="no"?><!DOCTYPE svg PUBLIC "-//W3C//DTD SVG 1.1//EN" "http://www.w3.org/Graphics/SVG/1.1/DTD/svg11.dtd"><svg fill="#a2a2a2" stroke="#fff" fill-rule="nonzero" stroke-width="20.83px" width="100%" height="100%" viewBox="0 0 6882 2049" version="1.1" xmlns="http://www.w3.org/2000/svg" xmlns:xlink="http://www.w3.org/1999/xlink" xml:space="preserve" style="fill-rule:evenodd;clip-rule:evenodd;stroke-linejoin:round;"><path id="cn1846" d="M4413.55,619.382l-4.302,16.897l-5.655,4.204l-17.628,3.446l-4.199,-6.362l22.638,-21.044l9.146,2.859Zm-208.682,-128.489l25.367,-0.593l34.388,30.458l13.969,27.549l-9.178,4.188l-21.132,-0.798l-23.209,-9.265l-16.204,-0.071l-42.232,-9.349l-10.543,-5.685l12.083,-23.91l36.691,-12.524Zm146.525,-474.39l2.718,22.566l-9.913,11.233l-7.731,-4.263l3.576,-11.966l-1.341,-15.511l12.691,-2.059Zm-76.145,12.351l-4.972,9.14l-17.697,18.952l-9.845,-4.273l4.991,-13.369l9.91,-10.528l17.613,0.078Zm23.343,-21.042l23.193,12.789l-1.496,19.728l-6.356,3.496l-6.5,35.916l-7.113,15.474l-14.091,-0.062l0.028,-6.343l8.566,-25.335l-9.162,0.665l-15.683,41.514l-13.361,-5.698l15.68,-40.809l12.055,-17.567l11.964,2.872l2.276,-36.64Zm1644.52,1089.13l4.317,-20.42l9.19,-7.007l12.697,-3.468l13.349,8.516l14.084,1.472l19.075,-11.897l2.08,7.762l26.762,2.232l8.495,-9.125l30.338,-9.733l31.66,10.007l4.985,-11.96l8.482,-6.306l21.292,-35.146l11.877,22.606l11.26,2.869l17.619,-1.332l0.745,-9.159l9.181,-4.893l20.375,12.776l9.153,1.45l0.664,9.166l-9.898,7.709l-2.16,10.562l28.231,-11.152l16.915,-1.335l-5,15.484l-23.287,8.355l-1.456,10.565l-15.536,8.389l-3.567,9.852l-15.518,4.16l-3.572,11.261l-39.603,33.656l-2.154,9.153l-10.574,1.363l-6.394,11.953l-12.011,7.7l-0.044,9.867l-9.158,-0.04l-6.379,8.429l-19.059,8.374l-2.145,7.038l-12.7,4.173l0.67,7.756l-16.893,-3.599l12.61,16.266l-0.028,6.343l-14.124,7.691l-11.254,-4.279l-11.294,4.884l-6.279,-14.124l-11.282,2.065l-2.169,12.677l-8.48,5.601l-7.815,14.766l6.977,15.536l-8.628,39.431l-6.403,14.068l-11.319,10.522l4.875,12.708l-6.359,4.201l-7.843,21.109l-7.042,-0.736l-11.329,12.637l-8.454,-0.038l3.46,14.112l-8.507,11.944l-17.657,9.789l-13.364,-4.992l-4.168,-13.41l-18.957,-14.885l-1.462,11.976l-15.518,4.16l-11.195,-17.669l-2.048,-14.81l-10.518,-11.324l0.785,-18.321l-2.045,-15.515l3.588,-14.785l11.366,-21.093l-9.864,-0.044l9.246,-19.694l39.681,-51.275l2.846,-6.331l21.968,-28.8l11.325,-11.931l16.959,-11.202l10.642,-16.868l3.448,16.93l17.585,6.421l4.305,-17.601l23.327,-17.517l7.794,-9.833l23.283,-7.65l-15.477,-5.002l-31.049,11.14l-11.987,2.061l-21.884,9.771l-5.664,6.318l-19.022,-0.084l-7.076,7.017l-1.45,9.156l-21.154,4.135l3.612,-20.423l13.455,-15.446l12.8,-26.726l0.052,-11.982l7.791,-9.128Zm275.286,-276.476l6.288,12.009l17.613,0.078l9.019,31.755l-0.866,36.646l11.238,7.803l-7.868,26.747l-5.67,7.728l-2.217,23.249l-12.014,8.405l2.762,12.698l-8.494,9.125l9.121,8.498l6.387,-10.544l21.149,-2.726l-2.772,-10.584l16.354,-33.758l-22.638,21.044l-7.728,-4.968l9.928,-14.757l-3.479,-9.882l5.733,-21.824l7.11,-14.769l19.708,4.315l7.071,-5.607l21.129,1.503l6.304,8.485l-1.453,9.861l8.445,2.152l1.369,9.168l-7.099,11.951l-13.414,6.284l8.424,7.085l-8.498,9.83l-0.739,7.749l-10.63,14.049l-25.459,21.737l-3.511,-2.835l-23.985,6.942l-8.501,10.535l-9.149,-2.155l-9.196,8.417l-17.554,-13.469l-11.881,-21.901l-12.604,-17.676l2.185,-16.2l9.945,-18.281l2.914,-21.836l3.573,-11.261l2.343,-52.145l6.381,-9.135l4.361,-30.287l10.565,0.752Zm-300.052,141.045l-2.852,7.741l30.94,13.527l-0.056,12.686l9.131,6.384l7.752,-0.671l-3.454,-15.521l5.652,-3.499l30.301,-1.275l15.481,4.297l21.871,-6.952l36.028,-21.69l35.996,-14.642l11.98,-0.652l-11.357,18.98l-12.005,6.29l-5.024,21.122l-13.393,1.351l2.077,8.466l16.169,7.824l-5.661,5.614l2.769,11.289l-19.768,9.075l-17.591,-5.011l-2.079,-7.762l-10.534,-7.799l-11.272,-0.05l-7.806,12.652l-38.762,2.648l-18.991,-7.132l-4.199,-6.362l-13.377,-2.173l-17.647,7.675l-3.445,-17.635l-15.465,-7.821l-12.707,5.582l-5.611,-5.663l5.739,-23.233l0.05,-11.277l10.661,-21.097l12.619,14.152l-2.16,10.562Zm-816.964,410.113l-10.664,21.802l-12.691,2.059l14.184,-21.082l9.171,-2.779Zm7.654,21.883l-4.284,12.668l-16.911,0.63l-0.671,-7.756l8.495,-9.125l2.157,-9.858l12.03,-11.928l-0.816,25.369Zm183.523,-237.413l-6.322,-4.257l13.48,-21.084l4.888,9.889l-12.046,15.452Zm471.152,-596.297l18.311,1.49l50.766,-8.938l38.756,-1.239l8.438,3.562l34.519,0.857l17.57,9.945l11.98,-0.652l7.026,4.259l30.308,-2.685l28.801,19.157l-8.523,15.468l-7.048,0.673l-29.652,13.966l-25.36,-0.817l-15.518,4.16l-38.759,1.944l-19.705,-5.021l-29.593,0.574l-10.503,-14.847l-14.056,-7.815l-16.89,-4.303l-48.603,-2.329l-9.842,-4.977l2.85,-7.035l24.727,-15.397Zm-1.193,749.198l10.5,15.552l-10.593,5.592l-5.621,-3.549l0.77,-14.797l4.944,-2.798Zm66.177,-467.696l-2.89,16.198l-11.256,-3.574l0.741,-8.454l13.405,-4.17Zm-5297.27,-40.291l-0.041,9.162l6.297,9.895l-13.407,4.875l-1.332,-17.626l8.483,-6.306Zm-203.068,-123.531l-13.367,-4.288l4.286,-13.373l9.159,0.041l-0.078,17.62Zm165.58,-2.794l7.656,21.178l-3.538,3.508l-16.828,-18.399l-4.127,-22.571l16.837,16.284Zm-196.159,-92.49l4.159,15.524l-4.305,17.601l-7.058,2.789l-8.42,-7.79l-6.288,-12.01l5.686,-11.252l-3.482,-9.177l19.022,0.084l0.686,4.231Zm156.278,29.587l-2.045,-15.515l11.989,-2.766l-0.77,14.797l-9.174,3.484Zm-16.192,-2.891l-7.65,-22.587l2.176,-14.087l7.067,-4.902l6.291,11.305l-7.803,11.947l-0.081,18.324Zm-52.987,-126.393l-12.015,8.405l-23.187,-14.199l21.176,-9.069l11.27,0.755l2.756,14.108Zm-133.568,-66.841l25.962,24.078l5.586,11.302l12.604,17.675l32.309,22.696l22.464,18.424l8.448,1.447l18.972,11.361l10.515,12.028l16.154,11.348l13.374,2.878l10.518,11.323l-1.53,27.481l6.263,17.648l-0.059,13.391l16.051,34.606l-7.101,12.655l3.42,23.273l5.624,2.844l11.201,16.26l15.465,7.821l14.743,12.047l4.885,10.593l9.134,5.679l-1.462,11.975l9.13,6.384l1.357,11.987l-4.256,6.325l9.755,24.711l-3.647,28.176l12.657,5.694l1.998,26.087l-8.473,4.191l-4.894,-8.479l-15.556,12.618l-9.152,-1.45l-8.411,-9.905l-9.848,-3.567l-36.486,-33.992l-21.775,-14.897l-9.801,-14.139l-20.351,-18.414l-4.879,-12.004l19.761,-7.665l7.092,-10.541l-14.767,-6.408l-8.47,3.486l-10.53,-8.504l-14.116,5.576l-8.407,-10.609l-6.279,-14.123l8.526,-16.173l-6.977,-15.537l-11.983,1.357l-3.42,-23.274l4.258,-7.029l-19.724,-0.792l-11.244,-6.392l-10.577,2.067l-3.495,-6.358l8.554,-22.516l11.989,-2.766l0.752,-10.569l-9.836,-6.387l4.33,-23.239l-9.134,-5.679l-17.619,1.332l-16.177,-6.415l-3.466,-12.701l11.338,-14.751l-18.315,-0.786l-5.565,-16.235l-11.26,-2.869l0.038,-8.457l-16.239,7.681l-6.294,-10.6l14.128,-8.395l-2.743,-16.927l-7.738,-2.854l10.633,-14.754l27.446,7.17l3.563,-9.147l-23.96,1.304l-19.718,-2.202l-9.093,-14.841l-4.873,-13.412l1.518,-24.662l31.006,-1.272l16.179,5.709Zm29.938,-78.805l-8.476,4.896l-8.398,-12.724l1.499,-20.432l16.242,-8.386l1.322,19.74l-2.189,16.906Zm20.783,-79.551l-2.16,10.562l-14.162,16.148l-3.57,10.557l-9.155,-0.746l5.701,-14.775l-2.048,-14.81l8.495,-9.125l16.899,2.189Zm12.731,-11.221l-9.196,8.417l-11.952,-5.691l7.781,-7.014l13.367,4.288Zm-34.565,9.715l-2.051,-14.105l8.491,-8.42l6.332,2.142l-4.28,11.963l-8.492,8.42Zm5.77,-30.281l-7.806,12.652l-16.16,-9.939l9.9,-8.414l14.066,5.701Zm28.175,1.534l-0.767,14.093l-14.078,-2.882l-0.667,-8.46l8.482,-6.306l7.03,3.555Zm45.698,22.05l-19.743,3.437l-8.476,4.896l-10.636,15.459l-17.62,1.332l7.12,-16.884l9.92,-12.642l30.325,-6.915l11.304,-6.998l16.204,0.072l-1.459,11.27l-16.939,6.973Zm-94.112,-67.371l-0.065,14.801l-11.996,4.175l5.019,-19.712l7.042,0.736Zm18.368,-11.196l-1.481,16.204l-7.771,4.899l-11.906,-16.263l4.979,-10.55l16.179,5.71Zm-240.448,-114.534l15.459,9.231l-5.67,7.728l-11.936,-9.216l2.147,-7.743Zm241.006,147.662l2.912,-21.131l9.283,-28.151l7.703,10.606l-5.745,24.643l-14.153,14.033Zm-37.764,-63.598l5.558,17.644l-4.271,9.848l-10.552,-3.57l-4.857,-16.937l-1.316,-21.15l5.671,-7.727l9.767,21.892Zm59.021,36.205l2.918,-22.541l8.426,6.381l-11.344,16.16Zm-65.067,-103.188l3.461,14.111l-9.178,4.188l-0.63,-16.918l6.347,-1.381Zm-223.061,-63.007l47.185,4.437l-7.825,16.881l-8.47,3.486l-12.663,-4.284l-6.424,19.001l7.014,7.079l-2.918,22.541l14.711,19.094l-2.216,23.249l16.189,3.595l-0.066,14.801l-12.721,9.106l-12.607,-16.971l-8.246,-47.258l-10.49,-17.666l-0.655,-11.28l-9.776,-19.777l9.978,-26.034Zm286.376,84.43l-0.795,20.436l-7.853,23.224l-17.737,28.113l-11.962,-3.576l7.831,-18.291l15.581,-18.256l-7.735,-3.558l-11.375,23.208l-14.103,2.757l-6.989,-12.717l0.131,-29.601l3.572,-11.261l11.297,-5.589l11.394,-27.436l13.358,6.402l4.876,12.708l10.509,13.437Zm-43.644,-8.65l-13.345,-9.221l4.984,-11.96l15.534,-7.684l-7.173,28.865Zm29.702,-25.242l-16.899,-2.189l0.031,-7.048l18.399,-18.243l2.026,19.743l-3.557,7.737Zm-106.172,-48.395l29.584,1.54l6.179,36.677l-3.56,8.442l-14.767,-6.408l-4.124,-23.277l-6.987,-13.422l-6.325,-3.552Zm121.809,17.453l-8.445,-2.152l-21.893,11.885l9.962,-22.509l10.59,-4.887l19.013,2.198l-9.227,15.465Zm-80.27,-10.926l32.992,27.633l-26.121,11.866l-2.045,-15.515l-6.989,-12.717l2.163,-11.267Zm6497.98,479.042l3.457,14.817l-8.451,-0.743l4.994,-14.074Zm-10.934,-76.871l29.634,-9.737l0.661,9.871l-26.812,9.044l-3.483,-9.178Zm-112.62,-183.745l9.134,5.678l-4.978,10.55l-12.024,10.519l-6.297,-9.895l7.117,-16.179l7.048,-0.673Zm-255.717,-166.757l6.276,14.828l16.943,-7.678l-7.021,-5.669l13.445,-13.332l9.87,-1.366l4.81,27.508l-6.35,2.087l1.353,12.692l-17.619,1.332l-12.71,6.287l4.147,18.343l12.011,-7.699l13.383,0.763l4.863,15.527l-1.515,23.957l-5.075,32.398l1.36,11.283l-4.287,13.373l0.652,11.984l-5.019,19.712l2.703,26.09l-7.88,29.567l6.3,9.19l1.316,21.15l-4.258,7.029l16.89,4.303l7.902,-34.5l4.938,-1.388l0.102,-23.258l7.139,-21.112l9.845,4.272l37.306,7.917l9.913,-11.233l3.482,9.178l-6.409,15.477l-6.369,6.316l-2.173,13.381l2.75,15.518l37.268,16.375l0.056,-12.686l29.706,-25.947l7.709,9.197l-2.874,12.673l6.974,16.242l12.023,-10.519l23.318,-15.403l3.672,-33.814l10.555,2.865l2.067,10.582l16.959,-11.202l14.162,-16.148l35.931,0.158l26.039,6.458l-0.838,30.303l-9.926,14.052l0.671,7.756l-8.483,6.306l14.007,19.091l-4.252,5.62l10.524,9.914l6.413,-16.183l7.023,4.965l-10.652,18.983l11.285,-2.77l26.064,0.82l-0.595,-24.671l6.347,-1.381l11.946,7.101l2.899,-18.313l7.784,-7.718l7.023,4.965l4.122,23.981l-5.001,15.484l-14.118,6.281l1.362,10.578l-9.211,11.941l-3.579,12.67l-11.279,1.36l-14.134,9.805l8.411,9.904l18.355,-8.376l9.835,6.386l1.285,28.198l-1.487,17.613l30.248,10.706l0.811,-23.96l-4.907,-5.66l2.213,-22.544l-0.618,-19.737l7.8,-11.242l9.184,-5.598l1.468,-13.385l8.454,0.037l-2.955,30.999l2.781,8.469l-1.493,19.023l5.602,7.778l-2.179,14.791l21.074,14.189l10.006,-32.376l-6.232,-24.696l9.864,0.044l10.521,10.618l4.174,12l7.036,2.145l2.694,28.204l-3.545,4.918l6.214,28.925l5.599,8.482l7.606,32.454l-2.911,21.132l-9.907,9.823l-9.829,-7.796l-9.873,2.071l-8.551,21.811l-7.743,-1.444l-4.87,-14.117l-7.715,-7.787l-0.661,-9.87l-8.42,-7.79l2.213,-22.544l-7.036,-2.146l-8.607,34.498l-9.991,28.852l-12.697,3.468l-7.647,-23.292l-2.573,-55.691l-6.958,-19.765l-27.349,-29.017l-12.687,1.353l-5.876,54.244l1.331,17.626l-8.451,-0.742l-9.919,12.643l-9.873,2.07l-4.302,16.897l-0.084,19.029l4.171,12.705l-6.378,8.429l1.341,15.512l-11.332,13.341l-16.213,2.043l-3.554,7.032l-16.943,7.678l-10.565,-0.751l-6.309,-7.076l3.597,-16.899l14.134,-9.805l14.15,-13.329l8.557,-23.221l-4.845,-19.756l2.859,-9.149l16.977,-15.431l4.975,-9.845l-7.02,-5.67l-13.43,9.808l-31.002,0.568l-4.277,11.258l9.845,4.272l2.051,14.106l-13.423,8.398l-5.615,-4.958l-8.504,11.239l-26.778,1.291l11.341,-15.455l-18.25,-15.586l-10.63,14.049l-4.28,11.962l-11.313,9.113l-25.4,8.345l-2.89,16.198l-21.139,0.612l-9.897,7.709l-21.84,-0.097l-19.057,7.669l-4.261,7.734l-11.965,-2.872l-9.18,4.893l-23.265,3.422l-9.203,9.826l-6.341,-0.028l-21.905,14.704l-14.147,12.624l-13.407,4.875l-14.147,12.624l-19.022,-0.084l-6.257,-19.057l-16.154,-11.349l5.735,-22.528l14.895,-22.488l13.532,-33.066l0.751,-10.568l7.111,-14.77l-1.375,-7.759l-18.321,0.624l-9.904,9.119l-19.77,9.78l-12.678,-0.761l13.488,-23.199l4.898,7.775l15.503,-0.637l7.082,-8.426l-4.86,-16.232l2.216,-23.249l-4.146,-18.343l2.151,-8.448l23.321,-16.107l-2.061,-11.991l-14.767,-6.409l-6.238,-23.285l7.135,-20.408l6.375,-7.725l-7.687,-14.13l1.015,-70.476l-5.434,-45.836l2.933,-26.064l-5.605,-7.073l10.618,-11.23l7.852,-23.224l-6.281,-13.419l4.255,-6.324l-2.759,-13.404l4.252,-5.619l-5.577,-13.416l1.462,-11.975l12.067,-20.386l24.081,-28.791l12.061,-18.976Zm-2115.02,1434.8l8.395,13.428l14.832,-8.392l8.498,-9.829l16.238,-7.682l3.489,7.769l15.462,8.525l2.877,-13.378l11.307,-7.703l6.294,10.6l15.475,5.707l16.157,10.643l-14.227,30.948l-20.431,-0.09l-16.192,-2.891l-16.865,-9.941l-11.276,0.655l-23.209,-9.265l-26.073,1.295l-28.129,-12.106l25.401,-8.346l11.977,0.053Zm-45.813,4.027l4.202,5.657l-8.495,9.125l-11.241,-7.098l4.972,-9.14l10.562,1.456Zm-75.226,-36.277l19.717,2.201l6.319,4.962l-10.664,21.802l-15.428,-16.279l0.056,-12.686Zm-166.884,-180.461l-12.005,6.29l-19.026,0.621l5.686,-11.251l11.282,-2.065l14.063,6.405Zm-212.227,-123.572l-4.252,5.62l-15.509,2.046l-10.533,-7.799l12.011,-7.7l16.912,-0.63l1.371,8.463Zm688.665,-393.764l-14.751,-9.932l-9.786,-17.663l2.893,-16.903l-3.479,-9.882l13.448,-14.037l11.675,68.417Zm1842.36,-636.058l-7.061,3.493l-9.823,-9.206l-28.991,23.835l-7.747,-0.739l-11.385,25.323l-16.977,15.431l-19.739,2.732l-10.658,20.392l1.341,15.512l-15.571,16.141l10.421,33.172l-11.288,3.474l-2.868,11.264l-12.749,15.45l-4.358,29.582l-16.26,12.615l-2.868,11.264l6.309,7.076l-14.155,14.738l-9.153,-1.45l-9.202,9.827l-12.698,3.468l-6.374,7.724l-15.528,6.275l-10.568,-0.047l-4.975,9.846l-9.159,-0.041l-9.202,9.827l-12.694,2.763l-29.004,26.655l-16.155,-11.349l-31.741,8.318l-11.263,-2.164l-8.482,6.306l-35.27,9.711l-26.819,10.454l-3.56,8.442l-15.536,8.389l-14.799,0.639l-11.964,-2.872l-22.579,7.654l-11.316,9.817l-8.467,2.782l-21.136,-0.094l-11.316,9.818l-21.176,9.069l-33.135,4.787l-36.731,21.687l-17.62,1.332l-15.583,18.961l-16.931,4.858l-7.017,-6.374l-9.202,9.827l1.371,8.464l-7.774,5.604l-3.579,12.67l-14.156,14.739l-1.512,23.251l-7.054,2.084l0.564,31.718l5.546,20.464l-6.424,19.001l-29.65,13.261l-4.959,6.321l-11.987,2.061l-14.124,7.691l0.611,21.147l-11.304,6.998l-5.617,-4.254l-17.716,23.18l3.464,13.407l-11.999,4.881l-12.781,22.497l-6.363,4.905l-0.099,22.554l-7.061,3.492l-0.081,18.325l-7.163,26.751l-13.486,22.494l-11.999,4.88l-21.086,-11.369l-14.112,4.871l-23.215,-7.855l-5.649,2.794l-29.587,-0.835l2.775,9.879l23.28,-6.945l18.309,2.195l13.364,4.993l11.999,-4.881l9.857,1.453l7.718,7.082l13.38,1.469l-0.084,19.029l-4.37,32.402l-17.042,30.231l0.642,14.099l-20.5,15.415l-2.228,26.068l-5.727,20.414l-18.402,18.948l-14.916,27.421l-1.446,8.452l-9.209,11.236l-9.879,3.48l-18.377,13.31l-17.625,2.742l-12.756,16.859l-14.131,9.1l-0.053,11.981l-16.267,14.024l-9.233,16.875l-20.478,10.482l-12.024,10.519l0.643,14.098l-11.307,7.703l-5.767,29.577l-13.492,23.903l-16.235,6.977l-6.369,6.315l-9.959,21.805l-12.747,14.744l14.044,10.634l-16.949,9.088l-2.85,7.035l-12.023,10.519l-11.329,12.637l-1.446,8.451l-14.867,16.145l-14.804,2.049l-33.237,28.045l-43.253,62.537l-6.4,13.363l-26.136,15.39l-18.389,16.129l-19.053,6.964l-14.845,11.211l-11.338,14.751l-11.22,-12.031l-1.493,19.023l13.38,1.469l9.829,7.796l-17.678,14.723l-11.977,-0.053l-14.755,-9.228l-11.998,4.881l-13.343,-9.926l-27.536,13.27l-35.276,11.121l-19.779,11.894l-10.568,-0.047l-44.476,20.243l-22.675,29.502l-9.87,1.366l-9.211,11.941l-0.755,11.274l-12.086,24.614l10.522,10.619l14.789,1.475l21.846,-1.314l13.439,-11.922l11.282,-2.065l2.715,23.271l4.888,9.889l12.654,6.399l-2.151,8.448l-12.011,7.7l-11.263,-2.165l-23.973,4.124l-18.355,8.376l-7.74,-2.148l-48.002,20.932l-17.712,22.475l0.683,4.937l35.235,-1.959l-0.723,4.226l-26.064,-0.82l-14.811,3.458l-43.656,-5.831l-28.904,4.102l-12.703,4.877l-16.264,13.32l-21.254,26.688l-4.997,14.779l-5.661,5.613l-13.398,2.761l-28.275,21.019l-14.897,23.193l-8.427,-6.381l-19.77,9.78l-8.46,1.372l-22.508,-8.557l0.14,-31.715l12.713,-6.992l17.603,2.192l14.808,-2.754l18.346,-6.262l-1.316,-21.15l-17.616,0.627l5.723,-19.709l0.165,-37.354l5.704,-15.48l20.485,-11.891l12.06,-18.977l11.307,-7.703l12.061,-18.976l0.081,-18.325l-5.537,-22.578l-4.075,-34.553l-6.256,-19.057l6.39,-11.249l2.924,-23.95l7.809,-13.357l8.485,-7.01l8.573,-26.745l-4.832,-22.575l-9.823,-9.206l-0.652,-11.984l-11.94,-8.511l-16.135,-15.576l-2.073,-9.172l28.907,-4.806l0.642,14.099l7.675,16.949l13.334,12.04l13.398,-2.76l-0.068,15.506l9.872,-2.071l5.602,7.777l-2.892,16.903l15.565,-14.732l11.986,-2.062l5.583,12.006l15.475,5.707l20.422,2.205l14.776,4.294l7.791,-9.128l-2.018,-21.858l-12.65,-7.104l-1.372,-8.464l14.131,-9.1l9.811,12.025l12.681,0.056l-12.576,-24.019l-9.86,-0.748l-14.733,-14.161l2.868,-11.264l-13.352,-7.812l6.403,-14.068l-9.82,-9.91l-16.244,9.091l-10.515,-12.028l-1.359,-11.283l-14.755,-9.228l-14.038,-12.043l-6.275,-14.829l-21.794,-10.668l-35.245,4.073l-33.802,-3.673l4.271,-9.848l-43.699,4.036l-29.584,-1.54l-8.436,-4.266l-24.693,7.643l-4.211,-3.542l-25.394,6.936l-25.357,-1.522l-35.906,-5.797l-7.762,2.785l-20.41,-5.023l-19.022,-0.084l-6.294,-10.6l2.877,-13.379l-8.448,-1.446l-26.825,11.863l-9.832,-7.092l1.446,-8.451l10.63,-14.049l-13.311,-16.974l14.103,-2.757l2.855,-8.445l-7.728,-4.968l-21.84,-0.096l-10.555,-2.866l1.505,-21.842l10.671,-23.211l-13.318,-15.565l-19.686,-9.249l-11.928,-11.329l0.77,-14.798l7.095,-11.245l-4.19,-8.477l7.794,-9.832l-9.128,-7.089l-31.729,5.499l-12.709,6.287l-29.59,-0.131l-11.257,-3.573l-22.445,-22.653l-17.461,-34.612l-5.543,-21.169l-19.621,-24.05l-9.888,5.595l-14.758,-8.523l-9.901,8.414l-19.01,-2.903l-22.566,4.834l-16.164,-9.234l-7.058,2.789l-12.647,-7.809l-24.64,-4.338l-7.02,-5.669l-23.259,2.012l6.961,19.06l9.134,5.679l2.058,12.695l-7.812,14.062l-20.466,7.662l8.57,-26.039l-4.879,-12.004l-7.039,-1.44l-8.501,10.534l-0.09,20.439l-5.646,2.09l-0.065,14.8l-7.129,18.998l-11.983,1.357l2.228,-26.068l-29.652,13.965l-5.661,5.614l2.756,14.108l-10.001,30.967l-9.174,3.484l-13.454,15.446l-35.934,0.546l-9.106,-12.022l-9.858,-1.453l-31.731,6.203l-23.951,-0.81l-5.565,-16.235l-7.746,-0.739l-31.105,23.826l-14.113,4.871l-13.379,-1.468l-11.245,-6.393l-6.992,-12.013l-17.595,-4.306l-8.389,-14.838l-10.562,-1.456l-13.41,5.579l-7.095,11.245l-13.964,-28.958l-16.207,0.633l4.988,-12.664l-21.819,-5.03l-9.137,-4.974l-25.356,-1.521l-16.934,5.563l-3.554,7.033l-23.972,4.123l-11.201,-16.26l-32.402,-1.553l-7.713,-8.492l-14.804,2.05l-10.556,-2.866l-11.222,-11.327l0.065,-14.8l-9.006,-34.575l-2.036,-17.629l-14.053,-8.52c-0,0 -16.198,-1.481 -16.198,-1.481l0.486,49.338l-1.418,2.109l-138.795,0.092l-100.037,-1.851l-78.897,-2.463l-99.323,-3.962l-142.283,-7.676c-0,0 -135.934,-9.762 -135.934,-9.762l-138.034,-12.591l-79.578,-8.104l-78.869,-8.806l-98.581,-12.416l-78.864,-10.215l-78.857,-11.625l-87.305,-13.072l-147.842,-25.32l-117.563,-21.663l-95.732,-19.452l-137.96,-29.506l-135.132,-31.608l-96.418,-23.683l-77.41,-20.077l-95.701,-26.499l-95.698,-27.205l-122.429,-36.485l-14.016,-16.977l-20.372,-13.482l7.095,-11.245l-4.19,-8.476l13.576,-42.933l-23.973,4.123l-2.163,11.267l-8.47,3.487l-29.465,-28.322l-4.153,-16.934l7.806,-12.652l9.882,-4.185l-7.703,-10.606l-12.704,4.878l-20.409,-5.024l-19.578,-33.917l22.691,-33.026l-4.164,-14.114l-21.093,-9.96l-9.155,-0.745l-0.633,-16.214l-18.954,-15.589l-12.691,2.058l-16.192,-2.89l-6.974,-16.241l-11.992,3.471l-23.2,-11.379l9.193,-7.713l-0.658,-10.575l17.601,2.897l4.954,-4.912l-9.826,-8.5l0.068,-15.506l-16.884,-5.713l-9.869,1.366l-3.461,-14.111l-9.162,0.664l-12.619,-14.151l-19.072,11.192l-7.005,-9.193l-20.35,-18.415l-5.587,-11.301l7.812,-14.062l-11.97,-1.462l-8.396,-13.428l2.151,-8.448l26.785,-2.701l-12.648,-7.809l4.262,-7.734l12.709,-6.287l7.812,-14.062l19.739,-2.732l23.222,6.446l26.011,12.801l1.422,-2.813l-30.223,-16.344l-24.64,-4.337l-14.745,-11.342l-0.05,11.276l-14.172,18.263l-9.155,-0.745l0.798,-21.141l-2.769,-11.289l5.72,-19.004l8.508,-11.944l14.792,0.77l9.934,-16.167l35.975,-9.708l15.552,-11.913l-0.636,-15.509l-20.428,-0.795l-5.664,6.318l-29.609,4.099l-12.601,-18.381l2.22,-23.953l-20.522,20.348l-4.885,-10.593l12.008,-6.995l3.582,-13.376l18.414,-21.767l3.579,-12.671l-12.691,2.059l-11.238,-7.803l-1.378,-7.054l7.914,-37.32l-9.102,-12.726l-8.368,-19.771l6.422,-18.297l-2.787,-7.06l16.927,-4.154l2.176,-14.087l7.818,-15.471l-41.595,6.16l-10.673,23.916l-9.879,3.48l3003.59,-29.033l-5.711,16.89l-9.227,15.465l29.636,-10.442l4.904,6.365l19.755,-6.256l14.832,-8.392l152.128,11.948l34.503,4.381l27.433,9.988l8.461,-1.372c0,0 18.262,12.767 18.262,12.767l7.011,7.784l11.952,5.691l15.434,14.869l27.427,11.398l32.203,46.659l11.93,10.625l14.063,6.405l29.568,5.064l6.347,-1.382l49.221,22.066l31.679,5.779l18.984,8.541l21.754,19.83l23.922,7.154l3.489,7.768l14.094,-0.642l27.457,4.35l30.345,-11.143l11.974,0.757l11.31,-8.407l14.068,4.995l21.831,2.211l21.136,0.093l15.518,-4.16l10.565,0.751l9.823,9.206l10.59,-4.887l17.604,2.192l16.862,10.647l4.832,22.575l5.608,6.368l-3.687,37.338l-5.057,28.17l2.722,21.86l6.294,10.6l11.934,9.92l15.35,33.898l-3.656,30.291l9.757,24.006l5.549,19.759l-9.202,9.826l-1.477,15.5l2.023,20.448l17.576,8.535l11.93,10.625l8.386,15.542l9.137,4.974l11.217,12.736l14.053,8.52l1.322,19.74l-12.033,12.633l19.739,-2.732l12.622,13.447l21.803,8.554l15.484,3.592l6.993,12.013l13.361,5.697l18.948,16.999l10.468,22.6l8.423,7.085l3.451,16.226l-12.014,8.404l-9.938,16.872l4.202,5.657l11.363,-20.39l10.608,-9.115l24.649,2.223l35.146,18.48l4.9,7.07c0,-0 18.96,14.179 18.96,14.179l-0.689,-3.527l-11.675,-68.417l-5.586,-11.301l15.58,-18.257l9.147,2.86l0.639,14.804l11.291,-4.179l24.593,14.909l5.686,-11.252l-3.442,-18.34l-12.659,-4.989l-10.494,-16.962l13.427,-9.103l-6.986,-13.422l11.3,-6.293l0.757,-11.979l9.197,-8.417l2.175,-14.086l-4.177,-11.295l2.865,-10.56l-4.857,-16.936l-10.546,-4.98l-16.139,-14.872l-0.627,-17.623l-4.879,-12.003l-9.841,-4.977l-11.189,-19.079l2.905,-19.722l-8.348,-24l-5.596,-9.187l-11.248,-5.688l13.427,-9.104l-11.946,-7.1l1.459,-11.271l-4.898,-7.774l1.468,-13.385l-16.054,-33.901l-8.424,-7.085l-11.967,-2.167l0.034,-7.753l-11.949,-6.396l-11.843,-30.359l0.025,-5.638l-14.733,-14.161l14.143,-11.919l38.842,-20.973l5.677,-9.137l35.332,-23.808l16.288,-18.957l26.177,-24.553l8.529,-16.878l24.817,-35.835l7.812,-14.061l-4.916,-3.546l7.101,-12.655l21.341,-46.423l1811.41,-8.922l-4.953,4.912l0.651,11.985l-10.633,14.754l-2.868,11.264l-9.19,7.007l-17.073,37.279l-4.302,16.897l-7.809,13.356c-0,0 -9.888,5.595 -9.888,5.595Zm-640.239,755.541l9.872,-2.071l26.161,-21.029l14.069,4.996l28.876,2.242l14.1,-2.052l9.137,4.974l10.503,14.847l7.728,4.968l12.005,-6.291l6.4,-13.363l11.325,-11.931l14.838,-9.802l5.609,6.368l12.715,-7.697l16.878,7.123l-10.689,27.44l5.596,9.187l0.583,27.49l-24.116,36.543l45.152,-13.897l6.285,12.714l-4.296,15.487l8.399,12.724l17.582,7.125l4.866,14.822l16.834,16.99l2.064,11.286l14.758,8.523l23.283,-7.65l12.657,5.694l10.599,-7.001l20.434,-0.615l-4.286,13.372l-14.112,4.872l4.894,8.479c0,-0 -9.19,7.007 -9.19,7.007l-4.317,20.42l-9.14,-4.269l-2.179,14.791l-16.208,0.634l-4.987,12.664l-1.49,18.318l-11.288,3.475l-7.101,12.655l-24.057,23.152l-15.605,23.894l-27.595,26.661l-14.77,-5.704l-8.47,3.487l-0.773,15.502l-17.697,18.952l-9.128,-7.088l-19.109,19.65l-16.204,-0.072l-6.999,-10.603l-14.845,11.212l-13.37,-3.583l-8.489,7.715l-16.154,-11.348l0.068,-15.506l-10.518,-11.323l4.261,-7.734l-4.177,-11.295l-14.814,4.163l-9.851,-2.862l-15.45,-11.345l-5.533,-23.283l-46.585,-140.461l-20.359,-16.3l-26.716,-12.805l-9.864,-0.043l-4.978,10.55l-14.112,4.871l-7.089,9.836l-9.882,4.185l-11.316,9.818l-17.576,-8.536l-4.153,-16.933l-16.902,-1.484l-2.837,4.216l-38.557,116.122l5.462,39.493l-8.501,10.534l-2.915,21.836l6.304,8.486l-3.57,10.556l2.07,9.876l7.713,8.492l-9.252,21.103l3.488,7.769l-14.159,15.443l-5.692,12.661l0.639,14.804l-7.806,12.652l2.769,11.289l-17.614,-0.078l-8.522,15.468l-15.494,-1.478l-7.085,9.131l-2.26,33.116l-74.066,20.112l-102.277,27.036l-123.43,30.467l20.494,-14.006l4.28,-11.963l21.214,-17.526l9.168,-2.074l11.35,-17.57l15.574,-16.846l12.688,-1.354l3.557,-7.737l-4.187,-9.181l3.569,-10.556l-0.614,-20.442l10.643,-16.869l4.36,-30.287l8.473,-4.191l7.803,-11.947l17.654,-9.085l2.864,-10.559l12.061,-18.977l18.377,-13.31l3.594,-16.194l15.547,-10.504l11.347,-16.865l12.672,2.17l33.225,-25.226l9.935,-16.166l15.533,-7.685l4.963,-7.026l29.696,-23.832l9.237,-17.579l9.295,-30.971l8.501,-10.534l0.767,-14.093l14.206,-26.015l13.544,-35.885l3.622,-22.537l9.193,-7.713l15.649,-33.761l16.316,-25.301l7.058,-2.788l13.464,-17.561l2.858,-9.149l8.483,-6.306l9.932,-15.462l18.383,-14.72l29.028,-32.292l9.885,-4.89l23.34,-20.337l35.382,-35.084l31.099,-22.416l27.529,-11.86l25.428,-14.689l53.597,-11.745l33.808,2.264l23.92,7.858l20.388,9.957l-4.274,10.554l-21.84,-0.097l28.829,12.814l14.755,9.227l-7.098,11.951l8.442,2.856l-6.419,17.592l-16.955,10.497l-10.627,13.344l-0.782,17.617l-10.603,7.706l-4.267,9.144l-20.534,23.167l-12.706,5.583l-7.732,-4.263l-27.479,0.583l-18.293,-5.719l-7.825,16.881l-16.216,2.747l-21.173,8.365l-0.031,7.048c-0,-0 -23.324,16.812 -23.324,16.812Z"/></svg>