<?xml version="1.0" encoding="UTF-8" standalone="no"?><!DOCTYPE svg PUBLIC "-//W3C//DTD SVG 1.1//EN" "http://www.w3.org/Graphics/SVG/1.1/DTD/svg11.dtd"><svg fill="#a2a2a2" stroke="#fff" fill-rule="nonzero" stroke-width="20.83px" width="100%" height="100%" viewBox="0 0 639 1028" version="1.1" xmlns="http://www.w3.org/2000/svg" xmlns:xlink="http://www.w3.org/1999/xlink" xml:space="preserve" xmlnsSerif="http://www.serif.com/" style="fill-rule:evenodd;clip-rule:evenodd;stroke-linejoin:round;"><path id="fl1821" d="M474.06,379.325l-10.375,-2.908l-8.742,10.058l4.242,29.492l10.033,-12.325l4.842,-24.309l0,-0.008Zm-427.9,-72.592l12.642,4.2l12.008,15.867l29.492,-4.242l12.325,10.034l5.85,21.383l13.3,13.6l8.1,1.617l4.241,29.491l2.967,52.825l-13.242,49.6l6.175,15.55l-6.433,53.484l8.1,1.616l22.375,18.775l7.125,-1.95l4.842,-24.308l-4.217,-8.417l-19.45,-8.083l3.225,-16.208l14.917,5.5l20.425,11.65l8.416,-4.217l9.417,20.408l-20.392,30.484l-2.25,19.775l-13.283,7.466l3.9,14.259l13.617,7.766l3.583,20.092l40.233,56.033l12.009,15.867l20.75,5.817l6.133,-26.584l14.592,11.334l1.65,34.025l11.366,27.541l20.425,11.65l12.959,-1.633l3.583,20.092l4.217,8.416l9.75,35.642l25.941,17.8l-2.908,10.375l22.358,-2.292l28.85,7.425l14.592,11.334l25.642,44.7l13.958,23l11.35,6.475l19.775,2.25l10.058,8.741l-2.908,10.375l-23.017,-7.108l-12.325,-10.033l-2.25,19.775l17.842,16.191l28.517,-7.8l8.741,-10.058l24.309,4.842l18.775,-22.375l26.9,0.3l1.933,-13.942l12.625,-16.867l-8.125,-22.683l1.275,-23.333l7.108,-23.017l6.15,-5.517l-1.316,-18.8l7.45,-7.783l-1.65,-34.025l-1.334,-39.867l-4.258,-50.558l2.592,-4.542l-9.434,-41.475l-10.075,-29.808l-17.2,-27.858l-5.833,-0.317l-37.65,-60.575l-11.367,-27.542l-78.858,-120.175l-16.567,-39.525l-6.491,-9.716l-8.125,-22.684l19.45,8.084l0.016,21.066l25.925,-3.266l7.15,19.116l-1.275,23.334l2.942,31.758l7.125,-1.95l-7.483,-34.35l6.475,-11.35l-7.15,-19.117l-72.667,-83.583l-56.142,-86.158l-15.591,-35.959l-37.35,-87.475l-2.609,-16.525l-11.683,-21.708l-2.942,-31.758l-10.375,-2.909l0.092,0.067l-32.733,-0.617l-34.684,-7.75l-9.4,0.659l-9.058,15.891l0.333,15.234l8.759,11.008l-0.942,38.567l-17.825,4.875l-7.783,-7.45l-9.1,-26.242l-79.787,5.573l-2.298,5.398c4.166,6.944 9.722,12.5 16.666,16.666l0,16.667c-5.378,7.564 -13.017,11.731 -22.916,12.5c-15.424,-6.391 -31.396,-8.474 -47.917,-6.25c-7.513,2.653 -13.068,7.514 -16.667,14.583c2.526,9.206 5.304,18.234 8.334,27.084c21.196,4.261 38.557,14.677 52.083,31.25c6.111,41.917 1.25,82.195 -14.583,120.833l-4.882,4.679Z"/></svg>