<?xml version="1.0" encoding="UTF-8" standalone="no"?><!DOCTYPE svg PUBLIC "-//W3C//DTD SVG 1.1//EN" "http://www.w3.org/Graphics/SVG/1.1/DTD/svg11.dtd"><svg fill="#a2a2a2" stroke="#fff" fill-rule="nonzero" stroke-width="20.83px" width="100%" height="100%" viewBox="0 0 466 783" version="1.1" xmlns="http://www.w3.org/2000/svg" xmlns:xlink="http://www.w3.org/1999/xlink" xml:space="preserve" xmlnsSerif="http://www.serif.com/" style="fill-rule:evenodd;clip-rule:evenodd;stroke-linejoin:round;"><path id="in1816" d="M391.942,19.817l-0.659,-9.4l-70.65,7.841l-126.083,15.342l-78.75,6.225l-22.025,17.517l-34.667,13.316l-18.475,-4.525l-14.591,-11.333l15.716,183.417l9.492,104.675l11.142,138.7l-10.034,12.325l2.609,16.525l-8.742,10.058l14.933,26.567l5.517,6.15l0.333,15.233l9.417,20.408l-5.5,14.917l-7.45,7.783l-6.792,17.184l3.242,4.858l-13.6,13.3l1.95,7.125l-11.65,20.425l-14.258,3.9l-6.792,17.183l10.058,8.742l-12.308,11.033l-2.908,10.375l4.575,44.725l13.941,1.934l5.175,-9.075l0.959,-17.5l13.616,7.766l17.825,-4.875l11.35,6.475l6.475,-11.35l16.834,-8.441l50.25,22.641l4.525,-18.475l30.45,-21.741l12.008,15.866l30.783,-6.508l-2.608,-16.525l13.917,-19.133l19.116,-7.15l1.634,12.958l13.616,7.767l22.042,3.55l11.983,-5.2l5.175,-9.075l0.3,-26.9l9.059,-15.892l6.808,3.883l14.575,-9.733l3.55,-22.042l11.008,-8.758l15.217,-21.4l-8.125,-22.683l0.317,-5.834l25.925,-3.266l11.35,6.475l24.291,-16.225l24.95,-6.825l2.25,-19.775l-13.941,-1.934l5.5,-14.916l-6.492,-9.717l5.175,-9.083l-16.992,-160.092l-15.025,-131.892l-13.05,-103.7l-8.816,-74.208l0.05,0.017Z"/></svg>