<?xml version="1.0" encoding="UTF-8" standalone="no"?><!DOCTYPE svg PUBLIC "-//W3C//DTD SVG 1.1//EN" "http://www.w3.org/Graphics/SVG/1.1/DTD/svg11.dtd"><svg fill="#a2a2a2" stroke="#fff" fill-rule="nonzero" stroke-width="20.83px" width="100%" height="100%" viewBox="0 0 773 832" version="1.1" xmlns="http://www.w3.org/2000/svg" xmlns:xlink="http://www.w3.org/1999/xlink" xml:space="preserve" xmlnsSerif="http://www.serif.com/" style="fill-rule:evenodd;clip-rule:evenodd;stroke-linejoin:round;"><path id="wi1848" d="M760.083,281.242l-10.358,18.158l-11.983,5.2l-4.525,18.475l-7.767,13.617l-5.5,14.916l7.467,13.284l9.083,5.175l7.767,-13.617l4.525,-18.475l13.583,-34.367l-2.292,-22.358l0,-0.008Zm-442.916,-204.442l-19.775,-2.25l-22.7,-12.942l-5.175,9.084l-13.284,7.466l3.209,-37.275l10.358,-18.158l-11.033,-12.308l-14.259,3.9l-19.75,18.816l-12.641,-4.2l-22.025,17.517l-48.925,17.217l-20.092,3.583l-19.133,-13.917l-10.359,18.159l-10.691,2.925l2.358,106.625l-8.742,10.058l-42.083,21.1l-9.7,27.558l-12.308,11.034l0.991,24.633l16.209,3.225l12.983,19.433l-9.7,27.559l-2.25,19.775l2.608,16.525l-6.15,5.516l5.534,27.217l-5.159,30.142l30.167,26.225l24.308,4.841l16.542,18.459l24.308,4.841l20.109,17.484l14.933,26.566l24.65,20.075l15.233,-0.333l15.892,9.058l17.842,16.192l7.8,28.517l1.983,49.258l8.125,22.683l12.642,4.2l2.925,10.692l-10.675,23.992l8.141,43.75l12.342,31.1l11.35,6.475l35.983,5.475l9.417,20.408l-0.317,5.833l118.617,-7.558l141.917,-6.283l119.908,-9.825l-4.242,-29.492l1.617,-8.1l-0.017,-21.067l-8.758,-11.008l-1.633,-12.958l-9.734,-14.575l2.909,-10.375l-6.509,-30.784l2.25,-19.775l6.792,-17.183l-0.017,-21.067l10.675,-23.991l-5.85,-21.384l-1.316,-18.8l8.725,-31.125l10.033,-12.325l6.475,-11.35l-8.442,-16.833l4.5,-39.542l12.292,-32.1l3.542,-22.041l-16.867,-12.625l-16.833,8.441l-7.45,7.784l-13.267,28.533l-17.167,14.275l-15.55,6.175l6.45,-32.417l13.267,-28.533l2.908,-10.375l21.709,-11.683l2.25,-19.775l-16.867,-12.625l0.642,-11.667l5.816,-20.75l-29.166,-1.592l8.083,-19.45l-2.625,-37.591l-14.592,-11.334l-22.041,-3.541l-6.825,-24.95l-9.084,-5.175l-19.775,-2.25l-26.583,-6.134l-11.983,5.2l-24.309,-4.841l-38.908,-16.175l-128.367,-28.084l-15.908,-30.125l-20.75,-5.816l-1.95,-7.125l-0.008,-0.042Z"/></svg>