<?xml version="1.0" encoding="UTF-8" standalone="no"?><!DOCTYPE svg PUBLIC "-//W3C//DTD SVG 1.1//EN" "http://www.w3.org/Graphics/SVG/1.1/DTD/svg11.dtd"><svg fill="#a2a2a2" stroke="#fff" fill-rule="nonzero" stroke-width="20.83px" width="100%" height="100%" viewBox="0 0 1067 1258" version="1.1" xmlns="http://www.w3.org/2000/svg" xmlns:xlink="http://www.w3.org/1999/xlink" xml:space="preserve" xmlnsSerif="http://www.serif.com/" style="fill-rule:evenodd;clip-rule:evenodd;stroke-linejoin:round;"><path id="wi1838" d="M1053.7,707.65l-10.358,18.158l-11.984,5.2l-4.525,18.475l-7.766,13.617l-5.5,14.917l7.466,13.283l9.084,5.175l7.766,-13.617l4.525,-18.475l13.584,-34.366l-2.292,-22.359l-0,-0.008Zm-356.042,-467.733c10.105,-6.852 16.152,-16.551 28.269,-19.421c2.496,-6.76 5.274,-13.01 8.334,-18.75l-0,-25c-19.374,4 -39.513,4 -60.417,0c-2.101,-26.798 -0.712,-53.187 4.167,-79.167c-5.638,-4.938 -10.499,-10.494 -14.584,-16.666c-9.933,-2.128 -18.266,-6.295 -25,-12.5l-12.5,-0c-2.642,6.028 -7.503,8.806 -14.583,8.333c-8.974,-3.134 -18.001,-3.828 -27.083,-2.083c-8.15,14.497 -20.65,21.442 -37.5,20.833c-3.57,2.871 -6.347,6.344 -8.334,10.417c-50.084,13.875 -93.14,38.181 -129.166,72.916c-9.625,2.07 -19.347,2.764 -29.167,2.084l-0,8.333l-0.377,1.687l-19.117,7.15l1.633,12.967l-10.691,2.925l-20.125,-38.55l-21.067,0.017l6.792,-17.184l-28.85,-7.425l-11.35,-6.475l-32.734,-0.616l-24.95,6.825l-5.175,9.083l-30.783,6.508l-15.25,-20.725l-43.108,-3.525l-11.034,-12.308l-20.091,3.583l-12.642,-4.2l-15.567,-14.891l-1.316,-18.8l-12.684,-46.334l-0.991,-24.633l-18.159,-10.358l-22.041,-3.55l1.033,66.75c-0,-0 -0.959,37.058 -0.959,59.816l0,220.834c35.151,-9.289 70.568,-9.289 106.25,-0c11.391,-4.553 22.502,-4.553 33.333,-0c2.507,12.927 10.146,21.26 22.917,25c7.142,-4.619 9.92,-1.841 8.333,8.333c8.197,0.998 15.836,-0.391 22.917,-4.167c3.127,2.608 6.599,4.691 10.417,6.25c11.104,13.704 22.215,27.592 33.333,41.667c-4.947,4.248 -9.113,9.109 -12.5,14.583c5.991,10.765 4.602,20.487 -4.167,29.167c-16.541,6.833 -29.041,17.944 -37.5,33.333c-3.942,-2.029 -8.108,-3.417 -12.5,-4.166c-8.856,5.358 -18.578,8.829 -29.166,10.416c-10.488,18.867 -24.377,34.842 -41.667,47.917c-5.947,12.637 -4.558,24.442 4.167,35.417c-4.706,16.995 -5.401,34.354 -2.084,52.083c4.811,5.179 10.366,9.346 16.667,12.5c-0.519,23.471 7.12,43.608 22.917,60.417c22.698,11.595 46.309,21.32 70.833,29.166c7.639,7.638 15.278,15.279 22.917,22.917c1.868,24.792 15.062,37.292 39.583,37.5c-0.675,8.446 0.019,16.779 2.083,25c8.118,2.537 15.757,5.317 22.917,8.333l8.609,1.742l30.167,26.225l24.308,4.842l16.542,18.458l24.308,4.842l20.108,17.483l14.934,26.567l24.65,20.075l15.233,-0.334l15.892,9.059l17.841,16.191l7.8,28.517l1.984,49.258l8.125,22.684l12.641,4.2l2.925,10.691l-10.675,23.992l8.142,43.75l12.342,31.1l11.35,6.475l35.983,5.475l9.417,20.408l-0.317,5.834l118.617,-7.559l141.916,-6.283l119.909,-9.825l-4.242,-29.492l1.617,-8.1l-0.017,-21.066l-8.758,-11.009l-1.634,-12.958l-9.733,-14.575l2.908,-10.375l-6.508,-30.783l2.25,-19.775l6.792,-17.184l-0.017,-21.066l10.675,-23.992l-5.85,-21.383l-1.317,-18.8l8.725,-31.125l10.034,-12.325l6.475,-11.35l-8.442,-16.834l4.5,-39.541l12.292,-32.1l3.541,-22.042l-16.866,-12.625l-16.834,8.442l-7.45,7.783l-13.266,28.533l-17.167,14.275l-15.55,6.175l6.45,-32.416l13.267,-28.534l2.908,-10.375l21.708,-11.683l2.25,-19.775l-16.866,-12.625l0.641,-11.667l5.817,-20.75l-29.167,-1.591l8.084,-19.45l-2.625,-37.592l-14.592,-11.333l-22.042,-3.542l-6.825,-24.95l-9.083,-5.175l-19.775,-2.25l-26.583,-6.133l-11.984,5.2l-24.308,-4.842l-38.908,-16.175l-128.367,-28.083l-15.908,-30.125l-20.75,-5.817l-1.95,-7.125l-0.009,-0.042l-19.775,-2.25l-22.7,-12.941l-5.175,9.083l-13.283,7.467l3.208,-37.275l10.359,-18.159l-11.034,-12.308l-14.258,3.9l-19.75,18.817l-12.642,-4.2l-22.025,17.516l-48.925,17.217l-20.091,3.583l-19.134,-13.916l-0.066,-0.05l0.316,-5.834l36.6,-27.258l34.65,-34.383l58.917,-71.675l28.175,-23.034l29.15,-19.475l53.783,-20.466l60.575,-37.65Z"/></svg>